<svg width="73" height="60" viewBox="0 0 73 60" fill="none" xmlns="http://www.w3.org/2000/svg">
<path d="M13.6428 29.7158C13.7975 17.2593 23.9198 7.17475 36.3452 7.17475C43.5428 7.17475 49.9666 10.5583 54.1295 15.828C55.729 13.963 57.3167 12.1168 58.8318 10.3508C53.3649 4.0341 45.3112 0.0328369 36.3452 0.0328369C19.907 0.0328369 6.53418 13.4773 6.53418 30.0034C6.53418 33.2195 7.04311 36.3201 7.98122 39.2249C9.84338 36.0961 11.7759 32.8493 13.6428 29.7158Z" fill="#090909"/>
<path d="M59.0471 30.3079C58.8852 42.755 48.763 52.8324 36.3446 52.8324C29.1493 52.8324 22.7255 49.4489 18.5627 44.1838C16.9632 46.0489 15.3754 47.8951 13.8604 49.6611C19.3296 55.9754 27.3809 59.9743 36.3446 59.9743C52.7828 59.9743 66.1556 46.5299 66.1556 30.0037C66.1556 26.79 65.649 23.6941 64.7133 20.7916C62.8488 23.9228 60.9162 27.172 59.0494 30.3079H59.0471Z" fill="#FA0959"/>
<path d="M32.7442 27.6505C31.0978 29.5697 28.9918 32.0266 26.6582 34.7476L31.581 43.2948C31.846 43.7593 32.0735 44.1601 32.2376 44.4478C32.2564 44.4808 32.2752 44.5091 32.2963 44.5374L35.6524 50.3801C35.8916 50.3895 36.1308 50.3966 36.37 50.3966C38.917 50.3966 41.3538 49.9203 43.6029 49.055L46.1851 44.5539L72.7033 0L39.2407 38.9587L32.7442 27.6481V27.6505Z" fill="#FA0959"/>
<path d="M39.959 32.3495C41.6054 30.4302 43.7115 27.9733 46.0451 25.2523L41.1223 16.7051C40.8573 16.2407 40.6298 15.8398 40.4656 15.5522C40.4469 15.5192 40.4281 15.4885 40.407 15.4626L37.0532 9.62454C36.8257 9.61746 36.5982 9.60803 36.3708 9.60803C33.8027 9.60803 31.3448 10.0937 29.0816 10.9732L26.5158 15.4437L0 59.9999L33.4626 21.0412L39.959 32.3518V32.3495Z" fill="#090909"/>
</svg>
