<svg width="301" height="84" viewBox="0 0 301 84" fill="none" xmlns="http://www.w3.org/2000/svg">
<path d="M127.398 57.0784C123.302 57.0784 119.811 55.6495 116.93 52.7945C114.049 49.9394 112.631 46.4306 112.631 42.2322C112.631 38.0338 114.049 34.5222 116.93 31.6699C119.811 28.8149 123.299 27.386 127.398 27.386C131.497 27.386 134.985 28.8121 137.866 31.6699C140.747 34.525 142.165 38.0338 142.165 42.2322C142.165 46.4306 140.744 49.9422 137.866 52.7945C134.985 55.6495 131.497 57.0784 127.398 57.0784ZM127.398 50.7146C129.752 50.7146 131.698 49.9394 133.281 48.3478C134.864 46.7561 135.673 44.7176 135.673 42.2294C135.673 39.7413 134.861 37.7028 133.281 36.1111C131.7 34.5195 129.752 33.7443 127.398 33.7443C125.044 33.7443 123.057 34.5195 121.474 36.1111C119.891 37.7028 119.12 39.7413 119.12 42.2294C119.12 44.7176 119.891 46.7561 121.474 48.3478C123.057 49.9394 125.044 50.7146 127.398 50.7146Z" fill="white"/>
<path d="M174.641 27.9583V56.5087H168.149V39.9081L160.806 52.0206H160.076L152.734 39.9081V56.5087H146.242V27.9583H152.734L160.441 40.6418L168.149 27.9583H174.641Z" fill="white"/>
<path d="M197.572 56.5087L196.153 52.0234H185.606L184.185 56.5087H177.084L186.739 27.9583H195.015L204.67 56.5087H197.569H197.572ZM187.552 45.905H194.205L190.877 35.4227L187.552 45.905Z" fill="white"/>
<path d="M223.956 27.9583V34.2393H216.654V56.5087H210.163V34.2393H202.861V27.9583H223.958H223.956Z" fill="white"/>
<path d="M233.792 50.2276H245.151V56.5087H227.3V27.9583H244.948V34.2393H233.792V38.9702H243.933V45.1685H233.792V50.2248V50.2276Z" fill="white"/>
<path d="M252.352 52.8359C249.553 49.9808 248.173 46.4334 248.173 42.2322C248.173 38.031 249.553 34.4836 252.352 31.6699C255.151 28.8149 258.682 27.386 262.941 27.386C268.011 27.386 272.637 29.9155 275.112 33.9926L269.515 37.2559C268.258 35.0132 265.822 33.7471 262.943 33.7471C260.427 33.7471 258.399 34.5222 256.899 36.0725C255.398 37.6228 254.668 39.6613 254.668 42.2322C254.668 44.8031 255.398 46.8417 256.899 48.3919C258.399 49.9422 260.427 50.7173 262.943 50.7173C265.824 50.7173 268.34 49.3712 269.515 47.2085L275.112 50.4718C272.678 54.5516 268.093 57.0784 262.941 57.0784C258.679 57.0784 255.151 55.6495 252.352 52.8359Z" fill="white"/>
<path d="M294.262 27.9583H300.754V56.5087H294.262V45.1713H285.337V56.5087H278.845V27.9583H285.337V38.8902H294.262V27.9583Z" fill="white"/>
<path d="M19.5963 41.9106C19.81 24.7064 33.7903 10.7783 50.9515 10.7783C60.8925 10.7783 69.7646 15.4514 75.5141 22.7297C77.7232 20.1538 79.9161 17.6039 82.0086 15.1648C74.4581 6.44061 63.3348 0.914307 50.9515 0.914307C28.2481 0.914307 9.77832 19.483 9.77832 42.3079C9.77832 46.7498 10.4812 51.0321 11.7769 55.0441C14.3488 50.7227 17.0179 46.2385 19.5963 41.9106Z" fill="white"/>
<path d="M82.3071 42.729C82.0836 59.9201 68.1033 73.8385 50.9519 73.8385C41.0141 73.8385 32.142 69.1654 26.3925 61.8936C24.1834 64.4695 21.9905 67.0193 19.8979 69.4585C27.4517 78.1794 38.5718 83.7025 50.9519 83.7025C73.6553 83.7025 92.125 65.1338 92.125 42.3089C92.125 37.8703 91.4254 33.5945 90.1329 29.5857C87.5578 33.9103 84.8887 38.3978 82.3103 42.729H82.3071Z" fill="white"/>
<path d="M45.9779 39.0573C43.704 41.7081 40.7952 45.1014 37.5723 48.8594L44.3713 60.6643C44.7373 61.3058 45.0515 61.8594 45.2783 62.2567C45.3042 62.3023 45.3301 62.3414 45.3592 62.3805L49.9945 70.4501C50.3249 70.4632 50.6553 70.4729 50.9857 70.4729C54.5034 70.4729 57.8689 69.8151 60.9753 68.62L64.5416 62.4033L101.167 0.868164L54.9504 54.6756L45.9779 39.0541V39.0573Z" fill="#FA0959"/>
<path d="M55.9429 45.5473C58.2168 42.8965 61.1256 39.5032 64.3486 35.7452L57.5496 23.9403C57.1835 23.2988 56.8693 22.7452 56.6426 22.3479C56.6167 22.3023 56.5908 22.2599 56.5616 22.2241L51.9296 14.161C51.6154 14.1512 51.3012 14.1382 50.987 14.1382C47.4401 14.1382 44.0454 14.809 40.9196 16.0237L37.376 22.1981L0.753906 83.7364L46.9704 29.929L55.9429 45.5505V45.5473Z" fill="white"/>
</svg>
