<svg width="193" height="60" viewBox="0 0 193 60" fill="none" xmlns="http://www.w3.org/2000/svg">
<path d="M87.4129 38.9154C84.9412 38.9154 82.8354 38.0533 81.0971 36.3306C79.3588 34.608 78.5029 32.4909 78.5029 29.9577C78.5029 27.4245 79.3588 25.3058 81.0971 23.5848C82.8354 21.8622 84.9396 21 87.4129 21C89.8863 21 91.9905 21.8605 93.7287 23.5848C95.467 25.3074 96.3229 27.4245 96.3229 29.9577C96.3229 32.4909 95.4654 34.6097 93.7287 36.3306C91.9905 38.0533 89.8863 38.9154 87.4129 38.9154ZM87.4129 35.0757C88.8334 35.0757 90.0071 34.608 90.9624 33.6476C91.9176 32.6873 92.406 31.4573 92.406 29.956C92.406 28.4548 91.916 27.2248 90.9624 26.2644C90.0088 25.3041 88.8334 24.8364 87.4129 24.8364C85.9925 24.8364 84.7939 25.3041 83.8387 26.2644C82.8834 27.2248 82.4182 28.4548 82.4182 29.956C82.4182 31.4573 82.8834 32.6873 83.8387 33.6476C84.7939 34.608 85.9925 35.0757 87.4129 35.0757Z" fill="#090909"/>
<path d="M115.918 21.3455V38.5718H112.001V28.5556L107.571 35.8639H107.13L102.7 28.5556V38.5718H98.7832V21.3455H102.7L107.351 28.9983L112.001 21.3455H115.918Z" fill="#090909"/>
<path d="M129.753 38.5718L128.897 35.8655H122.534L121.676 38.5718H117.392L123.217 21.3455H128.21L134.036 38.5718H129.752H129.753ZM123.707 32.1739H127.722L125.714 25.8493L123.707 32.1739Z" fill="#090909"/>
<path d="M145.673 21.3455V25.1353H141.268V38.5718H137.351V25.1353H132.945V21.3455H145.675H145.673Z" fill="#090909"/>
<path d="M151.606 34.782H158.46V38.5718H147.689V21.3455H158.338V25.1353H151.606V27.9897H157.725V31.7295H151.606V34.7804V34.782Z" fill="#090909"/>
<path d="M162.807 36.3556C161.118 34.633 160.285 32.4926 160.285 29.9577C160.285 27.4229 161.118 25.2825 162.807 23.5848C164.495 21.8622 166.626 21 169.195 21C172.255 21 175.046 22.5262 176.539 24.9862L173.162 26.9552C172.404 25.602 170.933 24.8381 169.197 24.8381C167.679 24.8381 166.455 25.3058 165.55 26.2411C164.644 27.1765 164.204 28.4065 164.204 29.9577C164.204 31.5089 164.644 32.7389 165.55 33.6743C166.455 34.6097 167.679 35.0774 169.197 35.0774C170.935 35.0774 172.453 34.2651 173.162 32.9603L176.539 34.9292C175.071 37.3908 172.304 38.9154 169.195 38.9154C166.624 38.9154 164.495 38.0533 162.807 36.3556Z" fill="#090909"/>
<path d="M188.093 21.3455H192.01V38.5718H188.093V31.7312H182.708V38.5718H178.791V21.3455H182.708V27.9414H188.093V21.3455Z" fill="#090909"/>
<path d="M13.6428 29.7156C13.7975 17.2591 23.9198 7.17463 36.3452 7.17463C43.5428 7.17463 49.9666 10.5581 54.1295 15.8279C55.729 13.9629 57.3167 12.1167 58.8318 10.3506C53.3649 4.03398 45.3112 0.0327148 36.3452 0.0327148C19.907 0.0327148 6.53418 13.4772 6.53418 30.0033C6.53418 33.2194 7.04311 36.32 7.98122 39.2248C9.84338 36.096 11.7759 32.8492 13.6428 29.7156Z" fill="#090909"/>
<path d="M59.0471 30.308C58.8852 42.7551 48.763 52.8325 36.3446 52.8325C29.1493 52.8325 22.7255 49.449 18.5627 44.1839C16.9632 46.049 15.3754 47.8952 13.8604 49.6612C19.3296 55.9755 27.3809 59.9744 36.3446 59.9744C52.7828 59.9744 66.1556 46.53 66.1556 30.0039C66.1556 26.7901 65.649 23.6943 64.7133 20.7917C62.8488 23.923 60.9162 27.1721 59.0494 30.308H59.0471Z" fill="#FA0959"/>
<path d="M32.7442 27.6505C31.0978 29.5697 28.9918 32.0266 26.6582 34.7476L31.581 43.2948C31.846 43.7593 32.0735 44.1601 32.2376 44.4478C32.2564 44.4808 32.2752 44.5091 32.2963 44.5374L35.6524 50.3801C35.8916 50.3895 36.1308 50.3966 36.37 50.3966C38.917 50.3966 41.3538 49.9203 43.6029 49.055L46.1851 44.5539L72.7033 0L39.2407 38.9587L32.7442 27.6481V27.6505Z" fill="#FA0959"/>
<path d="M39.959 32.3496C41.6054 30.4303 43.7115 27.9734 46.0451 25.2525L41.1223 16.7053C40.8573 16.2408 40.6298 15.8399 40.4656 15.5523C40.4469 15.5193 40.4281 15.4886 40.407 15.4627L37.0532 9.62466C36.8257 9.61759 36.5982 9.60815 36.3708 9.60815C33.8027 9.60815 31.3448 10.0939 29.0816 10.9733L26.5158 15.4438L0 60L33.4626 21.0413L39.959 32.3519V32.3496Z" fill="#090909"/>
</svg>
