<?xml version="1.0" standalone="no"?>
<!DOCTYPE svg PUBLIC "-//W3C//DTD SVG 20010904//EN"
 "http://www.w3.org/TR/2001/REC-SVG-20010904/DTD/svg10.dtd">
<svg version="1.0" xmlns="http://www.w3.org/2000/svg"
 width="167.000000pt" height="35.000000pt" viewBox="0 0 167.000000 35.000000"
 preserveAspectRatio="xMidYMid meet">

<g transform="translate(0.000000,35.000000) scale(0.100000,-0.100000)"
fill="#000000" stroke="none">
<path d="M10 175 l0 -165 115 0 115 0 0 30 0 30 -80 0 -80 0 0 135 0 135 -35
0 -35 0 0 -165z"/>
<path d="M313 251 c-86 -54 -81 -180 8 -227 40 -20 126 -15 165 11 l28 18 -23
18 c-21 17 -25 17 -44 4 -26 -18 -67 -19 -91 -2 -15 11 -11 15 41 37 32 13 72
29 90 37 30 12 31 15 22 42 -17 49 -53 74 -111 78 -41 3 -61 -1 -85 -16z m108
-50 l24 -19 -59 -26 c-32 -14 -60 -26 -62 -26 -7 0 -4 45 4 56 9 13 43 33 58
34 7 0 22 -9 35 -19z"/>
<path d="M550 140 l0 -130 30 0 30 0 0 78 c0 98 15 125 68 120 48 -4 62 -32
62 -125 l0 -73 30 0 30 0 0 101 c0 98 -1 101 -29 130 -33 33 -93 40 -127 14
-25 -19 -34 -19 -34 0 0 10 -10 15 -30 15 l-30 0 0 -130z"/>
<path d="M914 260 c-48 -19 -80 -77 -75 -135 7 -93 114 -145 202 -100 121 63
70 247 -68 244 -21 0 -47 -4 -59 -9z m106 -70 c42 -42 14 -120 -43 -120 -38 0
-50 7 -66 38 -37 70 54 137 109 82z"/>
<path d="M1110 258 c1 -7 22 -65 49 -128 l48 -115 38 0 39 0 53 124 c29 69 53
126 53 128 0 2 -18 3 -39 3 l-39 0 -28 -77 c-15 -43 -30 -82 -34 -86 -4 -5
-21 29 -38 75 -29 82 -30 83 -66 86 -25 2 -36 -1 -36 -10z"/>
<path d="M1445 250 c-34 -22 -65 -74 -65 -108 0 -12 6 -38 14 -57 42 -99 203
-100 250 -1 21 44 20 73 -2 115 -36 66 -135 92 -197 51z m125 -62 c42 -46 14
-118 -46 -118 -43 0 -74 29 -74 70 0 63 77 94 120 48z"/>
</g>
</svg>
