<?xml version="1.0" standalone="no"?>
<!DOCTYPE svg PUBLIC "-//W3C//DTD SVG 1.1//EN"
 "http://www.w3.org/Graphics/SVG/1.1/DTD/svg11.dtd">
<!-- Created with svg_stack (http://github.com/astraw/svg_stack) -->
<svg xmlns:sodipodi="http://sodipodi.sourceforge.net/DTD/sodipodi-0.dtd" xmlns="http://www.w3.org/2000/svg" version="1.1" width="75.0" height="50.0">
  <defs/>
  <g id="id0:id0" transform="matrix(1.25,0,0,1.25,0.0,0.0)"><g transform="translate(0.000000,40.000000) scale(0.040000,-0.040000)" fill="#ff6700" stroke="none">
<path d="M0 500 l0 -500 750 0 750 0 0 500 0 500 -750 0 -750 0 0 -500z"/>
</g>
</g>
  <g id="id1:id1" transform="matrix(1.25,0,0,1.25,0.0,0.0)"><g transform="translate(0.000000,40.000000) scale(0.040000,-0.040000)" fill="#ff6600" stroke="none">
<path d="M0 500 l0 -500 750 0 750 0 0 23 c0 22 -2 22 -105 20 l-105 -3 0 465 c1 359 4 465 13 464 7 -1 54 -1 105 0 75 1 92 4 92 16 0 13 -90 15 -750 15 l-750 0 0 -500z m872 461 c13 -5 32 -13 43 -17 18 -6 17 -8 -10 -15 -28 -8 -28 -8 7 -4 30 3 43 -2 77 -32 35 -30 41 -40 38 -67 -2 -17 -2 -23 0 -13 2 9 7 17 11 17 6 0 6 -289 -1 -655 l-2 -130 -67 -3 -67 -3 -1 297 c0 164 -3 300 -5 303 -3 2 -5 -131 -5 -297 0 -189 -4 -302 -10 -302 -6 0 -11 120 -14 312 -5 349 -7 392 -16 378 -4 -6 -22 4 -43 24 -47 44 -77 48 -357 44 l-215 -3 -3 -365 c-1 -201 -5 -372 -10 -380 -4 -8 -9 154 -12 360 l-5 375 -3 -372 -2 -373 -85 0 -85 0 0 450 0 450 413 2 412 3 -412 2 c-264 2 -413 7 -413 13 0 13 810 14 842 1z m198 -557 c0 -236 -4 -364 -10 -364 -6 0 -10 130 -10 371 0 244 3 368 10 364 6 -4 10 -138 10 -371z m-420 -84 c0 -180 -4 -280 -10 -280 -6 0 -10 100 -10 280 0 180 4 280 10 280 6 0 10 -100 10 -280z m-200 -6 c0 -181 -3 -273 -10 -269 -14 8 -14 545 0 545 6 0 10 -99 10 -276z m170 266 c0 -6 -33 -10 -80 -10 -47 0 -80 4 -80 10 0 6 33 10 80 10 47 0 80 -4 80 -10z m0 -280 l-1 -260 -80 0 -79 0 0 260 0 260 80 0 81 0 -1 -260z"/>
<path d="M940 903 c8 -3 19 -11 23 -17 6 -7 7 -6 4 4 -2 8 -12 16 -23 17 -13 2 -15 1 -4 -4z"/>
<path d="M1001 844 c0 -11 3 -14 6 -6 3 7 2 16 -1 19 -3 4 -6 -2 -5 -13z"/>
<path d="M718 813 c12 -2 30 -2 40 0 9 3 -1 5 -23 4 -22 0 -30 -2 -17 -4z"/>
<path d="M872 690 c0 -14 2 -19 5 -12 2 6 2 18 0 25 -3 6 -5 1 -5 -13z"/>
<path d="M1310 503 c0 -245 2 -444 5 -441 3 3 6 202 5 441 l0 436 92 4 93 3 -97 2 -98 2 0 -447z"/>
</g>
</g>
  <g id="id2:id2" transform="matrix(1.25,0,0,1.25,0.0,0.0)"><g transform="translate(0.000000,40.000000) scale(0.040000,-0.040000)" fill="#ff6500" stroke="none">
<path d="M0 500 l0 -500 750 0 750 0 0 23 c0 22 -2 22 -105 20 l-105 -3 0 465 c1 359 4 465 13 464 7 -1 54 -1 105 0 75 1 92 4 92 16 0 13 -90 15 -750 15 l-750 0 0 -500z m872 461 c13 -5 32 -13 43 -17 18 -6 17 -8 -10 -15 -28 -8 -28 -8 7 -4 30 3 43 -2 77 -32 35 -30 41 -40 38 -67 -2 -17 -2 -23 0 -13 2 9 7 17 11 17 6 0 6 -289 -1 -655 l-2 -130 -67 -3 -67 -3 -1 297 c0 164 -3 300 -5 303 -3 2 -5 -131 -5 -297 0 -189 -4 -302 -10 -302 -6 0 -11 120 -14 312 -5 349 -7 392 -16 378 -4 -6 -22 4 -43 24 -47 44 -77 48 -357 44 l-215 -3 -3 -365 c-1 -201 -5 -372 -10 -380 -4 -8 -9 154 -12 360 l-5 375 -3 -372 -2 -373 -85 0 -85 0 0 450 0 450 413 2 412 3 -412 2 c-264 2 -413 7 -413 13 0 13 810 14 842 1z m198 -557 c0 -236 -4 -364 -10 -364 -6 0 -10 130 -10 371 0 244 3 368 10 364 6 -4 10 -138 10 -371z m-420 -84 c0 -180 -4 -280 -10 -280 -6 0 -10 100 -10 280 0 180 4 280 10 280 6 0 10 -100 10 -280z m-200 -6 c0 -181 -3 -273 -10 -269 -14 8 -14 545 0 545 6 0 10 -99 10 -276z m170 266 c0 -6 -33 -10 -80 -10 -47 0 -80 4 -80 10 0 6 33 10 80 10 47 0 80 -4 80 -10z m0 -280 l-1 -260 -80 0 -79 0 0 260 0 260 80 0 81 0 -1 -260z"/>
<path d="M940 903 c8 -3 19 -11 23 -17 6 -7 7 -6 4 4 -2 8 -12 16 -23 17 -13 2 -15 1 -4 -4z"/>
<path d="M1001 844 c0 -11 3 -14 6 -6 3 7 2 16 -1 19 -3 4 -6 -2 -5 -13z"/>
<path d="M718 813 c12 -2 30 -2 40 0 9 3 -1 5 -23 4 -22 0 -30 -2 -17 -4z"/>
<path d="M872 690 c0 -14 2 -19 5 -12 2 6 2 18 0 25 -3 6 -5 1 -5 -13z"/>
<path d="M1310 503 c0 -245 2 -444 5 -441 3 3 6 202 5 441 l0 436 92 4 93 3 -97 2 -98 2 0 -447z"/>
</g>
</g>
  <g id="id3:id3" transform="matrix(1.25,0,0,1.25,0.0,0.0)"><g transform="translate(0.000000,40.000000) scale(0.040000,-0.040000)" fill="#ff6800" stroke="none">
<path d="M0 500 l0 -500 750 0 750 0 0 23 c0 22 -2 22 -105 20 l-105 -3 0 465 c1 359 4 465 13 464 7 -1 54 -1 105 0 75 1 92 4 92 16 0 13 -90 15 -750 15 l-750 0 0 -500z m872 461 c13 -5 32 -13 43 -17 18 -6 17 -8 -10 -15 -28 -8 -28 -8 7 -4 30 3 43 -2 77 -32 35 -30 41 -40 38 -67 -2 -17 -2 -23 0 -13 2 9 7 17 11 17 6 0 6 -289 -1 -655 l-2 -130 -67 -3 -67 -3 -1 297 c0 164 -3 300 -5 303 -3 2 -5 -131 -5 -297 0 -189 -4 -302 -10 -302 -6 0 -11 120 -14 312 -5 349 -7 392 -16 378 -4 -6 -22 4 -43 24 -47 44 -77 48 -357 44 l-215 -3 -3 -365 c-1 -201 -5 -372 -10 -380 -4 -8 -9 154 -12 360 l-5 375 -3 -372 -2 -373 -85 0 -85 0 0 450 0 450 413 2 412 3 -412 2 c-264 2 -413 7 -413 13 0 13 810 14 842 1z m198 -557 c0 -236 -4 -364 -10 -364 -6 0 -10 130 -10 371 0 244 3 368 10 364 6 -4 10 -138 10 -371z m-420 -84 c0 -180 -4 -280 -10 -280 -6 0 -10 100 -10 280 0 180 4 280 10 280 6 0 10 -100 10 -280z m-200 -6 c0 -181 -3 -273 -10 -269 -14 8 -14 545 0 545 6 0 10 -99 10 -276z m170 266 c0 -6 -33 -10 -80 -10 -47 0 -80 4 -80 10 0 6 33 10 80 10 47 0 80 -4 80 -10z m0 -280 l-1 -260 -80 0 -79 0 0 260 0 260 80 0 81 0 -1 -260z"/>
<path d="M940 903 c8 -3 19 -11 23 -17 6 -7 7 -6 4 4 -2 8 -12 16 -23 17 -13 2 -15 1 -4 -4z"/>
<path d="M1001 844 c0 -11 3 -14 6 -6 3 7 2 16 -1 19 -3 4 -6 -2 -5 -13z"/>
<path d="M718 813 c12 -2 30 -2 40 0 9 3 -1 5 -23 4 -22 0 -30 -2 -17 -4z"/>
<path d="M872 690 c0 -14 2 -19 5 -12 2 6 2 18 0 25 -3 6 -5 1 -5 -13z"/>
<path d="M1310 503 c0 -245 2 -444 5 -441 3 3 6 202 5 441 l0 436 92 4 93 3 -97 2 -98 2 0 -447z"/>
</g>
</g>
  <g id="id4:id4" transform="matrix(1.25,0,0,1.25,0.0,0.0)"><g transform="translate(0.000000,40.000000) scale(0.040000,-0.040000)" fill="#ff6600" stroke="none">
<path d="M0 500 l0 -500 750 0 750 0 0 23 c0 22 -2 22 -105 20 l-105 -3 0 465 c1 359 4 465 13 464 7 -1 54 -1 105 0 75 1 92 4 92 16 0 13 -90 15 -750 15 l-750 0 0 -500z m872 461 c13 -5 32 -13 43 -17 18 -6 17 -8 -10 -15 -28 -8 -28 -8 7 -4 30 3 43 -2 77 -32 35 -30 41 -40 38 -67 -2 -17 -2 -23 0 -13 2 9 7 17 11 17 6 0 6 -289 -1 -655 l-2 -130 -67 -3 -67 -3 -1 297 c0 164 -3 300 -5 303 -3 2 -5 -131 -5 -297 0 -189 -4 -302 -10 -302 -6 0 -11 120 -14 312 -5 349 -7 392 -16 378 -4 -6 -22 4 -43 24 -47 44 -77 48 -357 44 l-215 -3 -3 -365 c-1 -201 -5 -372 -10 -380 -4 -8 -9 154 -12 360 l-5 375 -3 -372 -2 -373 -85 0 -85 0 0 450 0 450 413 2 412 3 -412 2 c-264 2 -413 7 -413 13 0 13 810 14 842 1z m198 -557 c0 -236 -4 -364 -10 -364 -6 0 -10 130 -10 371 0 244 3 368 10 364 6 -4 10 -138 10 -371z m-420 -84 c0 -180 -4 -280 -10 -280 -6 0 -10 100 -10 280 0 180 4 280 10 280 6 0 10 -100 10 -280z m-200 -6 c0 -181 -3 -273 -10 -269 -14 8 -14 545 0 545 6 0 10 -99 10 -276z m170 266 c0 -6 -33 -10 -80 -10 -47 0 -80 4 -80 10 0 6 33 10 80 10 47 0 80 -4 80 -10z m0 -280 l-1 -260 -80 0 -79 0 0 260 0 260 80 0 81 0 -1 -260z"/>
<path d="M940 903 c8 -3 19 -11 23 -17 6 -7 7 -6 4 4 -2 8 -12 16 -23 17 -13 2 -15 1 -4 -4z"/>
<path d="M1001 844 c0 -11 3 -14 6 -6 3 7 2 16 -1 19 -3 4 -6 -2 -5 -13z"/>
<path d="M718 813 c12 -2 30 -2 40 0 9 3 -1 5 -23 4 -22 0 -30 -2 -17 -4z"/>
<path d="M872 690 c0 -14 2 -19 5 -12 2 6 2 18 0 25 -3 6 -5 1 -5 -13z"/>
<path d="M1310 503 c0 -245 2 -444 5 -441 3 3 6 202 5 441 l0 436 92 4 93 3 -97 2 -98 2 0 -447z"/>
</g>
</g>
  <g id="id5:id5" transform="matrix(1.25,0,0,1.25,0.0,0.0)"><g transform="translate(0.000000,40.000000) scale(0.040000,-0.040000)" fill="#ff6600" stroke="none">
<path d="M0 500 l0 -500 750 0 750 0 0 23 c0 22 -2 22 -105 20 l-105 -3 0 465 c1 359 4 465 13 464 7 -1 54 -1 105 0 75 1 92 4 92 16 0 13 -90 15 -750 15 l-750 0 0 -500z m872 461 c13 -5 32 -13 43 -17 18 -6 17 -8 -10 -15 -28 -8 -28 -8 7 -4 30 3 43 -2 77 -32 35 -30 41 -40 38 -67 -2 -17 -2 -23 0 -13 2 9 7 17 11 17 6 0 6 -289 -1 -655 l-2 -130 -67 -3 -67 -3 -1 297 c0 164 -3 300 -5 303 -3 2 -5 -131 -5 -297 0 -189 -4 -302 -10 -302 -6 0 -11 120 -14 312 -5 349 -7 392 -16 378 -4 -6 -22 4 -43 24 -47 44 -77 48 -357 44 l-215 -3 -3 -365 c-1 -201 -5 -372 -10 -380 -4 -8 -9 154 -12 360 l-5 375 -3 -372 -2 -373 -85 0 -85 0 0 450 0 450 413 2 412 3 -412 2 c-264 2 -413 7 -413 13 0 13 810 14 842 1z m198 -557 c0 -236 -4 -364 -10 -364 -6 0 -10 130 -10 371 0 244 3 368 10 364 6 -4 10 -138 10 -371z m-420 -84 c0 -180 -4 -280 -10 -280 -6 0 -10 100 -10 280 0 180 4 280 10 280 6 0 10 -100 10 -280z m-200 -6 c0 -181 -3 -273 -10 -269 -14 8 -14 545 0 545 6 0 10 -99 10 -276z m170 266 c0 -6 -33 -10 -80 -10 -47 0 -80 4 -80 10 0 6 33 10 80 10 47 0 80 -4 80 -10z m0 -280 l-1 -260 -80 0 -79 0 0 260 0 260 80 0 81 0 -1 -260z"/>
<path d="M940 903 c8 -3 19 -11 23 -17 6 -7 7 -6 4 4 -2 8 -12 16 -23 17 -13 2 -15 1 -4 -4z"/>
<path d="M1001 844 c0 -11 3 -14 6 -6 3 7 2 16 -1 19 -3 4 -6 -2 -5 -13z"/>
<path d="M718 813 c12 -2 30 -2 40 0 9 3 -1 5 -23 4 -22 0 -30 -2 -17 -4z"/>
<path d="M872 690 c0 -14 2 -19 5 -12 2 6 2 18 0 25 -3 6 -5 1 -5 -13z"/>
<path d="M1310 503 c0 -245 2 -444 5 -441 3 3 6 202 5 441 l0 436 92 4 93 3 -97 2 -98 2 0 -447z"/>
</g>
</g>
  <g id="id6:id6" transform="matrix(1.25,0,0,1.25,0.0,0.0)"><g transform="translate(0.000000,40.000000) scale(0.040000,-0.040000)" fill="#ff6700" stroke="none">
<path d="M0 500 l0 -500 750 0 750 0 0 500 0 500 -750 0 -750 0 0 -500z"/>
</g>
</g>
  <g id="id7:id7" transform="matrix(1.25,0,0,1.25,0.0,0.0)"><g transform="translate(0.000000,40.000000) scale(0.040000,-0.040000)" fill="#ff6600" stroke="none">
<path d="M0 500 l0 -500 750 0 750 0 0 23 c0 22 -2 22 -105 20 l-105 -3 0 465 c1 359 4 465 13 464 7 -1 54 -1 105 0 75 1 92 4 92 16 0 13 -90 15 -750 15 l-750 0 0 -500z m872 461 c13 -5 32 -13 43 -17 18 -6 17 -8 -10 -15 -28 -8 -28 -8 7 -4 30 3 43 -2 77 -32 35 -30 41 -40 38 -67 -2 -17 -2 -23 0 -13 2 9 7 17 11 17 6 0 6 -289 -1 -655 l-2 -130 -67 -3 -67 -3 -1 297 c0 164 -3 300 -5 303 -3 2 -5 -131 -5 -297 0 -189 -4 -302 -10 -302 -6 0 -11 120 -14 312 -5 349 -7 392 -16 378 -4 -6 -22 4 -43 24 -47 44 -77 48 -357 44 l-215 -3 -3 -365 c-1 -201 -5 -372 -10 -380 -4 -8 -9 154 -12 360 l-5 375 -3 -372 -2 -373 -85 0 -85 0 0 450 0 450 413 2 412 3 -412 2 c-264 2 -413 7 -413 13 0 13 810 14 842 1z m198 -557 c0 -236 -4 -364 -10 -364 -6 0 -10 130 -10 371 0 244 3 368 10 364 6 -4 10 -138 10 -371z m-420 -84 c0 -180 -4 -280 -10 -280 -6 0 -10 100 -10 280 0 180 4 280 10 280 6 0 10 -100 10 -280z m-200 -6 c0 -181 -3 -273 -10 -269 -14 8 -14 545 0 545 6 0 10 -99 10 -276z m170 266 c0 -6 -33 -10 -80 -10 -47 0 -80 4 -80 10 0 6 33 10 80 10 47 0 80 -4 80 -10z m0 -280 l-1 -260 -80 0 -79 0 0 260 0 260 80 0 81 0 -1 -260z"/>
<path d="M940 903 c8 -3 19 -11 23 -17 6 -7 7 -6 4 4 -2 8 -12 16 -23 17 -13 2 -15 1 -4 -4z"/>
<path d="M1001 844 c0 -11 3 -14 6 -6 3 7 2 16 -1 19 -3 4 -6 -2 -5 -13z"/>
<path d="M718 813 c12 -2 30 -2 40 0 9 3 -1 5 -23 4 -22 0 -30 -2 -17 -4z"/>
<path d="M872 690 c0 -14 2 -19 5 -12 2 6 2 18 0 25 -3 6 -5 1 -5 -13z"/>
<path d="M1310 503 c0 -245 2 -444 5 -441 3 3 6 202 5 441 l0 436 92 4 93 3 -97 2 -98 2 0 -447z"/>
</g>
</g>
  <g id="id8:id8" transform="matrix(1.25,0,0,1.25,0.0,0.0)"><g transform="translate(0.000000,40.000000) scale(0.040000,-0.040000)" fill="#000000" stroke="none">
<path d="M0 500 l0 -500 750 0 750 0 0 23 c0 22 -2 22 -105 20 l-105 -3 0 465 c1 359 4 465 13 464 7 -1 54 -1 105 0 75 1 92 4 92 16 0 13 -90 15 -750 15 l-750 0 0 -500z m872 461 c13 -5 32 -13 43 -17 18 -6 17 -8 -10 -15 -28 -8 -28 -8 7 -4 30 3 43 -2 77 -32 35 -30 41 -40 38 -67 -2 -17 -2 -23 0 -13 2 9 7 17 11 17 6 0 6 -289 -1 -655 l-2 -130 -67 -3 -67 -3 -1 297 c0 164 -3 300 -5 303 -3 2 -5 -131 -5 -297 0 -189 -4 -302 -10 -302 -6 0 -11 120 -14 312 -5 349 -7 392 -16 378 -4 -6 -22 4 -43 24 -47 44 -77 48 -357 44 l-215 -3 -3 -365 c-1 -201 -5 -372 -10 -380 -4 -8 -9 154 -12 360 l-5 375 -3 -372 -2 -373 -85 0 -85 0 0 450 0 450 413 2 412 3 -412 2 c-264 2 -413 7 -413 13 0 13 810 14 842 1z m198 -557 c0 -236 -4 -364 -10 -364 -6 0 -10 130 -10 371 0 244 3 368 10 364 6 -4 10 -138 10 -371z m-420 -84 c0 -180 -4 -280 -10 -280 -6 0 -10 100 -10 280 0 180 4 280 10 280 6 0 10 -100 10 -280z m-200 -6 c0 -181 -3 -273 -10 -269 -14 8 -14 545 0 545 6 0 10 -99 10 -276z m170 266 c0 -6 -33 -10 -80 -10 -47 0 -80 4 -80 10 0 6 33 10 80 10 47 0 80 -4 80 -10z m0 -280 l-1 -260 -80 0 -79 0 0 260 0 260 80 0 81 0 -1 -260z"/>
<path d="M940 903 c8 -3 19 -11 23 -17 6 -7 7 -6 4 4 -2 8 -12 16 -23 17 -13 2 -15 1 -4 -4z"/>
<path d="M1001 844 c0 -11 3 -14 6 -6 3 7 2 16 -1 19 -3 4 -6 -2 -5 -13z"/>
<path d="M718 813 c12 -2 30 -2 40 0 9 3 -1 5 -23 4 -22 0 -30 -2 -17 -4z"/>
<path d="M872 690 c0 -14 2 -19 5 -12 2 6 2 18 0 25 -3 6 -5 1 -5 -13z"/>
<path d="M1310 503 c0 -245 2 -444 5 -441 3 3 6 202 5 441 l0 436 92 4 93 3 -97 2 -98 2 0 -447z"/>
</g>
</g>
  <g id="id9:id9" transform="matrix(1.25,0,0,1.25,0.0,0.0)"><g transform="translate(0.000000,40.000000) scale(0.040000,-0.040000)" fill="#ff6700" stroke="none">
<path d="M0 500 l0 -500 750 0 750 0 0 500 0 500 -750 0 -750 0 0 -500z"/>
</g>
</g>
  <g id="id10:id10" transform="matrix(1.25,0,0,1.25,0.0,0.0)"><g transform="translate(0.000000,40.000000) scale(0.040000,-0.040000)" fill="#ff6700" stroke="none">
<path d="M0 500 l0 -500 750 0 750 0 0 500 0 500 -750 0 -750 0 0 -500z"/>
</g>
</g>
  <g id="id11:id11" transform="matrix(1.25,0,0,1.25,0.0,0.0)"><g transform="translate(0.000000,40.000000) scale(0.040000,-0.040000)" fill="#ff6700" stroke="none">
<path d="M0 500 l0 -500 750 0 750 0 0 500 0 500 -750 0 -750 0 0 -500z"/>
</g>
</g>
  <g id="id12:id12" transform="matrix(1.25,0,0,1.25,0.0,0.0)"><g transform="translate(0.000000,40.000000) scale(0.040000,-0.040000)" fill="#ff6600" stroke="none">
<path d="M0 500 l0 -500 750 0 750 0 0 23 c0 22 -2 22 -105 20 l-105 -3 0 465 c1 359 4 465 13 464 7 -1 54 -1 105 0 75 1 92 4 92 16 0 13 -90 15 -750 15 l-750 0 0 -500z m872 461 c13 -5 32 -13 43 -17 18 -6 17 -8 -10 -15 -28 -8 -28 -8 7 -4 30 3 43 -2 77 -32 35 -30 41 -40 38 -67 -2 -17 -2 -23 0 -13 2 9 7 17 11 17 6 0 6 -289 -1 -655 l-2 -130 -67 -3 -67 -3 -1 297 c0 164 -3 300 -5 303 -3 2 -5 -131 -5 -297 0 -189 -4 -302 -10 -302 -6 0 -11 120 -14 312 -5 349 -7 392 -16 378 -4 -6 -22 4 -43 24 -47 44 -77 48 -357 44 l-215 -3 -3 -365 c-1 -201 -5 -372 -10 -380 -4 -8 -9 154 -12 360 l-5 375 -3 -372 -2 -373 -85 0 -85 0 0 450 0 450 413 2 412 3 -412 2 c-264 2 -413 7 -413 13 0 13 810 14 842 1z m198 -557 c0 -236 -4 -364 -10 -364 -6 0 -10 130 -10 371 0 244 3 368 10 364 6 -4 10 -138 10 -371z m-420 -84 c0 -180 -4 -280 -10 -280 -6 0 -10 100 -10 280 0 180 4 280 10 280 6 0 10 -100 10 -280z m-200 -6 c0 -181 -3 -273 -10 -269 -14 8 -14 545 0 545 6 0 10 -99 10 -276z m170 266 c0 -6 -33 -10 -80 -10 -47 0 -80 4 -80 10 0 6 33 10 80 10 47 0 80 -4 80 -10z m0 -280 l-1 -260 -80 0 -79 0 0 260 0 260 80 0 81 0 -1 -260z"/>
<path d="M940 903 c8 -3 19 -11 23 -17 6 -7 7 -6 4 4 -2 8 -12 16 -23 17 -13 2 -15 1 -4 -4z"/>
<path d="M1001 844 c0 -11 3 -14 6 -6 3 7 2 16 -1 19 -3 4 -6 -2 -5 -13z"/>
<path d="M718 813 c12 -2 30 -2 40 0 9 3 -1 5 -23 4 -22 0 -30 -2 -17 -4z"/>
<path d="M872 690 c0 -14 2 -19 5 -12 2 6 2 18 0 25 -3 6 -5 1 -5 -13z"/>
<path d="M1310 503 c0 -245 2 -444 5 -441 3 3 6 202 5 441 l0 436 92 4 93 3 -97 2 -98 2 0 -447z"/>
</g>
</g>
  <g id="id13:id13" transform="matrix(1.25,0,0,1.25,0.0,0.0)"><g transform="translate(0.000000,40.000000) scale(0.040000,-0.040000)" fill="#ff6600" stroke="none">
<path d="M0 500 l0 -500 750 0 750 0 0 23 c0 22 -2 22 -105 20 l-105 -3 0 465 c1 359 4 465 13 464 7 -1 54 -1 105 0 75 1 92 4 92 16 0 13 -90 15 -750 15 l-750 0 0 -500z m872 461 c13 -5 32 -13 43 -17 18 -6 17 -8 -10 -15 -28 -8 -28 -8 7 -4 30 3 43 -2 77 -32 35 -30 41 -40 38 -67 -2 -17 -2 -23 0 -13 2 9 7 17 11 17 6 0 6 -289 -1 -655 l-2 -130 -67 -3 -67 -3 -1 297 c0 164 -3 300 -5 303 -3 2 -5 -131 -5 -297 0 -189 -4 -302 -10 -302 -6 0 -11 120 -14 312 -5 349 -7 392 -16 378 -4 -6 -22 4 -43 24 -47 44 -77 48 -357 44 l-215 -3 -3 -365 c-1 -201 -5 -372 -10 -380 -4 -8 -9 154 -12 360 l-5 375 -3 -372 -2 -373 -85 0 -85 0 0 450 0 450 413 2 412 3 -412 2 c-264 2 -413 7 -413 13 0 13 810 14 842 1z m198 -557 c0 -236 -4 -364 -10 -364 -6 0 -10 130 -10 371 0 244 3 368 10 364 6 -4 10 -138 10 -371z m-420 -84 c0 -180 -4 -280 -10 -280 -6 0 -10 100 -10 280 0 180 4 280 10 280 6 0 10 -100 10 -280z m-200 -6 c0 -181 -3 -273 -10 -269 -14 8 -14 545 0 545 6 0 10 -99 10 -276z m170 266 c0 -6 -33 -10 -80 -10 -47 0 -80 4 -80 10 0 6 33 10 80 10 47 0 80 -4 80 -10z m0 -280 l-1 -260 -80 0 -79 0 0 260 0 260 80 0 81 0 -1 -260z"/>
<path d="M940 903 c8 -3 19 -11 23 -17 6 -7 7 -6 4 4 -2 8 -12 16 -23 17 -13 2 -15 1 -4 -4z"/>
<path d="M1001 844 c0 -11 3 -14 6 -6 3 7 2 16 -1 19 -3 4 -6 -2 -5 -13z"/>
<path d="M718 813 c12 -2 30 -2 40 0 9 3 -1 5 -23 4 -22 0 -30 -2 -17 -4z"/>
<path d="M872 690 c0 -14 2 -19 5 -12 2 6 2 18 0 25 -3 6 -5 1 -5 -13z"/>
<path d="M1310 503 c0 -245 2 -444 5 -441 3 3 6 202 5 441 l0 436 92 4 93 3 -97 2 -98 2 0 -447z"/>
</g>
</g>
  <g id="id14:id14" transform="matrix(1.25,0,0,1.25,0.0,0.0)"><g transform="translate(0.000000,40.000000) scale(0.040000,-0.040000)" fill="#ff6700" stroke="none">
<path d="M0 500 l0 -500 750 0 750 0 0 500 0 500 -750 0 -750 0 0 -500z"/>
</g>
</g>
  <g id="id15:id15" transform="matrix(1.25,0,0,1.25,0.0,0.0)"><g transform="translate(0.000000,40.000000) scale(0.040000,-0.040000)" fill="#ff6700" stroke="none">
<path d="M0 500 l0 -500 750 0 750 0 0 500 0 500 -750 0 -750 0 0 -500z"/>
</g>
</g>
</svg>
