<svg width="65" height="65" viewBox="0 0 65 65" fill="none" xmlns="http://www.w3.org/2000/svg">
<g clip-path="url(#clip0_599_12009)">
<path d="M44.6832 0C41.2179 0.239688 37.1676 2.45781 34.8072 5.34625C32.6541 7.96657 30.8829 11.8584 31.5735 15.6406C35.3597 15.7584 39.2719 13.4875 41.5388 10.5503C43.6594 7.81625 45.2641 3.94875 44.6832 0Z" fill="#090909"/>
<path d="M58.3777 21.8073C55.0505 17.6351 50.3746 15.2139 45.9587 15.2139C40.129 15.2139 37.6631 18.0048 33.6128 18.0048C29.4366 18.0048 26.2638 15.222 21.2223 15.222C16.2701 15.222 10.997 18.2485 7.65361 23.4241C2.95333 30.7122 3.7577 44.4149 11.3748 56.0864C14.1008 60.2627 17.7407 64.9589 22.502 64.9995C26.7391 65.0401 27.9335 62.2817 33.6738 62.2533C39.414 62.2208 40.5028 65.0361 44.7318 64.9914C49.4971 64.9548 53.3361 59.7508 56.0621 55.5746C58.0161 52.5805 58.7433 51.0733 60.2586 47.6934C49.2371 43.4968 47.4699 27.8238 58.3777 21.8073Z" fill="#090909"/>
</g>
<defs>
<clipPath id="clip0_599_12009">
<rect width="65" height="65" fill="white"/>
</clipPath>
</defs>
</svg>
