<svg width="300" height="300" viewBox="0 0 300 300" fill="none" xmlns="http://www.w3.org/2000/svg">
<path d="M210.844 182.484C210.797 178.359 210.422 174.281 209.766 170.297C208.042 159.132 204.327 148.367 198.797 138.516C195.375 132.328 191.25 126.516 186.516 121.266C184.453 118.922 182.297 116.719 180 114.563C174.821 109.759 169.113 105.56 162.984 102.047C160.172 100.359 157.266 98.8594 154.266 97.5469C147.141 94.3125 139.594 91.9219 131.672 90.5625C127.781 89.8594 123.844 89.3906 119.812 89.2031C118.172 89.1094 116.531 89.0625 114.844 89.0625C110.578 89.0625 106.359 89.3438 102.234 89.9531H102.094C101.109 93.1406 100.359 96.4219 99.7969 99.7969H99.8906C103.312 99.1406 106.875 98.7188 110.437 98.5781C111.891 98.4844 113.344 98.4375 114.844 98.4375C117.703 98.4375 120.562 98.5781 123.375 98.8594C131.672 99.6563 139.641 101.672 147.094 104.719C150.187 105.938 153.187 107.344 156.094 108.937C165.102 113.772 173.168 120.186 179.906 127.875C184.594 133.219 188.625 139.078 191.859 145.453C193.453 148.406 194.813 151.453 195.984 154.641C198.891 162.234 200.719 170.344 201.281 178.781C201.469 180.891 201.562 183 201.562 185.156C201.565 190.187 201.11 195.208 200.203 200.156V200.203C202.687 199.781 205.172 199.266 207.562 198.563C208.406 198.375 209.25 198.141 210.047 197.906V197.859C210.656 193.687 210.937 189.469 210.937 185.156C210.937 184.266 210.937 183.375 210.844 182.484Z" fill="#EEF1F5"/>
<path d="M208.125 208.125C197.859 250.031 159.891 281.25 114.844 281.25C61.875 281.25 18.75 238.125 18.75 185.156C18.75 140.109 49.9688 102.141 91.875 91.875C91.4531 93.375 91.125 94.9219 90.8437 96.4219C90.75 96.9375 90.6562 97.4062 90.6094 97.875C90.3281 99.2812 90.0938 100.688 89.9531 102.094C89.3438 106.266 89.0625 110.531 89.0625 114.844C89.0625 117.047 89.25 119.203 89.3906 121.359C89.3906 121.594 89.3906 121.781 89.4375 122.016C90.3281 134.344 93.6094 146.016 98.7656 156.609C98.8594 156.984 99.0469 157.313 99.2344 157.641C104.016 167.156 110.203 175.781 117.656 183.141C117.75 183.234 117.75 183.281 117.797 183.375C117.891 183.469 118.031 183.516 118.125 183.609C125.625 190.875 134.297 196.875 143.766 201.422C144.188 201.703 144.609 201.938 145.078 202.078C156.072 207.119 167.922 210.03 180 210.656C180.188 210.703 180.422 210.797 180.609 210.797C180.75 210.797 180.844 210.75 180.984 210.703C182.391 210.797 183.75 210.937 185.156 210.937C189.469 210.937 193.734 210.656 197.906 210.047C199.313 209.906 200.719 209.672 202.125 209.391C202.594 209.344 203.063 209.25 203.578 209.156C205.078 208.875 206.625 208.547 208.125 208.125Z" fill="#EEF1F5"/>
<path d="M281.016 110.672C281.063 110.344 281.016 110.016 280.969 109.687C280.342 97.6093 277.432 85.7594 272.391 74.7656C272.25 74.2969 272.016 73.875 271.781 73.5C267.234 64.0313 261.234 55.4062 254.016 47.9531C253.875 47.8125 253.828 47.625 253.687 47.4375C253.594 47.3437 253.453 47.3437 253.359 47.25C246.02 39.8719 237.536 33.73 228.234 29.0625C227.766 28.7344 227.297 28.5 226.781 28.3594C215.984 23.1296 204.293 19.9961 192.328 19.125C192.094 19.0781 191.906 19.0781 191.672 19.0781C189.516 18.9375 187.359 18.75 185.156 18.75C140.109 18.75 102.141 49.9688 91.875 91.875C91.5 93.375 91.1719 94.875 90.8437 96.4219C90.75 96.9375 90.6562 97.4062 90.6094 97.875C90.3281 99.2812 90.1406 100.688 89.9531 102.094C89.3438 106.266 89.0625 110.531 89.0625 114.844C89.0625 117.047 89.25 119.203 89.3906 121.359C89.3906 121.594 89.3906 121.781 89.4375 122.016C90.3281 134.344 93.6094 146.016 98.7656 156.609C98.8594 156.984 99.0469 157.313 99.2344 157.641C104.016 167.156 110.203 175.781 117.656 183.141C117.75 183.234 117.75 183.281 117.797 183.375C117.891 183.469 118.031 183.516 118.125 183.609C125.625 190.875 134.297 196.875 143.766 201.422C144.188 201.703 144.609 201.938 145.078 202.078C156.072 207.119 167.922 210.03 180 210.656C180.188 210.703 180.844 210.75 180.984 210.703C182.391 210.797 183.75 210.938 185.156 210.938C189.469 210.938 193.734 210.656 197.906 210.047C199.313 209.859 200.719 209.672 202.125 209.391C202.594 209.344 203.063 209.25 203.578 209.156C205.125 208.828 206.625 208.5 208.125 208.125C250.031 197.859 281.25 159.891 281.25 114.844C281.25 113.437 281.109 112.078 281.016 110.672ZM98.6719 110.344C98.8594 106.781 99.2812 103.266 99.8906 99.7969C100.453 96.4688 101.25 93.1875 102.234 89.9531C112.5 55.6875 143.484 30.2813 180.656 28.3594L98.6719 110.344ZM98.8594 123.375L123.375 98.8594L131.672 90.5625L193.687 28.5469C201.984 29.3906 209.906 31.4063 217.359 34.4063L154.266 97.5469L147.094 104.719L104.719 147.094C101.661 139.502 99.6883 131.517 98.8594 123.375ZM108.891 156.141L162.984 102.047L226.406 38.5781C232.641 41.9531 238.359 46.1719 243.562 50.9531L180 114.563L173.344 121.172L121.266 173.297C116.479 168.086 112.325 162.327 108.891 156.141ZM127.969 179.859L179.906 127.875L186.516 121.266L250.125 57.6094C254.813 62.9531 258.891 68.8125 262.172 75.1875L198.797 138.516L191.859 145.453L145.453 191.859C139.125 188.578 133.266 184.547 127.969 179.859ZM210.047 197.859L207.562 198.563C205.125 199.172 202.687 199.734 200.203 200.156C197.531 200.625 194.859 200.953 192.141 201.187L271.5 121.828C268.641 157.875 243.563 187.781 210.047 197.859ZM209.766 170.297L201.281 178.781L178.828 201.234C170.391 200.625 162.281 198.797 154.688 195.937L266.25 84.375C269.109 91.9688 270.938 100.078 271.547 108.516L209.766 170.297Z" fill="#EEF1F5"/>
</svg>
