<svg width="300" height="300" viewBox="0 0 300 300" fill="none" xmlns="http://www.w3.org/2000/svg">
<path fill-rule="evenodd" clip-rule="evenodd" d="M24 67.6389H120.539V99.2849L128.867 92.6229L137.257 99.2849L145.647 92.6229L153.975 99.2849C153.975 88.7354 154.036 78.1889 154.036 67.6389H250.516V149.376C239.103 141.911 225.47 137.53 210.727 137.53C190.741 137.53 172.542 145.674 159.465 158.814C147.374 170.842 139.478 187.189 138.306 205.326L137.257 204.524L128.867 211.125L120.539 204.524V227.409H140.28C141.02 230.432 141.883 233.331 142.994 236.168H24V67.6389ZM256.067 164.796C244.471 153.201 228.432 146.043 210.727 146.043C193.085 146.043 177.046 153.201 165.449 164.796C153.852 176.395 146.696 192.431 146.696 210.075C146.696 227.777 153.852 243.819 165.449 255.413C177.045 267.012 193.084 274.168 210.727 274.168C228.431 274.168 244.47 267.012 256.067 255.413C267.664 243.818 274.82 227.777 274.82 210.075C274.82 192.431 267.664 176.395 256.067 164.796ZM170.013 218.773C166.375 215.443 166.189 209.767 169.581 206.126C172.975 202.549 178.649 202.364 182.228 205.695L198.142 220.561L239.103 180.837C242.681 177.382 248.356 177.443 251.811 181.02C255.265 184.598 255.142 190.272 251.626 193.727L204.497 239.377C201.104 242.707 195.614 242.769 192.159 239.5L170.013 218.773ZM29.6747 59.127L51.8814 26H222.57L244.779 59.127H153.111L150.705 34.6986H123.749L121.342 59.127H29.6747ZM114.865 118.531H159.649C166.559 118.531 172.234 124.145 172.234 131.052C172.234 137.963 166.559 143.637 159.649 143.637H114.865C107.955 143.637 102.281 137.963 102.281 131.052C102.281 124.145 107.955 118.531 114.865 118.531Z" fill="#EEF1F5"/>
</svg>
