<svg width="300" height="300" viewBox="0 0 300 300" fill="none" xmlns="http://www.w3.org/2000/svg">
<path d="M150 123.647V67.036C150 64.0407 149.072 61.186 147.314 58.7626L116.189 15.9657C115.614 15.175 114.803 14.5866 113.873 14.2847C112.943 13.9829 111.942 13.9832 111.012 14.2855C110.082 14.5878 109.272 15.1767 108.697 15.9677C108.122 16.7587 107.813 17.7114 107.812 18.6891V20.6157C107.812 21.5297 108.084 22.4204 108.591 23.1891L110.541 26.1141L110.597 26.1797L132 58.2985C134.578 62.161 135.938 66.6563 135.938 71.3016V135.938H126.562V71.3016C126.562 68.5126 125.747 65.8172 124.2 63.5016L117.975 54.1641L102.778 31.3688C101.038 28.7835 98.4945 26.8443 95.5406 25.8516L61.2047 14.4047C60.5234 14.1762 59.8093 14.0606 59.0906 14.0625H58.2375C56.7093 14.0662 55.2285 14.5937 54.0423 15.5572C52.856 16.5206 52.036 17.8617 51.719 19.3567C51.402 20.8517 51.6072 22.4102 52.3004 23.7721C52.9936 25.1341 54.1329 26.2172 55.5281 26.8407L85.9969 40.3876C90.0561 42.1879 93.5191 45.1062 95.9812 48.8016L108.567 67.6782C111.137 71.5255 112.506 76.0498 112.5 80.6766V135.938H103.125V112.069C103.127 110.216 102.577 108.405 101.545 106.866L89.3391 88.5516C88.4841 87.2663 87.3245 86.2123 85.9637 85.4836C84.6028 84.7549 83.0828 84.3741 81.5391 84.3751H35.1562C27.4031 84.3751 21.0938 90.6844 21.0938 98.4376H63.2812C77.4938 98.4376 89.0625 110.006 89.0625 124.219V142.969C89.0625 157.181 77.4938 168.75 63.2812 168.75C57.7027 168.738 52.2767 166.928 47.8078 163.589L38.4375 156.558C36.694 155.246 35.2786 153.548 34.3026 151.597C33.3266 149.645 32.8165 147.494 32.8125 145.313V126.563C32.8125 116.222 24.4031 107.813 14.0625 107.813V155.255C14.0625 157.275 14.5125 159.314 15.3563 161.152L39.0281 212.438C40.6828 216.019 42.7641 219.389 45.2203 222.464L48.1969 226.186C55.4244 235.249 59.7895 246.259 60.7359 257.813H126.562V254.438C126.562 246.722 128.067 239.194 131.034 232.073L143.442 202.294C137.555 189.758 135.062 175.896 136.213 162.094C137.364 148.293 142.118 135.035 150 123.647Z" fill="#EEF1F5"/>
<path d="M215.625 98.4375C176.855 98.4375 145.312 129.98 145.312 168.75C145.312 207.52 176.855 239.062 215.625 239.062C254.395 239.062 285.938 207.52 285.938 168.75C285.938 129.98 254.395 98.4375 215.625 98.4375ZM215.625 229.688C182.025 229.688 154.688 202.35 154.688 168.75C154.688 154.373 159.816 140.405 169.12 129.417L176.269 135.478C168.396 144.778 164.071 156.565 164.062 168.75C164.063 197.18 187.195 220.312 215.625 220.312C227.789 220.312 239.602 215.977 248.897 208.106L254.958 215.255C243.965 224.563 230.03 229.676 215.625 229.688ZM179.498 181.439L186.127 174.811L196.875 185.559L245.123 137.311L251.752 143.939L196.875 198.816L179.498 181.439ZM262.13 208.083L254.981 202.022C262.854 192.722 267.179 180.935 267.188 168.75C267.188 140.32 244.055 117.188 215.625 117.188C203.461 117.188 191.648 121.523 182.353 129.394L176.292 122.245C187.285 112.937 201.22 107.824 215.625 107.812C249.225 107.813 276.562 135.15 276.562 168.75C276.562 183.127 271.434 197.095 262.13 208.083ZM51.5625 267.188H135.938V285.938H51.5625V267.188Z" fill="#EEF1F5"/>
</svg>
