<svg width="300" height="300" viewBox="0 0 300 300" fill="none" xmlns="http://www.w3.org/2000/svg">
<path fill-rule="evenodd" clip-rule="evenodd" d="M149.999 52.5188C178.542 52.5188 201.68 75.6569 201.68 104.198C201.68 132.741 178.542 155.878 149.999 155.878C121.457 155.878 98.3203 132.741 98.3203 104.198C98.3203 75.6574 121.457 52.5188 149.999 52.5188ZM154.687 199.093V296.077L250.353 258.88V198.231L175.55 227.317C173.374 228.158 170.954 227.259 169.822 225.301L154.687 199.093ZM145.312 296.077V199.093L130.181 225.302C129.604 226.298 128.681 227.045 127.588 227.403C126.494 227.76 125.308 227.702 124.254 227.24L49.6471 198.231V258.88L145.312 296.077ZM252.993 146.588L156.773 184.001L175.911 217.15L272.132 179.736L252.993 146.588ZM143.226 184.001L47.0057 146.588L27.8672 179.736L124.088 217.15L143.226 184.001ZM149.999 165.253C124.334 165.253 102.367 149.416 93.3375 126.981L57.8514 140.779L149.999 176.609L242.147 140.779L206.661 126.981C197.633 149.416 175.666 165.253 149.999 165.253ZM244.354 100.745C246.943 100.745 249.041 102.844 249.041 105.432C249.041 108.021 246.943 110.12 244.354 110.12H222.4C221.157 110.12 219.965 109.626 219.086 108.747C218.207 107.868 217.713 106.676 217.713 105.432C217.713 104.189 218.207 102.997 219.086 102.118C219.965 101.239 221.157 100.745 222.4 100.745H244.354ZM145.312 8.61096C145.312 7.36776 145.806 6.17548 146.685 5.2964C147.564 4.41732 148.756 3.92346 149.999 3.92346C151.243 3.92346 152.435 4.41732 153.314 5.2964C154.193 6.17548 154.687 7.36776 154.687 8.61096V30.5655C154.687 31.8087 154.193 33.0009 153.314 33.88C152.435 34.7591 151.243 35.253 149.999 35.253C148.756 35.253 147.564 34.7591 146.685 33.88C145.806 33.0009 145.312 31.8087 145.312 30.5655V8.61096ZM97.9934 23.1252C97.3936 22.053 97.2407 20.7875 97.568 19.6033C97.8952 18.419 98.6762 17.4116 99.7415 16.7995C100.807 16.1874 102.07 16.02 103.258 16.3336C104.446 16.6472 105.463 17.4165 106.087 18.4746L117.064 37.4877C117.664 38.56 117.817 39.8255 117.489 41.0097C117.162 42.1939 116.381 43.2013 115.316 43.8134C114.25 44.4255 112.987 44.593 111.799 44.2794C110.611 43.9658 109.595 43.1965 108.97 42.1383L97.9934 23.1252ZM64.2574 59.383C63.194 58.7565 62.4215 57.735 62.1081 56.5412C61.7948 55.3474 61.9661 54.0782 62.5847 53.0102C63.2033 51.9422 64.219 51.162 65.4104 50.8398C66.6018 50.5176 67.8723 50.6794 68.9449 51.2901L87.9574 62.267C89.0076 62.9001 89.7672 63.9203 90.0725 65.1079C90.3779 66.2955 90.2046 67.5555 89.59 68.6166C88.9754 69.6777 87.9687 70.455 86.7866 70.7811C85.6045 71.1071 84.3416 70.9559 83.2699 70.36L64.2574 59.383ZM53.1779 107.653C51.9347 107.653 50.7424 107.159 49.8634 106.28C48.9843 105.401 48.4904 104.208 48.4904 102.965C48.4904 101.722 48.9843 100.53 49.8634 99.6505C50.7424 98.7714 51.9347 98.2776 53.1779 98.2776H75.1318C77.7211 98.2776 79.8193 100.376 79.8193 102.965C79.8193 105.554 77.7211 107.653 75.1318 107.653H53.1779ZM193.581 19.708C194.198 18.6349 195.216 17.8507 196.411 17.5279C197.606 17.2051 198.881 17.3701 199.954 17.9865C201.027 18.6034 201.811 19.6212 202.134 20.8161C202.457 22.0111 202.292 23.2853 201.676 24.3586L190.699 43.3717C190.082 44.445 189.064 45.2293 187.869 45.5521C186.674 45.875 185.4 45.7099 184.327 45.0932C183.253 44.4765 182.469 43.4587 182.146 42.2637C181.823 41.0687 181.988 39.7944 182.605 38.7211L193.581 19.708ZM229.821 53.4264C230.894 52.8158 232.164 52.6539 233.356 52.9761C234.547 53.2983 235.563 54.0785 236.181 55.1465C236.8 56.2145 236.971 57.4838 236.658 58.6775C236.345 59.8713 235.572 60.8928 234.509 61.5194L215.496 72.4963C213.261 73.7906 210.4 73.0278 209.105 70.7936C207.811 68.5594 208.574 65.6977 210.808 64.4033L229.821 53.4264ZM169.567 80.6309L138.954 111.245L128.507 98.0977C125.937 94.8645 121.233 94.3278 118 96.8971C114.767 99.4676 114.23 104.171 116.8 107.404L132.174 126.751C134.832 130.559 140.307 131.08 143.62 127.767L180.161 91.2258C183.086 88.3002 183.086 83.5571 180.161 80.6309C177.236 77.7059 172.493 77.7059 169.567 80.6309Z" fill="#EEF1F5"/>
</svg>
