<svg width="30" height="30" viewBox="0 0 30 30" fill="none" xmlns="http://www.w3.org/2000/svg">
<g clip-path="url(#clip0_1627_21536)">
<path d="M28.8635 12.3919L16.6268 12.3914C16.0864 12.3914 15.6484 12.8293 15.6484 13.3696V17.2787C15.6484 17.819 16.0864 18.257 16.6267 18.257H23.5177C22.7631 20.2153 21.3548 21.8552 19.5579 22.8973L22.4962 27.9837C27.2096 25.2578 29.9962 20.4748 29.9962 15.1207C29.9962 14.3583 29.94 13.8133 29.8277 13.1997C29.7422 12.7334 29.3375 12.3919 28.8635 12.3919Z" fill="#167EE6"/>
<path d="M14.9994 24.1305C11.627 24.1305 8.68307 22.2879 7.10191 19.5614L2.01562 22.4931C4.604 26.9791 9.45287 30.0001 14.9994 30.0001C17.7203 30.0001 20.2877 29.2675 22.4994 27.9908V27.9838L19.5611 22.8973C18.217 23.6768 16.6617 24.1305 14.9994 24.1305Z" fill="#12B347"/>
<path d="M22.5 27.9907V27.9837L19.5617 22.8972C18.2177 23.6767 16.6625 24.1304 15 24.1304V30C17.7209 30 20.2884 29.2674 22.5 27.9907Z" fill="#0F993E"/>
<path d="M5.86957 15C5.86957 13.3377 6.3232 11.7826 7.10256 10.4386L2.01627 7.50696C0.732539 9.71167 0 12.2721 0 15C0 17.7279 0.732539 20.2883 2.01627 22.493L7.10256 19.5613C6.3232 18.2174 5.86957 16.6622 5.86957 15Z" fill="#FFD500"/>
<path d="M14.9994 5.86957C17.1984 5.86957 19.2184 6.65098 20.7962 7.95076C21.1854 8.27139 21.7511 8.24824 22.1077 7.8917L24.8774 5.12197C25.2819 4.71744 25.2531 4.05527 24.821 3.68039C22.1775 1.38709 18.738 0 14.9994 0C9.45287 0 4.604 3.02092 2.01562 7.50697L7.10191 10.4387C8.68307 7.71211 11.6271 5.86957 14.9994 5.86957Z" fill="#FF4B26"/>
<path d="M20.7968 7.95076C21.186 8.27138 21.7518 8.24824 22.1083 7.89169L24.878 5.12197C25.2825 4.71744 25.2537 4.05527 24.8216 3.68039C22.1781 1.38703 18.7387 0 15 0V5.86957C17.199 5.86957 19.219 6.65097 20.7968 7.95076Z" fill="#D93F21"/>
</g>
<defs>
<clipPath id="clip0_1627_21536">
<rect width="30" height="30" fill="white"/>
</clipPath>
</defs>
</svg>
