<svg width="38" height="30" viewBox="0 0 38 30" fill="none" xmlns="http://www.w3.org/2000/svg">
<g clip-path="url(#clip0_1627_21547)">
<path d="M18.5934 25.7496H20.8641C20.8641 25.7496 21.5505 25.6736 21.8997 25.296C22.2227 24.9492 22.2108 24.2984 22.2108 24.2984C22.2108 24.2984 22.1657 21.251 23.5813 20.8021C24.9755 20.3603 26.7664 23.7473 28.6642 25.0513C30.0988 26.037 31.189 25.8209 31.189 25.8209L36.2647 25.7496C36.2647 25.7496 38.9202 25.5857 37.6613 23.4979C37.5592 23.3269 36.9274 21.9541 33.8872 19.1324C30.7044 16.1776 31.132 16.6574 34.9655 11.5484C37.3003 8.43695 38.2337 6.53681 37.9416 5.7245C37.6637 4.95019 35.9464 5.15446 35.9464 5.15446L30.2365 5.18771C30.2365 5.18771 29.8137 5.13071 29.4978 5.31834C29.1914 5.50361 28.9943 5.93114 28.9943 5.93114C28.9943 5.93114 28.0894 8.33957 26.8828 10.387C24.339 14.7074 23.32 14.9354 22.9044 14.667C21.9377 14.0424 22.1799 12.1541 22.1799 10.8145C22.1799 6.62707 22.8141 4.88131 20.9425 4.43003C20.3202 4.28039 19.8641 4.18064 18.2751 4.16401C16.2372 4.14263 14.5105 4.17113 13.5343 4.64855C12.8835 4.96682 12.3823 5.677 12.6887 5.71737C13.0664 5.76725 13.9214 5.94777 14.3751 6.56531C14.9618 7.361 14.9404 9.15188 14.9404 9.15188C14.9404 9.15188 15.2777 14.0804 14.1542 14.6932C13.3823 15.1136 12.3253 14.2561 10.057 10.3347C8.89556 8.32769 8.01675 6.1069 8.01675 6.1069C8.01675 6.1069 7.84811 5.69362 7.54646 5.47273C7.18069 5.20434 6.66765 5.11883 6.66765 5.11883L1.238 5.15208C1.238 5.15208 0.423312 5.17583 0.124039 5.52974C-0.14198 5.84563 0.102663 6.49643 0.102663 6.49643C0.102663 6.49643 4.35423 16.4413 9.16634 21.4553C13.5818 26.0513 18.5934 25.7496 18.5934 25.7496Z" fill="#1E88E5"/>
</g>
<defs>
<clipPath id="clip0_1627_21547">
<rect width="38" height="30" fill="white"/>
</clipPath>
</defs>
</svg>
