<svg width="300" height="300" viewBox="0 0 300 300" fill="none" xmlns="http://www.w3.org/2000/svg">
<path d="M284.375 150C284.375 185.875 270.375 219.625 245 245C219.625 270.375 184.375 284.25 150 284.25C115.625 284.25 81.125 271.125 55 245C2.625 192.625 2.625 107.375 55 55C101.625 8.25001 174.375 3.5 226.75 40L225.25 26C224.75 20.875 228.375 16.25 233.625 15.625C238.75 15.125 243.375 18.75 244 24L248 60.625C248.5 65.75 244.875 70.375 239.625 71L202.375 75H201.375C196.625 75 192.625 71.5 192 66.625C191.5 61.5 195.125 56.875 200.375 56.25L215.375 54.625C170.375 23.75 108.375 28.125 68.5 68.125C23.375 113.25 23.375 186.625 68.5 231.625C113.625 276.75 187 276.75 232 231.625C242.775 220.918 251.317 208.178 257.132 194.146C262.947 180.113 265.919 165.065 265.875 149.875C265.875 144.75 270.125 140.5 275.25 140.5C280.375 140.5 284.625 144.75 284.625 149.875L284.375 150ZM148.5 138.25C149.5 138.75 150.625 138.75 151.625 138.25L204 108C204 108 203.125 107.25 202.625 107L161 83C154.25 79.125 145.875 79.125 139.125 83L97.5 107C97.5 107 96.625 107.75 96.125 108L148.5 138.25ZM141 155.25C141 155.25 139.75 154.875 139.125 154.5L86.75 124.25C86.75 124.25 86.5 125.375 86.5 125.875V174C86.5 181.75 90.625 189 97.5 193L139.125 217L141 217.75V155.25ZM161 154.5C161 154.5 160.125 154.875 159.75 155V217.5C159.75 217.5 160.625 217.25 161 217L202.625 193C209.375 189.125 213.625 181.875 213.625 174V125.875C213.625 125.875 213.5 124.75 213.375 124.25L161 154.5Z" fill="#EEF1F5"/>
</svg>
