<svg width="300" height="300" viewBox="0 0 300 300" fill="none" xmlns="http://www.w3.org/2000/svg">
<path d="M108.149 225.31C102.911 225.31 98.0339 222.961 94.769 218.866L83.3073 204.494L73.2232 199.638L46.8947 252.593C46.2461 253.897 45.9414 255.346 46.0093 256.801C46.0773 258.256 46.5157 259.67 47.283 260.909C48.0504 262.147 49.1212 263.169 50.3941 263.878C51.667 264.587 53.0998 264.959 54.5567 264.959H54.576L78.9979 264.904L93.6946 284.408C94.5722 285.573 95.7332 286.494 97.0671 287.084C98.401 287.674 99.8636 287.913 101.316 287.779C102.768 287.645 104.162 287.141 105.365 286.317C106.568 285.492 107.541 284.374 108.19 283.068L134.902 229.341L126.531 225.31H108.149ZM254.145 252.592L227.817 199.637L217.733 204.494L206.271 218.866C203.006 222.961 198.129 225.309 192.891 225.309H174.508L166.137 229.341L192.849 283.067C193.558 284.493 194.651 285.693 196.005 286.532C197.359 287.37 198.92 287.815 200.512 287.815C203.182 287.815 205.72 286.564 207.345 284.407L222.041 264.903L246.463 264.958H246.483C247.94 264.958 249.373 264.587 250.646 263.878C251.919 263.169 252.99 262.147 253.757 260.909C254.525 259.67 254.963 258.256 255.031 256.801C255.099 255.345 254.794 253.897 254.145 252.592Z" fill="#EEF1F5"/>
<path d="M192.889 216.753C195.493 216.753 197.956 215.568 199.579 213.532L212.258 197.632L230.58 188.809C231.738 188.251 232.756 187.439 233.557 186.434C234.359 185.429 234.924 184.257 235.21 183.004L239.735 163.177L252.415 147.278C253.216 146.273 253.781 145.1 254.067 143.847C254.353 142.594 254.353 141.292 254.067 140.039L249.542 120.213L254.067 100.386C254.353 99.1331 254.353 97.8315 254.067 96.5781C253.781 95.3248 253.216 94.1521 252.415 93.1469L239.735 77.248L235.21 57.4216C234.924 56.1683 234.359 54.9956 233.557 53.9906C232.756 52.9856 231.738 52.1741 230.58 51.6164L212.258 42.7928L199.579 26.8934C198.777 25.8884 197.76 25.0769 196.601 24.5191C195.443 23.9614 194.174 23.6718 192.889 23.6718H172.553L154.23 14.8471C153.072 14.2895 151.803 14 150.517 14C149.232 14 147.963 14.2895 146.805 14.8471L128.483 23.6707H108.146C106.861 23.6706 105.592 23.9602 104.434 24.518C103.276 25.0757 102.258 25.8872 101.457 26.8923L88.7772 42.7917L70.4552 51.6153C69.297 52.1731 68.2794 52.9846 67.4779 53.9896C66.6764 54.9946 66.1116 56.1673 65.8255 57.4205L61.3 77.2469L48.6206 93.1458C47.8191 94.1509 47.2543 95.3237 46.9683 96.577C46.6823 97.8304 46.6824 99.132 46.9686 100.385L51.4935 120.212L46.9686 140.038C46.6826 141.291 46.6825 142.592 46.9685 143.846C47.2545 145.099 47.8192 146.272 48.6206 147.277L61.3 163.176L65.8255 183.002C66.1116 184.256 66.6763 185.428 67.4778 186.433C68.2793 187.438 69.297 188.25 70.4552 188.808L88.7772 197.631L101.457 213.531C102.258 214.536 103.276 215.347 104.434 215.905C105.592 216.463 106.861 216.752 108.146 216.752H128.483L146.805 225.576C147.963 226.134 149.232 226.423 150.517 226.423C151.803 226.423 153.071 226.134 154.23 225.576L172.552 216.752H192.888L192.889 216.753ZM150.518 195.084C109.234 195.084 75.6464 161.496 75.6464 120.212C75.6464 78.9283 109.234 45.3411 150.518 45.3411C191.802 45.3411 225.389 78.9283 225.389 120.212C225.389 161.496 191.802 195.084 150.518 195.084Z" fill="#EEF1F5"/>
<path d="M150.522 53.8978C113.955 53.8978 84.207 83.6463 84.207 120.212C84.207 156.778 113.955 186.527 150.522 186.527C187.088 186.527 216.836 156.778 216.836 120.212C216.836 83.6463 187.088 53.8978 150.522 53.8978ZM152.293 139.845C151.499 140.64 150.556 141.271 149.517 141.701C148.478 142.131 147.365 142.352 146.241 142.351C144.298 142.353 142.414 141.691 140.898 140.476L119.506 123.363L130.197 110L145.608 122.329L170.141 97.7959L182.242 109.897L152.293 139.845V139.845Z" fill="#EEF1F5"/>
</svg>
