<svg width="300" height="300" viewBox="0 0 300 300" fill="none" xmlns="http://www.w3.org/2000/svg">
<path fill-rule="evenodd" clip-rule="evenodd" d="M121.218 174.83C111.131 171.558 101.501 175.957 92.8588 180.96L57.535 201.412L83.6942 247.634L90.2133 243.87C91.2823 243.254 92.5521 243.088 93.7436 243.408L163.281 262.025C172.045 264.374 180.336 263.313 188.085 258.543C220.061 238.907 251.998 219.206 283.951 199.532C288.81 196.54 289.44 188.366 286.56 183.727C280.209 173.493 262.616 182.013 255.307 186.269L202.482 217.038C198.298 219.474 193.994 221.023 189.527 221.773C185.117 222.513 180.575 222.462 175.857 221.707L169.624 220.696C169.389 220.658 169.156 220.624 168.925 220.568C157.056 218.13 145.562 214.419 133.877 211.288C132.692 210.955 131.686 210.168 131.076 209.099C130.467 208.029 130.304 206.762 130.622 205.573C130.939 204.384 131.713 203.368 132.774 202.744C133.836 202.121 135.1 201.941 136.294 202.243C147.718 205.304 159.042 208.983 170.624 211.378C176.507 212.098 181.361 210.242 182.994 204.148C184.475 198.62 180.99 193.41 175.768 191.601C159.904 188.697 144.506 183.131 132.398 178.754C128.186 177.231 124.379 175.855 121.218 174.83ZM183.376 89.5084C186.137 86.748 190.653 86.748 193.413 89.5084L200.605 96.7001L220.063 77.2418C222.824 74.4814 227.341 74.4814 230.101 77.2418C232.862 80.0021 232.862 84.5191 230.101 87.2794L205.763 111.618C202.243 115.137 197.536 113.707 194.415 110.586L183.375 99.5466C180.615 96.7857 180.615 92.2687 183.376 89.5084ZM270.06 80.0326C268.467 73.3435 265.818 66.9514 262.211 61.0974L267.672 48.7998L253.174 34.3019L240.873 39.7652C235.02 36.1595 228.63 33.5102 221.943 31.9171L217.111 19.364H196.608L191.776 31.9171C185.089 33.5103 178.699 36.1596 172.846 39.7652L160.545 34.3019L146.047 48.8003L151.51 61.1003C147.904 66.9533 145.254 73.3442 143.662 80.032L131.11 84.8636V105.367L143.66 110.197C145.253 116.886 147.903 123.278 151.509 129.132L146.048 141.429L160.546 155.927L172.847 150.464C178.699 154.07 185.09 156.719 191.777 158.311L196.608 170.865H217.112L221.942 158.314C228.631 156.722 235.023 154.072 240.877 150.465L253.174 155.927L267.672 141.429L262.209 129.128C265.814 123.275 268.463 116.885 270.056 110.198L282.609 105.366V84.863L270.06 80.0326ZM206.738 134.656C184.518 134.656 166.505 116.643 166.505 94.4232C166.505 72.2027 184.518 54.1898 206.738 54.1898C228.958 54.1898 246.971 72.2027 246.971 94.4232C246.971 116.643 228.958 134.656 206.738 134.656ZM87.7371 93.846L94.1783 110.811C94.3717 111.32 94.8229 111.648 95.3672 111.674L113.492 112.558C114.725 112.618 115.229 114.171 114.267 114.944L100.123 126.312C99.9171 126.474 99.7637 126.693 99.6828 126.942C99.6019 127.191 99.5972 127.459 99.6692 127.71L104.43 145.221C104.753 146.412 103.433 147.371 102.4 146.696L87.2174 136.757C87.0002 136.611 86.7444 136.533 86.4826 136.533C86.2209 136.533 85.9651 136.611 85.7479 136.757L70.5656 146.696C69.5332 147.371 68.2125 146.412 68.536 145.221L73.2967 127.71C73.3685 127.459 73.3637 127.191 73.2828 126.942C73.2019 126.693 73.0487 126.474 72.8426 126.312L58.6987 114.944C57.7365 114.17 58.241 112.618 59.4738 112.558L77.5987 111.674C77.8603 111.665 78.1131 111.578 78.325 111.424C78.5368 111.27 78.6981 111.057 78.7881 110.811L85.2287 93.846C85.6635 92.6988 87.3018 92.6988 87.7371 93.846ZM87.7371 12.5033L94.1778 29.4679C94.3717 29.9777 94.8223 30.3052 95.3672 30.3316L113.491 31.2152C114.724 31.2749 115.229 32.8283 114.267 33.6011L100.123 44.9695C99.9167 45.1311 99.7636 45.3504 99.6827 45.5993C99.6018 45.8483 99.5969 46.1157 99.6686 46.3675L104.429 63.8783C104.753 65.0689 103.433 66.0287 102.4 65.3531L87.2174 55.4144C87.0002 55.2683 86.7444 55.1903 86.4826 55.1903C86.2209 55.1903 85.9651 55.2683 85.7479 55.4144L70.5656 65.3531C69.5332 66.0293 68.2119 65.0695 68.536 63.8783L73.2967 46.3675C73.3684 46.1157 73.3634 45.8483 73.2826 45.5993C73.2017 45.3504 73.0485 45.1311 72.8426 44.9695L58.6987 33.6011C57.7365 32.8283 58.2416 31.2749 59.4738 31.2152L77.5987 30.3316C77.8602 30.3222 78.1131 30.235 78.3249 30.0811C78.5366 29.9273 78.6977 29.7138 78.7875 29.4679L85.2287 12.5033C85.6635 11.356 87.3012 11.356 87.7371 12.5033ZM84.6551 268.366L41.0807 191.373C38.9737 187.65 34.2041 186.328 30.4811 188.435L15.6598 196.823C11.9367 198.93 10.6149 203.7 12.7219 207.423L56.2969 284.416C58.4039 288.139 63.1735 289.461 66.8965 287.354L81.7178 278.966C85.4397 276.859 86.7621 272.089 84.6551 268.366ZM32.6197 213.386C31.9307 213.49 31.2279 213.456 30.5518 213.288C29.8757 213.119 29.2395 212.818 28.6798 212.403C28.1201 211.988 27.648 211.467 27.2904 210.868C26.9328 210.27 26.6969 209.608 26.5961 208.918C26.4953 208.228 26.5317 207.526 26.7032 206.85C26.8747 206.175 27.1779 205.54 27.5954 204.982C28.0128 204.424 28.5364 203.954 29.136 203.599C29.7355 203.244 30.3993 203.011 31.0893 202.913C32.4751 202.716 33.8825 203.077 35.0032 203.915C36.124 204.754 36.8668 206.002 37.0692 207.388C37.2716 208.773 36.9171 210.181 36.0832 211.306C35.2493 212.43 34.0039 213.178 32.6197 213.386Z" fill="#EEF1F5"/>
</svg>
