<svg width="300" height="300" viewBox="0 0 300 300" fill="none" xmlns="http://www.w3.org/2000/svg">
<path d="M187.5 243.609C182.737 245.522 177.816 247.125 172.725 248.297L170.663 275.166C170.535 276.821 169.787 278.368 168.569 279.496C167.35 280.624 165.751 281.25 164.091 281.25H135.9C134.242 281.25 132.645 280.625 131.428 279.498C130.212 278.372 129.465 276.828 129.337 275.175L127.275 248.306C116.405 245.801 106.031 241.494 96.5813 235.566L76.0969 253.125C74.8371 254.206 73.2155 254.77 71.557 254.706C69.8984 254.642 68.3254 253.953 67.1531 252.778L47.2219 232.847C46.0489 231.673 45.3617 230.101 45.2974 228.443C45.2331 226.785 45.7964 225.164 46.875 223.903L64.4344 203.419C58.5136 193.965 54.2079 183.592 51.6937 172.725L24.825 170.663C23.1712 170.533 21.6271 169.784 20.501 168.566C19.3749 167.348 18.7496 165.75 18.75 164.091V135.9C18.75 132.459 21.4031 129.6 24.825 129.337L51.6937 127.275C54.1995 116.405 58.5058 106.031 64.4344 96.5813L46.8844 76.0969C45.8052 74.8388 45.2405 73.2199 45.3031 71.5636C45.3657 69.9073 46.0509 68.3356 47.2219 67.1625L67.1531 47.2313C68.3276 46.0603 69.9 45.3744 71.5572 45.3101C73.2145 45.2459 74.8352 45.8079 76.0969 46.8844L96.5813 64.4438C106.035 58.523 116.408 54.2172 127.275 51.7031L129.337 24.8344C129.465 23.1788 130.213 21.6325 131.431 20.5044C132.65 19.3764 134.249 18.7498 135.909 18.75H164.1C167.541 18.75 170.4 21.4031 170.663 24.825L170.784 26.3906C164.069 36.6906 160.176 48.5733 159.495 60.8501C158.814 73.1269 161.369 85.3673 166.903 96.3469C159.168 93.9114 150.999 93.1771 142.954 94.1943C134.909 95.2114 127.179 97.9559 120.293 102.24C113.408 106.524 107.531 112.246 103.064 119.013C98.5966 125.781 95.6456 133.434 94.4129 141.449C93.1802 149.464 93.695 157.651 95.922 165.448C98.149 173.245 102.036 180.469 107.315 186.624C112.595 192.778 119.143 197.719 126.51 201.106C133.878 204.494 141.891 206.249 150 206.25C163.853 206.255 177.215 201.12 187.5 191.841V243.609Z" fill="#EEF1F5"/>
<path d="M253.125 110.522V257.812C253.125 264.029 250.656 269.99 246.26 274.385C241.865 278.781 235.904 281.25 229.688 281.25C223.472 281.25 217.51 278.781 213.115 274.385C208.719 269.99 206.25 264.029 206.25 257.812V110.522C197.929 106.281 190.918 99.8576 185.967 91.939C181.016 84.0204 178.311 74.9047 178.141 65.5671C177.972 56.2296 180.344 47.0216 185.005 38.9286C189.665 30.8355 196.439 24.1619 204.6 19.6219C205.322 19.2281 206.25 19.7906 206.25 20.6156V75L229.688 84.375L253.125 75V20.6156C253.125 19.7906 254.053 19.2281 254.775 19.6312C262.939 24.1677 269.716 30.8396 274.379 38.9323C279.042 47.025 281.416 56.2336 281.246 65.5721C281.077 74.9105 278.37 84.027 273.416 91.9451C268.463 99.8632 261.449 106.285 253.125 110.522Z" fill="#EEF1F5"/>
</svg>
