<svg width="300" height="300" viewBox="0 0 300 300" fill="none" xmlns="http://www.w3.org/2000/svg">
<path fill-rule="evenodd" clip-rule="evenodd" d="M134.96 31.3593L167.662 50.2398L61.6386 111.452V156.811C61.6386 158.624 62.537 160.18 64.1069 161.087L88.683 175.275C89.4677 175.729 90.3661 175.729 91.1513 175.275C91.936 174.822 92.3852 174.044 92.3852 173.138V129.204L198.409 67.9914L231.111 86.8719C234.25 88.6844 236.048 91.7969 236.048 95.4218V152.16C227.169 149.165 217.775 147.55 208.392 146.977V143.174C208.392 139.029 206.026 135.313 202.271 133.56C198.517 131.807 194.148 132.378 190.971 135.037L153.328 166.543C150.205 169.156 148.499 172.967 148.629 177.036C148.759 181.123 150.692 184.79 153.988 187.209L191.505 214.734C193.084 215.898 194.956 216.6 196.912 216.761C198.867 216.922 200.829 216.535 202.577 215.644C206.165 213.826 208.392 210.201 208.392 206.179V201.979C216.201 202.91 223.93 205.311 230.277 209.906C231.504 210.792 232.669 211.763 233.762 212.811C233.035 213.662 232.146 214.401 231.112 214.998L134.96 270.51C131.821 272.323 128.227 272.323 125.087 270.51L28.9366 214.998C25.7968 213.185 24 210.073 24 206.447V95.4223C24 91.7969 25.7968 88.6843 28.9366 86.8724L125.088 31.3593C128.227 29.5469 131.821 29.5469 134.96 31.3593ZM200.307 193.426C253.104 193.426 268.067 243.853 224.7 266.519C224.585 266.577 224.498 266.678 224.455 266.799C224.412 266.92 224.417 267.053 224.47 267.171C224.572 267.399 224.813 267.52 225.055 267.459C297.107 249.737 292.069 154.819 200.307 154.819V143.174C200.307 142.169 199.76 141.31 198.85 140.885C197.94 140.46 196.93 140.592 196.159 141.236L158.516 172.743C157.285 173.773 156.658 175.175 156.709 176.779C156.76 178.383 157.476 179.742 158.77 180.692L196.287 208.216C197.074 208.793 198.052 208.874 198.923 208.433C199.793 207.992 200.307 207.155 200.307 206.179V193.426Z" fill="#EEF1F5"/>
</svg>
