<svg width="100" height="84" viewBox="0 0 100 84" fill="none" xmlns="http://www.w3.org/2000/svg">
<path d="M18.7649 41.6099C18.9778 24.4765 32.9006 10.6057 49.9912 10.6057C59.8913 10.6057 68.7269 15.2595 74.4528 22.5079C76.6529 19.9426 78.8368 17.4032 80.9207 14.9741C73.4012 6.28581 62.3236 0.782227 49.9912 0.782227C27.3811 0.782227 8.9873 19.2745 8.9873 42.0056C8.9873 46.4292 9.68731 50.6939 10.9777 54.6895C13.539 50.3858 16.1971 45.9201 18.7649 41.6099Z" fill="#090909"/>
<path d="M81.218 42.4252C80.9954 59.5457 67.0726 73.4068 49.9917 73.4068C40.0948 73.4068 31.2592 68.7529 25.5333 61.511C23.3332 64.0763 21.1493 66.6157 19.0654 69.0448C26.5881 77.7299 37.6625 83.2302 49.9917 83.2302C72.6017 83.2302 90.9956 64.7379 90.9956 42.0068C90.9956 37.5864 90.2988 33.3282 89.0117 29.3359C86.4471 33.6428 83.789 38.1118 81.2212 42.4252H81.218Z" fill="#FA0959"/>
<path d="M45.0381 38.7685C42.7735 41.4084 39.8767 44.7877 36.667 48.5303L43.4381 60.2866C43.8026 60.9255 44.1155 61.4768 44.3413 61.8725C44.3671 61.9179 44.3929 61.9568 44.4219 61.9957L49.0381 70.0322C49.3672 70.0452 49.6962 70.0549 50.0253 70.0549C53.5285 70.0549 56.8802 69.3998 59.9738 68.2096L63.5255 62.0184L100 0.736328L53.9737 54.3225L45.0381 38.7652V38.7685Z" fill="#FA0959"/>
<path d="M54.9621 45.2316C57.2267 42.5917 60.1235 39.2124 63.3332 35.4698L56.5621 23.7135C56.1976 23.0746 55.8847 22.5232 55.6589 22.1276C55.6331 22.0822 55.6073 22.04 55.5782 22.0043L50.9653 13.9744C50.6524 13.9646 50.3395 13.9517 50.0266 13.9517C46.4942 13.9517 43.1135 14.6197 40.0006 15.8294L36.4715 21.9784L0 83.2638L46.0265 29.6776L54.9621 45.2349V45.2316Z" fill="#090909"/>
</svg>
