<svg width="250" height="79" viewBox="0 0 250 79" fill="none" xmlns="http://www.w3.org/2000/svg">
<path d="M113.813 50.6683C110.595 50.6683 107.853 49.5458 105.59 47.3029C103.326 45.06 102.212 42.3035 102.212 39.0052C102.212 35.707 103.326 32.9483 105.59 30.7076C107.853 28.4647 110.593 27.3422 113.813 27.3422C117.033 27.3422 119.773 28.4625 122.036 30.7076C124.299 32.9505 125.414 35.707 125.414 39.0052C125.414 42.3035 124.297 45.0621 122.036 47.3029C119.773 49.5458 117.033 50.6683 113.813 50.6683ZM113.813 45.6689C115.662 45.6689 117.191 45.06 118.434 43.8096C119.678 42.5592 120.314 40.9577 120.314 39.0031C120.314 37.0484 119.676 35.4469 118.434 34.1965C117.193 32.9462 115.662 32.3372 113.813 32.3372C111.963 32.3372 110.403 32.9462 109.159 34.1965C107.915 35.4469 107.31 37.0484 107.31 39.0031C107.31 40.9577 107.915 42.5592 109.159 43.8096C110.403 45.06 111.963 45.6689 113.813 45.6689Z" fill="#090909"/>
<path d="M150.927 27.792V50.221H145.827V37.1797L140.059 46.6952H139.485L133.717 37.1797V50.221H128.617V27.792H133.717L139.772 37.7561L145.827 27.792H150.927Z" fill="#090909"/>
<path d="M168.94 50.221L167.826 46.6974H159.54L158.423 50.221H152.845L160.43 27.792H166.931L174.516 50.221H168.938H168.94ZM161.068 41.8908H166.295L163.68 33.656L161.068 41.8908Z" fill="#090909"/>
<path d="M189.668 27.792V32.7264H183.932V50.221H178.833V32.7264H173.097V27.792H189.67H189.668Z" fill="#090909"/>
<path d="M197.394 45.2866H206.318V50.221H192.294V27.792H206.158V32.7264H197.394V36.4429H205.361V41.3122H197.394V45.2844V45.2866Z" fill="#090909"/>
<path d="M211.976 47.3354C209.778 45.0925 208.693 42.3057 208.693 39.0052C208.693 35.7048 209.778 32.918 211.976 30.7076C214.175 28.4647 216.949 27.3422 220.294 27.3422C224.278 27.3422 227.912 29.3293 229.856 32.5323L225.459 35.0959C224.472 33.3341 222.558 32.3394 220.296 32.3394C218.32 32.3394 216.727 32.9483 215.548 34.1662C214.369 35.3841 213.795 36.9855 213.795 39.0052C213.795 41.0249 214.369 42.6264 215.548 43.8443C216.727 45.0621 218.32 45.6711 220.296 45.6711C222.56 45.6711 224.536 44.6136 225.459 42.9146L229.856 45.4782C227.944 48.6833 224.342 50.6683 220.294 50.6683C216.947 50.6683 214.175 49.5458 211.976 47.3354Z" fill="#090909"/>
<path d="M244.9 27.792H250V50.221H244.9V41.3144H237.888V50.221H232.788V27.792H237.888V36.38H244.9V27.792Z" fill="#090909"/>
<path d="M17.7633 38.6904C17.9648 22.4719 31.1442 9.34173 47.3221 9.34173C56.6937 9.34173 65.0575 13.7471 70.4776 20.6084C72.5602 18.1801 74.6275 15.7763 76.6001 13.4769C69.4821 5.25255 58.9961 0.0428467 47.3221 0.0428467C25.9195 0.0428467 8.50781 17.5477 8.50781 39.065C8.50781 43.2524 9.17044 47.2894 10.3919 51.0716C12.8164 46.9977 15.3326 42.7704 17.7633 38.6904Z" fill="#090909"/>
<path d="M76.8806 39.4612C76.6699 55.6675 63.4906 68.7885 47.3218 68.7885C37.9533 68.7885 29.5895 64.3831 24.1693 57.5279C22.0868 59.9562 20.0195 62.36 18.0469 64.6594C25.1679 72.8807 35.6509 78.0874 47.3218 78.0874C68.7245 78.0874 86.1361 60.5825 86.1361 39.0652C86.1361 34.8809 85.4765 30.85 84.2581 27.0709C81.8305 31.1478 79.3143 35.3782 76.8837 39.4612H76.8806Z" fill="#FA0959"/>
<path d="M42.6331 36.0013C40.4895 38.5003 37.7473 41.6991 34.709 45.2419L41.1185 56.3704C41.4636 56.9752 41.7598 57.4971 41.9735 57.8716C41.9979 57.9146 42.0224 57.9515 42.0498 57.9883L46.4195 65.5956C46.731 65.6079 47.0425 65.6171 47.354 65.6171C50.6702 65.6171 53.8429 64.997 56.7713 63.8703L60.1333 58.0098L94.6604 0L51.0916 50.7248L42.6331 35.9982V36.0013Z" fill="#FA0959"/>
<path d="M52.0273 42.1196C54.1709 39.6206 56.913 36.4217 59.9514 32.879L53.5419 21.7504C53.1968 21.1457 52.9006 20.6238 52.6868 20.2492C52.6624 20.2063 52.638 20.1663 52.6105 20.1326L48.2439 12.5314C47.9477 12.5222 47.6515 12.5099 47.3553 12.5099C44.0116 12.5099 40.8114 13.1423 37.8647 14.2874L34.524 20.108L0 78.1209L43.5688 27.3961L52.0273 42.1226V42.1196Z" fill="#090909"/>
</svg>
