<svg width="95" height="79" viewBox="0 0 95 79" fill="none" xmlns="http://www.w3.org/2000/svg">
<path d="M17.7632 38.69C17.9647 22.4716 31.144 9.34153 47.3218 9.34153C56.6933 9.34153 65.057 13.7469 70.4771 20.6082C72.5597 18.1798 74.6269 15.7761 76.5995 13.4767C69.4817 5.25239 58.9957 0.0427246 47.3218 0.0427246C25.9193 0.0427246 8.50781 17.5474 8.50781 39.0645C8.50781 43.2519 9.17044 47.2889 10.3919 51.071C12.8164 46.9972 15.3326 42.7699 17.7632 38.69Z" fill="#090909"/>
<path d="M76.8802 39.461C76.6695 55.6672 63.4902 68.788 47.3215 68.788C37.9531 68.788 29.5894 64.3827 24.1693 57.5275C22.0868 59.9558 20.0195 62.3596 18.0469 64.659C25.1678 72.8802 35.6507 78.0868 47.3215 78.0868C68.724 78.0868 86.1355 60.5821 86.1355 39.065C86.1355 34.8807 85.476 30.8499 84.2576 27.0708C81.83 31.1477 79.3139 35.378 76.8832 39.461H76.8802Z" fill="#FA0959"/>
<path d="M42.633 36.001C40.4894 38.4999 37.7473 41.6988 34.709 45.2415L41.1184 56.37C41.4635 56.9748 41.7597 57.4967 41.9734 57.8712C41.9979 57.9142 42.0223 57.951 42.0498 57.9878L46.4195 65.5951C46.7309 65.6074 47.0424 65.6166 47.3539 65.6166C50.67 65.6166 53.8427 64.9965 56.7711 63.8698L60.1331 58.0093L94.6599 0L51.0914 50.7244L42.633 35.998V36.001Z" fill="#FA0959"/>
<path d="M52.0269 42.1191C54.1705 39.6202 56.9126 36.4213 59.9509 32.8786L53.5414 21.7501C53.1964 21.1453 52.9002 20.6235 52.6864 20.2489C52.662 20.2059 52.6376 20.166 52.6101 20.1323L48.2435 12.5311C47.9473 12.5219 47.6511 12.5096 47.3549 12.5096C44.0112 12.5096 40.8111 13.142 37.8644 14.2871L34.5238 20.1077L0 78.1201L43.5684 27.3957L52.0269 42.1222V42.1191Z" fill="#090909"/>
</svg>
