<svg width="95" height="79" viewBox="0 0 95 79" fill="none" xmlns="http://www.w3.org/2000/svg">
<path d="M17.7632 38.6903C17.9647 22.4718 31.144 9.34177 47.3218 9.34177C56.6933 9.34177 65.057 13.7471 70.4771 20.6084C72.5597 18.1801 74.6269 15.7763 76.5995 13.477C69.4817 5.25263 58.9957 0.0429688 47.3218 0.0429688C25.9193 0.0429688 8.50781 17.5477 8.50781 39.0648C8.50781 43.2522 9.17044 47.2891 10.3919 51.0713C12.8164 46.9975 15.3326 42.7702 17.7632 38.6903Z" fill="white"/>
<path d="M76.8802 39.4609C76.6695 55.667 63.4902 68.7879 47.3215 68.7879C37.9531 68.7879 29.5894 64.3826 24.1693 57.5274C22.0868 59.9557 20.0195 62.3595 18.0469 64.6589C25.1678 72.8801 35.6507 78.0867 47.3215 78.0867C68.724 78.0867 86.1355 60.582 86.1355 39.0649C86.1355 34.8806 85.476 30.8498 84.2576 27.0707C81.83 31.1475 79.3139 35.3779 76.8832 39.4609H76.8802Z" fill="#FA0959"/>
<path d="M42.633 36.001C40.4894 38.4999 37.7473 41.6988 34.709 45.2415L41.1184 56.37C41.4635 56.9748 41.7597 57.4967 41.9734 57.8712C41.9979 57.9142 42.0223 57.951 42.0498 57.9878L46.4195 65.5951C46.7309 65.6074 47.0424 65.6166 47.3539 65.6166C50.67 65.6166 53.8427 64.9965 56.7711 63.8698L60.1331 58.0093L94.6599 0L51.0914 50.7244L42.633 35.998V36.001Z" fill="#FA0959"/>
<path d="M52.0269 42.1193C54.1705 39.6204 56.9126 36.4215 59.9509 32.8788L53.5414 21.7504C53.1964 21.1456 52.9002 20.6237 52.6864 20.2492C52.662 20.2062 52.6376 20.1663 52.6101 20.1325L48.2435 12.5314C47.9473 12.5222 47.6511 12.5099 47.3549 12.5099C44.0112 12.5099 40.8111 13.1423 37.8644 14.2874L34.5238 20.108L0 78.1203L43.5684 27.396L52.0269 42.1224V42.1193Z" fill="white"/>
</svg>
