<svg width="250" height="79" viewBox="0 0 250 79" fill="none" xmlns="http://www.w3.org/2000/svg">
<path d="M113.813 50.9172C110.595 50.9172 107.853 49.7947 105.59 47.5518C103.326 45.3089 102.212 42.5524 102.212 39.2541C102.212 35.9559 103.326 33.1972 105.59 30.9565C107.853 28.7136 110.593 27.5911 113.813 27.5911C117.033 27.5911 119.773 28.7114 122.036 30.9565C124.299 33.1994 125.414 35.9559 125.414 39.2541C125.414 42.5524 124.297 45.311 122.036 47.5518C119.773 49.7947 117.033 50.9172 113.813 50.9172ZM113.813 45.9178C115.662 45.9178 117.191 45.3089 118.434 44.0585C119.678 42.8081 120.314 41.2066 120.314 39.252C120.314 37.2973 119.676 35.6958 118.434 34.4454C117.193 33.1951 115.662 32.5861 113.813 32.5861C111.963 32.5861 110.403 33.1951 109.159 34.4454C107.915 35.6958 107.31 37.2973 107.31 39.252C107.31 41.2066 107.915 42.8081 109.159 44.0585C110.403 45.3089 111.963 45.9178 113.813 45.9178Z" fill="white"/>
<path d="M150.927 28.0409V50.4699H145.827V37.4286L140.059 46.9441H139.485L133.717 37.4286V50.4699H128.617V28.0409H133.717L139.772 38.005L145.827 28.0409H150.927Z" fill="white"/>
<path d="M168.94 50.4699L167.826 46.9463H159.54L158.423 50.4699H152.845L160.43 28.0409H166.931L174.516 50.4699H168.938H168.94ZM161.068 42.1397H166.295L163.68 33.9049L161.068 42.1397Z" fill="white"/>
<path d="M189.668 28.0409V32.9753H183.932V50.4699H178.833V32.9753H173.097V28.0409H189.67H189.668Z" fill="white"/>
<path d="M197.394 45.5355H206.318V50.4699H192.294V28.0409H206.158V32.9753H197.394V36.6918H205.361V41.5611H197.394V45.5333V45.5355Z" fill="white"/>
<path d="M211.976 47.5843C209.778 45.3414 208.693 42.5546 208.693 39.2541C208.693 35.9537 209.778 33.1669 211.976 30.9565C214.175 28.7136 216.949 27.5911 220.294 27.5911C224.278 27.5911 227.912 29.5783 229.856 32.7812L225.459 35.3448C224.472 33.583 222.558 32.5883 220.296 32.5883C218.32 32.5883 216.727 33.1972 215.548 34.4151C214.369 35.633 213.795 37.2344 213.795 39.2541C213.795 41.2738 214.369 42.8753 215.548 44.0932C216.727 45.311 218.32 45.92 220.296 45.92C222.56 45.92 224.536 44.8625 225.459 43.1635L229.856 45.7271C227.944 48.9322 224.342 50.9172 220.294 50.9172C216.947 50.9172 214.175 49.7947 211.976 47.5843Z" fill="white"/>
<path d="M244.9 28.0409H250V50.4699H244.9V41.5633H237.888V50.4699H232.788V28.0409H237.888V36.6289H244.9V28.0409Z" fill="white"/>
<path d="M17.7633 38.9393C17.9648 22.7208 31.1442 9.59063 47.3221 9.59063C56.6937 9.59063 65.0575 13.996 70.4776 20.8573C72.5602 18.429 74.6275 16.0252 76.6001 13.7259C69.4821 5.50145 58.9961 0.291748 47.3221 0.291748C25.9195 0.291748 8.50781 17.7966 8.50781 39.3139C8.50781 43.5013 9.17044 47.5383 10.3919 51.3205C12.8164 47.2466 15.3326 43.0193 17.7633 38.9393Z" fill="white"/>
<path d="M76.8806 39.7103C76.6699 55.9165 63.4906 69.0375 47.3218 69.0375C37.9533 69.0375 29.5895 64.6321 24.1693 57.7769C22.0868 60.2053 20.0195 62.609 18.0469 64.9084C25.1679 73.1297 35.6509 78.3364 47.3218 78.3364C68.7245 78.3364 86.1361 60.8315 86.1361 39.3142C86.1361 35.1299 85.4765 31.0991 84.2581 27.3199C81.8305 31.3968 79.3143 35.6272 76.8837 39.7103H76.8806Z" fill="#FA0959"/>
<path d="M42.6331 36.2502C40.4895 38.7492 37.7473 41.948 34.709 45.4908L41.1185 56.6193C41.4636 57.2241 41.7598 57.746 41.9735 58.1205C41.9979 58.1635 42.0224 58.2004 42.0498 58.2372L46.4195 65.8445C46.731 65.8568 47.0425 65.866 47.354 65.866C50.6702 65.866 53.8429 65.2459 56.7713 64.1192L60.1333 58.2587L94.6604 0.248901L51.0916 50.9737L42.6331 36.2471V36.2502Z" fill="#FA0959"/>
<path d="M52.0273 42.3685C54.1709 39.8695 56.913 36.6706 59.9514 33.1279L53.5419 21.9993C53.1968 21.3946 52.9006 20.8727 52.6868 20.4981C52.6624 20.4552 52.638 20.4152 52.6105 20.3815L48.2439 12.7803C47.9477 12.7711 47.6515 12.7588 47.3553 12.7588C44.0116 12.7588 40.8114 13.3912 37.8647 14.5363L34.524 20.3569L0 78.3698L43.5688 27.645L52.0273 42.3715V42.3685Z" fill="white"/>
</svg>
