<svg width="191" height="60" viewBox="0 0 191 60" fill="none" xmlns="http://www.w3.org/2000/svg">
<circle cx="30" cy="30" r="30" fill="#090909"/>
<path d="M186.317 21.5H190.317V39H186.317V32.05H180.817V39H176.817V21.5H180.817V28.2H186.317V21.5Z" fill="#090909"/>
<path d="M167.443 39.35C164.826 39.35 162.651 38.4834 160.918 36.75C159.201 35 158.343 32.8334 158.343 30.25C158.343 27.6667 159.201 25.5084 160.918 23.775C162.651 22.025 164.826 21.15 167.443 21.15C169.009 21.15 170.459 21.5167 171.793 22.25C173.126 22.9667 174.176 23.95 174.943 25.2L171.493 27.2C171.109 26.5167 170.559 25.9917 169.843 25.625C169.126 25.2417 168.326 25.05 167.443 25.05C165.893 25.05 164.651 25.525 163.718 26.475C162.801 27.425 162.343 28.6834 162.343 30.25C162.343 31.8167 162.801 33.075 163.718 34.025C164.651 34.975 165.893 35.45 167.443 35.45C168.326 35.45 169.126 35.2584 169.843 34.875C170.576 34.4917 171.126 33.9667 171.493 33.3L174.943 35.3C174.193 36.55 173.151 37.5417 171.818 38.275C170.484 38.9917 169.026 39.35 167.443 39.35Z" fill="#090909"/>
<path d="M149.958 35.15H156.958V39H145.958V21.5H156.833V25.35H149.958V28.25H156.208V32.05H149.958V35.15Z" fill="#090909"/>
<path d="M144.207 21.5V25.35H139.707V39H135.707V25.35H131.207V21.5H144.207Z" fill="#090909"/>
<path d="M127.835 39L126.96 36.25H120.46L119.585 39H115.21L121.16 21.5H126.26L132.21 39H127.835ZM121.66 32.5H125.76L123.71 26.075L121.66 32.5Z" fill="#090909"/>
<path d="M113.702 21.5V39H109.702V28.825L105.177 36.25H104.727L100.202 28.825V39H96.2021V21.5H100.202L104.952 29.275L109.702 21.5H113.702Z" fill="#090909"/>
<path d="M91.3 36.725C89.5333 38.475 87.3833 39.35 84.85 39.35C82.3167 39.35 80.1667 38.475 78.4 36.725C76.6333 34.975 75.75 32.8167 75.75 30.25C75.75 27.6834 76.6333 25.525 78.4 23.775C80.1667 22.025 82.3167 21.15 84.85 21.15C87.3833 21.15 89.5333 22.025 91.3 23.775C93.0667 25.525 93.95 27.6834 93.95 30.25C93.95 32.8167 93.0667 34.975 91.3 36.725ZM81.2 34C82.1833 34.9667 83.4 35.45 84.85 35.45C86.3 35.45 87.5083 34.9667 88.475 34C89.4583 33.0334 89.95 31.7834 89.95 30.25C89.95 28.7167 89.4583 27.4667 88.475 26.5C87.5083 25.5334 86.3 25.05 84.85 25.05C83.4 25.05 82.1833 25.5334 81.2 26.5C80.2333 27.4667 79.75 28.7167 79.75 30.25C79.75 31.7834 80.2333 33.0334 81.2 34Z" fill="#090909"/>
</svg>
