<svg width="100" height="83" viewBox="0 0 100 83" fill="none" xmlns="http://www.w3.org/2000/svg">
<path d="M18.7649 41.1373C18.9778 24.0038 32.9006 10.133 49.9912 10.133C59.8913 10.133 68.7269 14.7869 74.4528 22.0353C76.6529 19.47 78.8368 16.9306 80.9207 14.5015C73.4012 5.81316 62.3236 0.30957 49.9912 0.30957C27.3811 0.30957 8.9873 18.8019 8.9873 41.5329C8.9873 45.9566 9.68731 50.2213 10.9777 54.2168C13.539 49.9132 16.1971 45.4474 18.7649 41.1373Z" fill="white"/>
<path d="M81.218 41.9525C80.9954 59.073 67.0726 72.9341 49.9917 72.9341C40.0948 72.9341 31.2592 68.2802 25.5333 61.0383C23.3332 63.6036 21.1493 66.143 19.0654 68.5721C26.5881 77.2572 37.6625 82.7575 49.9917 82.7575C72.6017 82.7575 90.9956 64.2652 90.9956 41.5342C90.9956 37.1138 90.2988 32.8556 89.0117 28.8633C86.4471 33.1702 83.789 37.6392 81.2212 41.9525H81.218Z" fill="#FA0959"/>
<path d="M45.0381 38.2958C42.7735 40.9357 39.8767 44.3151 36.667 48.0576L43.4381 59.814C43.8026 60.4529 44.1155 61.0042 44.3413 61.3998C44.3671 61.4453 44.3929 61.4842 44.4219 61.5231L49.0381 69.5596C49.3672 69.5725 49.6962 69.5823 50.0253 69.5823C53.5285 69.5823 56.8802 68.9271 59.9738 67.7369L63.5255 61.5458L100 0.263672L53.9737 53.8499L45.0381 38.2926V38.2958Z" fill="#FA0959"/>
<path d="M54.9621 44.759C57.2267 42.1191 60.1235 38.7397 63.3332 34.9971L56.5621 23.2408C56.1976 22.6019 55.8847 22.0506 55.6589 21.6549C55.6331 21.6095 55.6073 21.5674 55.5782 21.5317L50.9653 13.5017C50.6524 13.492 50.3395 13.479 50.0266 13.479C46.4942 13.479 43.1135 14.1471 40.0006 15.3568L36.4715 21.5057L0 82.7911L46.0265 29.2049L54.9621 44.7622V44.759Z" fill="white"/>
</svg>
