<svg width="30" height="30" viewBox="0 0 30 30" fill="none" xmlns="http://www.w3.org/2000/svg">
<g clip-path="url(#clip0_719_15899)">
<path d="M30 15.003C30 23.2905 23.289 30 15.0045 30C6.72 30 0 23.2897 0 15.003C0 6.71625 6.71925 0 15.0045 0C23.289 0 30 6.71625 30 15.003Z" fill="#8B3FFD"/>
<path fill-rule="evenodd" clip-rule="evenodd" d="M10.5877 14.9955C10.5883 14.0097 10.7833 13.0337 11.1614 12.1233C11.5395 11.2129 12.0934 10.386 12.7913 9.68981C13.4893 8.99366 14.3177 8.44192 15.2291 8.06618C16.1404 7.69043 17.117 7.49804 18.1027 7.50002C22.2405 7.50002 25.665 10.8765 25.6178 15.015C25.6178 19.1528 22.2405 22.53 18.1027 22.53C17.117 22.532 16.1404 22.3396 15.2291 21.9639C14.3177 21.5881 13.4893 21.0364 12.7913 20.3402C12.0934 19.6441 11.5395 18.8171 11.1614 17.9067C10.7833 16.9963 10.5883 16.0203 10.5877 15.0345V20.6273H7.9245L4.5 9.68776H10.5877V14.9955ZM15.2963 15.015C15.2963 16.5368 16.581 17.8208 18.1027 17.8208C19.6725 17.8208 20.9085 16.5368 20.9085 15.015C20.9085 13.4925 19.6245 12.2085 18.1027 12.2085C16.5802 12.2085 15.2963 13.4925 15.2963 15.015Z" fill="white"/>
</g>
<defs>
<clipPath id="clip0_719_15899">
<rect width="30" height="30" fill="white"/>
</clipPath>
</defs>
</svg>
