<svg width="30" height="30" viewBox="0 0 30 30" fill="none" xmlns="http://www.w3.org/2000/svg">
<g clip-path="url(#clip0_719_15926)">
<path d="M30 15.0004C30 6.91814 23.2843 0.366211 15 0.366211C6.71573 0.366211 0 6.91814 0 15.0004C0 23.0826 6.71573 29.6345 15 29.6345C23.2843 29.6345 30 23.0826 30 15.0004Z" fill="#006848"/>
<path d="M16.2031 13.1908L15.0454 15.6379H14.9278V12.6582H13.2833V17.7009H14.679C15.0455 17.7009 15.3786 17.493 15.5323 17.1683L16.6899 14.7212H16.8074V17.7009H18.452V12.6582H17.0564C16.6898 12.6582 16.3567 12.8662 16.2031 13.1908ZM10.0331 13.321L9.348 15.6379H9.23047L8.54543 13.321C8.4294 12.9285 8.06115 12.6582 7.64243 12.6582H6V17.7009H7.64467V14.7212H7.76212L8.7018 17.7009H9.8766L10.8163 14.7212H10.9339V17.7009H12.5784V12.6582H10.9361C10.5173 12.6582 10.1492 12.9285 10.0331 13.321ZM19.1568 14.9504V17.7009H20.7983V16.0964H22.5635C23.3304 16.0964 23.981 15.6176 24.2232 14.9504H19.1568ZM22.5635 12.6582H18.922C19.143 13.8317 20.1956 14.7212 21.4622 14.7212H24.2902C24.3134 14.61 24.3256 14.495 24.3256 14.3773C24.3256 13.4278 23.5367 12.6582 22.5635 12.6582Z" fill="white"/>
</g>
<defs>
<clipPath id="clip0_719_15926">
<rect width="30" height="30" fill="white"/>
</clipPath>
</defs>
</svg>
