<svg width="30" height="30" viewBox="0 0 30 30" fill="none" xmlns="http://www.w3.org/2000/svg">
<g clip-path="url(#clip0_719_15892)">
<path d="M15 30C23.2843 30 30 23.2843 30 15C30 6.71573 23.2843 0 15 0C6.71573 0 0 6.71573 0 15C0 23.2843 6.71573 30 15 30Z" fill="#13DC20"/>
<path d="M15 30C23.2843 30 30 23.2843 30 15C30 6.71573 23.2843 0 15 0C6.71573 0 0 6.71573 0 15C0 23.2843 6.71573 30 15 30Z" fill="url(#paint0_radial_719_15892)"/>
<path d="M15 30C23.2843 30 30 23.2843 30 15C30 6.71573 23.2843 0 15 0C6.71573 0 0 6.71573 0 15C0 23.2843 6.71573 30 15 30Z" fill="url(#paint1_radial_719_15892)"/>
<path d="M15 30C23.2843 30 30 23.2843 30 15C30 6.71573 23.2843 0 15 0C6.71573 0 0 6.71573 0 15C0 23.2843 6.71573 30 15 30Z" fill="url(#paint2_radial_719_15892)"/>
<path d="M21.428 9.98535H9.28516C6.52373 9.98535 4.28516 12.2239 4.28516 14.9854C4.28516 17.7468 6.52373 19.9854 9.28516 19.9854H21.428C24.1894 19.9854 26.428 17.7468 26.428 14.9854C26.428 12.2239 24.1894 9.98535 21.428 9.98535Z" fill="#08B64E"/>
<path fill-rule="evenodd" clip-rule="evenodd" d="M20.7151 20.7147H9.28655C7.77103 20.7147 6.31758 20.1127 5.24594 19.041C4.1743 17.9694 3.57227 16.5159 3.57227 15.0004C3.57227 13.4849 4.1743 12.0314 5.24594 10.9598C6.31758 9.88817 7.77103 9.28613 9.28655 9.28613H20.7151C22.2306 9.28613 23.6841 9.88817 24.7557 10.9598C25.8274 12.0314 26.4294 13.4849 26.4294 15.0004C26.4294 16.5159 25.8274 17.9694 24.7557 19.041C23.6841 20.1127 22.2306 20.7147 20.7151 20.7147ZM7.80227 15.0618V14.1597L8.99798 14.9097L11.4837 13.0804C11.6337 13.2733 11.7601 13.4826 11.8608 13.7047L8.99798 15.8118L7.80227 15.0618ZM11.4137 14.9318V14.9961C11.4146 15.5366 11.2345 16.0617 10.9021 16.4879C10.5698 16.914 10.1042 17.2165 9.57982 17.3472C9.05541 17.4778 8.50236 17.4291 8.0089 17.2087C7.51544 16.9883 7.11001 16.609 6.85729 16.1313C6.60457 15.6536 6.51912 15.105 6.61459 14.5731C6.71005 14.0412 6.98093 13.5565 7.38399 13.1965C7.78705 12.8365 8.29908 12.6219 8.83838 12.5868C9.37768 12.5518 9.91316 12.6984 10.3594 13.0033L10.973 12.5533C10.3997 12.0899 9.68172 11.8428 8.94467 11.8551C8.20761 11.8675 7.49835 12.1385 6.9409 12.6209C6.38346 13.1032 6.01329 13.7662 5.89514 14.4938C5.77698 15.2214 5.91836 15.9674 6.29454 16.6014C6.67072 17.2353 7.25777 17.7169 7.95305 17.9618C8.64832 18.2068 9.40757 18.1995 10.098 17.9414C10.7885 17.6832 11.3663 17.1905 11.7303 16.5495C12.0943 15.9085 12.2214 15.1599 12.0894 14.4347L11.4137 14.9318ZM15.2608 16.889V15.6076H15.8951C17.0994 15.6076 17.7451 15.1261 17.7451 14.169C17.7451 13.2404 17.1937 12.7761 15.8951 12.7761H14.5266V16.8883L15.2608 16.889ZM15.2608 14.9318V13.4518H15.963C16.6787 13.4518 16.9844 13.6447 16.9844 14.1504C16.9844 14.7083 16.6323 14.9311 15.9508 14.9311L15.2608 14.9318ZM18.1323 14.1568C18.3258 14.0118 18.6787 13.8926 19.1844 13.8926C20.0416 13.8926 20.4651 14.1861 20.4651 14.9497V16.8883H19.8187V16.3597C19.678 16.6997 19.3201 16.9354 18.8494 16.9354C18.2566 16.9354 17.9044 16.5997 17.9044 16.0247C17.9044 15.3547 18.3916 15.1668 19.1137 15.1668H19.778V15.0383C19.778 14.6211 19.578 14.4911 19.1844 14.4911C18.6437 14.4911 18.333 14.7033 18.1337 15.014L18.1323 14.1568ZM19.7766 15.8511V15.614H19.1958C18.7901 15.614 18.5958 15.6904 18.5958 15.954C18.5958 16.1768 18.7601 16.3183 19.0666 16.3183C19.5301 16.3183 19.748 16.054 19.7766 15.8511ZM21.5716 13.9511H20.8051L22.0408 16.9033C21.9294 17.299 21.7708 17.4397 21.5601 17.4397C21.4281 17.4374 21.3019 17.3848 21.2073 17.2926V17.934C21.2937 18.0097 21.4944 18.0626 21.6773 18.0626C22.0651 18.0626 22.3287 17.904 22.588 17.1997L23.7623 13.9511H23.0337L22.3766 15.9654L21.5716 13.9511Z" fill="white"/>
</g>
<defs>
<radialGradient id="paint0_radial_719_15892" cx="0" cy="0" r="1" gradientUnits="userSpaceOnUse" gradientTransform="translate(29.9998 -0.000592232) rotate(135) scale(29.2742)">
<stop stop-color="#3BDFB4"/>
<stop offset="1" stop-color="#3BDFB4" stop-opacity="0"/>
</radialGradient>
<radialGradient id="paint1_radial_719_15892" cx="0" cy="0" r="1" gradientUnits="userSpaceOnUse" gradientTransform="translate(25.8745 4.1253) rotate(135) scale(29.1681)">
<stop stop-color="#19CCDC"/>
<stop offset="0.223" stop-color="#19CCDC" stop-opacity="0.75"/>
<stop offset="1" stop-color="#19CCDC" stop-opacity="0"/>
</radialGradient>
<radialGradient id="paint2_radial_719_15892" cx="0" cy="0" r="1" gradientUnits="userSpaceOnUse" gradientTransform="translate(-0.00010214 29.9998) rotate(-45) scale(21.2132)">
<stop stop-color="#F5ED01"/>
<stop offset="0.332" stop-color="#F5ED01" stop-opacity="0.8"/>
<stop offset="1" stop-color="#F5ED01" stop-opacity="0"/>
</radialGradient>
<clipPath id="clip0_719_15892">
<rect width="30" height="30" fill="white"/>
</clipPath>
</defs>
</svg>
