<?xml version="1.0" standalone="no"?>
<!DOCTYPE svg PUBLIC "-//W3C//DTD SVG 20010904//EN"
 "http://www.w3.org/TR/2001/REC-SVG-20010904/DTD/svg10.dtd">
<svg version="1.0" xmlns="http://www.w3.org/2000/svg"
 width="142.000000pt" height="30.000000pt" viewBox="0 0 142.000000 30.000000"
 preserveAspectRatio="xMidYMid meet">

<g transform="translate(0.000000,30.000000) scale(0.100000,-0.100000)"
fill="#000000" stroke="none">
<path d="M188 283 c-8 -10 -52 -75 -96 -145 l-81 -128 44 0 45 0 56 87 c73
113 72 111 32 116 -18 2 87 5 235 5 l267 2 0 40 0 40 -141 0 -141 0 -29 -29
-29 -29 0 29 0 29 -73 0 c-58 0 -77 -4 -89 -17z"/>
<path d="M710 209 l0 -92 -25 27 c-13 14 -25 26 -27 27 -16 4 -294 25 -298 22
-8 -7 17 -38 41 -50 13 -6 71 -15 129 -20 83 -6 105 -11 105 -23 0 -13 -24
-15 -142 -18 l-143 -3 0 61 0 60 -40 0 -40 0 0 -95 0 -95 194 0 194 0 24 28
23 28 27 -28 c26 -28 28 -28 142 -28 111 0 118 1 141 25 l25 24 0 -24 0 -25
155 0 c141 0 157 2 175 20 43 43 33 111 -20 136 -32 15 -300 29 -300 16 0 -34
70 -53 235 -64 28 -2 40 -8 40 -18 0 -13 -24 -15 -142 -18 l-143 -3 0 56 c0
48 -3 55 -20 57 -56 4 -55 5 -60 -52 l-5 -55 -73 -3 c-92 -4 -102 4 -102 74 0
52 0 53 -32 57 l-33 4 33 1 c30 2 32 4 32 42 0 39 -1 40 -35 40 l-35 0 0 -91z"/>
<path d="M960 260 l0 -40 220 0 220 0 0 40 0 40 -151 0 -151 0 -29 -29 -29
-29 0 29 c0 27 -2 29 -40 29 l-40 0 0 -40z"/>
</g>
</svg>
