<?xml version="1.0" standalone="no"?>
<!DOCTYPE svg PUBLIC "-//W3C//DTD SVG 20010904//EN"
 "http://www.w3.org/TR/2001/REC-SVG-20010904/DTD/svg10.dtd">
<svg version="1.0" xmlns="http://www.w3.org/2000/svg"
 width="123.000000pt" height="30.000000pt" viewBox="0 0 123.000000 30.000000"
 preserveAspectRatio="xMidYMid meet">

<g transform="translate(0.000000,30.000000) scale(0.100000,-0.100000)"
fill="#000000" stroke="none">
<path d="M114 290 c-12 -4 -24 -18 -27 -29 -5 -21 -3 -21 87 -15 80 6 94 4
110 -11 27 -27 4 -40 -94 -54 -136 -20 -180 -46 -180 -107 0 -30 5 -37 35 -50
36 -15 176 -19 235 -7 24 4 36 14 44 35 12 33 22 36 29 8 8 -31 67 -50 157
-50 66 0 82 3 91 18 11 18 13 18 47 0 27 -13 59 -18 127 -18 98 0 109 4 119
37 7 22 6 22 -88 20 -79 -2 -98 1 -113 15 -9 10 -14 20 -11 23 3 4 50 13 104
21 55 8 113 23 131 34 18 11 33 16 33 12 0 -4 -9 -39 -20 -77 -11 -38 -20 -74
-20 -78 0 -5 19 -7 41 -5 l41 3 30 100 c16 55 36 106 45 113 9 6 45 12 79 12
55 0 62 2 67 22 9 32 -9 40 -90 35 -56 -3 -81 -10 -109 -28 l-37 -25 -22 22
c-45 45 -191 43 -263 -3 -50 -33 -84 -92 -86 -148 l-1 -43 -50 -5 c-67 -8
-116 3 -125 29 -10 25 12 91 40 118 16 17 36 22 100 24 69 4 80 7 80 22 0 34
-26 43 -101 37 -72 -6 -159 -44 -159 -70 0 -7 -9 2 -19 19 -11 17 -34 36 -52
43 -37 13 -174 14 -205 1z m754 -46 c31 -9 28 -39 -5 -53 -24 -9 -130 -31
-155 -31 -15 0 -8 27 12 53 26 32 91 46 148 31z m-608 -149 l-12 -35 -63 0
c-35 0 -70 3 -79 6 -19 7 -21 40 -3 51 18 11 162 30 165 21 2 -4 -2 -24 -8
-43z"/>
</g>
</svg>
