<?xml version="1.0" standalone="no"?>
<!DOCTYPE svg PUBLIC "-//W3C//DTD SVG 20010904//EN"
 "http://www.w3.org/TR/2001/REC-SVG-20010904/DTD/svg10.dtd">
<svg version="1.0" xmlns="http://www.w3.org/2000/svg"
 width="70.000000pt" height="70.000000pt" viewBox="0 0 70.000000 70.000000"
 preserveAspectRatio="xMidYMid meet">

<g transform="translate(0.000000,70.000000) scale(0.100000,-0.100000)"
fill="#000000" stroke="none">
<path d="M263 688 c-18 -4 -39 -18 -48 -30 -19 -29 -19 -98 1 -146 23 -56 105
-192 115 -192 5 0 9 49 9 108 0 89 -4 115 -21 147 -14 29 -19 51 -15 77 7 43
2 48 -41 36z"/>
<path d="M81 566 c-32 -51 -28 -99 12 -141 31 -34 197 -139 205 -130 12 12
-170 305 -188 305 -5 0 -18 -15 -29 -34z"/>
<path d="M541 522 c-55 -78 -136 -220 -130 -226 9 -8 157 83 196 120 36 34 43
47 43 79 0 35 -33 106 -48 105 -4 -1 -31 -36 -61 -78z"/>
<path d="M370 411 c0 -56 2 -101 4 -101 7 0 93 143 101 168 6 20 3 22 -34 22
-21 0 -46 3 -55 6 -14 5 -16 -7 -16 -95z"/>
<path d="M7 406 c-16 -42 29 -114 86 -135 35 -14 190 -15 182 -2 -6 10 -217
135 -246 146 -10 4 -19 0 -22 -9z"/>
<path d="M551 343 l-134 -78 79 -3 c44 -2 96 2 116 8 51 15 88 61 88 111 0 21
-4 39 -8 39 -4 0 -68 -35 -141 -77z"/>
<path d="M80 220 c6 -12 26 -28 44 -36 30 -15 35 -15 72 4 91 47 89 51 -24 52
-100 0 -102 0 -92 -20z"/>
<path d="M448 227 c6 -7 32 -24 58 -36 44 -22 48 -23 80 -8 18 9 38 25 44 37
10 20 8 20 -91 20 -82 0 -99 -2 -91 -13z"/>
<path d="M0 55 c0 -42 3 -55 15 -55 9 0 15 10 15 26 0 22 4 25 28 22 19 -2 28
-9 30 -25 7 -45 22 -22 22 32 0 30 -4 55 -10 55 -5 0 -10 -9 -10 -20 0 -16 -7
-20 -30 -20 -23 0 -30 4 -30 20 0 11 -7 20 -15 20 -12 0 -15 -13 -15 -55z"/>
<path d="M130 74 c0 -53 15 -74 53 -74 44 0 57 15 57 67 0 32 -4 43 -15 43
-11 0 -15 -12 -15 -45 0 -41 -2 -45 -25 -45 -23 0 -25 4 -25 45 0 33 -4 45
-15 45 -11 0 -15 -11 -15 -36z"/>
<path d="M272 58 c-24 -56 -22 -70 6 -45 23 21 41 21 64 0 28 -25 30 -11 7 45
-28 67 -47 67 -77 0z m48 2 c0 -19 -11 -26 -23 -14 -8 8 3 34 14 34 5 0 9 -9
9 -20z"/>
<path d="M380 59 c10 -28 21 -54 24 -56 13 -14 34 9 41 44 l8 38 14 -43 c20
-57 41 -52 64 16 14 40 15 52 5 52 -7 0 -19 -19 -26 -42 l-13 -43 -14 43 c-19
53 -39 54 -55 1 l-12 -42 -14 42 c-7 22 -20 41 -28 41 -11 0 -10 -10 6 -51z"/>
<path d="M572 98 c-16 -16 -16 -70 0 -86 15 -15 92 -16 83 -2 -3 6 -19 10 -36
10 -19 0 -29 5 -29 15 0 11 11 15 36 15 21 0 33 4 29 10 -3 5 -19 10 -36 10
-16 0 -29 5 -29 10 0 6 13 10 29 10 17 0 33 5 36 10 9 14 -68 13 -83 -2z"/>
<path d="M680 55 c0 -30 5 -55 10 -55 6 0 10 25 10 55 0 30 -4 55 -10 55 -5 0
-10 -25 -10 -55z"/>
</g>
</svg>
