<?xml version="1.0" standalone="no"?>
<!DOCTYPE svg PUBLIC "-//W3C//DTD SVG 20010904//EN"
 "http://www.w3.org/TR/2001/REC-SVG-20010904/DTD/svg10.dtd">
<svg version="1.0" xmlns="http://www.w3.org/2000/svg"
 width="70.000000pt" height="70.000000pt" viewBox="0 0 70.000000 70.000000"
 preserveAspectRatio="xMidYMid meet">

<g transform="translate(0.000000,70.000000) scale(0.100000,-0.100000)"
fill="#000000" stroke="none">
<path d="M239 675 c-97 -35 -183 -122 -214 -215 -26 -79 -18 -189 20 -264 59
-116 173 -186 305 -186 102 0 171 29 241 101 77 78 102 144 97 254 -2 65 -9
91 -33 139 -36 71 -111 139 -183 166 -62 23 -177 26 -233 5z m245 -59 c105
-51 161 -144 161 -266 0 -85 -21 -142 -74 -203 -82 -92 -237 -121 -353 -64
-160 79 -215 278 -118 430 80 126 246 170 384 103z"/>
<path d="M272 404 l-32 -25 -26 20 c-17 13 -41 21 -65 21 l-39 0 0 -65 0 -65
45 0 c33 0 50 6 62 20 17 19 17 19 51 -7 36 -27 46 -26 100 13 21 16 22 15 22
-5 0 -19 6 -21 50 -21 38 0 50 4 50 15 0 9 -9 15 -25 15 -23 0 -25 3 -25 50 0
47 -2 50 -25 50 -21 0 -25 -5 -25 -27 0 -21 -9 -34 -35 -52 -47 -32 -59 -17
-16 18 46 37 23 51 -24 15 -45 -34 -61 -21 -17 15 17 15 29 31 25 34 -10 11
-16 9 -51 -19z m-79 -36 c8 -12 7 -21 -2 -32 -23 -28 -41 -19 -41 20 0 28 4
35 16 32 9 -2 22 -10 27 -20z"/>
<path d="M510 355 l0 -65 45 0 c33 0 45 4 45 15 0 9 -9 15 -25 15 -23 0 -25 3
-25 50 0 43 -3 50 -20 50 -18 0 -20 -7 -20 -65z"/>
</g>
</svg>
