<?xml version="1.0" standalone="no"?>
<!DOCTYPE svg PUBLIC "-//W3C//DTD SVG 20010904//EN"
 "http://www.w3.org/TR/2001/REC-SVG-20010904/DTD/svg10.dtd">
<svg version="1.0" xmlns="http://www.w3.org/2000/svg"
 width="161.000000pt" height="25.000000pt" viewBox="0 0 161.000000 25.000000"
 preserveAspectRatio="xMidYMid meet">

<g transform="translate(0.000000,25.000000) scale(0.100000,-0.100000)"
fill="#000000" stroke="none">
<path d="M40 237 c-19 -9 -26 -22 -28 -50 -3 -35 0 -39 47 -69 32 -19 51 -38
51 -49 0 -26 -37 -25 -45 2 -5 15 -14 19 -33 17 -22 -2 -26 -7 -24 -28 5 -37
30 -51 87 -48 41 3 52 7 64 29 22 40 8 73 -49 108 -27 17 -50 35 -50 41 0 19
32 24 45 7 17 -24 55 -22 55 2 0 42 -69 64 -120 38z"/>
<path d="M782 238 c-25 -13 -37 -46 -27 -77 3 -12 26 -33 51 -47 47 -28 61
-64 24 -64 -13 0 -20 7 -20 20 0 16 -7 20 -30 20 -25 0 -30 -4 -30 -23 0 -34
30 -57 76 -57 106 0 115 93 15 145 -19 9 -31 23 -31 35 0 23 28 27 36 5 9 -23
54 -19 54 4 0 10 -6 24 -14 30 -21 17 -78 22 -104 9z"/>
<path d="M1490 243 c-42 -16 -50 -34 -50 -115 0 -94 16 -118 80 -118 55 0 80
26 80 85 l0 45 -40 0 c-29 0 -40 -4 -40 -15 0 -8 5 -15 10 -15 6 0 10 -13 10
-30 0 -23 -5 -30 -19 -30 -24 0 -31 19 -31 85 0 34 5 57 15 65 16 14 35 6 35
-16 0 -9 11 -14 30 -14 22 0 30 5 30 18 0 37 -69 71 -110 55z"/>
<path d="M246 218 c-17 -78 -36 -182 -36 -195 0 -10 9 -13 28 -11 26 3 28 6
42 96 8 50 17 92 20 92 4 0 11 -38 18 -85 13 -100 15 -105 48 -105 29 0 29 -9
4 120 -11 58 -20 106 -20 107 0 2 -22 3 -50 3 -43 0 -50 -3 -54 -22z"/>
<path d="M440 125 l0 -115 25 0 c24 0 25 2 25 69 0 110 12 118 30 21 14 -76
19 -85 39 -88 31 -5 37 6 53 102 l13 81 5 -90 c5 -89 5 -90 33 -93 l27 -3 0
115 0 116 -49 0 -49 0 -6 -54 c-4 -30 -11 -67 -15 -82 -7 -26 -9 -21 -19 37
-7 36 -12 73 -12 82 0 14 -10 17 -50 17 l-50 0 0 -115z"/>
<path d="M962 139 c4 -116 12 -129 83 -129 65 0 75 18 75 133 0 96 0 97 -25
97 -24 0 -24 -2 -27 -92 -3 -85 -5 -93 -23 -93 -18 0 -20 8 -23 93 l-3 92 -30
0 -31 0 4 -101z"/>
<path d="M1190 131 l0 -111 25 0 c25 0 25 1 26 88 l1 87 27 -85 28 -85 41 -3
42 -3 0 110 0 111 -31 0 -31 0 7 -87 c4 -49 4 -85 0 -81 -4 4 -17 42 -30 85
l-22 78 -42 3 -41 3 0 -110z"/>
</g>
</svg>
