<?xml version="1.0" standalone="no"?>
<!DOCTYPE svg PUBLIC "-//W3C//DTD SVG 20010904//EN"
 "http://www.w3.org/TR/2001/REC-SVG-20010904/DTD/svg10.dtd">
<svg version="1.0" xmlns="http://www.w3.org/2000/svg"
 width="134.000000pt" height="45.000000pt" viewBox="0 0 134.000000 45.000000"
 preserveAspectRatio="xMidYMid meet">
<metadata>
Created by potrace 1.16, written by Peter Selinger 2001-2019
</metadata>
<g transform="translate(0.000000,45.000000) scale(0.100000,-0.100000)"
fill="#000000" stroke="none">
<path d="M130 419 c-14 -6 -44 -20 -67 -31 -50 -25 -52 -38 -28 -152 21 -99
62 -163 136 -210 26 -16 27 -16 76 28 28 25 53 42 57 39 4 -4 4 1 0 11 -5 13
-4 17 4 12 8 -5 10 -1 5 10 -5 13 -3 15 7 9 9 -5 11 -4 6 3 -4 6 0 35 8 64 8
29 17 76 20 105 6 48 5 53 -21 70 -67 47 -149 63 -203 42z m133 -70 c26 -12
37 -29 17 -29 -5 0 -6 -8 -3 -17 6 -15 4 -16 -9 -5 -8 7 -22 10 -31 6 -8 -3
-18 -1 -22 5 -8 14 -65 14 -65 0 0 -5 -4 -8 -8 -5 -5 3 -9 -2 -9 -10 0 -12 10
-15 42 -12 32 2 41 0 37 -10 -2 -8 -12 -12 -21 -9 -9 2 -25 -5 -36 -16 -11
-11 -13 -16 -5 -12 13 8 13 6 2 -7 -9 -11 -10 -18 -2 -23 5 -3 10 -16 10 -28
0 -12 4 -17 8 -12 11 16 29 15 29 -1 0 -8 -9 -14 -20 -14 -16 0 -17 -3 -7 -15
16 -19 50 -19 78 0 17 13 21 13 16 2 -7 -19 -72 -49 -79 -36 -4 5 -11 7 -16 4
-5 -4 -9 -1 -9 4 0 6 -7 11 -16 11 -8 0 -12 5 -9 10 3 6 -1 13 -9 16 -9 3 -13
10 -10 15 3 5 -4 21 -15 35 -12 16 -20 39 -19 59 1 19 -5 41 -12 50 -7 8 -11
15 -9 16 34 7 37 6 32 -9 -4 -12 1 -10 16 6 12 12 28 22 35 22 7 0 23 9 35 19
16 14 28 17 39 12 10 -5 29 -14 45 -22z"/>
<path d="M496 341 c-3 -5 -24 -59 -46 -120 l-39 -111 52 0 52 0 30 77 c22 56
37 82 57 93 47 26 52 4 18 -88 l-30 -82 53 0 53 0 18 58 c28 87 73 138 105
117 8 -4 -14 -84 -44 -158 -7 -16 -2 -18 46 -15 l53 3 27 75 c30 82 35 130 17
148 -17 17 -103 15 -137 -3 -26 -13 -30 -13 -41 0 -8 10 -31 15 -62 15 -27 0
-62 -7 -77 -15 -26 -13 -30 -13 -41 0 -14 16 -56 20 -64 6z"/>
<path d="M993 331 c-60 -37 -56 -82 12 -124 26 -15 43 -32 40 -37 -3 -6 -37
-10 -76 -10 -61 0 -69 -2 -69 -19 0 -25 19 -31 96 -31 76 0 140 27 154 65 13
35 3 53 -41 75 -74 38 -59 64 33 56 45 -4 57 -2 62 10 11 28 -4 34 -92 34 -68
0 -94 -4 -119 -19z"/>
<path d="M1243 293 c-30 -4 -33 -8 -62 -94 l-30 -89 52 0 52 0 26 78 c15 42
30 85 34 95 8 18 1 19 -72 10z"/>
</g>
</svg>
