<?xml version="1.0" standalone="no"?>
<!DOCTYPE svg PUBLIC "-//W3C//DTD SVG 20010904//EN"
 "http://www.w3.org/TR/2001/REC-SVG-20010904/DTD/svg10.dtd">
<svg version="1.0" xmlns="http://www.w3.org/2000/svg"
 width="180.000000pt" height="40.000000pt" viewBox="0 0 180.000000 40.000000"
 preserveAspectRatio="xMidYMid meet">
<metadata>
Created by potrace 1.16, written by Peter Selinger 2001-2019
</metadata>
<g transform="translate(0.000000,40.000000) scale(0.100000,-0.100000)"
fill="#000000" stroke="none">
<path d="M2 203 c2 -109 4 -154 6 -101 l3 98 79 0 c114 0 110 -4 110 106 l0
94 -100 0 -100 0 2 -197z"/>
<path d="M1632 330 c-14 -6 -25 -21 -28 -40 -4 -16 -13 -30 -20 -30 -8 0 -14
-7 -14 -16 0 -14 -2 -14 -22 0 -12 9 -39 16 -59 16 -29 0 -43 -7 -63 -31 -14
-17 -26 -39 -26 -49 0 -19 -1 -19 -35 1 -44 26 -46 43 -4 34 28 -6 30 -5 27
17 -2 18 -10 24 -35 26 -48 5 -73 -13 -73 -51 0 -26 6 -37 30 -50 17 -10 30
-23 30 -28 0 -7 -12 -8 -30 -4 -27 6 -30 4 -30 -19 0 -23 4 -26 36 -26 44 0
72 15 84 43 6 16 9 18 9 5 1 -25 41 -48 84 -48 57 0 90 37 85 94 -2 32 0 42
10 39 8 -3 12 -27 12 -69 0 -62 1 -64 25 -64 24 0 25 2 25 65 0 63 1 65 25 65
24 0 25 -3 25 -54 0 -61 14 -79 57 -74 21 2 29 9 31 26 3 20 0 23 -17 17 -19
-6 -21 -2 -21 38 0 36 4 46 20 50 11 3 20 13 20 22 0 9 -9 19 -20 22 -11 3
-20 14 -20 24 0 26 -40 25 -47 -1 -3 -13 -14 -20 -29 -20 -29 0 -32 20 -4 27
13 3 20 14 20 29 0 26 -17 30 -58 14z"/>
<path d="M490 200 l0 -120 25 0 c23 0 24 3 27 71 l3 71 27 -68 c37 -98 55 -97
93 3 l30 78 3 -78 c3 -74 4 -77 27 -77 l25 0 0 120 0 120 -34 0 c-31 0 -35 -4
-55 -49 -11 -27 -21 -54 -21 -59 0 -5 -6 -15 -14 -21 -11 -10 -19 1 -41 59
-26 68 -28 70 -61 70 l-34 0 0 -120z"/>
<path d="M866 235 c-20 -19 -26 -33 -26 -68 0 -61 31 -89 91 -85 38 3 44 6 47
27 3 21 1 23 -25 18 -38 -7 -63 8 -63 39 0 39 25 59 56 45 20 -9 26 -8 30 4
19 49 -62 64 -110 20z"/>
<path d="M990 169 c0 -88 0 -89 25 -89 23 0 25 4 25 46 0 53 14 84 38 84 14 0
17 -9 17 -46 1 -57 28 -84 87 -84 56 0 88 34 88 94 0 36 -5 48 -26 65 -35 28
-93 28 -122 1 -22 -20 -22 -20 -22 -1 0 17 -7 20 -55 20 l-55 0 0 -90z"/>
</g>
</svg>
