<?xml version="1.0" standalone="no"?>
<!DOCTYPE svg PUBLIC "-//W3C//DTD SVG 1.1//EN"
 "http://www.w3.org/Graphics/SVG/1.1/DTD/svg11.dtd">
<!-- Created with svg_stack (http://github.com/astraw/svg_stack) -->
<svg xmlns:sodipodi="http://sodipodi.sourceforge.net/DTD/sodipodi-0.dtd" xmlns="http://www.w3.org/2000/svg" version="1.1" width="65.0" height="65.0">
  <defs/>
  <g id="id0:id0" transform="matrix(1.25,0,0,1.25,0.0,0.0)"><g transform="translate(0.000000,52.000000) scale(0.040000,-0.040000)" fill="#000000" stroke="none">
<path d="M0 650 l0 -650 220 0 c145 0 220 4 220 10 0 12 -41 30 -53 23 -11 -7 -56 36 -53 51 2 6 1 8 -1 4 -10 -18 -24 -6 -18 15 5 17 4 18 -4 7 -5 -8 -12 -12 -14 -10 -37 45 -67 104 -63 123 3 12 3 16 0 10 -11 -24 -26 -13 -21 14 2 16 2 22 0 15 -9 -26 -23 1 -19 36 4 29 4 32 -3 12 -8 -23 -9 -24 -15 -5 -4 11 -12 28 -17 37 -5 10 -9 27 -9 38 0 11 -4 20 -9 20 -20 0 -40 285 -22 303 6 6 11 21 11 34 0 19 30 86 47 103 2 2 8 -2 14 -10 7 -11 8 -7 3 13 -6 27 9 39 20 15 3 -7 3 -2 0 11 -5 19 -3 23 9 18 11 -4 14 -2 10 9 -4 12 0 14 23 9 20 -4 23 -3 10 3 -17 8 -17 9 5 23 15 9 42 14 69 13 40 -2 41 -2 10 4 -58 12 -17 25 77 25 50 0 89 -5 96 -11 6 -7 21 -12 33 -12 13 0 26 -4 29 -10 8 -13 162 -13 170 0 4 6 28 8 58 6 36 -4 41 -3 17 2 -56 11 -20 23 74 24 62 1 93 -3 122 -17 35 -16 37 -19 19 -27 -15 -6 -12 -7 11 -4 25 4 37 -1 63 -28 27 -28 30 -34 16 -40 -9 -3 -22 -3 -27 1 -7 3 -8 1 -4 -6 9 -14 -20 -45 -34 -36 -5 3 -8 0 -5 -7 2 -7 -2 -22 -11 -33 -13 -17 -16 -18 -24 -5 -6 10 -8 3 -4 -21 4 -22 2 -39 -5 -43 -13 -9 -15 -158 -2 -184 5 -9 15 -30 22 -47 8 -16 33 -50 56 -74 23 -25 40 -49 37 -53 -3 -4 2 -5 10 -2 22 8 49 -3 40 -17 -4 -8 -9 -7 -16 2 -7 10 -8 8 -3 -8 5 -18 -6 -47 -43 -107 -3 -5 -9 -1 -14 10 -5 13 -6 8 -2 -13 5 -30 -7 -46 -19 -25 -2 4 -2 1 0 -6 2 -11 -18 -49 -44 -82 -2 -2 -9 2 -14 10 -9 12 -10 12 -5 -3 7 -21 -45 -71 -75 -73 -27 -2 -49 -12 -49 -24 0 -6 69 -10 200 -10 l200 0 0 650 0 650 -650 0 -650 0 0 -650z m873 573 c-3 -27 -15 -64 -26 -83 -26 -48 -96 -112 -114 -106 -8 4 -23 6 -32 6 -14 0 -20 11 -25 46 -6 44 2 65 41 114 2 2 9 -2 14 -10 9 -13 10 -12 6 2 -7 21 13 38 39 34 10 -2 13 -1 7 1 -27 9 -11 21 25 18 20 -1 27 0 14 2 -33 6 -16 23 23 23 l35 0 -7 -47z m-203 -158 c0 -31 3 -35 26 -35 14 0 23 -4 19 -9 -3 -5 -19 -9 -35 -9 -29 1 -30 3 -30 45 0 23 5 43 10 43 6 0 10 -16 10 -35z"/>
<path d="M842 1195 c0 -16 2 -22 5 -12 2 9 2 23 0 30 -3 6 -5 -1 -5 -18z"/>
<path d="M821 1144 c0 -11 3 -14 6 -6 3 7 2 16 -1 19 -3 4 -6 -2 -5 -13z"/>
<path d="M691 1124 c0 -11 3 -14 6 -6 3 7 2 16 -1 19 -3 4 -6 -2 -5 -13z"/>
<path d="M483 943 c9 -2 23 -2 30 0 6 3 -1 5 -18 5 -16 0 -22 -2 -12 -5z"/>
<path d="M978 943 c6 -2 18 -2 25 0 6 3 1 5 -13 5 -14 0 -19 -2 -12 -5z"/>
<path d="M558 923 c7 -3 16 -2 19 1 4 3 -2 6 -13 5 -11 0 -14 -3 -6 -6z"/>
<path d="M768 923 c7 -3 16 -2 19 1 4 3 -2 6 -13 5 -11 0 -14 -3 -6 -6z"/>
<path d="M633 903 c20 -2 54 -2 75 0 20 2 3 4 -38 4 -41 0 -58 -2 -37 -4z"/>
<path d="M171 794 c0 -11 3 -14 6 -6 3 7 2 16 -1 19 -3 4 -6 -2 -5 -13z"/>
<path d="M152 750 c0 -14 2 -19 5 -12 2 6 2 18 0 25 -3 6 -5 1 -5 -13z"/>
<path d="M1001 734 c0 -11 3 -14 6 -6 3 7 2 16 -1 19 -3 4 -6 -2 -5 -13z"/>
<path d="M134 600 c0 -58 1 -81 3 -52 2 28 2 76 0 105 -2 28 -3 5 -3 -53z"/>
<path d="M983 615 c0 -44 2 -61 4 -37 2 23 2 59 0 80 -2 20 -4 1 -4 -43z"/>
<path d="M1001 504 c0 -11 3 -14 6 -6 3 7 2 16 -1 19 -3 4 -6 -2 -5 -13z"/>
<path d="M152 435 c0 -16 2 -22 5 -12 2 9 2 23 0 30 -3 6 -5 -1 -5 -18z"/>
<path d="M172 370 c0 -14 2 -19 5 -12 2 6 2 18 0 25 -3 6 -5 1 -5 -13z"/>
<path d="M1141 304 c0 -11 3 -14 6 -6 3 7 2 16 -1 19 -3 4 -6 -2 -5 -13z"/>
<path d="M638 93 c17 -2 47 -2 65 0 17 2 3 4 -33 4 -36 0 -50 -2 -32 -4z"/>
<path d="M580 70 c23 -7 24 -8 5 -15 -11 -4 -29 -11 -40 -16 -11 -4 -33 -10 -49 -11 -16 -2 -31 -9 -34 -15 -3 -10 43 -13 208 -13 165 0 211 3 208 13 -3 6 -15 13 -29 15 -13 2 -34 7 -46 12 -13 6 -33 14 -45 19 -13 5 -63 11 -113 14 -49 2 -79 1 -65 -3z"/>
<path d="M768 73 c7 -3 16 -2 19 1 4 3 -2 6 -13 5 -11 0 -14 -3 -6 -6z"/>
<path d="M378 53 c7 -3 16 -2 19 1 4 3 -2 6 -13 5 -11 0 -14 -3 -6 -6z"/>
<path d="M518 53 c7 -3 16 -2 19 1 4 3 -2 6 -13 5 -11 0 -14 -3 -6 -6z"/>
<path d="M818 53 c7 -3 16 -2 19 1 4 3 -2 6 -13 5 -11 0 -14 -3 -6 -6z"/>
<path d="M948 53 c7 -3 16 -2 19 1 4 3 -2 6 -13 5 -11 0 -14 -3 -6 -6z"/>
</g>
</g>
  <g id="id1:id1" transform="matrix(1.25,0,0,1.25,0.0,0.0)"><g transform="translate(0.000000,52.000000) scale(0.040000,-0.040000)" fill="#080808" stroke="none">
<path d="M0 650 l0 -650 220 0 c145 0 220 4 220 10 0 12 -41 30 -53 23 -11 -7 -56 36 -53 51 2 6 1 8 -1 4 -10 -18 -24 -6 -18 15 5 17 4 18 -4 7 -5 -8 -12 -12 -14 -10 -37 45 -67 104 -63 123 3 12 3 16 0 10 -11 -24 -26 -13 -21 14 2 16 2 22 0 15 -9 -26 -23 1 -19 36 4 29 4 32 -3 12 -8 -23 -9 -24 -15 -5 -4 11 -12 28 -17 37 -5 10 -9 27 -9 38 0 11 -4 20 -9 20 -20 0 -40 285 -22 303 6 6 11 21 11 34 0 19 30 86 47 103 2 2 8 -2 14 -10 7 -11 8 -7 3 13 -6 27 9 39 20 15 3 -7 3 -2 0 11 -5 19 -3 23 9 18 11 -4 14 -2 10 9 -4 12 0 14 23 9 20 -4 23 -3 10 3 -17 8 -17 9 5 23 15 9 42 14 69 13 40 -2 41 -2 10 4 -58 12 -17 25 77 25 50 0 89 -5 96 -11 6 -7 21 -12 33 -12 13 0 26 -4 29 -10 8 -13 162 -13 170 0 4 6 28 8 58 6 36 -4 41 -3 17 2 -56 11 -20 23 74 24 62 1 93 -3 122 -17 35 -16 37 -19 19 -27 -15 -6 -12 -7 11 -4 25 4 37 -1 63 -28 27 -28 30 -34 16 -40 -9 -3 -22 -3 -27 1 -7 3 -8 1 -4 -6 9 -14 -20 -45 -34 -36 -5 3 -8 0 -5 -7 2 -7 -2 -22 -11 -33 -13 -17 -16 -18 -24 -5 -6 10 -8 3 -4 -21 4 -22 2 -39 -5 -43 -13 -9 -15 -158 -2 -184 5 -9 15 -30 22 -47 8 -16 33 -50 56 -74 23 -25 40 -49 37 -53 -3 -4 2 -5 10 -2 22 8 49 -3 40 -17 -4 -8 -9 -7 -16 2 -7 10 -8 8 -3 -8 5 -18 -6 -47 -43 -107 -3 -5 -9 -1 -14 10 -5 13 -6 8 -2 -13 5 -30 -7 -46 -19 -25 -2 4 -2 1 0 -6 2 -11 -18 -49 -44 -82 -2 -2 -9 2 -14 10 -9 12 -10 12 -5 -3 7 -21 -45 -71 -75 -73 -27 -2 -49 -12 -49 -24 0 -6 69 -10 200 -10 l200 0 0 650 0 650 -650 0 -650 0 0 -650z m873 573 c-3 -27 -15 -64 -26 -83 -26 -48 -96 -112 -114 -106 -8 4 -23 6 -32 6 -14 0 -20 11 -25 46 -6 44 2 65 41 114 2 2 9 -2 14 -10 9 -13 10 -12 6 2 -7 21 13 38 39 34 10 -2 13 -1 7 1 -27 9 -11 21 25 18 20 -1 27 0 14 2 -33 6 -16 23 23 23 l35 0 -7 -47z m-203 -158 c0 -31 3 -35 26 -35 14 0 23 -4 19 -9 -3 -5 -19 -9 -35 -9 -29 1 -30 3 -30 45 0 23 5 43 10 43 6 0 10 -16 10 -35z"/>
<path d="M842 1195 c0 -16 2 -22 5 -12 2 9 2 23 0 30 -3 6 -5 -1 -5 -18z"/>
<path d="M821 1144 c0 -11 3 -14 6 -6 3 7 2 16 -1 19 -3 4 -6 -2 -5 -13z"/>
<path d="M691 1124 c0 -11 3 -14 6 -6 3 7 2 16 -1 19 -3 4 -6 -2 -5 -13z"/>
<path d="M483 943 c9 -2 23 -2 30 0 6 3 -1 5 -18 5 -16 0 -22 -2 -12 -5z"/>
<path d="M978 943 c6 -2 18 -2 25 0 6 3 1 5 -13 5 -14 0 -19 -2 -12 -5z"/>
<path d="M558 923 c7 -3 16 -2 19 1 4 3 -2 6 -13 5 -11 0 -14 -3 -6 -6z"/>
<path d="M768 923 c7 -3 16 -2 19 1 4 3 -2 6 -13 5 -11 0 -14 -3 -6 -6z"/>
<path d="M633 903 c20 -2 54 -2 75 0 20 2 3 4 -38 4 -41 0 -58 -2 -37 -4z"/>
<path d="M171 794 c0 -11 3 -14 6 -6 3 7 2 16 -1 19 -3 4 -6 -2 -5 -13z"/>
<path d="M152 750 c0 -14 2 -19 5 -12 2 6 2 18 0 25 -3 6 -5 1 -5 -13z"/>
<path d="M1001 734 c0 -11 3 -14 6 -6 3 7 2 16 -1 19 -3 4 -6 -2 -5 -13z"/>
<path d="M134 600 c0 -58 1 -81 3 -52 2 28 2 76 0 105 -2 28 -3 5 -3 -53z"/>
<path d="M983 615 c0 -44 2 -61 4 -37 2 23 2 59 0 80 -2 20 -4 1 -4 -43z"/>
<path d="M1001 504 c0 -11 3 -14 6 -6 3 7 2 16 -1 19 -3 4 -6 -2 -5 -13z"/>
<path d="M152 435 c0 -16 2 -22 5 -12 2 9 2 23 0 30 -3 6 -5 -1 -5 -18z"/>
<path d="M172 370 c0 -14 2 -19 5 -12 2 6 2 18 0 25 -3 6 -5 1 -5 -13z"/>
<path d="M1141 304 c0 -11 3 -14 6 -6 3 7 2 16 -1 19 -3 4 -6 -2 -5 -13z"/>
<path d="M638 93 c17 -2 47 -2 65 0 17 2 3 4 -33 4 -36 0 -50 -2 -32 -4z"/>
<path d="M580 70 c23 -7 24 -8 5 -15 -11 -4 -29 -11 -40 -16 -11 -4 -33 -10 -49 -11 -16 -2 -31 -9 -34 -15 -3 -10 43 -13 208 -13 165 0 211 3 208 13 -3 6 -15 13 -29 15 -13 2 -34 7 -46 12 -13 6 -33 14 -45 19 -13 5 -63 11 -113 14 -49 2 -79 1 -65 -3z"/>
<path d="M768 73 c7 -3 16 -2 19 1 4 3 -2 6 -13 5 -11 0 -14 -3 -6 -6z"/>
<path d="M378 53 c7 -3 16 -2 19 1 4 3 -2 6 -13 5 -11 0 -14 -3 -6 -6z"/>
<path d="M518 53 c7 -3 16 -2 19 1 4 3 -2 6 -13 5 -11 0 -14 -3 -6 -6z"/>
<path d="M818 53 c7 -3 16 -2 19 1 4 3 -2 6 -13 5 -11 0 -14 -3 -6 -6z"/>
<path d="M948 53 c7 -3 16 -2 19 1 4 3 -2 6 -13 5 -11 0 -14 -3 -6 -6z"/>
</g>
</g>
  <g id="id2:id2" transform="matrix(1.25,0,0,1.25,0.0,0.0)"><g transform="translate(0.000000,52.000000) scale(0.040000,-0.040000)" fill="#080808" stroke="none">
<path d="M0 650 l0 -650 220 0 c145 0 220 4 220 10 0 12 -41 30 -53 23 -11 -7 -56 36 -53 51 2 6 1 8 -1 4 -10 -18 -24 -6 -18 15 5 17 4 18 -4 7 -5 -8 -12 -12 -14 -10 -37 45 -67 104 -63 123 3 12 3 16 0 10 -11 -24 -26 -13 -21 14 2 16 2 22 0 15 -9 -26 -23 1 -19 36 4 29 4 32 -3 12 -8 -23 -9 -24 -15 -5 -4 11 -12 28 -17 37 -5 10 -9 27 -9 38 0 11 -4 20 -9 20 -20 0 -40 285 -22 303 6 6 11 21 11 34 0 19 30 86 47 103 2 2 8 -2 14 -10 7 -11 8 -7 3 13 -6 27 9 39 20 15 3 -7 3 -2 0 11 -5 19 -3 23 9 18 11 -4 14 -2 10 9 -4 12 0 14 23 9 20 -4 23 -3 10 3 -17 8 -17 9 5 23 15 9 42 14 69 13 40 -2 41 -2 10 4 -58 12 -17 25 77 25 50 0 89 -5 96 -11 6 -7 21 -12 33 -12 13 0 26 -4 29 -10 8 -13 162 -13 170 0 4 6 28 8 58 6 36 -4 41 -3 17 2 -56 11 -20 23 74 24 62 1 93 -3 122 -17 35 -16 37 -19 19 -27 -15 -6 -12 -7 11 -4 25 4 37 -1 63 -28 27 -28 30 -34 16 -40 -9 -3 -22 -3 -27 1 -7 3 -8 1 -4 -6 9 -14 -20 -45 -34 -36 -5 3 -8 0 -5 -7 2 -7 -2 -22 -11 -33 -13 -17 -16 -18 -24 -5 -6 10 -8 3 -4 -21 4 -22 2 -39 -5 -43 -13 -9 -15 -158 -2 -184 5 -9 15 -30 22 -47 8 -16 33 -50 56 -74 23 -25 40 -49 37 -53 -3 -4 2 -5 10 -2 22 8 49 -3 40 -17 -4 -8 -9 -7 -16 2 -7 10 -8 8 -3 -8 5 -18 -6 -47 -43 -107 -3 -5 -9 -1 -14 10 -5 13 -6 8 -2 -13 5 -30 -7 -46 -19 -25 -2 4 -2 1 0 -6 2 -11 -18 -49 -44 -82 -2 -2 -9 2 -14 10 -9 12 -10 12 -5 -3 7 -21 -45 -71 -75 -73 -27 -2 -49 -12 -49 -24 0 -6 69 -10 200 -10 l200 0 0 650 0 650 -650 0 -650 0 0 -650z m873 573 c-3 -27 -15 -64 -26 -83 -26 -48 -96 -112 -114 -106 -8 4 -23 6 -32 6 -14 0 -20 11 -25 46 -6 44 2 65 41 114 2 2 9 -2 14 -10 9 -13 10 -12 6 2 -7 21 13 38 39 34 10 -2 13 -1 7 1 -27 9 -11 21 25 18 20 -1 27 0 14 2 -33 6 -16 23 23 23 l35 0 -7 -47z m-203 -158 c0 -31 3 -35 26 -35 14 0 23 -4 19 -9 -3 -5 -19 -9 -35 -9 -29 1 -30 3 -30 45 0 23 5 43 10 43 6 0 10 -16 10 -35z"/>
<path d="M842 1195 c0 -16 2 -22 5 -12 2 9 2 23 0 30 -3 6 -5 -1 -5 -18z"/>
<path d="M821 1144 c0 -11 3 -14 6 -6 3 7 2 16 -1 19 -3 4 -6 -2 -5 -13z"/>
<path d="M691 1124 c0 -11 3 -14 6 -6 3 7 2 16 -1 19 -3 4 -6 -2 -5 -13z"/>
<path d="M483 943 c9 -2 23 -2 30 0 6 3 -1 5 -18 5 -16 0 -22 -2 -12 -5z"/>
<path d="M978 943 c6 -2 18 -2 25 0 6 3 1 5 -13 5 -14 0 -19 -2 -12 -5z"/>
<path d="M558 923 c7 -3 16 -2 19 1 4 3 -2 6 -13 5 -11 0 -14 -3 -6 -6z"/>
<path d="M768 923 c7 -3 16 -2 19 1 4 3 -2 6 -13 5 -11 0 -14 -3 -6 -6z"/>
<path d="M633 903 c20 -2 54 -2 75 0 20 2 3 4 -38 4 -41 0 -58 -2 -37 -4z"/>
<path d="M171 794 c0 -11 3 -14 6 -6 3 7 2 16 -1 19 -3 4 -6 -2 -5 -13z"/>
<path d="M152 750 c0 -14 2 -19 5 -12 2 6 2 18 0 25 -3 6 -5 1 -5 -13z"/>
<path d="M1001 734 c0 -11 3 -14 6 -6 3 7 2 16 -1 19 -3 4 -6 -2 -5 -13z"/>
<path d="M134 600 c0 -58 1 -81 3 -52 2 28 2 76 0 105 -2 28 -3 5 -3 -53z"/>
<path d="M983 615 c0 -44 2 -61 4 -37 2 23 2 59 0 80 -2 20 -4 1 -4 -43z"/>
<path d="M1001 504 c0 -11 3 -14 6 -6 3 7 2 16 -1 19 -3 4 -6 -2 -5 -13z"/>
<path d="M152 435 c0 -16 2 -22 5 -12 2 9 2 23 0 30 -3 6 -5 -1 -5 -18z"/>
<path d="M172 370 c0 -14 2 -19 5 -12 2 6 2 18 0 25 -3 6 -5 1 -5 -13z"/>
<path d="M1141 304 c0 -11 3 -14 6 -6 3 7 2 16 -1 19 -3 4 -6 -2 -5 -13z"/>
<path d="M638 93 c17 -2 47 -2 65 0 17 2 3 4 -33 4 -36 0 -50 -2 -32 -4z"/>
<path d="M580 70 c23 -7 24 -8 5 -15 -11 -4 -29 -11 -40 -16 -11 -4 -33 -10 -49 -11 -16 -2 -31 -9 -34 -15 -3 -10 43 -13 208 -13 165 0 211 3 208 13 -3 6 -15 13 -29 15 -13 2 -34 7 -46 12 -13 6 -33 14 -45 19 -13 5 -63 11 -113 14 -49 2 -79 1 -65 -3z"/>
<path d="M768 73 c7 -3 16 -2 19 1 4 3 -2 6 -13 5 -11 0 -14 -3 -6 -6z"/>
<path d="M378 53 c7 -3 16 -2 19 1 4 3 -2 6 -13 5 -11 0 -14 -3 -6 -6z"/>
<path d="M518 53 c7 -3 16 -2 19 1 4 3 -2 6 -13 5 -11 0 -14 -3 -6 -6z"/>
<path d="M818 53 c7 -3 16 -2 19 1 4 3 -2 6 -13 5 -11 0 -14 -3 -6 -6z"/>
<path d="M948 53 c7 -3 16 -2 19 1 4 3 -2 6 -13 5 -11 0 -14 -3 -6 -6z"/>
</g>
</g>
  <g id="id3:id3" transform="matrix(1.25,0,0,1.25,0.0,0.0)"><g transform="translate(0.000000,52.000000) scale(0.040000,-0.040000)" fill="#080808" stroke="none">
<path d="M0 650 l0 -650 220 0 c145 0 220 4 220 10 0 12 -41 30 -53 23 -11 -7 -56 36 -53 51 2 6 1 8 -1 4 -10 -18 -24 -6 -18 15 5 17 4 18 -4 7 -5 -8 -12 -12 -14 -10 -37 45 -67 104 -63 123 3 12 3 16 0 10 -11 -24 -26 -13 -21 14 2 16 2 22 0 15 -9 -26 -23 1 -19 36 4 29 4 32 -3 12 -8 -23 -9 -24 -15 -5 -4 11 -12 28 -17 37 -5 10 -9 27 -9 38 0 11 -4 20 -9 20 -20 0 -40 285 -22 303 6 6 11 21 11 34 0 19 30 86 47 103 2 2 8 -2 14 -10 7 -11 8 -7 3 13 -6 27 9 39 20 15 3 -7 3 -2 0 11 -5 19 -3 23 9 18 11 -4 14 -2 10 9 -4 12 0 14 23 9 20 -4 23 -3 10 3 -17 8 -17 9 5 23 15 9 42 14 69 13 40 -2 41 -2 10 4 -58 12 -17 25 77 25 50 0 89 -5 96 -11 6 -7 21 -12 33 -12 13 0 26 -4 29 -10 8 -13 162 -13 170 0 4 6 28 8 58 6 36 -4 41 -3 17 2 -56 11 -20 23 74 24 62 1 93 -3 122 -17 35 -16 37 -19 19 -27 -15 -6 -12 -7 11 -4 25 4 37 -1 63 -28 27 -28 30 -34 16 -40 -9 -3 -22 -3 -27 1 -7 3 -8 1 -4 -6 9 -14 -20 -45 -34 -36 -5 3 -8 0 -5 -7 2 -7 -2 -22 -11 -33 -13 -17 -16 -18 -24 -5 -6 10 -8 3 -4 -21 4 -22 2 -39 -5 -43 -13 -9 -15 -158 -2 -184 5 -9 15 -30 22 -47 8 -16 33 -50 56 -74 23 -25 40 -49 37 -53 -3 -4 2 -5 10 -2 22 8 49 -3 40 -17 -4 -8 -9 -7 -16 2 -7 10 -8 8 -3 -8 5 -18 -6 -47 -43 -107 -3 -5 -9 -1 -14 10 -5 13 -6 8 -2 -13 5 -30 -7 -46 -19 -25 -2 4 -2 1 0 -6 2 -11 -18 -49 -44 -82 -2 -2 -9 2 -14 10 -9 12 -10 12 -5 -3 7 -21 -45 -71 -75 -73 -27 -2 -49 -12 -49 -24 0 -6 69 -10 200 -10 l200 0 0 650 0 650 -650 0 -650 0 0 -650z m873 573 c-3 -27 -15 -64 -26 -83 -26 -48 -96 -112 -114 -106 -8 4 -23 6 -32 6 -14 0 -20 11 -25 46 -6 44 2 65 41 114 2 2 9 -2 14 -10 9 -13 10 -12 6 2 -7 21 13 38 39 34 10 -2 13 -1 7 1 -27 9 -11 21 25 18 20 -1 27 0 14 2 -33 6 -16 23 23 23 l35 0 -7 -47z m-203 -158 c0 -31 3 -35 26 -35 14 0 23 -4 19 -9 -3 -5 -19 -9 -35 -9 -29 1 -30 3 -30 45 0 23 5 43 10 43 6 0 10 -16 10 -35z"/>
<path d="M842 1195 c0 -16 2 -22 5 -12 2 9 2 23 0 30 -3 6 -5 -1 -5 -18z"/>
<path d="M821 1144 c0 -11 3 -14 6 -6 3 7 2 16 -1 19 -3 4 -6 -2 -5 -13z"/>
<path d="M691 1124 c0 -11 3 -14 6 -6 3 7 2 16 -1 19 -3 4 -6 -2 -5 -13z"/>
<path d="M483 943 c9 -2 23 -2 30 0 6 3 -1 5 -18 5 -16 0 -22 -2 -12 -5z"/>
<path d="M978 943 c6 -2 18 -2 25 0 6 3 1 5 -13 5 -14 0 -19 -2 -12 -5z"/>
<path d="M558 923 c7 -3 16 -2 19 1 4 3 -2 6 -13 5 -11 0 -14 -3 -6 -6z"/>
<path d="M768 923 c7 -3 16 -2 19 1 4 3 -2 6 -13 5 -11 0 -14 -3 -6 -6z"/>
<path d="M633 903 c20 -2 54 -2 75 0 20 2 3 4 -38 4 -41 0 -58 -2 -37 -4z"/>
<path d="M171 794 c0 -11 3 -14 6 -6 3 7 2 16 -1 19 -3 4 -6 -2 -5 -13z"/>
<path d="M152 750 c0 -14 2 -19 5 -12 2 6 2 18 0 25 -3 6 -5 1 -5 -13z"/>
<path d="M1001 734 c0 -11 3 -14 6 -6 3 7 2 16 -1 19 -3 4 -6 -2 -5 -13z"/>
<path d="M134 600 c0 -58 1 -81 3 -52 2 28 2 76 0 105 -2 28 -3 5 -3 -53z"/>
<path d="M983 615 c0 -44 2 -61 4 -37 2 23 2 59 0 80 -2 20 -4 1 -4 -43z"/>
<path d="M1001 504 c0 -11 3 -14 6 -6 3 7 2 16 -1 19 -3 4 -6 -2 -5 -13z"/>
<path d="M152 435 c0 -16 2 -22 5 -12 2 9 2 23 0 30 -3 6 -5 -1 -5 -18z"/>
<path d="M172 370 c0 -14 2 -19 5 -12 2 6 2 18 0 25 -3 6 -5 1 -5 -13z"/>
<path d="M1141 304 c0 -11 3 -14 6 -6 3 7 2 16 -1 19 -3 4 -6 -2 -5 -13z"/>
<path d="M638 93 c17 -2 47 -2 65 0 17 2 3 4 -33 4 -36 0 -50 -2 -32 -4z"/>
<path d="M580 70 c23 -7 24 -8 5 -15 -11 -4 -29 -11 -40 -16 -11 -4 -33 -10 -49 -11 -16 -2 -31 -9 -34 -15 -3 -10 43 -13 208 -13 165 0 211 3 208 13 -3 6 -15 13 -29 15 -13 2 -34 7 -46 12 -13 6 -33 14 -45 19 -13 5 -63 11 -113 14 -49 2 -79 1 -65 -3z"/>
<path d="M768 73 c7 -3 16 -2 19 1 4 3 -2 6 -13 5 -11 0 -14 -3 -6 -6z"/>
<path d="M378 53 c7 -3 16 -2 19 1 4 3 -2 6 -13 5 -11 0 -14 -3 -6 -6z"/>
<path d="M518 53 c7 -3 16 -2 19 1 4 3 -2 6 -13 5 -11 0 -14 -3 -6 -6z"/>
<path d="M818 53 c7 -3 16 -2 19 1 4 3 -2 6 -13 5 -11 0 -14 -3 -6 -6z"/>
<path d="M948 53 c7 -3 16 -2 19 1 4 3 -2 6 -13 5 -11 0 -14 -3 -6 -6z"/>
</g>
</g>
  <g id="id4:id4" transform="matrix(1.25,0,0,1.25,0.0,0.0)"><g transform="translate(0.000000,52.000000) scale(0.040000,-0.040000)" fill="#080808" stroke="none">
<path d="M0 650 l0 -650 220 0 c145 0 220 4 220 10 0 12 -41 30 -53 23 -11 -7 -56 36 -53 51 2 6 1 8 -1 4 -10 -18 -24 -6 -18 15 5 17 4 18 -4 7 -5 -8 -12 -12 -14 -10 -37 45 -67 104 -63 123 3 12 3 16 0 10 -11 -24 -26 -13 -21 14 2 16 2 22 0 15 -9 -26 -23 1 -19 36 4 29 4 32 -3 12 -8 -23 -9 -24 -15 -5 -4 11 -12 28 -17 37 -5 10 -9 27 -9 38 0 11 -4 20 -9 20 -20 0 -40 285 -22 303 6 6 11 21 11 34 0 19 30 86 47 103 2 2 8 -2 14 -10 7 -11 8 -7 3 13 -6 27 9 39 20 15 3 -7 3 -2 0 11 -5 19 -3 23 9 18 11 -4 14 -2 10 9 -4 12 0 14 23 9 20 -4 23 -3 10 3 -17 8 -17 9 5 23 15 9 42 14 69 13 40 -2 41 -2 10 4 -58 12 -17 25 77 25 50 0 89 -5 96 -11 6 -7 21 -12 33 -12 13 0 26 -4 29 -10 8 -13 162 -13 170 0 4 6 28 8 58 6 36 -4 41 -3 17 2 -56 11 -20 23 74 24 62 1 93 -3 122 -17 35 -16 37 -19 19 -27 -15 -6 -12 -7 11 -4 25 4 37 -1 63 -28 27 -28 30 -34 16 -40 -9 -3 -22 -3 -27 1 -7 3 -8 1 -4 -6 9 -14 -20 -45 -34 -36 -5 3 -8 0 -5 -7 2 -7 -2 -22 -11 -33 -13 -17 -16 -18 -24 -5 -6 10 -8 3 -4 -21 4 -22 2 -39 -5 -43 -13 -9 -15 -158 -2 -184 5 -9 15 -30 22 -47 8 -16 33 -50 56 -74 23 -25 40 -49 37 -53 -3 -4 2 -5 10 -2 22 8 49 -3 40 -17 -4 -8 -9 -7 -16 2 -7 10 -8 8 -3 -8 5 -18 -6 -47 -43 -107 -3 -5 -9 -1 -14 10 -5 13 -6 8 -2 -13 5 -30 -7 -46 -19 -25 -2 4 -2 1 0 -6 2 -11 -18 -49 -44 -82 -2 -2 -9 2 -14 10 -9 12 -10 12 -5 -3 7 -21 -45 -71 -75 -73 -27 -2 -49 -12 -49 -24 0 -6 69 -10 200 -10 l200 0 0 650 0 650 -650 0 -650 0 0 -650z m873 573 c-3 -27 -15 -64 -26 -83 -26 -48 -96 -112 -114 -106 -8 4 -23 6 -32 6 -14 0 -20 11 -25 46 -6 44 2 65 41 114 2 2 9 -2 14 -10 9 -13 10 -12 6 2 -7 21 13 38 39 34 10 -2 13 -1 7 1 -27 9 -11 21 25 18 20 -1 27 0 14 2 -33 6 -16 23 23 23 l35 0 -7 -47z m-203 -158 c0 -31 3 -35 26 -35 14 0 23 -4 19 -9 -3 -5 -19 -9 -35 -9 -29 1 -30 3 -30 45 0 23 5 43 10 43 6 0 10 -16 10 -35z"/>
<path d="M842 1195 c0 -16 2 -22 5 -12 2 9 2 23 0 30 -3 6 -5 -1 -5 -18z"/>
<path d="M821 1144 c0 -11 3 -14 6 -6 3 7 2 16 -1 19 -3 4 -6 -2 -5 -13z"/>
<path d="M691 1124 c0 -11 3 -14 6 -6 3 7 2 16 -1 19 -3 4 -6 -2 -5 -13z"/>
<path d="M483 943 c9 -2 23 -2 30 0 6 3 -1 5 -18 5 -16 0 -22 -2 -12 -5z"/>
<path d="M978 943 c6 -2 18 -2 25 0 6 3 1 5 -13 5 -14 0 -19 -2 -12 -5z"/>
<path d="M558 923 c7 -3 16 -2 19 1 4 3 -2 6 -13 5 -11 0 -14 -3 -6 -6z"/>
<path d="M768 923 c7 -3 16 -2 19 1 4 3 -2 6 -13 5 -11 0 -14 -3 -6 -6z"/>
<path d="M633 903 c20 -2 54 -2 75 0 20 2 3 4 -38 4 -41 0 -58 -2 -37 -4z"/>
<path d="M171 794 c0 -11 3 -14 6 -6 3 7 2 16 -1 19 -3 4 -6 -2 -5 -13z"/>
<path d="M152 750 c0 -14 2 -19 5 -12 2 6 2 18 0 25 -3 6 -5 1 -5 -13z"/>
<path d="M1001 734 c0 -11 3 -14 6 -6 3 7 2 16 -1 19 -3 4 -6 -2 -5 -13z"/>
<path d="M134 600 c0 -58 1 -81 3 -52 2 28 2 76 0 105 -2 28 -3 5 -3 -53z"/>
<path d="M983 615 c0 -44 2 -61 4 -37 2 23 2 59 0 80 -2 20 -4 1 -4 -43z"/>
<path d="M1001 504 c0 -11 3 -14 6 -6 3 7 2 16 -1 19 -3 4 -6 -2 -5 -13z"/>
<path d="M152 435 c0 -16 2 -22 5 -12 2 9 2 23 0 30 -3 6 -5 -1 -5 -18z"/>
<path d="M172 370 c0 -14 2 -19 5 -12 2 6 2 18 0 25 -3 6 -5 1 -5 -13z"/>
<path d="M1141 304 c0 -11 3 -14 6 -6 3 7 2 16 -1 19 -3 4 -6 -2 -5 -13z"/>
<path d="M638 93 c17 -2 47 -2 65 0 17 2 3 4 -33 4 -36 0 -50 -2 -32 -4z"/>
<path d="M580 70 c23 -7 24 -8 5 -15 -11 -4 -29 -11 -40 -16 -11 -4 -33 -10 -49 -11 -16 -2 -31 -9 -34 -15 -3 -10 43 -13 208 -13 165 0 211 3 208 13 -3 6 -15 13 -29 15 -13 2 -34 7 -46 12 -13 6 -33 14 -45 19 -13 5 -63 11 -113 14 -49 2 -79 1 -65 -3z"/>
<path d="M768 73 c7 -3 16 -2 19 1 4 3 -2 6 -13 5 -11 0 -14 -3 -6 -6z"/>
<path d="M378 53 c7 -3 16 -2 19 1 4 3 -2 6 -13 5 -11 0 -14 -3 -6 -6z"/>
<path d="M518 53 c7 -3 16 -2 19 1 4 3 -2 6 -13 5 -11 0 -14 -3 -6 -6z"/>
<path d="M818 53 c7 -3 16 -2 19 1 4 3 -2 6 -13 5 -11 0 -14 -3 -6 -6z"/>
<path d="M948 53 c7 -3 16 -2 19 1 4 3 -2 6 -13 5 -11 0 -14 -3 -6 -6z"/>
</g>
</g>
  <g id="id5:id5" transform="matrix(1.25,0,0,1.25,0.0,0.0)"><g transform="translate(0.000000,52.000000) scale(0.040000,-0.040000)" fill="#080808" stroke="none">
<path d="M0 650 l0 -650 220 0 c145 0 220 4 220 10 0 12 -41 30 -53 23 -11 -7 -56 36 -53 51 2 6 1 8 -1 4 -10 -18 -24 -6 -18 15 5 17 4 18 -4 7 -5 -8 -12 -12 -14 -10 -37 45 -67 104 -63 123 3 12 3 16 0 10 -11 -24 -26 -13 -21 14 2 16 2 22 0 15 -9 -26 -23 1 -19 36 4 29 4 32 -3 12 -8 -23 -9 -24 -15 -5 -4 11 -12 28 -17 37 -5 10 -9 27 -9 38 0 11 -4 20 -9 20 -20 0 -40 285 -22 303 6 6 11 21 11 34 0 19 30 86 47 103 2 2 8 -2 14 -10 7 -11 8 -7 3 13 -6 27 9 39 20 15 3 -7 3 -2 0 11 -5 19 -3 23 9 18 11 -4 14 -2 10 9 -4 12 0 14 23 9 20 -4 23 -3 10 3 -17 8 -17 9 5 23 15 9 42 14 69 13 40 -2 41 -2 10 4 -58 12 -17 25 77 25 50 0 89 -5 96 -11 6 -7 21 -12 33 -12 13 0 26 -4 29 -10 8 -13 162 -13 170 0 4 6 28 8 58 6 36 -4 41 -3 17 2 -56 11 -20 23 74 24 62 1 93 -3 122 -17 35 -16 37 -19 19 -27 -15 -6 -12 -7 11 -4 25 4 37 -1 63 -28 27 -28 30 -34 16 -40 -9 -3 -22 -3 -27 1 -7 3 -8 1 -4 -6 9 -14 -20 -45 -34 -36 -5 3 -8 0 -5 -7 2 -7 -2 -22 -11 -33 -13 -17 -16 -18 -24 -5 -6 10 -8 3 -4 -21 4 -22 2 -39 -5 -43 -13 -9 -15 -158 -2 -184 5 -9 15 -30 22 -47 8 -16 33 -50 56 -74 23 -25 40 -49 37 -53 -3 -4 2 -5 10 -2 22 8 49 -3 40 -17 -4 -8 -9 -7 -16 2 -7 10 -8 8 -3 -8 5 -18 -6 -47 -43 -107 -3 -5 -9 -1 -14 10 -5 13 -6 8 -2 -13 5 -30 -7 -46 -19 -25 -2 4 -2 1 0 -6 2 -11 -18 -49 -44 -82 -2 -2 -9 2 -14 10 -9 12 -10 12 -5 -3 7 -21 -45 -71 -75 -73 -27 -2 -49 -12 -49 -24 0 -6 69 -10 200 -10 l200 0 0 650 0 650 -650 0 -650 0 0 -650z m873 573 c-3 -27 -15 -64 -26 -83 -26 -48 -96 -112 -114 -106 -8 4 -23 6 -32 6 -14 0 -20 11 -25 46 -6 44 2 65 41 114 2 2 9 -2 14 -10 9 -13 10 -12 6 2 -7 21 13 38 39 34 10 -2 13 -1 7 1 -27 9 -11 21 25 18 20 -1 27 0 14 2 -33 6 -16 23 23 23 l35 0 -7 -47z m-203 -158 c0 -31 3 -35 26 -35 14 0 23 -4 19 -9 -3 -5 -19 -9 -35 -9 -29 1 -30 3 -30 45 0 23 5 43 10 43 6 0 10 -16 10 -35z"/>
<path d="M842 1195 c0 -16 2 -22 5 -12 2 9 2 23 0 30 -3 6 -5 -1 -5 -18z"/>
<path d="M821 1144 c0 -11 3 -14 6 -6 3 7 2 16 -1 19 -3 4 -6 -2 -5 -13z"/>
<path d="M691 1124 c0 -11 3 -14 6 -6 3 7 2 16 -1 19 -3 4 -6 -2 -5 -13z"/>
<path d="M483 943 c9 -2 23 -2 30 0 6 3 -1 5 -18 5 -16 0 -22 -2 -12 -5z"/>
<path d="M978 943 c6 -2 18 -2 25 0 6 3 1 5 -13 5 -14 0 -19 -2 -12 -5z"/>
<path d="M558 923 c7 -3 16 -2 19 1 4 3 -2 6 -13 5 -11 0 -14 -3 -6 -6z"/>
<path d="M768 923 c7 -3 16 -2 19 1 4 3 -2 6 -13 5 -11 0 -14 -3 -6 -6z"/>
<path d="M633 903 c20 -2 54 -2 75 0 20 2 3 4 -38 4 -41 0 -58 -2 -37 -4z"/>
<path d="M171 794 c0 -11 3 -14 6 -6 3 7 2 16 -1 19 -3 4 -6 -2 -5 -13z"/>
<path d="M152 750 c0 -14 2 -19 5 -12 2 6 2 18 0 25 -3 6 -5 1 -5 -13z"/>
<path d="M1001 734 c0 -11 3 -14 6 -6 3 7 2 16 -1 19 -3 4 -6 -2 -5 -13z"/>
<path d="M134 600 c0 -58 1 -81 3 -52 2 28 2 76 0 105 -2 28 -3 5 -3 -53z"/>
<path d="M983 615 c0 -44 2 -61 4 -37 2 23 2 59 0 80 -2 20 -4 1 -4 -43z"/>
<path d="M1001 504 c0 -11 3 -14 6 -6 3 7 2 16 -1 19 -3 4 -6 -2 -5 -13z"/>
<path d="M152 435 c0 -16 2 -22 5 -12 2 9 2 23 0 30 -3 6 -5 -1 -5 -18z"/>
<path d="M172 370 c0 -14 2 -19 5 -12 2 6 2 18 0 25 -3 6 -5 1 -5 -13z"/>
<path d="M1141 304 c0 -11 3 -14 6 -6 3 7 2 16 -1 19 -3 4 -6 -2 -5 -13z"/>
<path d="M638 93 c17 -2 47 -2 65 0 17 2 3 4 -33 4 -36 0 -50 -2 -32 -4z"/>
<path d="M580 70 c23 -7 24 -8 5 -15 -11 -4 -29 -11 -40 -16 -11 -4 -33 -10 -49 -11 -16 -2 -31 -9 -34 -15 -3 -10 43 -13 208 -13 165 0 211 3 208 13 -3 6 -15 13 -29 15 -13 2 -34 7 -46 12 -13 6 -33 14 -45 19 -13 5 -63 11 -113 14 -49 2 -79 1 -65 -3z"/>
<path d="M768 73 c7 -3 16 -2 19 1 4 3 -2 6 -13 5 -11 0 -14 -3 -6 -6z"/>
<path d="M378 53 c7 -3 16 -2 19 1 4 3 -2 6 -13 5 -11 0 -14 -3 -6 -6z"/>
<path d="M518 53 c7 -3 16 -2 19 1 4 3 -2 6 -13 5 -11 0 -14 -3 -6 -6z"/>
<path d="M818 53 c7 -3 16 -2 19 1 4 3 -2 6 -13 5 -11 0 -14 -3 -6 -6z"/>
<path d="M948 53 c7 -3 16 -2 19 1 4 3 -2 6 -13 5 -11 0 -14 -3 -6 -6z"/>
</g>
</g>
  <g id="id6:id6" transform="matrix(1.25,0,0,1.25,0.0,0.0)"><g transform="translate(0.000000,52.000000) scale(0.040000,-0.040000)" fill="#080808" stroke="none">
<path d="M0 650 l0 -650 220 0 c145 0 220 4 220 10 0 12 -41 30 -53 23 -11 -7 -56 36 -53 51 2 6 1 8 -1 4 -10 -18 -24 -6 -18 15 5 17 4 18 -4 7 -5 -8 -12 -12 -14 -10 -37 45 -67 104 -63 123 3 12 3 16 0 10 -11 -24 -26 -13 -21 14 2 16 2 22 0 15 -9 -26 -23 1 -19 36 4 29 4 32 -3 12 -8 -23 -9 -24 -15 -5 -4 11 -12 28 -17 37 -5 10 -9 27 -9 38 0 11 -4 20 -9 20 -20 0 -40 285 -22 303 6 6 11 21 11 34 0 19 30 86 47 103 2 2 8 -2 14 -10 7 -11 8 -7 3 13 -6 27 9 39 20 15 3 -7 3 -2 0 11 -5 19 -3 23 9 18 11 -4 14 -2 10 9 -4 12 0 14 23 9 20 -4 23 -3 10 3 -17 8 -17 9 5 23 15 9 42 14 69 13 40 -2 41 -2 10 4 -58 12 -17 25 77 25 50 0 89 -5 96 -11 6 -7 21 -12 33 -12 13 0 26 -4 29 -10 8 -13 162 -13 170 0 4 6 28 8 58 6 36 -4 41 -3 17 2 -56 11 -20 23 74 24 62 1 93 -3 122 -17 35 -16 37 -19 19 -27 -15 -6 -12 -7 11 -4 25 4 37 -1 63 -28 27 -28 30 -34 16 -40 -9 -3 -22 -3 -27 1 -7 3 -8 1 -4 -6 9 -14 -20 -45 -34 -36 -5 3 -8 0 -5 -7 2 -7 -2 -22 -11 -33 -13 -17 -16 -18 -24 -5 -6 10 -8 3 -4 -21 4 -22 2 -39 -5 -43 -13 -9 -15 -158 -2 -184 5 -9 15 -30 22 -47 8 -16 33 -50 56 -74 23 -25 40 -49 37 -53 -3 -4 2 -5 10 -2 22 8 49 -3 40 -17 -4 -8 -9 -7 -16 2 -7 10 -8 8 -3 -8 5 -18 -6 -47 -43 -107 -3 -5 -9 -1 -14 10 -5 13 -6 8 -2 -13 5 -30 -7 -46 -19 -25 -2 4 -2 1 0 -6 2 -11 -18 -49 -44 -82 -2 -2 -9 2 -14 10 -9 12 -10 12 -5 -3 7 -21 -45 -71 -75 -73 -27 -2 -49 -12 -49 -24 0 -6 69 -10 200 -10 l200 0 0 650 0 650 -650 0 -650 0 0 -650z m873 573 c-3 -27 -15 -64 -26 -83 -26 -48 -96 -112 -114 -106 -8 4 -23 6 -32 6 -14 0 -20 11 -25 46 -6 44 2 65 41 114 2 2 9 -2 14 -10 9 -13 10 -12 6 2 -7 21 13 38 39 34 10 -2 13 -1 7 1 -27 9 -11 21 25 18 20 -1 27 0 14 2 -33 6 -16 23 23 23 l35 0 -7 -47z m-203 -158 c0 -31 3 -35 26 -35 14 0 23 -4 19 -9 -3 -5 -19 -9 -35 -9 -29 1 -30 3 -30 45 0 23 5 43 10 43 6 0 10 -16 10 -35z"/>
<path d="M842 1195 c0 -16 2 -22 5 -12 2 9 2 23 0 30 -3 6 -5 -1 -5 -18z"/>
<path d="M821 1144 c0 -11 3 -14 6 -6 3 7 2 16 -1 19 -3 4 -6 -2 -5 -13z"/>
<path d="M691 1124 c0 -11 3 -14 6 -6 3 7 2 16 -1 19 -3 4 -6 -2 -5 -13z"/>
<path d="M483 943 c9 -2 23 -2 30 0 6 3 -1 5 -18 5 -16 0 -22 -2 -12 -5z"/>
<path d="M978 943 c6 -2 18 -2 25 0 6 3 1 5 -13 5 -14 0 -19 -2 -12 -5z"/>
<path d="M558 923 c7 -3 16 -2 19 1 4 3 -2 6 -13 5 -11 0 -14 -3 -6 -6z"/>
<path d="M768 923 c7 -3 16 -2 19 1 4 3 -2 6 -13 5 -11 0 -14 -3 -6 -6z"/>
<path d="M633 903 c20 -2 54 -2 75 0 20 2 3 4 -38 4 -41 0 -58 -2 -37 -4z"/>
<path d="M171 794 c0 -11 3 -14 6 -6 3 7 2 16 -1 19 -3 4 -6 -2 -5 -13z"/>
<path d="M152 750 c0 -14 2 -19 5 -12 2 6 2 18 0 25 -3 6 -5 1 -5 -13z"/>
<path d="M1001 734 c0 -11 3 -14 6 -6 3 7 2 16 -1 19 -3 4 -6 -2 -5 -13z"/>
<path d="M134 600 c0 -58 1 -81 3 -52 2 28 2 76 0 105 -2 28 -3 5 -3 -53z"/>
<path d="M983 615 c0 -44 2 -61 4 -37 2 23 2 59 0 80 -2 20 -4 1 -4 -43z"/>
<path d="M1001 504 c0 -11 3 -14 6 -6 3 7 2 16 -1 19 -3 4 -6 -2 -5 -13z"/>
<path d="M152 435 c0 -16 2 -22 5 -12 2 9 2 23 0 30 -3 6 -5 -1 -5 -18z"/>
<path d="M172 370 c0 -14 2 -19 5 -12 2 6 2 18 0 25 -3 6 -5 1 -5 -13z"/>
<path d="M1141 304 c0 -11 3 -14 6 -6 3 7 2 16 -1 19 -3 4 -6 -2 -5 -13z"/>
<path d="M638 93 c17 -2 47 -2 65 0 17 2 3 4 -33 4 -36 0 -50 -2 -32 -4z"/>
<path d="M580 70 c23 -7 24 -8 5 -15 -11 -4 -29 -11 -40 -16 -11 -4 -33 -10 -49 -11 -16 -2 -31 -9 -34 -15 -3 -10 43 -13 208 -13 165 0 211 3 208 13 -3 6 -15 13 -29 15 -13 2 -34 7 -46 12 -13 6 -33 14 -45 19 -13 5 -63 11 -113 14 -49 2 -79 1 -65 -3z"/>
<path d="M768 73 c7 -3 16 -2 19 1 4 3 -2 6 -13 5 -11 0 -14 -3 -6 -6z"/>
<path d="M378 53 c7 -3 16 -2 19 1 4 3 -2 6 -13 5 -11 0 -14 -3 -6 -6z"/>
<path d="M518 53 c7 -3 16 -2 19 1 4 3 -2 6 -13 5 -11 0 -14 -3 -6 -6z"/>
<path d="M818 53 c7 -3 16 -2 19 1 4 3 -2 6 -13 5 -11 0 -14 -3 -6 -6z"/>
<path d="M948 53 c7 -3 16 -2 19 1 4 3 -2 6 -13 5 -11 0 -14 -3 -6 -6z"/>
</g>
</g>
  <g id="id7:id7" transform="matrix(1.25,0,0,1.25,0.0,0.0)"><g transform="translate(0.000000,52.000000) scale(0.040000,-0.040000)" fill="#080808" stroke="none">
<path d="M0 650 l0 -650 220 0 c145 0 220 4 220 10 0 12 -41 30 -53 23 -11 -7 -56 36 -53 51 2 6 1 8 -1 4 -10 -18 -24 -6 -18 15 5 17 4 18 -4 7 -5 -8 -12 -12 -14 -10 -37 45 -67 104 -63 123 3 12 3 16 0 10 -11 -24 -26 -13 -21 14 2 16 2 22 0 15 -9 -26 -23 1 -19 36 4 29 4 32 -3 12 -8 -23 -9 -24 -15 -5 -4 11 -12 28 -17 37 -5 10 -9 27 -9 38 0 11 -4 20 -9 20 -20 0 -40 285 -22 303 6 6 11 21 11 34 0 19 30 86 47 103 2 2 8 -2 14 -10 7 -11 8 -7 3 13 -6 27 9 39 20 15 3 -7 3 -2 0 11 -5 19 -3 23 9 18 11 -4 14 -2 10 9 -4 12 0 14 23 9 20 -4 23 -3 10 3 -17 8 -17 9 5 23 15 9 42 14 69 13 40 -2 41 -2 10 4 -58 12 -17 25 77 25 50 0 89 -5 96 -11 6 -7 21 -12 33 -12 13 0 26 -4 29 -10 8 -13 162 -13 170 0 4 6 28 8 58 6 36 -4 41 -3 17 2 -56 11 -20 23 74 24 62 1 93 -3 122 -17 35 -16 37 -19 19 -27 -15 -6 -12 -7 11 -4 25 4 37 -1 63 -28 27 -28 30 -34 16 -40 -9 -3 -22 -3 -27 1 -7 3 -8 1 -4 -6 9 -14 -20 -45 -34 -36 -5 3 -8 0 -5 -7 2 -7 -2 -22 -11 -33 -13 -17 -16 -18 -24 -5 -6 10 -8 3 -4 -21 4 -22 2 -39 -5 -43 -13 -9 -15 -158 -2 -184 5 -9 15 -30 22 -47 8 -16 33 -50 56 -74 23 -25 40 -49 37 -53 -3 -4 2 -5 10 -2 22 8 49 -3 40 -17 -4 -8 -9 -7 -16 2 -7 10 -8 8 -3 -8 5 -18 -6 -47 -43 -107 -3 -5 -9 -1 -14 10 -5 13 -6 8 -2 -13 5 -30 -7 -46 -19 -25 -2 4 -2 1 0 -6 2 -11 -18 -49 -44 -82 -2 -2 -9 2 -14 10 -9 12 -10 12 -5 -3 7 -21 -45 -71 -75 -73 -27 -2 -49 -12 -49 -24 0 -6 69 -10 200 -10 l200 0 0 650 0 650 -650 0 -650 0 0 -650z m873 573 c-3 -27 -15 -64 -26 -83 -26 -48 -96 -112 -114 -106 -8 4 -23 6 -32 6 -14 0 -20 11 -25 46 -6 44 2 65 41 114 2 2 9 -2 14 -10 9 -13 10 -12 6 2 -7 21 13 38 39 34 10 -2 13 -1 7 1 -27 9 -11 21 25 18 20 -1 27 0 14 2 -33 6 -16 23 23 23 l35 0 -7 -47z m-203 -158 c0 -31 3 -35 26 -35 14 0 23 -4 19 -9 -3 -5 -19 -9 -35 -9 -29 1 -30 3 -30 45 0 23 5 43 10 43 6 0 10 -16 10 -35z"/>
<path d="M842 1195 c0 -16 2 -22 5 -12 2 9 2 23 0 30 -3 6 -5 -1 -5 -18z"/>
<path d="M821 1144 c0 -11 3 -14 6 -6 3 7 2 16 -1 19 -3 4 -6 -2 -5 -13z"/>
<path d="M691 1124 c0 -11 3 -14 6 -6 3 7 2 16 -1 19 -3 4 -6 -2 -5 -13z"/>
<path d="M483 943 c9 -2 23 -2 30 0 6 3 -1 5 -18 5 -16 0 -22 -2 -12 -5z"/>
<path d="M978 943 c6 -2 18 -2 25 0 6 3 1 5 -13 5 -14 0 -19 -2 -12 -5z"/>
<path d="M558 923 c7 -3 16 -2 19 1 4 3 -2 6 -13 5 -11 0 -14 -3 -6 -6z"/>
<path d="M768 923 c7 -3 16 -2 19 1 4 3 -2 6 -13 5 -11 0 -14 -3 -6 -6z"/>
<path d="M633 903 c20 -2 54 -2 75 0 20 2 3 4 -38 4 -41 0 -58 -2 -37 -4z"/>
<path d="M171 794 c0 -11 3 -14 6 -6 3 7 2 16 -1 19 -3 4 -6 -2 -5 -13z"/>
<path d="M152 750 c0 -14 2 -19 5 -12 2 6 2 18 0 25 -3 6 -5 1 -5 -13z"/>
<path d="M1001 734 c0 -11 3 -14 6 -6 3 7 2 16 -1 19 -3 4 -6 -2 -5 -13z"/>
<path d="M134 600 c0 -58 1 -81 3 -52 2 28 2 76 0 105 -2 28 -3 5 -3 -53z"/>
<path d="M983 615 c0 -44 2 -61 4 -37 2 23 2 59 0 80 -2 20 -4 1 -4 -43z"/>
<path d="M1001 504 c0 -11 3 -14 6 -6 3 7 2 16 -1 19 -3 4 -6 -2 -5 -13z"/>
<path d="M152 435 c0 -16 2 -22 5 -12 2 9 2 23 0 30 -3 6 -5 -1 -5 -18z"/>
<path d="M172 370 c0 -14 2 -19 5 -12 2 6 2 18 0 25 -3 6 -5 1 -5 -13z"/>
<path d="M1141 304 c0 -11 3 -14 6 -6 3 7 2 16 -1 19 -3 4 -6 -2 -5 -13z"/>
<path d="M638 93 c17 -2 47 -2 65 0 17 2 3 4 -33 4 -36 0 -50 -2 -32 -4z"/>
<path d="M580 70 c23 -7 24 -8 5 -15 -11 -4 -29 -11 -40 -16 -11 -4 -33 -10 -49 -11 -16 -2 -31 -9 -34 -15 -3 -10 43 -13 208 -13 165 0 211 3 208 13 -3 6 -15 13 -29 15 -13 2 -34 7 -46 12 -13 6 -33 14 -45 19 -13 5 -63 11 -113 14 -49 2 -79 1 -65 -3z"/>
<path d="M768 73 c7 -3 16 -2 19 1 4 3 -2 6 -13 5 -11 0 -14 -3 -6 -6z"/>
<path d="M378 53 c7 -3 16 -2 19 1 4 3 -2 6 -13 5 -11 0 -14 -3 -6 -6z"/>
<path d="M518 53 c7 -3 16 -2 19 1 4 3 -2 6 -13 5 -11 0 -14 -3 -6 -6z"/>
<path d="M818 53 c7 -3 16 -2 19 1 4 3 -2 6 -13 5 -11 0 -14 -3 -6 -6z"/>
<path d="M948 53 c7 -3 16 -2 19 1 4 3 -2 6 -13 5 -11 0 -14 -3 -6 -6z"/>
</g>
</g>
  <g id="id8:id8" transform="matrix(1.25,0,0,1.25,0.0,0.0)"><g transform="translate(0.000000,52.000000) scale(0.040000,-0.040000)" fill="#080808" stroke="none">
<path d="M0 650 l0 -650 220 0 c145 0 220 4 220 10 0 12 -41 30 -53 23 -11 -7 -56 36 -53 51 2 6 1 8 -1 4 -10 -18 -24 -6 -18 15 5 17 4 18 -4 7 -5 -8 -12 -12 -14 -10 -37 45 -67 104 -63 123 3 12 3 16 0 10 -11 -24 -26 -13 -21 14 2 16 2 22 0 15 -9 -26 -23 1 -19 36 4 29 4 32 -3 12 -8 -23 -9 -24 -15 -5 -4 11 -12 28 -17 37 -5 10 -9 27 -9 38 0 11 -4 20 -9 20 -20 0 -40 285 -22 303 6 6 11 21 11 34 0 19 30 86 47 103 2 2 8 -2 14 -10 7 -11 8 -7 3 13 -6 27 9 39 20 15 3 -7 3 -2 0 11 -5 19 -3 23 9 18 11 -4 14 -2 10 9 -4 12 0 14 23 9 20 -4 23 -3 10 3 -17 8 -17 9 5 23 15 9 42 14 69 13 40 -2 41 -2 10 4 -58 12 -17 25 77 25 50 0 89 -5 96 -11 6 -7 21 -12 33 -12 13 0 26 -4 29 -10 8 -13 162 -13 170 0 4 6 28 8 58 6 36 -4 41 -3 17 2 -56 11 -20 23 74 24 62 1 93 -3 122 -17 35 -16 37 -19 19 -27 -15 -6 -12 -7 11 -4 25 4 37 -1 63 -28 27 -28 30 -34 16 -40 -9 -3 -22 -3 -27 1 -7 3 -8 1 -4 -6 9 -14 -20 -45 -34 -36 -5 3 -8 0 -5 -7 2 -7 -2 -22 -11 -33 -13 -17 -16 -18 -24 -5 -6 10 -8 3 -4 -21 4 -22 2 -39 -5 -43 -13 -9 -15 -158 -2 -184 5 -9 15 -30 22 -47 8 -16 33 -50 56 -74 23 -25 40 -49 37 -53 -3 -4 2 -5 10 -2 22 8 49 -3 40 -17 -4 -8 -9 -7 -16 2 -7 10 -8 8 -3 -8 5 -18 -6 -47 -43 -107 -3 -5 -9 -1 -14 10 -5 13 -6 8 -2 -13 5 -30 -7 -46 -19 -25 -2 4 -2 1 0 -6 2 -11 -18 -49 -44 -82 -2 -2 -9 2 -14 10 -9 12 -10 12 -5 -3 7 -21 -45 -71 -75 -73 -27 -2 -49 -12 -49 -24 0 -6 69 -10 200 -10 l200 0 0 650 0 650 -650 0 -650 0 0 -650z m873 573 c-3 -27 -15 -64 -26 -83 -26 -48 -96 -112 -114 -106 -8 4 -23 6 -32 6 -14 0 -20 11 -25 46 -6 44 2 65 41 114 2 2 9 -2 14 -10 9 -13 10 -12 6 2 -7 21 13 38 39 34 10 -2 13 -1 7 1 -27 9 -11 21 25 18 20 -1 27 0 14 2 -33 6 -16 23 23 23 l35 0 -7 -47z m-203 -158 c0 -31 3 -35 26 -35 14 0 23 -4 19 -9 -3 -5 -19 -9 -35 -9 -29 1 -30 3 -30 45 0 23 5 43 10 43 6 0 10 -16 10 -35z"/>
<path d="M842 1195 c0 -16 2 -22 5 -12 2 9 2 23 0 30 -3 6 -5 -1 -5 -18z"/>
<path d="M821 1144 c0 -11 3 -14 6 -6 3 7 2 16 -1 19 -3 4 -6 -2 -5 -13z"/>
<path d="M691 1124 c0 -11 3 -14 6 -6 3 7 2 16 -1 19 -3 4 -6 -2 -5 -13z"/>
<path d="M483 943 c9 -2 23 -2 30 0 6 3 -1 5 -18 5 -16 0 -22 -2 -12 -5z"/>
<path d="M978 943 c6 -2 18 -2 25 0 6 3 1 5 -13 5 -14 0 -19 -2 -12 -5z"/>
<path d="M558 923 c7 -3 16 -2 19 1 4 3 -2 6 -13 5 -11 0 -14 -3 -6 -6z"/>
<path d="M768 923 c7 -3 16 -2 19 1 4 3 -2 6 -13 5 -11 0 -14 -3 -6 -6z"/>
<path d="M633 903 c20 -2 54 -2 75 0 20 2 3 4 -38 4 -41 0 -58 -2 -37 -4z"/>
<path d="M171 794 c0 -11 3 -14 6 -6 3 7 2 16 -1 19 -3 4 -6 -2 -5 -13z"/>
<path d="M152 750 c0 -14 2 -19 5 -12 2 6 2 18 0 25 -3 6 -5 1 -5 -13z"/>
<path d="M1001 734 c0 -11 3 -14 6 -6 3 7 2 16 -1 19 -3 4 -6 -2 -5 -13z"/>
<path d="M134 600 c0 -58 1 -81 3 -52 2 28 2 76 0 105 -2 28 -3 5 -3 -53z"/>
<path d="M983 615 c0 -44 2 -61 4 -37 2 23 2 59 0 80 -2 20 -4 1 -4 -43z"/>
<path d="M1001 504 c0 -11 3 -14 6 -6 3 7 2 16 -1 19 -3 4 -6 -2 -5 -13z"/>
<path d="M152 435 c0 -16 2 -22 5 -12 2 9 2 23 0 30 -3 6 -5 -1 -5 -18z"/>
<path d="M172 370 c0 -14 2 -19 5 -12 2 6 2 18 0 25 -3 6 -5 1 -5 -13z"/>
<path d="M1141 304 c0 -11 3 -14 6 -6 3 7 2 16 -1 19 -3 4 -6 -2 -5 -13z"/>
<path d="M638 93 c17 -2 47 -2 65 0 17 2 3 4 -33 4 -36 0 -50 -2 -32 -4z"/>
<path d="M580 70 c23 -7 24 -8 5 -15 -11 -4 -29 -11 -40 -16 -11 -4 -33 -10 -49 -11 -16 -2 -31 -9 -34 -15 -3 -10 43 -13 208 -13 165 0 211 3 208 13 -3 6 -15 13 -29 15 -13 2 -34 7 -46 12 -13 6 -33 14 -45 19 -13 5 -63 11 -113 14 -49 2 -79 1 -65 -3z"/>
<path d="M768 73 c7 -3 16 -2 19 1 4 3 -2 6 -13 5 -11 0 -14 -3 -6 -6z"/>
<path d="M378 53 c7 -3 16 -2 19 1 4 3 -2 6 -13 5 -11 0 -14 -3 -6 -6z"/>
<path d="M518 53 c7 -3 16 -2 19 1 4 3 -2 6 -13 5 -11 0 -14 -3 -6 -6z"/>
<path d="M818 53 c7 -3 16 -2 19 1 4 3 -2 6 -13 5 -11 0 -14 -3 -6 -6z"/>
<path d="M948 53 c7 -3 16 -2 19 1 4 3 -2 6 -13 5 -11 0 -14 -3 -6 -6z"/>
</g>
</g>
  <g id="id9:id9" transform="matrix(1.25,0,0,1.25,0.0,0.0)"><g transform="translate(0.000000,52.000000) scale(0.040000,-0.040000)" fill="#080808" stroke="none">
<path d="M0 650 l0 -650 220 0 c145 0 220 4 220 10 0 12 -41 30 -53 23 -11 -7 -56 36 -53 51 2 6 1 8 -1 4 -10 -18 -24 -6 -18 15 5 17 4 18 -4 7 -5 -8 -12 -12 -14 -10 -37 45 -67 104 -63 123 3 12 3 16 0 10 -11 -24 -26 -13 -21 14 2 16 2 22 0 15 -9 -26 -23 1 -19 36 4 29 4 32 -3 12 -8 -23 -9 -24 -15 -5 -4 11 -12 28 -17 37 -5 10 -9 27 -9 38 0 11 -4 20 -9 20 -20 0 -40 285 -22 303 6 6 11 21 11 34 0 19 30 86 47 103 2 2 8 -2 14 -10 7 -11 8 -7 3 13 -6 27 9 39 20 15 3 -7 3 -2 0 11 -5 19 -3 23 9 18 11 -4 14 -2 10 9 -4 12 0 14 23 9 20 -4 23 -3 10 3 -17 8 -17 9 5 23 15 9 42 14 69 13 40 -2 41 -2 10 4 -58 12 -17 25 77 25 50 0 89 -5 96 -11 6 -7 21 -12 33 -12 13 0 26 -4 29 -10 8 -13 162 -13 170 0 4 6 28 8 58 6 36 -4 41 -3 17 2 -56 11 -20 23 74 24 62 1 93 -3 122 -17 35 -16 37 -19 19 -27 -15 -6 -12 -7 11 -4 25 4 37 -1 63 -28 27 -28 30 -34 16 -40 -9 -3 -22 -3 -27 1 -7 3 -8 1 -4 -6 9 -14 -20 -45 -34 -36 -5 3 -8 0 -5 -7 2 -7 -2 -22 -11 -33 -13 -17 -16 -18 -24 -5 -6 10 -8 3 -4 -21 4 -22 2 -39 -5 -43 -13 -9 -15 -158 -2 -184 5 -9 15 -30 22 -47 8 -16 33 -50 56 -74 23 -25 40 -49 37 -53 -3 -4 2 -5 10 -2 22 8 49 -3 40 -17 -4 -8 -9 -7 -16 2 -7 10 -8 8 -3 -8 5 -18 -6 -47 -43 -107 -3 -5 -9 -1 -14 10 -5 13 -6 8 -2 -13 5 -30 -7 -46 -19 -25 -2 4 -2 1 0 -6 2 -11 -18 -49 -44 -82 -2 -2 -9 2 -14 10 -9 12 -10 12 -5 -3 7 -21 -45 -71 -75 -73 -27 -2 -49 -12 -49 -24 0 -6 69 -10 200 -10 l200 0 0 650 0 650 -650 0 -650 0 0 -650z m873 573 c-3 -27 -15 -64 -26 -83 -26 -48 -96 -112 -114 -106 -8 4 -23 6 -32 6 -14 0 -20 11 -25 46 -6 44 2 65 41 114 2 2 9 -2 14 -10 9 -13 10 -12 6 2 -7 21 13 38 39 34 10 -2 13 -1 7 1 -27 9 -11 21 25 18 20 -1 27 0 14 2 -33 6 -16 23 23 23 l35 0 -7 -47z m-203 -158 c0 -31 3 -35 26 -35 14 0 23 -4 19 -9 -3 -5 -19 -9 -35 -9 -29 1 -30 3 -30 45 0 23 5 43 10 43 6 0 10 -16 10 -35z"/>
<path d="M842 1195 c0 -16 2 -22 5 -12 2 9 2 23 0 30 -3 6 -5 -1 -5 -18z"/>
<path d="M821 1144 c0 -11 3 -14 6 -6 3 7 2 16 -1 19 -3 4 -6 -2 -5 -13z"/>
<path d="M691 1124 c0 -11 3 -14 6 -6 3 7 2 16 -1 19 -3 4 -6 -2 -5 -13z"/>
<path d="M483 943 c9 -2 23 -2 30 0 6 3 -1 5 -18 5 -16 0 -22 -2 -12 -5z"/>
<path d="M978 943 c6 -2 18 -2 25 0 6 3 1 5 -13 5 -14 0 -19 -2 -12 -5z"/>
<path d="M558 923 c7 -3 16 -2 19 1 4 3 -2 6 -13 5 -11 0 -14 -3 -6 -6z"/>
<path d="M768 923 c7 -3 16 -2 19 1 4 3 -2 6 -13 5 -11 0 -14 -3 -6 -6z"/>
<path d="M633 903 c20 -2 54 -2 75 0 20 2 3 4 -38 4 -41 0 -58 -2 -37 -4z"/>
<path d="M171 794 c0 -11 3 -14 6 -6 3 7 2 16 -1 19 -3 4 -6 -2 -5 -13z"/>
<path d="M152 750 c0 -14 2 -19 5 -12 2 6 2 18 0 25 -3 6 -5 1 -5 -13z"/>
<path d="M1001 734 c0 -11 3 -14 6 -6 3 7 2 16 -1 19 -3 4 -6 -2 -5 -13z"/>
<path d="M134 600 c0 -58 1 -81 3 -52 2 28 2 76 0 105 -2 28 -3 5 -3 -53z"/>
<path d="M983 615 c0 -44 2 -61 4 -37 2 23 2 59 0 80 -2 20 -4 1 -4 -43z"/>
<path d="M1001 504 c0 -11 3 -14 6 -6 3 7 2 16 -1 19 -3 4 -6 -2 -5 -13z"/>
<path d="M152 435 c0 -16 2 -22 5 -12 2 9 2 23 0 30 -3 6 -5 -1 -5 -18z"/>
<path d="M172 370 c0 -14 2 -19 5 -12 2 6 2 18 0 25 -3 6 -5 1 -5 -13z"/>
<path d="M1141 304 c0 -11 3 -14 6 -6 3 7 2 16 -1 19 -3 4 -6 -2 -5 -13z"/>
<path d="M638 93 c17 -2 47 -2 65 0 17 2 3 4 -33 4 -36 0 -50 -2 -32 -4z"/>
<path d="M580 70 c23 -7 24 -8 5 -15 -11 -4 -29 -11 -40 -16 -11 -4 -33 -10 -49 -11 -16 -2 -31 -9 -34 -15 -3 -10 43 -13 208 -13 165 0 211 3 208 13 -3 6 -15 13 -29 15 -13 2 -34 7 -46 12 -13 6 -33 14 -45 19 -13 5 -63 11 -113 14 -49 2 -79 1 -65 -3z"/>
<path d="M768 73 c7 -3 16 -2 19 1 4 3 -2 6 -13 5 -11 0 -14 -3 -6 -6z"/>
<path d="M378 53 c7 -3 16 -2 19 1 4 3 -2 6 -13 5 -11 0 -14 -3 -6 -6z"/>
<path d="M518 53 c7 -3 16 -2 19 1 4 3 -2 6 -13 5 -11 0 -14 -3 -6 -6z"/>
<path d="M818 53 c7 -3 16 -2 19 1 4 3 -2 6 -13 5 -11 0 -14 -3 -6 -6z"/>
<path d="M948 53 c7 -3 16 -2 19 1 4 3 -2 6 -13 5 -11 0 -14 -3 -6 -6z"/>
</g>
</g>
  <g id="id10:id10" transform="matrix(1.25,0,0,1.25,0.0,0.0)"><g transform="translate(0.000000,52.000000) scale(0.040000,-0.040000)" fill="#080808" stroke="none">
<path d="M0 650 l0 -650 220 0 c145 0 220 4 220 10 0 12 -41 30 -53 23 -11 -7 -56 36 -53 51 2 6 1 8 -1 4 -10 -18 -24 -6 -18 15 5 17 4 18 -4 7 -5 -8 -12 -12 -14 -10 -37 45 -67 104 -63 123 3 12 3 16 0 10 -11 -24 -26 -13 -21 14 2 16 2 22 0 15 -9 -26 -23 1 -19 36 4 29 4 32 -3 12 -8 -23 -9 -24 -15 -5 -4 11 -12 28 -17 37 -5 10 -9 27 -9 38 0 11 -4 20 -9 20 -20 0 -40 285 -22 303 6 6 11 21 11 34 0 19 30 86 47 103 2 2 8 -2 14 -10 7 -11 8 -7 3 13 -6 27 9 39 20 15 3 -7 3 -2 0 11 -5 19 -3 23 9 18 11 -4 14 -2 10 9 -4 12 0 14 23 9 20 -4 23 -3 10 3 -17 8 -17 9 5 23 15 9 42 14 69 13 40 -2 41 -2 10 4 -58 12 -17 25 77 25 50 0 89 -5 96 -11 6 -7 21 -12 33 -12 13 0 26 -4 29 -10 8 -13 162 -13 170 0 4 6 28 8 58 6 36 -4 41 -3 17 2 -56 11 -20 23 74 24 62 1 93 -3 122 -17 35 -16 37 -19 19 -27 -15 -6 -12 -7 11 -4 25 4 37 -1 63 -28 27 -28 30 -34 16 -40 -9 -3 -22 -3 -27 1 -7 3 -8 1 -4 -6 9 -14 -20 -45 -34 -36 -5 3 -8 0 -5 -7 2 -7 -2 -22 -11 -33 -13 -17 -16 -18 -24 -5 -6 10 -8 3 -4 -21 4 -22 2 -39 -5 -43 -13 -9 -15 -158 -2 -184 5 -9 15 -30 22 -47 8 -16 33 -50 56 -74 23 -25 40 -49 37 -53 -3 -4 2 -5 10 -2 22 8 49 -3 40 -17 -4 -8 -9 -7 -16 2 -7 10 -8 8 -3 -8 5 -18 -6 -47 -43 -107 -3 -5 -9 -1 -14 10 -5 13 -6 8 -2 -13 5 -30 -7 -46 -19 -25 -2 4 -2 1 0 -6 2 -11 -18 -49 -44 -82 -2 -2 -9 2 -14 10 -9 12 -10 12 -5 -3 7 -21 -45 -71 -75 -73 -27 -2 -49 -12 -49 -24 0 -6 69 -10 200 -10 l200 0 0 650 0 650 -650 0 -650 0 0 -650z m873 573 c-3 -27 -15 -64 -26 -83 -26 -48 -96 -112 -114 -106 -8 4 -23 6 -32 6 -14 0 -20 11 -25 46 -6 44 2 65 41 114 2 2 9 -2 14 -10 9 -13 10 -12 6 2 -7 21 13 38 39 34 10 -2 13 -1 7 1 -27 9 -11 21 25 18 20 -1 27 0 14 2 -33 6 -16 23 23 23 l35 0 -7 -47z m-203 -158 c0 -31 3 -35 26 -35 14 0 23 -4 19 -9 -3 -5 -19 -9 -35 -9 -29 1 -30 3 -30 45 0 23 5 43 10 43 6 0 10 -16 10 -35z"/>
<path d="M842 1195 c0 -16 2 -22 5 -12 2 9 2 23 0 30 -3 6 -5 -1 -5 -18z"/>
<path d="M821 1144 c0 -11 3 -14 6 -6 3 7 2 16 -1 19 -3 4 -6 -2 -5 -13z"/>
<path d="M691 1124 c0 -11 3 -14 6 -6 3 7 2 16 -1 19 -3 4 -6 -2 -5 -13z"/>
<path d="M483 943 c9 -2 23 -2 30 0 6 3 -1 5 -18 5 -16 0 -22 -2 -12 -5z"/>
<path d="M978 943 c6 -2 18 -2 25 0 6 3 1 5 -13 5 -14 0 -19 -2 -12 -5z"/>
<path d="M558 923 c7 -3 16 -2 19 1 4 3 -2 6 -13 5 -11 0 -14 -3 -6 -6z"/>
<path d="M768 923 c7 -3 16 -2 19 1 4 3 -2 6 -13 5 -11 0 -14 -3 -6 -6z"/>
<path d="M633 903 c20 -2 54 -2 75 0 20 2 3 4 -38 4 -41 0 -58 -2 -37 -4z"/>
<path d="M171 794 c0 -11 3 -14 6 -6 3 7 2 16 -1 19 -3 4 -6 -2 -5 -13z"/>
<path d="M152 750 c0 -14 2 -19 5 -12 2 6 2 18 0 25 -3 6 -5 1 -5 -13z"/>
<path d="M1001 734 c0 -11 3 -14 6 -6 3 7 2 16 -1 19 -3 4 -6 -2 -5 -13z"/>
<path d="M134 600 c0 -58 1 -81 3 -52 2 28 2 76 0 105 -2 28 -3 5 -3 -53z"/>
<path d="M983 615 c0 -44 2 -61 4 -37 2 23 2 59 0 80 -2 20 -4 1 -4 -43z"/>
<path d="M1001 504 c0 -11 3 -14 6 -6 3 7 2 16 -1 19 -3 4 -6 -2 -5 -13z"/>
<path d="M152 435 c0 -16 2 -22 5 -12 2 9 2 23 0 30 -3 6 -5 -1 -5 -18z"/>
<path d="M172 370 c0 -14 2 -19 5 -12 2 6 2 18 0 25 -3 6 -5 1 -5 -13z"/>
<path d="M1141 304 c0 -11 3 -14 6 -6 3 7 2 16 -1 19 -3 4 -6 -2 -5 -13z"/>
<path d="M638 93 c17 -2 47 -2 65 0 17 2 3 4 -33 4 -36 0 -50 -2 -32 -4z"/>
<path d="M580 70 c23 -7 24 -8 5 -15 -11 -4 -29 -11 -40 -16 -11 -4 -33 -10 -49 -11 -16 -2 -31 -9 -34 -15 -3 -10 43 -13 208 -13 165 0 211 3 208 13 -3 6 -15 13 -29 15 -13 2 -34 7 -46 12 -13 6 -33 14 -45 19 -13 5 -63 11 -113 14 -49 2 -79 1 -65 -3z"/>
<path d="M768 73 c7 -3 16 -2 19 1 4 3 -2 6 -13 5 -11 0 -14 -3 -6 -6z"/>
<path d="M378 53 c7 -3 16 -2 19 1 4 3 -2 6 -13 5 -11 0 -14 -3 -6 -6z"/>
<path d="M518 53 c7 -3 16 -2 19 1 4 3 -2 6 -13 5 -11 0 -14 -3 -6 -6z"/>
<path d="M818 53 c7 -3 16 -2 19 1 4 3 -2 6 -13 5 -11 0 -14 -3 -6 -6z"/>
<path d="M948 53 c7 -3 16 -2 19 1 4 3 -2 6 -13 5 -11 0 -14 -3 -6 -6z"/>
</g>
</g>
  <g id="id11:id11" transform="matrix(1.25,0,0,1.25,0.0,0.0)"><g transform="translate(0.000000,52.000000) scale(0.040000,-0.040000)" fill="#080808" stroke="none">
<path d="M0 650 l0 -650 220 0 c145 0 220 4 220 10 0 12 -41 30 -53 23 -11 -7 -56 36 -53 51 2 6 1 8 -1 4 -10 -18 -24 -6 -18 15 5 17 4 18 -4 7 -5 -8 -12 -12 -14 -10 -37 45 -67 104 -63 123 3 12 3 16 0 10 -11 -24 -26 -13 -21 14 2 16 2 22 0 15 -9 -26 -23 1 -19 36 4 29 4 32 -3 12 -8 -23 -9 -24 -15 -5 -4 11 -12 28 -17 37 -5 10 -9 27 -9 38 0 11 -4 20 -9 20 -20 0 -40 285 -22 303 6 6 11 21 11 34 0 19 30 86 47 103 2 2 8 -2 14 -10 7 -11 8 -7 3 13 -6 27 9 39 20 15 3 -7 3 -2 0 11 -5 19 -3 23 9 18 11 -4 14 -2 10 9 -4 12 0 14 23 9 20 -4 23 -3 10 3 -17 8 -17 9 5 23 15 9 42 14 69 13 40 -2 41 -2 10 4 -58 12 -17 25 77 25 50 0 89 -5 96 -11 6 -7 21 -12 33 -12 13 0 26 -4 29 -10 8 -13 162 -13 170 0 4 6 28 8 58 6 36 -4 41 -3 17 2 -56 11 -20 23 74 24 62 1 93 -3 122 -17 35 -16 37 -19 19 -27 -15 -6 -12 -7 11 -4 25 4 37 -1 63 -28 27 -28 30 -34 16 -40 -9 -3 -22 -3 -27 1 -7 3 -8 1 -4 -6 9 -14 -20 -45 -34 -36 -5 3 -8 0 -5 -7 2 -7 -2 -22 -11 -33 -13 -17 -16 -18 -24 -5 -6 10 -8 3 -4 -21 4 -22 2 -39 -5 -43 -13 -9 -15 -158 -2 -184 5 -9 15 -30 22 -47 8 -16 33 -50 56 -74 23 -25 40 -49 37 -53 -3 -4 2 -5 10 -2 22 8 49 -3 40 -17 -4 -8 -9 -7 -16 2 -7 10 -8 8 -3 -8 5 -18 -6 -47 -43 -107 -3 -5 -9 -1 -14 10 -5 13 -6 8 -2 -13 5 -30 -7 -46 -19 -25 -2 4 -2 1 0 -6 2 -11 -18 -49 -44 -82 -2 -2 -9 2 -14 10 -9 12 -10 12 -5 -3 7 -21 -45 -71 -75 -73 -27 -2 -49 -12 -49 -24 0 -6 69 -10 200 -10 l200 0 0 650 0 650 -650 0 -650 0 0 -650z m873 573 c-3 -27 -15 -64 -26 -83 -26 -48 -96 -112 -114 -106 -8 4 -23 6 -32 6 -14 0 -20 11 -25 46 -6 44 2 65 41 114 2 2 9 -2 14 -10 9 -13 10 -12 6 2 -7 21 13 38 39 34 10 -2 13 -1 7 1 -27 9 -11 21 25 18 20 -1 27 0 14 2 -33 6 -16 23 23 23 l35 0 -7 -47z m-203 -158 c0 -31 3 -35 26 -35 14 0 23 -4 19 -9 -3 -5 -19 -9 -35 -9 -29 1 -30 3 -30 45 0 23 5 43 10 43 6 0 10 -16 10 -35z"/>
<path d="M842 1195 c0 -16 2 -22 5 -12 2 9 2 23 0 30 -3 6 -5 -1 -5 -18z"/>
<path d="M821 1144 c0 -11 3 -14 6 -6 3 7 2 16 -1 19 -3 4 -6 -2 -5 -13z"/>
<path d="M691 1124 c0 -11 3 -14 6 -6 3 7 2 16 -1 19 -3 4 -6 -2 -5 -13z"/>
<path d="M483 943 c9 -2 23 -2 30 0 6 3 -1 5 -18 5 -16 0 -22 -2 -12 -5z"/>
<path d="M978 943 c6 -2 18 -2 25 0 6 3 1 5 -13 5 -14 0 -19 -2 -12 -5z"/>
<path d="M558 923 c7 -3 16 -2 19 1 4 3 -2 6 -13 5 -11 0 -14 -3 -6 -6z"/>
<path d="M768 923 c7 -3 16 -2 19 1 4 3 -2 6 -13 5 -11 0 -14 -3 -6 -6z"/>
<path d="M633 903 c20 -2 54 -2 75 0 20 2 3 4 -38 4 -41 0 -58 -2 -37 -4z"/>
<path d="M171 794 c0 -11 3 -14 6 -6 3 7 2 16 -1 19 -3 4 -6 -2 -5 -13z"/>
<path d="M152 750 c0 -14 2 -19 5 -12 2 6 2 18 0 25 -3 6 -5 1 -5 -13z"/>
<path d="M1001 734 c0 -11 3 -14 6 -6 3 7 2 16 -1 19 -3 4 -6 -2 -5 -13z"/>
<path d="M134 600 c0 -58 1 -81 3 -52 2 28 2 76 0 105 -2 28 -3 5 -3 -53z"/>
<path d="M983 615 c0 -44 2 -61 4 -37 2 23 2 59 0 80 -2 20 -4 1 -4 -43z"/>
<path d="M1001 504 c0 -11 3 -14 6 -6 3 7 2 16 -1 19 -3 4 -6 -2 -5 -13z"/>
<path d="M152 435 c0 -16 2 -22 5 -12 2 9 2 23 0 30 -3 6 -5 -1 -5 -18z"/>
<path d="M172 370 c0 -14 2 -19 5 -12 2 6 2 18 0 25 -3 6 -5 1 -5 -13z"/>
<path d="M1141 304 c0 -11 3 -14 6 -6 3 7 2 16 -1 19 -3 4 -6 -2 -5 -13z"/>
<path d="M638 93 c17 -2 47 -2 65 0 17 2 3 4 -33 4 -36 0 -50 -2 -32 -4z"/>
<path d="M580 70 c23 -7 24 -8 5 -15 -11 -4 -29 -11 -40 -16 -11 -4 -33 -10 -49 -11 -16 -2 -31 -9 -34 -15 -3 -10 43 -13 208 -13 165 0 211 3 208 13 -3 6 -15 13 -29 15 -13 2 -34 7 -46 12 -13 6 -33 14 -45 19 -13 5 -63 11 -113 14 -49 2 -79 1 -65 -3z"/>
<path d="M768 73 c7 -3 16 -2 19 1 4 3 -2 6 -13 5 -11 0 -14 -3 -6 -6z"/>
<path d="M378 53 c7 -3 16 -2 19 1 4 3 -2 6 -13 5 -11 0 -14 -3 -6 -6z"/>
<path d="M518 53 c7 -3 16 -2 19 1 4 3 -2 6 -13 5 -11 0 -14 -3 -6 -6z"/>
<path d="M818 53 c7 -3 16 -2 19 1 4 3 -2 6 -13 5 -11 0 -14 -3 -6 -6z"/>
<path d="M948 53 c7 -3 16 -2 19 1 4 3 -2 6 -13 5 -11 0 -14 -3 -6 -6z"/>
</g>
</g>
  <g id="id12:id12" transform="matrix(1.25,0,0,1.25,0.0,0.0)"><g transform="translate(0.000000,52.000000) scale(0.040000,-0.040000)" fill="#090909" stroke="none">
<path d="M0 650 l0 -650 650 0 650 0 0 650 0 650 -650 0 -650 0 0 -650z"/>
</g>
</g>
  <g id="id13:id13" transform="matrix(1.25,0,0,1.25,0.0,0.0)"><g transform="translate(0.000000,52.000000) scale(0.040000,-0.040000)" fill="#080808" stroke="none">
<path d="M0 650 l0 -650 220 0 c145 0 220 4 220 10 0 12 -41 30 -53 23 -11 -7 -56 36 -53 51 2 6 1 8 -1 4 -10 -18 -24 -6 -18 15 5 17 4 18 -4 7 -5 -8 -12 -12 -14 -10 -37 45 -67 104 -63 123 3 12 3 16 0 10 -11 -24 -26 -13 -21 14 2 16 2 22 0 15 -9 -26 -23 1 -19 36 4 29 4 32 -3 12 -8 -23 -9 -24 -15 -5 -4 11 -12 28 -17 37 -5 10 -9 27 -9 38 0 11 -4 20 -9 20 -20 0 -40 285 -22 303 6 6 11 21 11 34 0 19 30 86 47 103 2 2 8 -2 14 -10 7 -11 8 -7 3 13 -6 27 9 39 20 15 3 -7 3 -2 0 11 -5 19 -3 23 9 18 11 -4 14 -2 10 9 -4 12 0 14 23 9 20 -4 23 -3 10 3 -17 8 -17 9 5 23 15 9 42 14 69 13 40 -2 41 -2 10 4 -58 12 -17 25 77 25 50 0 89 -5 96 -11 6 -7 21 -12 33 -12 13 0 26 -4 29 -10 8 -13 162 -13 170 0 4 6 28 8 58 6 36 -4 41 -3 17 2 -56 11 -20 23 74 24 62 1 93 -3 122 -17 35 -16 37 -19 19 -27 -15 -6 -12 -7 11 -4 25 4 37 -1 63 -28 27 -28 30 -34 16 -40 -9 -3 -22 -3 -27 1 -7 3 -8 1 -4 -6 9 -14 -20 -45 -34 -36 -5 3 -8 0 -5 -7 2 -7 -2 -22 -11 -33 -13 -17 -16 -18 -24 -5 -6 10 -8 3 -4 -21 4 -22 2 -39 -5 -43 -13 -9 -15 -158 -2 -184 5 -9 15 -30 22 -47 8 -16 33 -50 56 -74 23 -25 40 -49 37 -53 -3 -4 2 -5 10 -2 22 8 49 -3 40 -17 -4 -8 -9 -7 -16 2 -7 10 -8 8 -3 -8 5 -18 -6 -47 -43 -107 -3 -5 -9 -1 -14 10 -5 13 -6 8 -2 -13 5 -30 -7 -46 -19 -25 -2 4 -2 1 0 -6 2 -11 -18 -49 -44 -82 -2 -2 -9 2 -14 10 -9 12 -10 12 -5 -3 7 -21 -45 -71 -75 -73 -27 -2 -49 -12 -49 -24 0 -6 69 -10 200 -10 l200 0 0 650 0 650 -650 0 -650 0 0 -650z m873 573 c-3 -27 -15 -64 -26 -83 -26 -48 -96 -112 -114 -106 -8 4 -23 6 -32 6 -14 0 -20 11 -25 46 -6 44 2 65 41 114 2 2 9 -2 14 -10 9 -13 10 -12 6 2 -7 21 13 38 39 34 10 -2 13 -1 7 1 -27 9 -11 21 25 18 20 -1 27 0 14 2 -33 6 -16 23 23 23 l35 0 -7 -47z m-203 -158 c0 -31 3 -35 26 -35 14 0 23 -4 19 -9 -3 -5 -19 -9 -35 -9 -29 1 -30 3 -30 45 0 23 5 43 10 43 6 0 10 -16 10 -35z"/>
<path d="M842 1195 c0 -16 2 -22 5 -12 2 9 2 23 0 30 -3 6 -5 -1 -5 -18z"/>
<path d="M821 1144 c0 -11 3 -14 6 -6 3 7 2 16 -1 19 -3 4 -6 -2 -5 -13z"/>
<path d="M691 1124 c0 -11 3 -14 6 -6 3 7 2 16 -1 19 -3 4 -6 -2 -5 -13z"/>
<path d="M483 943 c9 -2 23 -2 30 0 6 3 -1 5 -18 5 -16 0 -22 -2 -12 -5z"/>
<path d="M978 943 c6 -2 18 -2 25 0 6 3 1 5 -13 5 -14 0 -19 -2 -12 -5z"/>
<path d="M558 923 c7 -3 16 -2 19 1 4 3 -2 6 -13 5 -11 0 -14 -3 -6 -6z"/>
<path d="M768 923 c7 -3 16 -2 19 1 4 3 -2 6 -13 5 -11 0 -14 -3 -6 -6z"/>
<path d="M633 903 c20 -2 54 -2 75 0 20 2 3 4 -38 4 -41 0 -58 -2 -37 -4z"/>
<path d="M171 794 c0 -11 3 -14 6 -6 3 7 2 16 -1 19 -3 4 -6 -2 -5 -13z"/>
<path d="M152 750 c0 -14 2 -19 5 -12 2 6 2 18 0 25 -3 6 -5 1 -5 -13z"/>
<path d="M1001 734 c0 -11 3 -14 6 -6 3 7 2 16 -1 19 -3 4 -6 -2 -5 -13z"/>
<path d="M134 600 c0 -58 1 -81 3 -52 2 28 2 76 0 105 -2 28 -3 5 -3 -53z"/>
<path d="M983 615 c0 -44 2 -61 4 -37 2 23 2 59 0 80 -2 20 -4 1 -4 -43z"/>
<path d="M1001 504 c0 -11 3 -14 6 -6 3 7 2 16 -1 19 -3 4 -6 -2 -5 -13z"/>
<path d="M152 435 c0 -16 2 -22 5 -12 2 9 2 23 0 30 -3 6 -5 -1 -5 -18z"/>
<path d="M172 370 c0 -14 2 -19 5 -12 2 6 2 18 0 25 -3 6 -5 1 -5 -13z"/>
<path d="M1141 304 c0 -11 3 -14 6 -6 3 7 2 16 -1 19 -3 4 -6 -2 -5 -13z"/>
<path d="M638 93 c17 -2 47 -2 65 0 17 2 3 4 -33 4 -36 0 -50 -2 -32 -4z"/>
<path d="M580 70 c23 -7 24 -8 5 -15 -11 -4 -29 -11 -40 -16 -11 -4 -33 -10 -49 -11 -16 -2 -31 -9 -34 -15 -3 -10 43 -13 208 -13 165 0 211 3 208 13 -3 6 -15 13 -29 15 -13 2 -34 7 -46 12 -13 6 -33 14 -45 19 -13 5 -63 11 -113 14 -49 2 -79 1 -65 -3z"/>
<path d="M768 73 c7 -3 16 -2 19 1 4 3 -2 6 -13 5 -11 0 -14 -3 -6 -6z"/>
<path d="M378 53 c7 -3 16 -2 19 1 4 3 -2 6 -13 5 -11 0 -14 -3 -6 -6z"/>
<path d="M518 53 c7 -3 16 -2 19 1 4 3 -2 6 -13 5 -11 0 -14 -3 -6 -6z"/>
<path d="M818 53 c7 -3 16 -2 19 1 4 3 -2 6 -13 5 -11 0 -14 -3 -6 -6z"/>
<path d="M948 53 c7 -3 16 -2 19 1 4 3 -2 6 -13 5 -11 0 -14 -3 -6 -6z"/>
</g>
</g>
  <g id="id14:id14" transform="matrix(1.25,0,0,1.25,0.0,0.0)"><g transform="translate(0.000000,52.000000) scale(0.040000,-0.040000)" fill="#090909" stroke="none">
<path d="M0 650 l0 -650 650 0 650 0 0 650 0 650 -650 0 -650 0 0 -650z"/>
</g>
</g>
  <g id="id15:id15" transform="matrix(1.25,0,0,1.25,0.0,0.0)"><g transform="translate(0.000000,52.000000) scale(0.040000,-0.040000)" fill="#090909" stroke="none">
<path d="M0 650 l0 -650 650 0 650 0 0 650 0 650 -650 0 -650 0 0 -650z"/>
</g>
</g>
</svg>
