<?xml version="1.0" standalone="no"?>
<!DOCTYPE svg PUBLIC "-//W3C//DTD SVG 20010904//EN"
 "http://www.w3.org/TR/2001/REC-SVG-20010904/DTD/svg10.dtd">
<svg version="1.0" xmlns="http://www.w3.org/2000/svg"
 width="57.000000pt" height="60.000000pt" viewBox="0 0 57.000000 60.000000"
 preserveAspectRatio="xMidYMid meet">

<g transform="translate(0.000000,60.000000) scale(0.100000,-0.100000)"
fill="#000000" stroke="none">
<path d="M220 591 c-165 -51 -255 -216 -204 -377 33 -106 156 -204 256 -204
28 0 28 1 28 59 0 59 0 59 -32 66 -85 18 -138 84 -138 173 0 76 56 146 131
161 34 7 34 7 37 69 l3 62 -28 -1 c-15 0 -39 -4 -53 -8z"/>
<path d="M300 295 l0 -65 70 0 70 0 0 -70 0 -71 63 3 62 3 3 133 3 132 -136 0
-135 0 0 -65z"/>
</g>
</svg>
