<svg width="301" height="83" viewBox="0 0 301 83" fill="none" xmlns="http://www.w3.org/2000/svg">
<path d="M127.398 56.2103C123.302 56.2103 119.811 54.7814 116.93 51.9263C114.049 49.0713 112.631 45.5625 112.631 41.364C112.631 37.1656 114.049 33.654 116.93 30.8018C119.811 27.9467 123.299 26.5178 127.398 26.5178C131.497 26.5178 134.985 27.944 137.866 30.8018C140.747 33.6568 142.165 37.1656 142.165 41.364C142.165 45.5625 140.744 49.074 137.866 51.9263C134.985 54.7814 131.497 56.2103 127.398 56.2103ZM127.398 49.8464C129.752 49.8464 131.698 49.0713 133.281 47.4796C134.864 45.888 135.673 43.8494 135.673 41.3613C135.673 38.8731 134.861 36.8346 133.281 35.2429C131.7 33.6513 129.752 32.8762 127.398 32.8762C125.044 32.8762 123.057 33.6513 121.474 35.2429C119.891 36.8346 119.12 38.8731 119.12 41.3613C119.12 43.8494 119.891 45.888 121.474 47.4796C123.057 49.0713 125.044 49.8464 127.398 49.8464Z" fill="#090909"/>
<path d="M174.641 27.0906V55.641H168.149V39.0404L160.806 51.1529H160.076L152.734 39.0404V55.641H146.242V27.0906H152.734L160.441 39.7741L168.149 27.0906H174.641Z" fill="#090909"/>
<path d="M197.572 55.641L196.153 51.1557H185.606L184.185 55.641H177.084L186.739 27.0906H195.015L204.67 55.641H197.569H197.572ZM187.552 45.0374H194.205L190.877 34.5551L187.552 45.0374Z" fill="#090909"/>
<path d="M223.956 27.0906V33.3717H216.654V55.641H210.163V33.3717H202.861V27.0906H223.958H223.956Z" fill="#090909"/>
<path d="M233.792 49.3599H245.151V55.641H227.3V27.0906H244.948V33.3717H233.792V38.1025H243.933V44.3008H233.792V49.3572V49.3599Z" fill="#090909"/>
<path d="M252.352 51.9677C249.553 49.1127 248.173 45.5652 248.173 41.364C248.173 37.1629 249.553 33.6154 252.352 30.8018C255.151 27.9467 258.682 26.5178 262.941 26.5178C268.011 26.5178 272.637 29.0474 275.112 33.1244L269.515 36.3877C268.258 34.1451 265.822 32.8789 262.943 32.8789C260.427 32.8789 258.4 33.654 256.899 35.2043C255.398 36.7546 254.668 38.7931 254.668 41.364C254.668 43.935 255.398 45.9735 256.899 47.5238C258.4 49.074 260.427 49.8492 262.943 49.8492C265.824 49.8492 268.34 48.503 269.515 46.3404L275.112 49.6037C272.678 53.6835 268.093 56.2103 262.941 56.2103C258.679 56.2103 255.151 54.7814 252.352 51.9677Z" fill="#090909"/>
<path d="M294.262 27.0906H300.754V55.641H294.262V44.3036H285.337V55.641H278.845V27.0906H285.337V38.0225H294.262V27.0906Z" fill="#090909"/>
<path d="M19.5963 41.0424C19.81 23.8382 33.7903 9.91013 50.9515 9.91013C60.8925 9.91013 69.7646 14.5832 75.5141 21.8615C77.7232 19.2856 79.9161 16.7358 82.0086 14.2967C74.4581 5.57245 63.3348 0.0461426 50.9515 0.0461426C28.2481 0.0461426 9.77832 18.6148 9.77832 41.4397C9.77832 45.8816 10.4812 50.1639 11.7769 54.1759C14.3488 49.8545 17.0179 45.3703 19.5963 41.0424Z" fill="#090909"/>
<path d="M82.3071 41.8608C82.0836 59.052 68.1033 72.9703 50.9519 72.9703C41.0141 72.9703 32.142 68.2972 26.3925 61.0254C24.1834 63.6013 21.9905 66.1512 19.8979 68.5903C27.4517 77.3112 38.5718 82.8343 50.9519 82.8343C73.6553 82.8343 92.125 64.2656 92.125 41.4407C92.125 37.0021 91.4254 32.7263 90.1329 28.7175C87.5578 33.0422 84.8887 37.5297 82.3103 41.8608H82.3071Z" fill="#FA0959"/>
<path d="M45.9779 38.1892C43.704 40.84 40.7952 44.2332 37.5723 47.9913L44.3713 59.7961C44.7373 60.4377 45.0515 60.9913 45.2783 61.3886C45.3042 61.4342 45.3301 61.4732 45.3592 61.5123L49.9945 69.582C50.3249 69.595 50.6553 69.6048 50.9857 69.6048C54.5034 69.6048 57.8689 68.9469 60.9753 67.7518L64.5416 61.5351L101.167 0L54.9504 53.8074L45.9779 38.1859V38.1892Z" fill="#FA0959"/>
<path d="M55.9429 44.6791C58.2168 42.0283 61.1256 38.635 64.3486 34.877L57.5496 23.0721C57.1835 22.4306 56.8693 21.877 56.6426 21.4797C56.6167 21.4341 56.5908 21.3918 56.5616 21.3559L51.9296 13.2928C51.6154 13.283 51.3012 13.27 50.987 13.27C47.4401 13.27 44.0454 13.9409 40.9196 15.1555L37.376 21.3299L0.753906 82.8683L46.9704 29.0609L55.9429 44.6824V44.6791Z" fill="#090909"/>
</svg>
