<svg width="100" height="20" viewBox="0 0 100 20" fill="none" xmlns="http://www.w3.org/2000/svg">
<path d="M9.62738 0.954579C9.75987 0.615179 10.2401 0.61518 10.3726 0.954579L12.4459 6.26604C12.5028 6.41169 12.6393 6.51086 12.7954 6.51992L18.4876 6.85043C18.8513 6.87155 18.9997 7.32831 18.7179 7.55919L14.307 11.1724C14.1861 11.2714 14.134 11.4319 14.1736 11.5831L15.6182 17.0989C15.7105 17.4513 15.322 17.7336 15.0153 17.5369L10.216 14.4585C10.0844 14.3741 9.91564 14.3741 9.78404 14.4585L4.98469 17.5369C4.67801 17.7336 4.28947 17.4513 4.38178 17.0989L5.82643 11.5831C5.86604 11.4319 5.81391 11.2714 5.69296 11.1724L1.28215 7.55919C1.0003 7.32831 1.14871 6.87155 1.51244 6.85043L7.20463 6.51992C7.36071 6.51086 7.49721 6.41169 7.55406 6.26604L9.62738 0.954579Z" fill="#FFCD1E"/>
<path d="M49.6274 0.954579C49.7599 0.615179 50.2401 0.61518 50.3726 0.954579L52.4459 6.26604C52.5028 6.41169 52.6393 6.51086 52.7954 6.51992L58.4876 6.85043C58.8513 6.87155 58.9997 7.32831 58.7179 7.55919L54.307 11.1724C54.1861 11.2714 54.134 11.4319 54.1736 11.5831L55.6182 17.0989C55.7105 17.4513 55.322 17.7336 55.0153 17.5369L50.216 14.4585C50.0844 14.3741 49.9156 14.3741 49.784 14.4585L44.9847 17.5369C44.678 17.7336 44.2895 17.4513 44.3818 17.0989L45.8264 11.5831C45.866 11.4319 45.8139 11.2714 45.693 11.1724L41.2821 7.55919C41.0003 7.32831 41.1487 6.87155 41.5124 6.85043L47.2046 6.51992C47.3607 6.51086 47.4972 6.41169 47.5541 6.26604L49.6274 0.954579Z" fill="#FFCD1E"/>
<path d="M29.6274 0.954579C29.7599 0.615179 30.2401 0.61518 30.3726 0.954579L32.4459 6.26604C32.5028 6.41169 32.6393 6.51086 32.7954 6.51992L38.4876 6.85043C38.8513 6.87155 38.9997 7.32831 38.7179 7.55919L34.307 11.1724C34.1861 11.2714 34.134 11.4319 34.1736 11.5831L35.6182 17.0989C35.7105 17.4513 35.322 17.7336 35.0153 17.5369L30.216 14.4585C30.0844 14.3741 29.9156 14.3741 29.784 14.4585L24.9847 17.5369C24.678 17.7336 24.2895 17.4513 24.3818 17.0989L25.8264 11.5831C25.866 11.4319 25.8139 11.2714 25.693 11.1724L21.2821 7.55919C21.0003 7.32831 21.1487 6.87155 21.5124 6.85043L27.2046 6.51992C27.3607 6.51086 27.4972 6.41169 27.5541 6.26604L29.6274 0.954579Z" fill="#FFCD1E"/>
<path d="M69.6274 0.954579C69.7599 0.615179 70.2401 0.61518 70.3726 0.954579L72.4459 6.26604C72.5028 6.41169 72.6393 6.51086 72.7954 6.51992L78.4876 6.85043C78.8513 6.87155 78.9997 7.32831 78.7179 7.55919L74.307 11.1724C74.1861 11.2714 74.134 11.4319 74.1736 11.5831L75.6182 17.0989C75.7105 17.4513 75.322 17.7336 75.0153 17.5369L70.216 14.4585C70.0844 14.3741 69.9156 14.3741 69.784 14.4585L64.9847 17.5369C64.678 17.7336 64.2895 17.4513 64.3818 17.0989L65.8264 11.5831C65.866 11.4319 65.8139 11.2714 65.693 11.1724L61.2821 7.55919C61.0003 7.32831 61.1487 6.87155 61.5124 6.85043L67.2046 6.51992C67.3607 6.51086 67.4972 6.41169 67.5541 6.26604L69.6274 0.954579Z" fill="#FFCD1E"/>
<path d="M89.6274 0.954579C89.7599 0.615179 90.2401 0.61518 90.3726 0.954579L92.4459 6.26604C92.5028 6.41169 92.6393 6.51086 92.7954 6.51992L98.4876 6.85043C98.8513 6.87155 98.9997 7.32831 98.7179 7.55919L94.307 11.1724C94.1861 11.2714 94.134 11.4319 94.1736 11.5831L95.6182 17.0989C95.7105 17.4513 95.322 17.7336 95.0153 17.5369L90.216 14.4585C90.0844 14.3741 89.9156 14.3741 89.784 14.4585L84.9847 17.5369C84.678 17.7336 84.2895 17.4513 84.3818 17.0989L85.8264 11.5831C85.866 11.4319 85.8139 11.2714 85.693 11.1724L81.2821 7.55919C81.0003 7.32831 81.1487 6.87155 81.5124 6.85043L87.2046 6.51992C87.3607 6.51086 87.4972 6.41169 87.5541 6.26604L89.6274 0.954579Z" fill="#FFCD1E"/>
</svg>
