<svg width="30" height="30" viewBox="0 0 30 30" fill="none" xmlns="http://www.w3.org/2000/svg">
<g clip-path="url(#clip0_1077_146)">
<path d="M25.2393 7.95606C25.0398 7.58291 24.7426 7.27108 24.3794 7.05398C24.0162 6.83687 23.6008 6.72268 23.1777 6.72364H19.9043V11.1021C19.9043 11.5898 20.3325 11.9843 20.8203 11.9843H27.3955L25.2393 7.95606Z" fill="#090909"/>
<path d="M6.3171 25.4975C7.86324 25.4975 9.11663 24.2441 9.11663 22.698C9.11663 21.1518 7.86324 19.8984 6.3171 19.8984C4.77097 19.8984 3.51758 21.1518 3.51758 22.698C3.51758 24.2441 4.77097 25.4975 6.3171 25.4975Z" fill="#090909"/>
<path d="M22.1435 19.8984C20.5972 19.8984 19.3438 21.1519 19.3438 22.6982C19.3438 24.2445 20.5972 25.4979 22.1435 25.4979C23.6898 25.4979 24.9432 24.2445 24.9432 22.6982V22.698C24.9414 21.1525 23.6889 19.9002 22.1435 19.8984Z" fill="#090909"/>
<path d="M29.4953 14.9665L28.0479 13.122H20.8212C19.7062 13.122 18.7678 12.2173 18.7678 11.1024V5.71735C18.7782 5.26259 18.4179 4.8856 17.9632 4.87522C17.947 4.87484 17.9308 4.87496 17.9147 4.87557H0.90654C0.418792 4.87557 0 5.2296 0 5.71735V21.2818C0 21.7696 0.418792 22.1505 0.90654 22.1505H2.416C2.7091 19.9964 4.69287 18.4878 6.8469 18.7809C8.59962 19.0194 9.97799 20.3977 10.2165 22.1505H18.2438C18.537 19.9964 20.5209 18.4879 22.675 18.7811C24.4276 19.0196 25.8058 20.3979 26.0444 22.1505H29.0935C29.5813 22.1505 30.0001 21.7696 30.0001 21.2818V16.4047C29.9953 15.8827 29.8178 15.377 29.4953 14.9665Z" fill="#090909"/>
</g>
<defs>
<clipPath id="clip0_1077_146">
<rect width="30" height="30" fill="white"/>
</clipPath>
</defs>
</svg>
