<svg width="30" height="30" viewBox="0 0 30 30" fill="none" xmlns="http://www.w3.org/2000/svg">
<path d="M27.6245 12.2816C27.3828 11.9093 27.1805 11.5127 27.0208 11.0985C26.8999 10.6495 26.8251 10.1893 26.7977 9.72507C26.7854 8.7646 26.514 7.82527 26.012 7.00632C25.3837 6.27227 24.5688 5.72161 23.6533 5.41257C23.2243 5.24595 22.8137 5.03546 22.428 4.78444C22.0754 4.49593 21.7537 4.1717 21.468 3.81694C20.8892 3.03307 20.1068 2.42257 19.2058 2.05163C18.2808 1.83124 17.3136 1.86362 16.4055 2.14538C15.9453 2.26513 15.4741 2.33739 14.9992 2.361C14.5243 2.33746 14.0531 2.2652 13.593 2.14538C12.6847 1.86448 11.7177 1.83211 10.7927 2.05163C9.89199 2.42323 9.10983 3.0336 8.53047 3.81694C8.24402 4.16854 7.92235 4.4899 7.57047 4.776C7.18516 5.02689 6.77483 5.23708 6.34609 5.40319C5.43007 5.71167 4.61466 6.2624 3.98641 6.99694C3.48496 7.81612 3.21357 8.75531 3.20078 9.71569C3.17369 10.1803 3.09892 10.6408 2.97766 11.0901C2.81851 11.5072 2.61615 11.9066 2.37391 12.2816C1.80263 13.0807 1.46121 14.021 1.38672 15.0004C1.46037 15.9814 1.80183 16.9234 2.37391 17.7238C2.61563 18.0962 2.81797 18.4927 2.97766 18.9069C3.09901 19.3559 3.17378 19.8161 3.20078 20.2804C3.21301 21.2408 3.48445 22.1802 3.98641 22.9991C4.61471 23.7332 5.42968 24.2838 6.34516 24.5929C6.77414 24.7595 7.18476 24.97 7.57047 25.221C7.92276 25.508 8.24446 25.8307 8.53047 26.1838C9.10936 26.9678 9.89164 27.5786 10.7927 27.9501C11.7176 28.1709 12.6849 28.1385 13.593 27.8563C14.0531 27.7366 14.5243 27.6643 14.9992 27.6407C15.4741 27.6642 15.9453 27.7365 16.4055 27.8563C16.9797 28.0033 17.5681 28.0878 18.1605 28.1085C18.5149 28.112 18.8677 28.0595 19.2058 27.9529C20.1069 27.5802 20.8891 26.9685 21.468 26.1838C21.7541 25.8323 22.0755 25.5109 22.427 25.2248C22.8123 24.9739 23.2227 24.7637 23.6514 24.5976C24.5674 24.2891 25.3828 23.7384 26.0111 23.0038C26.5125 22.1846 26.7839 21.2455 26.7967 20.2851C26.8243 19.8206 26.899 19.3601 27.0198 18.9107C27.1795 18.4965 27.3819 18.0999 27.6236 17.7276C28.1966 16.9262 28.5385 15.9828 28.6117 15.0004C28.5372 14.021 28.1958 13.0807 27.6245 12.2816ZM20.2961 12.9041L13.7336 18.5291C13.5632 18.673 13.3472 18.7514 13.1242 18.7504H13.0455C12.9216 18.74 12.801 18.705 12.6908 18.6475C12.5805 18.5901 12.4828 18.5113 12.4033 18.4157L9.59078 15.0407C9.43165 14.8495 9.355 14.6029 9.37768 14.3552C9.40036 14.1075 9.52051 13.8789 9.71172 13.7198C9.90292 13.5606 10.1495 13.484 10.3972 13.5066C10.645 13.5293 10.8735 13.6495 11.0327 13.8407L13.2358 16.4854L19.0773 11.4791C19.17 11.3936 19.2789 11.3276 19.3976 11.2851C19.5163 11.2426 19.6424 11.2245 19.7682 11.2318C19.8941 11.2392 20.0172 11.2718 20.1302 11.3279C20.2431 11.3839 20.3436 11.4621 20.4256 11.5579C20.5076 11.6537 20.5695 11.765 20.6075 11.8852C20.6455 12.0055 20.6588 12.1321 20.6467 12.2576C20.6346 12.3831 20.5973 12.5049 20.5371 12.6157C20.4769 12.7264 20.3949 12.8239 20.2961 12.9023V12.9041Z" fill="#090909"/>
</svg>
