<svg width="30" height="30" viewBox="0 0 30 30" fill="none" xmlns="http://www.w3.org/2000/svg">
<g clip-path="url(#clip0_1077_173)">
<path d="M29.0625 11.1236V14.1892C29.0628 14.2875 29.0321 14.3834 28.9749 14.4633C28.9177 14.5432 28.8369 14.6031 28.7438 14.6345L26.6297 15.3377C26.4317 16.0355 26.1549 16.7086 25.8047 17.3439L26.8031 19.3361C26.8439 19.4219 26.8577 19.518 26.8426 19.6117C26.8275 19.7055 26.7844 19.7924 26.7188 19.8611L24.5485 22.0314C24.4788 22.1018 24.3887 22.1483 24.291 22.1643C24.1934 22.1803 24.0931 22.1649 24.0047 22.1205L22.0313 21.1174C21.4019 21.4663 20.7352 21.743 20.0438 21.9424L19.3406 24.0564C19.3092 24.1495 19.2493 24.2304 19.1694 24.2876C19.0895 24.3448 18.9936 24.3754 18.8953 24.3752H15.811C15.7127 24.3754 15.6168 24.3448 15.5369 24.2876C15.457 24.2304 15.3971 24.1495 15.3656 24.0564L14.6625 21.9424C14.214 21.8189 13.7753 21.6622 13.35 21.4736L15.7781 19.0455C16.2909 19.1676 16.8167 19.2259 17.3438 19.2189C18.6417 19.2189 19.9105 18.834 20.9897 18.1129C22.0689 17.3918 22.91 16.3669 23.4067 15.1678C23.9034 13.9686 24.0334 12.6491 23.7802 11.3761C23.527 10.1031 22.9019 8.93382 21.9842 8.01603C21.0664 7.09825 19.8971 6.47323 18.6241 6.22002C17.351 5.9668 16.0316 6.09676 14.8324 6.59346C13.6333 7.09016 12.6083 7.93129 11.8873 9.01049C11.1662 10.0897 10.7813 11.3585 10.7813 12.6564C10.7802 13.1858 10.8447 13.7133 10.9735 14.2267L8.54533 16.6502C8.35673 16.2249 8.20005 15.7862 8.07658 15.3377L5.96252 14.6345C5.86942 14.6031 5.78855 14.5432 5.73135 14.4633C5.67415 14.3834 5.64352 14.2875 5.64377 14.1892V11.1236C5.64352 11.0253 5.67415 10.9295 5.73135 10.8496C5.78855 10.7697 5.86942 10.7097 5.96252 10.6783L8.07658 9.97517C8.27523 9.27679 8.55363 8.60361 8.90627 7.96892L7.90783 5.97673C7.86401 5.89325 7.84638 5.79849 7.85725 5.70483C7.86813 5.61117 7.90699 5.52296 7.96877 5.45173L10.1391 3.28142C10.2087 3.21107 10.2988 3.16456 10.3965 3.14856C10.4942 3.13256 10.5944 3.14789 10.6828 3.19236L12.6563 4.21892C13.2852 3.86921 13.952 3.59242 14.6438 3.39392L15.3469 1.27986C15.3751 1.17927 15.436 1.09097 15.5201 1.02898C15.6042 0.966982 15.7065 0.934847 15.811 0.937671H18.8766C18.9749 0.937418 19.0707 0.968055 19.1506 1.02525C19.2305 1.08245 19.2904 1.16332 19.3219 1.25642L20.025 3.37048C20.7242 3.5751 21.3974 3.8598 22.0313 4.21892L24 3.19705C24.088 3.152 24.1879 3.1359 24.2856 3.15105C24.3832 3.16621 24.4736 3.21184 24.5438 3.28142L26.7188 5.45173C26.7891 5.52136 26.8356 5.61146 26.8516 5.70914C26.8676 5.80682 26.8523 5.90705 26.8078 5.99548L25.8047 7.96892C26.1544 8.59788 26.4312 9.2647 26.6297 9.95642L28.7438 10.6595C28.84 10.6919 28.9231 10.7547 28.9806 10.8384C29.0381 10.9221 29.0668 11.0222 29.0625 11.1236ZM16.261 17.2174C16.6156 17.3024 16.9791 17.3449 17.3438 17.3439C18.587 17.3439 19.7793 16.8501 20.6583 15.971C21.5374 15.0919 22.0313 13.8996 22.0313 12.6564C22.033 12.0573 21.9184 11.4634 21.6938 10.908C21.6648 10.8358 21.6183 10.7719 21.5585 10.7222C21.4987 10.6724 21.4275 10.6383 21.3512 10.623C21.2749 10.6076 21.196 10.6115 21.1216 10.6342C21.0472 10.657 20.9797 10.6979 20.925 10.7533L18.5813 13.0736L17.236 12.7408L16.9031 11.3955L19.2469 9.07517C19.3023 9.02053 19.3432 8.95297 19.3659 8.87857C19.3887 8.80417 19.3926 8.72528 19.3772 8.64901C19.3619 8.57273 19.3278 8.50148 19.278 8.44168C19.2283 8.38187 19.1644 8.33539 19.0922 8.30642C18.5369 8.0813 17.943 7.96666 17.3438 7.96892C16.1006 7.96892 14.9083 8.46278 14.0292 9.34186C13.1501 10.2209 12.6563 11.4132 12.6563 12.6564C12.6553 13.0211 12.6978 13.3846 12.7828 13.7392L6.68908 19.833C6.3413 19.7431 5.98417 19.6943 5.62502 19.6877C5.00945 19.6877 4.39991 19.8089 3.83119 20.0445C3.26248 20.2801 2.74573 20.6253 2.31046 21.0606C1.43138 21.9397 0.93752 23.132 0.93752 24.3752C0.935742 24.9743 1.05036 25.5681 1.27502 26.1236C1.30445 26.1951 1.3511 26.2581 1.4108 26.3072C1.4705 26.3563 1.54141 26.3898 1.61721 26.4049C1.69323 26.4207 1.77201 26.4175 1.84646 26.3954C1.92092 26.3733 1.98872 26.3331 2.04377 26.2783L4.38752 23.9345L5.73283 24.2674L6.06565 25.6127L3.74533 27.9564C3.68995 28.0111 3.64903 28.0786 3.62628 28.153C3.60353 28.2274 3.59965 28.3063 3.61499 28.3826C3.63034 28.4589 3.66443 28.5301 3.71419 28.5899C3.76395 28.6497 3.82781 28.6962 3.90002 28.7252C4.44817 28.9469 5.03374 29.0614 5.62502 29.0627C6.86822 29.0627 8.06051 28.5688 8.93958 27.6897C9.81866 26.8107 10.3125 25.6184 10.3125 24.3752C10.3135 24.0105 10.271 23.647 10.186 23.2924L16.261 17.2174Z" fill="#090909"/>
</g>
<defs>
<clipPath id="clip0_1077_173">
<rect width="30" height="30" fill="white"/>
</clipPath>
</defs>
</svg>
