<svg width="900" height="416" viewBox="0 0 900 416" fill="none" xmlns="http://www.w3.org/2000/svg">
<g clip-path="url(#clip0_2531_28632)">
<path d="M130.289 116.196V196.745C130.289 199.388 132.331 200.476 134.866 199.147L340.445 91.166C341.775 90.3752 342.883 89.3109 343.678 88.0592C344.473 86.8074 344.933 85.4032 345.022 83.9598V3.34615C345.022 0.703867 342.962 -0.385074 340.445 0.944075L134.866 108.925C133.523 109.72 132.408 110.793 131.612 112.058C130.816 113.322 130.363 114.74 130.289 116.196Z" fill="#EEF1F5"/>
<path d="M144.605 114.931L206.219 82.5826C209.053 81.0933 211.324 82.2943 211.324 85.2569V141.578C211.227 143.184 210.715 144.747 209.827 146.138C208.94 147.53 207.704 148.711 206.219 149.584L144.605 181.948C141.789 183.422 139.5 182.221 139.5 179.258V122.969C139.595 121.359 140.107 119.791 140.995 118.394C141.882 116.997 143.119 115.81 144.605 114.931Z" fill="#FAFAFA"/>
<path d="M194.495 110.687L176.169 145.245L166.839 140.344C165.943 139.899 164.892 139.787 163.907 140.031C162.922 140.276 162.08 140.859 161.558 141.658L139.5 176.264V179.29C139.5 182.253 141.789 183.454 144.605 181.98L206.219 149.616C207.701 148.74 208.935 147.558 209.822 146.167C210.709 144.776 211.223 143.215 211.324 141.61V121.8L199.001 110.046C198.726 109.696 198.349 109.423 197.913 109.256C197.477 109.089 196.998 109.036 196.531 109.103C196.063 109.169 195.626 109.353 195.266 109.632C194.906 109.912 194.639 110.277 194.495 110.687Z" fill="#FA0959"/>
<path d="M148.76 135.54C152.567 133.282 155.735 130.238 158.007 126.658C160.28 123.077 161.593 119.059 161.839 114.931C161.839 111.456 160.607 108.941 158.583 107.596L144.605 114.931C143.123 115.807 141.889 116.989 141.002 118.38C140.115 119.771 139.601 121.332 139.5 122.937V136.341C141.912 137.622 145.151 137.43 148.76 135.54Z" fill="#FA0959"/>
<path d="M234.312 73.0863L326.891 24.4523C329.004 23.3473 330.711 24.132 330.711 26.2138C330.618 27.3804 330.224 28.5106 329.56 29.5124C328.896 30.5142 327.982 31.3592 326.891 31.9788L234.312 80.5968C232.2 81.7018 230.492 80.9171 230.492 78.8353C230.588 77.6714 230.984 76.5445 231.647 75.5457C232.311 74.5469 233.224 73.7043 234.312 73.0863Z" fill="#FAFAFA"/>
<path d="M234.312 89.7248L326.891 41.0907C329.004 39.9858 330.711 40.7705 330.711 42.8522C330.618 44.0189 330.224 45.149 329.56 46.1508C328.896 47.1526 327.982 47.9976 326.891 48.6172L234.312 97.2352C232.2 98.3402 230.492 97.5555 230.492 95.4897C230.585 94.3231 230.98 93.1929 231.643 92.1912C232.307 91.1894 233.222 90.3443 234.312 89.7248Z" fill="#FAFAFA"/>
<path d="M234.312 106.363L326.891 57.745C329.004 56.64 330.711 57.4247 330.711 59.4905C330.618 60.6571 330.224 61.7873 329.56 62.7891C328.896 63.7908 327.982 64.6359 326.891 65.2555L234.312 113.874C232.2 114.994 230.492 114.21 230.492 112.128C230.585 110.961 230.98 109.831 231.643 108.829C232.307 107.828 233.222 106.983 234.312 106.363Z" fill="#FAFAFA"/>
<path d="M234.312 123.001L326.891 74.3835C329.004 73.2785 330.711 74.0632 330.711 76.145C330.616 77.3088 330.22 78.4358 329.556 79.4346C328.893 80.4334 327.98 81.2759 326.891 81.8939L234.312 130.608C232.2 131.713 230.492 130.928 230.492 128.846C230.572 127.666 230.96 126.52 231.624 125.503C232.288 124.487 233.21 123.629 234.312 123.001Z" fill="#FAFAFA"/>
<path d="M145.781 369.631V251.433C145.866 249.988 146.325 248.583 147.12 247.33C147.915 246.078 149.025 245.014 150.358 244.226L305.836 162.556C308.354 161.227 310.413 162.3 310.413 164.958V283.156C310.324 284.599 309.864 286.004 309.069 287.255C308.274 288.507 307.167 289.571 305.836 290.362L150.358 372.033C147.823 373.362 145.781 372.289 145.781 369.631Z" fill="#EEF1F5"/>
<path d="M145.781 363.721V369.631C145.781 372.289 147.823 373.362 150.358 372.033L305.836 290.362C307.167 289.571 308.274 288.507 309.069 287.255C309.864 286.003 310.324 284.599 310.413 283.156V277.231L145.781 363.721Z" fill="#FA0959"/>
<path d="M220.995 256.525L236.839 255.772C238.775 255.676 239.303 256.669 238.018 258.014L219.816 276.847C218.531 278.176 217.492 277.807 217.492 276.046V259.904C217.499 259.042 217.864 258.215 218.514 257.588C219.164 256.961 220.05 256.582 220.995 256.525Z" fill="#FA0959"/>
<path d="M216.915 287.175C215.017 287.198 213.146 286.761 211.493 285.91C207.585 283.844 205.438 279.505 205.438 273.836C205.438 262.274 214.398 248.214 225.418 242.369C230.858 239.502 235.98 239.07 239.924 241.119C243.867 243.169 245.997 247.525 245.997 253.178C245.997 264.756 237.019 278.8 226.016 284.645C223.278 286.197 220.14 287.07 216.915 287.175ZM234.519 240.943C231.51 241.051 228.585 241.874 226.034 243.329C215.349 248.934 206.67 262.626 206.67 273.836C206.67 279.152 208.606 283.108 212.127 284.949C215.648 286.791 220.366 286.359 225.418 283.7C236.104 278.079 244.782 264.484 244.782 253.178C244.782 247.861 242.846 243.922 239.325 242.064C237.852 241.315 236.189 240.928 234.502 240.943H234.519Z" fill="#FA0959"/>
<path d="M56.9567 141.594L47.3273 136.565C42.7327 133.763 36.3425 133.875 29.2833 137.59C15.2002 144.956 3.89844 163.645 3.89844 179.338V182.909C3.89844 198.603 27.1004 215.642 27.1004 215.642L36.5713 220.526C36.5713 220.526 30.8853 214.617 31.5366 213.4C37.8212 201.806 54.633 169.041 54.633 156.23V152.659C54.6686 150.075 54.3072 147.498 53.5591 145.004L54.633 145.565L56.9567 141.594ZM29.2657 177.577C22.2241 181.26 16.5733 178.265 16.5733 170.915C20.3405 170.37 29.829 155.638 29.2657 150.914C36.3073 147.23 41.9405 150.225 41.9581 157.575C41.7196 161.582 40.446 165.481 38.2407 168.956C36.0354 172.432 32.9606 175.385 29.2657 177.577Z" fill="#FA0959"/>
<g opacity="0.2">
<path d="M56.9567 141.594L47.3273 136.565C42.7327 133.763 36.3425 133.875 29.2833 137.59C15.2002 144.956 3.89844 163.645 3.89844 179.338V182.909C3.89844 198.603 27.1004 215.642 27.1004 215.642L36.5713 220.526C36.5713 220.526 30.8853 214.617 31.5366 213.4C37.8212 201.806 54.633 169.041 54.633 156.23V152.659C54.6686 150.075 54.3072 147.498 53.5591 145.004L54.633 145.565L56.9567 141.594ZM29.2657 177.577C22.2241 181.26 16.5733 178.265 16.5733 170.915C20.3405 170.37 29.829 155.638 29.2657 150.914C36.3073 147.23 41.9405 150.225 41.9581 157.575C41.7196 161.582 40.446 165.481 38.2407 168.956C36.0354 172.432 32.9606 175.385 29.2657 177.577Z" fill="black"/>
</g>
<path d="M56.9634 141.593C56.8582 141.525 56.7462 141.466 56.6289 141.417C52.1047 139.111 46.0666 139.432 39.4123 142.923C29.378 148.207 20.6993 159.273 16.5272 170.915C14.9138 175.344 14.0588 179.973 13.9922 184.639V188.258C13.9922 200.348 29.0435 214.376 35.9619 220.189C36.1116 220.311 36.2704 220.424 36.4372 220.526C36.844 220.752 37.2985 220.899 37.7714 220.956C38.2443 221.013 38.7251 220.98 39.1828 220.857C39.6406 220.735 40.0651 220.527 40.429 220.247C40.793 219.966 41.0883 219.619 41.2959 219.229C47.2812 208.019 64.6915 174.582 64.6915 161.579V158.008C64.7971 149.937 61.7869 144.236 56.9634 141.593ZM26.9487 178.553C26.8025 177.792 26.7318 177.02 26.7374 176.247C26.9699 172.239 28.239 168.337 30.4413 164.859C32.6437 161.381 35.7173 158.424 39.4123 156.23C40.1504 155.843 40.9216 155.511 41.7184 155.237C47.6333 153.284 52.1047 156.374 52.1047 162.892C51.8676 166.897 50.5945 170.794 48.389 174.267C46.1834 177.74 43.1078 180.69 39.4123 182.877C33.1981 186.176 28.0225 184.19 26.9487 178.553Z" fill="#FA0959"/>
<path d="M52.0935 162.908C51.8564 166.913 50.5833 170.81 48.3778 174.283C46.1722 177.756 43.0966 180.706 39.4011 182.893C33.1869 186.096 28.0113 184.19 26.9375 178.553C27.7442 178.295 28.5222 177.968 29.2612 177.577C32.9538 175.384 36.026 172.43 38.2283 168.955C40.4305 165.48 41.7008 161.581 41.9361 157.575C41.9441 156.796 41.8674 156.019 41.7072 155.253C47.6221 153.3 52.0935 156.39 52.0935 162.908Z" fill="#FA0959"/>
<g opacity="0.2">
<path d="M52.0935 162.908C51.8564 166.913 50.5833 170.81 48.3778 174.283C46.1722 177.756 43.0966 180.706 39.4011 182.893C33.1869 186.096 28.0113 184.19 26.9375 178.553C27.7442 178.295 28.5222 177.968 29.2612 177.577C32.9538 175.384 36.026 172.43 38.2283 168.955C40.4305 165.48 41.7008 161.581 41.9361 157.575C41.9441 156.796 41.8674 156.019 41.7072 155.253C47.6221 153.3 52.0935 156.39 52.0935 162.908Z" fill="black"/>
</g>
<path d="M412.393 361.736C412.393 361.736 418.748 324.904 404.63 293.229C390.512 261.554 371.482 259.6 361.623 264.1C351.765 268.6 358.103 286.167 366.905 297.969C378.629 313.455 397.993 346.795 397.359 376.741L412.393 361.736Z" fill="#FA0959"/>
<path opacity="0.2" d="M412.393 361.736C412.393 361.736 418.748 324.904 404.63 293.229C390.512 261.554 371.482 259.6 361.623 264.1C351.765 268.6 358.103 286.167 366.905 297.969C378.629 313.455 397.993 346.795 397.359 376.741L412.393 361.736Z" fill="black"/>
<path d="M406.049 364.075C405.891 364.071 405.735 364.038 405.592 363.978C405.448 363.918 405.319 363.833 405.212 363.727C405.105 363.62 405.023 363.496 404.97 363.36C404.918 363.225 404.895 363.081 404.905 362.938C407.228 312.51 379.537 274.861 367.584 267.527C367.454 267.447 367.342 267.345 367.255 267.225C367.168 267.106 367.107 266.972 367.077 266.832C367.047 266.691 367.047 266.547 367.078 266.406C367.11 266.266 367.171 266.133 367.259 266.014C367.347 265.895 367.459 265.793 367.59 265.714C367.722 265.635 367.869 265.58 368.023 265.552C368.178 265.525 368.336 265.525 368.491 265.554C368.645 265.582 368.792 265.638 368.922 265.718C383.005 274.269 409.623 312.766 407.281 363.034C407.277 363.176 407.241 363.316 407.177 363.446C407.112 363.575 407.02 363.692 406.905 363.789C406.79 363.886 406.655 363.961 406.508 364.01C406.362 364.059 406.205 364.081 406.049 364.075Z" fill="white"/>
<path d="M409.884 405.47C407.472 399.961 401.24 393.812 385.238 387.246C369.236 380.681 357.195 371.921 354.977 365.58C354.309 363.828 354.222 361.936 354.726 360.14C355.23 358.344 356.303 356.722 357.811 355.475C357.811 355.475 342.725 353.874 340.823 345.466C338.447 334.865 351.632 334.176 351.632 334.176C351.632 334.176 334.328 312.013 329.733 302.149C325.138 292.284 330.437 291.692 341.598 295.455C352.759 299.218 374.024 318.163 377.316 323.944C377.316 323.944 383.073 317.538 389.269 321.75C395.466 325.961 395.765 338.564 392.104 343.112C394.573 342.694 397.123 342.935 399.444 343.808C401.765 344.681 403.759 346.146 405.183 348.028C411.486 355.539 413.563 374.323 413.563 374.323L409.884 405.47Z" fill="#FA0959"/>
<path d="M411.021 400.346C410.753 400.343 410.495 400.259 410.285 400.109C410.074 399.958 409.925 399.749 409.859 399.513C401.303 367.085 360.691 315.328 335.465 298.866C335.336 298.783 335.227 298.678 335.144 298.556C335.06 298.435 335.004 298.3 334.978 298.159C334.951 298.017 334.956 297.873 334.991 297.733C335.027 297.593 335.092 297.462 335.183 297.345C335.274 297.228 335.39 297.129 335.524 297.053C335.657 296.977 335.806 296.925 335.961 296.902C336.116 296.878 336.275 296.882 336.429 296.914C336.582 296.946 336.727 297.006 336.856 297.089C362.399 313.759 403.522 366.172 412.2 399.001C412.269 399.283 412.214 399.578 412.046 399.824C411.878 400.069 411.611 400.245 411.303 400.314L411.021 400.346Z" fill="white"/>
<path d="M729.661 73.807C729.452 73.8047 729.246 73.7552 729.063 73.6629L724.116 71.0526C723.979 70.9811 723.86 70.8859 723.764 70.7723C723.668 70.6588 723.598 70.5292 723.557 70.3909C723.516 70.2526 723.505 70.1083 723.526 69.9663C723.546 69.8243 723.597 69.6874 723.676 69.5633C723.754 69.4393 723.859 69.3305 723.984 69.2432C724.109 69.1559 724.251 69.0919 724.403 69.0547C724.555 69.0175 724.714 69.008 724.87 69.0265C725.026 69.0451 725.177 69.0915 725.313 69.163L730.26 71.7732C730.396 71.8446 730.516 71.9398 730.612 72.0533C730.708 72.1668 730.779 72.2965 730.819 72.4348C730.86 72.5732 730.871 72.7175 730.85 72.8595C730.83 73.0015 730.779 73.1385 730.7 73.2625C730.594 73.4283 730.443 73.566 730.261 73.6615C730.078 73.7571 729.872 73.8073 729.661 73.807Z" fill="white"/>
<path d="M409.883 168.753V407.007C409.883 409.665 411.925 410.738 414.442 409.409L719.941 248.966C721.271 248.175 722.379 247.111 723.174 245.86C723.969 244.608 724.429 243.204 724.518 241.76V3.50625C724.518 0.847956 722.458 -0.224971 719.941 1.10418L414.442 161.547C413.113 162.338 412.008 163.402 411.216 164.654C410.423 165.906 409.967 167.31 409.883 168.753Z" fill="#455A64"/>
<path d="M445.633 212.759C445.633 221.07 452.446 224.209 460.878 219.789L703.055 92.5911V62.5492L460.878 189.731C452.446 194.167 445.633 204.464 445.633 212.759Z" fill="#F8F9FB"/>
<path d="M723.649 51.7719C732.064 47.3521 738.894 50.4908 738.894 58.786C738.894 67.0812 732.064 77.3941 723.649 81.8139L703.141 92.5912V62.5492L723.649 51.7719Z" fill="#FA0959"/>
<path d="M716.265 79.0384C715.388 79.0497 714.525 78.845 713.765 78.4459C712.83 77.8765 712.081 77.0878 711.598 76.1633C711.115 75.2388 710.915 74.2127 711.019 73.1934C711.146 70.6869 711.931 68.2446 713.31 66.0713C714.688 63.8979 716.619 62.0569 718.941 60.7026C719.827 60.0448 720.913 59.6482 722.053 59.5654C723.194 59.4827 724.335 59.7177 725.325 60.2392C726.315 60.7607 727.107 61.5441 727.595 62.485C728.084 63.426 728.246 64.4799 728.06 65.5067C727.929 68.0123 727.142 70.4531 725.764 72.6258C724.386 74.7986 722.457 76.6403 720.138 77.9975C718.97 78.6471 717.634 79.0061 716.265 79.0384ZM722.796 61.8236C721.852 61.866 720.936 62.1308 720.138 62.5922C718.194 63.7672 716.575 65.3358 715.408 67.175C714.242 69.0141 713.559 71.0741 713.413 73.1934C713.232 73.8311 713.285 74.5054 713.565 75.1129C713.845 75.7204 714.337 76.2276 714.964 76.5566C715.592 76.8856 716.321 77.0183 717.039 76.9343C717.757 76.8504 718.425 76.5544 718.941 76.0919C720.887 74.9187 722.508 73.3506 723.674 71.511C724.841 69.6714 725.523 67.6106 725.666 65.4907C725.756 64.8557 725.66 64.2103 725.388 63.6198C725.116 63.0293 724.677 62.5146 724.117 62.1278C723.715 61.9187 723.259 61.8135 722.796 61.8236Z" fill="white"/>
<path d="M736.912 117.525L502.78 240.415C501.445 241.201 500.334 242.264 499.538 243.517C498.742 244.77 498.285 246.176 498.203 247.621V313.166C498.203 315.824 500.245 316.897 502.78 315.568L736.912 192.63C738.246 191.842 739.355 190.778 740.151 189.526C740.946 188.273 741.405 186.868 741.489 185.423V119.927C741.401 117.268 739.359 116.196 736.912 117.525Z" fill="#FA0959"/>
<path opacity="0.2" d="M736.912 117.525L502.78 240.415C501.445 241.201 500.334 242.264 499.538 243.517C498.742 244.77 498.285 246.176 498.203 247.621V313.166C498.203 315.824 500.245 316.897 502.78 315.568L736.912 192.63C738.246 191.842 739.355 190.778 740.151 189.526C740.946 188.273 741.405 186.868 741.489 185.423V119.927C741.401 117.268 739.359 116.196 736.912 117.525Z" fill="white"/>
<path d="M587.898 206.642L630.324 184.35C632.436 183.246 634.144 184.03 634.144 186.112C634.048 187.276 633.652 188.403 632.989 189.402C632.325 190.4 631.412 191.243 630.324 191.861L587.898 214.152C585.786 215.257 584.078 214.473 584.078 212.391C584.174 211.227 584.57 210.1 585.233 209.101C585.897 208.102 586.81 207.26 587.898 206.642Z" fill="white"/>
<path d="M584.078 227.412C584.078 229.493 585.839 230.278 587.898 229.173L716.143 161.819C717.229 161.197 718.139 160.351 718.8 159.349C719.461 158.348 719.853 157.219 719.945 156.054C719.945 153.988 718.185 153.204 716.143 154.308L587.898 221.663C586.81 222.281 585.897 223.123 585.233 224.122C584.57 225.121 584.174 226.248 584.078 227.412Z" fill="white"/>
<path d="M584.078 242.433C584.078 244.514 585.839 245.299 587.898 244.194L716.143 176.84C717.229 176.218 718.139 175.372 718.8 174.37C719.461 173.369 719.853 172.24 719.945 171.075C719.945 169.009 718.185 168.225 716.143 169.329L587.898 236.684C586.81 237.302 585.897 238.144 585.233 239.143C584.57 240.142 584.174 241.269 584.078 242.433Z" fill="white"/>
<path d="M584.078 257.454C584.078 259.535 585.839 260.32 587.898 259.215L716.143 191.861C717.229 191.239 718.139 190.393 718.8 189.391C719.461 188.39 719.853 187.261 719.945 186.096C719.945 184.03 718.185 183.246 716.143 184.35L587.898 251.705C586.81 252.323 585.897 253.165 585.233 254.164C584.57 255.163 584.174 256.29 584.078 257.454Z" fill="white"/>
<path d="M510.007 244.162L565.213 215.161C567.748 213.848 569.79 214.921 569.79 217.563V268.055C569.704 269.499 569.244 270.904 568.449 272.156C567.654 273.408 566.545 274.472 565.213 275.261L510.007 304.246C507.489 305.575 505.43 304.502 505.43 301.86V251.368C505.514 249.924 505.973 248.518 506.768 247.266C507.564 246.014 508.673 244.95 510.007 244.162Z" fill="white"/>
<path d="M554.721 240.367L538.296 271.338L529.934 266.95C529.126 266.526 528.167 266.411 527.266 266.63C526.365 266.849 525.596 267.385 525.128 268.119L505.43 299.138V301.844C505.43 304.502 507.489 305.575 510.007 304.246L565.213 275.261C566.546 274.473 567.656 273.41 568.451 272.157C569.246 270.905 569.705 269.499 569.79 268.055V250.328L558.682 239.79C558.43 239.496 558.096 239.269 557.715 239.132C557.333 238.995 556.918 238.954 556.514 239.013C556.109 239.072 555.729 239.229 555.414 239.467C555.098 239.705 554.859 240.016 554.721 240.367Z" fill="#FA0959"/>
<path d="M513.721 262.642C517.134 260.616 519.974 257.887 522.011 254.677C524.048 251.466 525.225 247.864 525.445 244.162C525.563 242.933 525.359 241.696 524.851 240.553C524.343 239.409 523.546 238.39 522.523 237.58L510.007 244.162C508.673 244.95 507.564 246.013 506.768 247.266C505.973 248.518 505.514 249.924 505.43 251.368V263.378C507.56 264.499 510.482 264.339 513.721 262.642Z" fill="#FA0959"/>
<path d="M746.647 215.161L512.515 338.051C511.181 338.839 510.072 339.903 509.276 341.155C508.481 342.407 508.022 343.813 507.938 345.257V410.85C507.938 413.492 509.98 414.565 512.515 413.252L746.647 290.282C747.98 289.494 749.09 288.43 749.885 287.178C750.681 285.926 751.139 284.52 751.224 283.076V217.563C751.136 214.921 749.094 213.88 746.647 215.161Z" fill="#FA0959"/>
<path opacity="0.2" d="M746.647 215.161L512.515 338.051C511.181 338.839 510.072 339.903 509.276 341.155C508.481 342.407 508.022 343.813 507.938 345.257V410.85C507.938 413.492 509.98 414.565 512.515 413.252L746.647 290.282C747.98 289.494 749.09 288.43 749.885 287.178C750.681 285.926 751.139 284.52 751.224 283.076V217.563C751.136 214.921 749.094 213.88 746.647 215.161Z" fill="white"/>
<path d="M597.64 304.278L640.066 282.003C642.178 280.898 643.886 281.683 643.886 283.748C643.793 284.915 643.398 286.045 642.735 287.047C642.071 288.049 641.156 288.894 640.066 289.513L597.64 311.789C595.528 312.894 593.82 312.109 593.82 310.043C593.913 308.877 594.308 307.746 594.972 306.745C595.635 305.743 596.55 304.898 597.64 304.278Z" fill="white"/>
<path d="M593.82 325.064C593.82 327.13 595.581 327.914 597.64 326.809L725.885 259.455C726.969 258.834 727.878 257.991 728.538 256.992C729.199 255.994 729.592 254.868 729.687 253.706C729.687 251.624 727.927 250.84 725.885 251.945L597.64 319.299C596.55 319.918 595.635 320.764 594.972 321.765C594.308 322.767 593.913 323.897 593.82 325.064Z" fill="white"/>
<path d="M593.82 340.085C593.82 342.151 595.581 342.936 597.64 341.831L725.885 274.476C726.969 273.856 727.878 273.012 728.538 272.014C729.199 271.015 729.592 269.89 729.687 268.728C729.687 266.646 727.927 265.861 725.885 266.966L597.64 334.32C596.55 334.94 595.635 335.785 594.972 336.787C594.308 337.788 593.913 338.919 593.82 340.085Z" fill="white"/>
<path d="M593.82 355.106C593.82 357.172 595.581 357.956 597.64 356.851L725.885 289.497C726.969 288.876 727.878 288.033 728.538 287.034C729.199 286.036 729.592 284.91 729.687 283.748C729.687 281.666 727.927 280.882 725.885 281.987L597.64 349.341C596.55 349.961 595.635 350.806 594.972 351.807C594.308 352.809 593.913 353.939 593.82 355.106Z" fill="white"/>
<path d="M519.749 341.814L574.955 312.813C577.49 311.484 579.532 312.557 579.532 315.215V365.691C579.45 367.136 578.993 368.543 578.197 369.795C577.401 371.048 576.29 372.111 574.955 372.897L519.749 401.898C517.232 403.228 515.172 402.155 515.172 399.496V349.021C515.256 347.576 515.715 346.171 516.511 344.918C517.306 343.666 518.416 342.603 519.749 341.814Z" fill="white"/>
<path d="M564.463 338.019L548.038 368.99L539.677 364.586C539.275 364.377 538.833 364.242 538.374 364.188C537.916 364.134 537.45 364.163 537.004 364.274C536.558 364.384 536.139 364.572 535.773 364.83C535.407 365.087 535.101 365.407 534.871 365.771L515.172 396.79V399.497C515.172 402.155 517.232 403.228 519.749 401.899L574.955 372.898C576.288 372.113 577.397 371.053 578.193 369.803C578.988 368.553 579.447 367.15 579.532 365.707V347.964L568.424 337.443C568.175 337.144 567.842 336.912 567.46 336.772C567.077 336.632 566.66 336.589 566.253 336.648C565.846 336.707 565.464 336.866 565.149 337.108C564.833 337.35 564.596 337.665 564.463 338.019Z" fill="#FA0959"/>
<path d="M523.463 360.279C526.876 358.257 529.716 355.531 531.754 352.323C533.791 349.114 534.967 345.514 535.188 341.815C535.305 340.586 535.101 339.349 534.593 338.205C534.085 337.062 533.288 336.043 532.265 335.233L519.749 341.815C518.416 342.603 517.306 343.666 516.511 344.919C515.715 346.171 515.256 347.577 515.172 349.021V361.031C517.302 362.136 520.224 361.976 523.463 360.279Z" fill="#FA0959"/>
<path d="M724.518 13.7071V3.50625C724.518 0.847956 722.458 -0.224971 719.941 1.10418L414.46 161.547C413.127 162.335 412.017 163.398 411.222 164.651C410.426 165.903 409.967 167.309 409.883 168.753V178.97L724.518 13.7071Z" fill="#FA0959"/>
<path d="M687.044 22.2905C686.059 22.8787 685.24 23.6693 684.653 24.5983C684.066 25.5274 683.727 26.569 683.664 27.6391C683.664 29.6088 685.178 30.4095 687.044 29.4166C688.035 28.8365 688.859 28.0504 689.45 27.1232C690.041 26.196 690.381 25.1543 690.442 24.084C690.442 22.1143 688.928 21.3137 687.044 22.2905Z" fill="#F5F5F5"/>
<path d="M700.515 15.3086C699.527 15.895 698.704 16.6848 698.114 17.614C697.524 18.5431 697.182 19.5857 697.117 20.6572C697.117 22.6269 698.649 23.4115 700.515 22.4347C701.506 21.8511 702.33 21.062 702.921 20.1322C703.511 19.2024 703.851 18.1585 703.912 17.0861C703.912 15.0363 702.398 14.2516 700.515 15.3086Z" fill="#F5F5F5"/>
<path d="M713.983 8.16639C712.993 8.7465 712.168 9.5326 711.577 10.4598C710.987 11.387 710.647 12.4287 710.586 13.499C710.586 15.4687 712.1 16.2694 713.983 15.2925C714.968 14.7043 715.787 13.9138 716.374 12.9847C716.961 12.0556 717.3 11.014 717.363 9.94392C717.363 7.97422 715.85 7.17353 713.983 8.16639Z" fill="#F5F5F5"/>
<path d="M898.439 321.166C898.44 324.147 897.454 327.059 895.608 329.522C893.763 331.986 891.144 333.886 888.094 334.975C885.043 336.064 881.703 336.292 878.508 335.628C875.314 334.964 872.413 333.44 870.185 331.254L869.111 330.069C866.605 327.03 865.478 323.231 865.961 319.457C866.444 315.683 868.502 312.222 871.708 309.788C874.915 307.354 879.027 306.132 883.195 306.375C887.363 306.618 891.269 308.306 894.108 311.093L895.217 312.31C897.308 314.871 898.438 317.976 898.439 321.166Z" fill="#455A64"/>
<path d="M898.435 321.166C898.437 324.147 897.45 327.059 895.605 329.522C893.76 331.986 891.141 333.886 888.09 334.975C885.04 336.064 881.7 336.292 878.505 335.628C875.31 334.965 872.409 333.44 870.181 331.254L869.107 330.069L801.227 255.493L829.833 240.472L894.105 311.061L895.214 312.278C897.312 314.848 898.442 317.965 898.435 321.166Z" fill="#455A64"/>
<path d="M842.288 300.588C845.139 303.308 849.018 304.942 853.142 305.159C857.267 305.377 861.328 304.162 864.505 301.76C867.682 299.358 869.738 295.948 870.258 292.22C870.777 288.491 869.721 284.723 867.303 281.676L858.906 272.468C861.416 275.509 862.545 279.311 862.061 283.088C861.577 286.865 859.516 290.329 856.304 292.763C853.093 295.197 848.976 296.416 844.804 296.168C840.633 295.919 836.726 294.223 833.891 291.428L842.288 300.588Z" fill="#FA0959"/>
<path d="M828.745 123.235C833.87 123.754 838.824 125.219 843.303 127.542L822.654 116.621C808.8 107.958 788.855 108.47 766.691 120.096C724.847 142.083 690.906 195.553 690.906 239.527C690.906 261.13 698.986 276.567 712.313 283.902L712.594 284.062L734.634 295.608C730.726 293.294 727.319 290.347 724.583 286.912C730.013 287.453 735.504 287.166 740.831 286.063C742.767 285.679 744.721 285.215 746.711 284.638C746.45 284.567 746.197 284.476 745.954 284.366C744.894 283.915 743.881 283.379 742.926 282.765C741.193 281.666 739.65 280.338 738.349 278.825C736.57 276.753 735.123 274.462 734.054 272.019C732.619 272.208 731.172 272.304 729.723 272.308C726.297 272.37 722.896 271.752 719.759 270.498C719.026 270.192 718.314 269.845 717.629 269.457C717.013 269.105 716.397 268.688 715.869 268.272C714.595 262.851 713.976 257.321 714.02 251.778C714.02 207.82 747.961 154.334 789.84 132.347C795.187 129.509 800.853 127.201 806.74 125.461C808.327 126.05 809.819 126.831 811.176 127.783C812.614 128.786 813.909 129.948 815.032 131.242C816.817 133.319 818.269 135.615 819.345 138.064C820.785 137.88 822.238 137.789 823.693 137.791C827.673 137.694 831.61 138.562 835.1 140.306C835.983 140.743 836.825 141.247 837.617 141.811C837.301 140.53 836.966 139.265 836.561 138.064C834.971 132.729 832.322 127.703 828.745 123.235Z" fill="#263238"/>
<path d="M843.299 127.543L842.102 126.95C837.941 124.967 833.41 123.707 828.741 123.235C823.73 122.727 818.663 122.937 813.725 123.859C811.346 124.269 808.995 124.804 806.683 125.461C800.796 127.201 795.13 129.509 789.783 132.347C747.904 154.334 713.963 207.82 713.963 251.778C713.919 257.321 714.538 262.851 715.812 268.272C716.04 269.249 716.305 270.178 716.569 271.107C718.137 276.775 720.86 282.125 724.596 286.88C726.264 288.973 728.183 290.89 730.317 292.597C731.678 293.686 733.126 294.681 734.648 295.576C748.467 303.695 768.095 302.99 789.748 291.588C831.628 269.601 865.568 216.131 865.568 172.157C865.551 150.17 857.048 134.717 843.299 127.543ZM835.025 140.354C835.909 140.791 836.751 141.295 837.543 141.859C838.87 142.84 840.08 143.945 841.152 145.158C846.433 151.179 849.232 160.547 849.232 172.205C849.232 210.638 818.249 259.513 781.58 278.777C772.338 283.581 763.448 286.208 755.896 286.208C752.745 286.241 749.62 285.697 746.707 284.606C746.446 284.535 746.193 284.444 745.95 284.334C744.89 283.883 743.877 283.347 742.922 282.733C741.734 281.974 740.636 281.105 739.647 280.138C739.207 279.722 738.785 279.258 738.362 278.793C736.583 276.721 735.137 274.43 734.067 271.987C731.385 265.525 730.106 258.651 730.3 251.746C730.3 251.233 730.3 250.737 730.3 250.144C731.074 211.871 761.723 164.102 797.916 145.11C798.744 144.677 799.589 144.245 800.434 143.845C806.27 140.879 812.644 138.888 819.252 137.968C820.693 137.784 822.146 137.693 823.6 137.695C826.733 137.671 829.839 138.215 832.737 139.297C833.531 139.584 834.297 139.932 835.025 140.338V140.354Z" fill="#455A64"/>
<path d="M849.245 172.189C849.245 210.622 818.262 259.497 781.593 278.761C779.368 279.939 777.076 281.008 774.727 281.964C768.862 284.538 762.47 285.967 755.961 286.16C752.811 286.193 749.686 285.649 746.772 284.558C746.512 284.487 746.259 284.396 746.015 284.286C744.956 283.835 743.942 283.299 742.987 282.685C741.254 281.586 739.712 280.258 738.41 278.745C737.952 278.185 737.477 277.64 737.055 277.016C737.882 277.016 738.815 277.128 739.625 277.128C747.177 277.128 756.067 274.55 765.309 269.697C801.925 250.545 832.926 201.735 832.926 163.173C832.926 152.588 830.62 143.957 826.236 137.887C829.33 138.072 832.338 138.888 835.038 140.273C835.921 140.711 836.763 141.215 837.556 141.779C838.883 142.76 840.093 143.865 841.164 145.078C845.812 150.378 848.54 158.257 849.104 168.009C849.192 169.419 849.245 170.796 849.245 172.189Z" fill="#37474F"/>
<path opacity="0.6" d="M842.156 167.753C842.156 206.186 811.173 255.061 774.504 274.325C765.262 279.129 756.389 281.756 748.82 281.756C745.675 281.789 742.555 281.245 739.648 280.154C739.208 279.738 738.786 279.274 738.363 278.809C736.584 276.737 735.137 274.446 734.068 272.003C731.386 265.541 730.107 258.667 730.3 251.762C730.3 251.249 730.3 250.753 730.3 250.16C731.075 211.887 761.723 164.118 797.917 145.126C798.744 144.693 799.589 144.261 800.434 143.861C806.271 140.895 812.645 138.904 819.253 137.983C820.694 137.8 822.147 137.709 823.601 137.711C826.733 137.687 829.84 138.231 832.738 139.313C833.213 139.745 833.653 140.209 834.076 140.674C839.357 146.727 842.156 156.095 842.156 167.753Z" fill="white"/>
</g>
<defs>
<clipPath id="clip0_2531_28632">
<rect width="900" height="415.038" fill="white"/>
</clipPath>
</defs>
</svg>
