<svg width="11" height="21" viewBox="0 0 11 21" fill="none" xmlns="http://www.w3.org/2000/svg">
<g clip-path="url(#clip0_1300_17786)">
<path d="M10.6907 0.766321C10.8612 0.936898 10.957 1.16822 10.957 1.40941C10.957 1.65061 10.8612 1.88193 10.6907 2.05251L2.23772 10.5055L10.6907 18.9585C10.8564 19.13 10.9481 19.3598 10.946 19.5983C10.9439 19.8368 10.8483 20.0649 10.6796 20.2336C10.511 20.4022 10.2828 20.4979 10.0443 20.5C9.80585 20.502 9.57608 20.4104 9.40452 20.2447L0.308441 11.1486C0.137916 10.978 0.0421208 10.7467 0.0421209 10.5055C0.0421209 10.2643 0.137916 10.033 0.308441 9.8624L9.40453 0.766321C9.5751 0.595796 9.80642 0.5 10.0476 0.5C10.2888 0.5 10.5201 0.595796 10.6907 0.766321Z" fill="black"/>
</g>
<defs>
<clipPath id="clip0_1300_17786">
<rect width="11" height="20" fill="white" transform="matrix(1 -8.74228e-08 -8.74228e-08 -1 0 20.5)"/>
</clipPath>
</defs>
</svg>
