<svg width="12" height="21" viewBox="0 0 12 21" fill="none" xmlns="http://www.w3.org/2000/svg">
<g clip-path="url(#clip0_796_17599)">
<path d="M1.05538 0.766321C0.884857 0.936898 0.789061 1.16822 0.789061 1.40941C0.789061 1.65061 0.884857 1.88193 1.05538 2.05251L9.50837 10.5055L1.05538 18.9585C0.889691 19.13 0.798007 19.3598 0.80008 19.5983C0.802152 19.8368 0.897815 20.0649 1.06646 20.2336C1.23511 20.4022 1.46325 20.4979 1.70175 20.5C1.94025 20.502 2.17002 20.4104 2.34157 20.2447L11.4377 11.1486C11.6082 10.978 11.704 10.7467 11.704 10.5055C11.704 10.2643 11.6082 10.033 11.4377 9.8624L2.34157 0.766321C2.17099 0.595796 1.93967 0.5 1.69847 0.5C1.45728 0.5 1.22596 0.595796 1.05538 0.766321Z" fill="black"/>
</g>
<defs>
<clipPath id="clip0_796_17599">
<rect width="11" height="20" fill="white" transform="matrix(1 -8.74228e-08 -8.74228e-08 -1 0.746094 20.5)"/>
</clipPath>
</defs>
</svg>
