<svg width="17" height="21" viewBox="0 0 17 21" fill="none" xmlns="http://www.w3.org/2000/svg">
<g clip-path="url(#clip0_796_17824)">
<path fill-rule="evenodd" clip-rule="evenodd" d="M8.49479 0.5C8.71581 0.5 8.92777 0.587798 9.08405 0.744078C9.24033 0.900358 9.32812 1.11232 9.32812 1.33333L9.32812 19.6667C9.32812 19.8877 9.24033 20.0996 9.08405 20.2559C8.92777 20.4122 8.7158 20.5 8.49479 20.5C8.27378 20.5 8.06181 20.4122 7.90553 20.2559C7.74925 20.0996 7.66146 19.8877 7.66146 19.6667L7.66146 1.33333C7.66146 1.11232 7.74925 0.900358 7.90554 0.744078C8.06182 0.587797 8.27378 0.5 8.49479 0.5Z" fill="black"/>
<path fill-rule="evenodd" clip-rule="evenodd" d="M16.5841 11.5774C16.7404 11.7336 16.8281 11.9456 16.8281 12.1665C16.8281 12.3875 16.7404 12.5994 16.5841 12.7557L9.08414 20.2557C8.92786 20.4119 8.71594 20.4997 8.49497 20.4997C8.274 20.4997 8.06208 20.4119 7.9058 20.2557L0.405807 12.7557C0.254009 12.5985 0.170013 12.388 0.171911 12.1695C0.17381 11.951 0.261452 11.742 0.415958 11.5875C0.570465 11.433 0.779476 11.3454 0.997973 11.3435C1.21647 11.3416 1.42697 11.4256 1.58414 11.5774L8.49497 18.4882L15.4058 11.5774C15.5621 11.4211 15.774 11.3334 15.995 11.3334C16.2159 11.3334 16.4279 11.4211 16.5841 11.5774Z" fill="black"/>
</g>
<defs>
<clipPath id="clip0_796_17824">
<rect width="20" height="17" fill="white" transform="translate(17 0.5) rotate(90)"/>
</clipPath>
</defs>
</svg>
