<svg width="10" height="21" viewBox="0 0 10 21" fill="none" xmlns="http://www.w3.org/2000/svg">
<g clip-path="url(#clip0_796_17568)">
<path d="M4.44699 0.729139L4.44625 0.729841L0.383747 4.81203C0.0794108 5.11785 0.0805434 5.6125 0.386403 5.91691C0.692223 6.22129 1.18687 6.22012 1.49125 5.9143L4.21875 3.17351L4.21875 19.7187C4.21875 20.1502 4.56851 20.5 5 20.5C5.43148 20.5 5.78125 20.1502 5.78125 19.7187L5.78125 3.17355L8.50875 5.91426C8.81312 6.22008 9.30777 6.22125 9.61359 5.91687C9.91949 5.61246 9.92054 5.11777 9.61625 4.81199L5.55375 0.729803L5.553 0.729099C5.24761 0.423122 4.75136 0.4241 4.44699 0.729139Z" fill="black"/>
</g>
<defs>
<clipPath id="clip0_796_17568">
<rect width="20" height="10" fill="white" transform="translate(0 20.5) rotate(-90)"/>
</clipPath>
</defs>
</svg>
