<svg width="78" height="21" viewBox="0 0 78 21" fill="none" xmlns="http://www.w3.org/2000/svg">
<g clip-path="url(#clip0_796_17853)">
<path d="M69.0635 19.9621L77.0024 12.1187C77.4372 11.688 77.6815 11.1045 77.6815 10.4962C77.6815 9.88792 77.4372 9.30445 77.0024 8.87379L69.0636 1.03051C68.7072 0.68743 68.2283 0.496855 67.7307 0.500039C67.2331 0.503223 66.7568 0.699909 66.4048 1.04752C66.0529 1.39512 65.8538 1.86568 65.8505 2.3573C65.8472 2.84892 66.04 3.32204 66.3872 3.67424L71.3996 8.62628H2.21073C1.70884 8.62628 1.22751 8.82325 0.872623 9.17387C0.517734 9.52448 0.318359 10 0.318359 10.4959C0.318359 10.9917 0.517734 11.4672 0.872623 11.8178C1.22751 12.1685 1.70884 12.3654 2.21073 12.3654H71.3993L66.3872 17.3184C66.0368 17.6699 65.8412 18.144 65.8431 18.6374C65.845 19.1308 66.0442 19.6034 66.3974 19.9523C66.7505 20.3012 67.2289 20.4981 67.7283 20.5C68.2277 20.5019 68.7076 20.3087 69.0635 19.9625V19.9621Z" fill="black"/>
</g>
<defs>
<clipPath id="clip0_796_17853">
<rect width="78" height="20" fill="white" transform="translate(0 0.5)"/>
</clipPath>
</defs>
</svg>
