<svg width="20" height="21" viewBox="0 0 20 21" fill="none" xmlns="http://www.w3.org/2000/svg">
<path fill-rule="evenodd" clip-rule="evenodd" d="M0 10.4509C0 10.2299 0.0877975 10.0179 0.244078 9.86163C0.400358 9.70535 0.61232 9.61755 0.833333 9.61755H19.1667C19.3877 9.61755 19.5996 9.70535 19.7559 9.86163C19.9122 10.0179 20 10.2299 20 10.4509C20 10.6719 19.9122 10.8839 19.7559 11.0401C19.5996 11.1964 19.3877 11.2842 19.1667 11.2842H0.833333C0.61232 11.2842 0.400358 11.1964 0.244078 11.0401C0.0877975 10.8839 0 10.6719 0 10.4509Z" fill="black"/>
<path fill-rule="evenodd" clip-rule="evenodd" d="M11.078 2.36166C11.2342 2.20544 11.4462 2.11768 11.6671 2.11768C11.8881 2.11768 12.1 2.20544 12.2563 2.36166L19.7563 9.86166C19.9125 10.0179 20.0003 10.2299 20.0003 10.4508C20.0003 10.6718 19.9125 10.8837 19.7563 11.04L12.2563 18.54C12.0991 18.6918 11.8886 18.7758 11.6701 18.7739C11.4516 18.772 11.2426 18.6844 11.0881 18.5298C10.9336 18.3753 10.846 18.1663 10.8441 17.9478C10.8422 17.7293 10.9262 17.5188 11.078 17.3617L17.9888 10.4508L11.078 3.54C10.9217 3.38372 10.834 3.1718 10.834 2.95083C10.834 2.72986 10.9217 2.51794 11.078 2.36166Z" fill="black"/>
</svg>
