<svg width="21" height="21" viewBox="0 0 21 21" fill="none" xmlns="http://www.w3.org/2000/svg">
<g clip-path="url(#clip0_1300_17768)">
<path d="M17.3433 2.83485L17.3423 2.83482L11.2951 2.84944C10.8421 2.85054 10.4757 3.21864 10.4768 3.67174C10.4779 4.12479 10.846 4.49118 11.299 4.4901L15.359 4.48024L3.07481 16.7644C2.75445 17.0848 2.75445 17.6042 3.07481 17.9245C3.39517 18.2449 3.91455 18.2449 4.23491 17.9245L16.5191 5.64037L16.5093 9.7003C16.5082 10.1533 16.8746 10.5215 17.3276 10.5225C17.7808 10.5236 18.1488 10.1571 18.1499 9.70419L18.1646 3.65707L18.1645 3.65599C18.165 3.20208 17.7958 2.83436 17.3433 2.83485Z" fill="black"/>
</g>
<defs>
<clipPath id="clip0_1300_17768">
<rect width="21" height="21" fill="white"/>
</clipPath>
</defs>
</svg>
