<svg width="21" height="21" viewBox="0 0 21 21" fill="none" xmlns="http://www.w3.org/2000/svg">
<path d="M19.0781 11.3334C18.8571 11.3334 18.6451 11.4212 18.4889 11.5775C18.3326 11.7337 18.2448 11.9457 18.2448 12.1667V15.6775C18.2441 16.2933 17.9992 16.8837 17.5638 17.3191C17.1284 17.7545 16.5381 17.9994 15.9223 18H5.56729C4.95153 17.9994 4.36118 17.7545 3.92577 17.3191C3.49036 16.8837 3.24545 16.2933 3.24479 15.6775V12.1667C3.24479 11.9457 3.15699 11.7337 3.00071 11.5775C2.84443 11.4212 2.63247 11.3334 2.41146 11.3334C2.19044 11.3334 1.97848 11.4212 1.8222 11.5775C1.66592 11.7337 1.57813 11.9457 1.57812 12.1667V15.6775C1.57923 16.7352 1.99987 17.7492 2.74774 18.4971C3.49562 19.245 4.50964 19.6656 5.56729 19.6667H15.9223C16.9799 19.6656 17.994 19.245 18.7418 18.4971C19.4897 17.7492 19.9104 16.7352 19.9115 15.6775V12.1667C19.9115 11.9457 19.8237 11.7337 19.6674 11.5775C19.5111 11.4212 19.2991 11.3334 19.0781 11.3334Z" fill="black"/>
<path d="M6.33413 7.75582L9.91163 4.17832V14.6667C9.91163 14.8877 9.99943 15.0996 10.1557 15.2559C10.312 15.4122 10.524 15.5 10.745 15.5C10.966 15.5 11.1779 15.4122 11.3342 15.2559C11.4905 15.0996 11.5783 14.8877 11.5783 14.6667V4.17832L15.1558 7.75582C15.313 7.90762 15.5235 7.99161 15.742 7.98971C15.9605 7.98781 16.1695 7.90017 16.324 7.74567C16.4785 7.59116 16.5661 7.38215 16.568 7.16365C16.5699 6.94516 16.4859 6.73465 16.3341 6.57748L11.3341 1.57748C11.1779 1.42126 10.9659 1.3335 10.745 1.3335C10.524 1.3335 10.3121 1.42126 10.1558 1.57748L5.1558 6.57748C5.004 6.73465 4.92001 6.94516 4.92191 7.16365C4.92381 7.38215 5.01145 7.59116 5.16595 7.74567C5.32046 7.90017 5.52947 7.98781 5.74797 7.98971C5.96646 7.99161 6.17697 7.90762 6.33413 7.75582Z" fill="black"/>
</svg>
