<svg width="20" height="21" viewBox="0 0 20 21" fill="none" xmlns="http://www.w3.org/2000/svg">
<g clip-path="url(#clip0_796_17449)">
<path d="M0.266171 10.1958L6.62987 3.8321C6.80133 3.6665 7.03097 3.57487 7.26933 3.57694C7.50769 3.57901 7.73571 3.67462 7.90426 3.84317C8.07282 4.01173 8.16843 4.23974 8.1705 4.4781C8.17257 4.71647 8.08094 4.94611 7.91534 5.11757L3.10347 9.92943H19.0909C19.332 9.92943 19.5632 10.0252 19.7337 10.1957C19.9042 10.3662 20 10.5974 20 10.8385C20 11.0796 19.9042 11.3109 19.7337 11.4814C19.5632 11.6519 19.332 11.7476 19.0909 11.7476H3.10347L7.91534 16.5595C8.00216 16.6434 8.07142 16.7437 8.11907 16.8546C8.16671 16.9655 8.19179 17.0848 8.19284 17.2055C8.19389 17.3262 8.17089 17.4459 8.12518 17.5576C8.07947 17.6694 8.01196 17.7709 7.92661 17.8562C7.84125 17.9416 7.73974 18.0091 7.62802 18.0548C7.51629 18.1005 7.39658 18.1235 7.27588 18.1225C7.15517 18.1214 7.03587 18.0963 6.92496 18.0487C6.81405 18.001 6.71373 17.9318 6.62987 17.845L0.266171 11.4813C0.0957406 11.3108 0 11.0796 0 10.8385C0 10.5975 0.0957406 10.3663 0.266171 10.1958Z" fill="black"/>
</g>
<defs>
<clipPath id="clip0_796_17449">
<rect width="20" height="20" fill="white" transform="matrix(-1 0 0 1 20 0.5)"/>
</clipPath>
</defs>
</svg>
