<svg width="20" height="21" viewBox="0 0 20 21" fill="none" xmlns="http://www.w3.org/2000/svg">
<g clip-path="url(#clip0_796_17446)">
<path d="M19.7338 10.1958L13.3701 3.8321C13.1987 3.6665 12.969 3.57487 12.7307 3.57694C12.4923 3.57901 12.2643 3.67462 12.0957 3.84317C11.9272 4.01173 11.8316 4.23974 11.8295 4.4781C11.8274 4.71647 11.9191 4.94611 12.0847 5.11757L16.8965 9.92943H0.9091C0.667992 9.92943 0.436758 10.0252 0.266269 10.1957C0.0957799 10.3662 0 10.5974 0 10.8385C0 11.0796 0.0957799 11.3109 0.266269 11.4814C0.436758 11.6519 0.667992 11.7476 0.9091 11.7476H16.8965L12.0847 16.5595C11.9978 16.6434 11.9286 16.7437 11.8809 16.8546C11.8333 16.9655 11.8082 17.0848 11.8072 17.2055C11.8061 17.3262 11.8291 17.4459 11.8748 17.5576C11.9205 17.6694 11.988 17.7709 12.0734 17.8562C12.1588 17.9416 12.2603 18.0091 12.372 18.0548C12.4837 18.1005 12.6034 18.1235 12.7241 18.1225C12.8448 18.1214 12.9641 18.0963 13.075 18.0487C13.186 18.001 13.2863 17.9318 13.3701 17.845L19.7338 11.4813C19.9043 11.3108 20 11.0796 20 10.8385C20 10.5975 19.9043 10.3663 19.7338 10.1958Z" fill="black"/>
</g>
<defs>
<clipPath id="clip0_796_17446">
<rect width="20" height="20" fill="white" transform="translate(0 0.5)"/>
</clipPath>
</defs>
</svg>
