<svg width="20" height="21" viewBox="0 0 20 21" fill="none" xmlns="http://www.w3.org/2000/svg">
<g clip-path="url(#clip0_796_17905)">
<path fill-rule="evenodd" clip-rule="evenodd" d="M20 10.4407C20 10.6617 19.9122 10.8737 19.7559 11.03C19.5996 11.1863 19.3877 11.274 19.1667 11.274L0.833334 11.274C0.61232 11.274 0.400358 11.1862 0.244078 11.03C0.0877974 10.8737 5.35307e-08 10.6617 7.28523e-08 10.4407C9.21739e-08 10.2197 0.0877975 10.0077 0.244078 9.85146C0.400358 9.69518 0.61232 9.60738 0.833334 9.60738L19.1667 9.60738C19.3877 9.60738 19.5996 9.69518 19.7559 9.85146C19.9122 10.0077 20 10.2197 20 10.4407Z" fill="black"/>
<path fill-rule="evenodd" clip-rule="evenodd" d="M8.92203 18.5299C8.76575 18.6862 8.55383 18.7739 8.33286 18.7739C8.11189 18.7739 7.89997 18.6862 7.74369 18.5299L0.243694 11.0299C0.0874682 10.8737 -0.000293976 10.6617 -0.000293957 10.4408C-0.000293938 10.2198 0.0874682 10.0079 0.243694 9.8516L7.74369 2.3516C7.90086 2.19981 8.11137 2.11581 8.32986 2.11771C8.54836 2.11961 8.75737 2.20725 8.91188 2.36176C9.06638 2.51626 9.15403 2.72527 9.15592 2.94377C9.15782 3.16227 9.07383 3.37277 8.92203 3.52994L2.01119 10.4408L8.92203 17.3516C9.07825 17.5079 9.16602 17.7198 9.16602 17.9408C9.16602 18.1617 9.07825 18.3737 8.92203 18.5299Z" fill="black"/>
</g>
<defs>
<clipPath id="clip0_796_17905">
<rect width="20" height="20" fill="white" transform="translate(0 0.5)"/>
</clipPath>
</defs>
</svg>
