<svg width="21" height="21" viewBox="0 0 21 21" fill="none" xmlns="http://www.w3.org/2000/svg">
<g clip-path="url(#clip0_796_17610)">
<path d="M19.7428 9.50353C19.1916 9.50353 18.7428 9.95237 18.7428 10.5036C18.7428 14.9132 15.156 18.4999 10.7464 18.4999C6.33682 18.4999 2.75007 14.9132 2.75007 10.5036C2.75007 6.09395 6.33682 2.50721 10.7464 2.50721C12.5063 2.50721 14.1757 3.07809 15.5537 4.12144L13.8528 5.82229C13.6009 6.07427 13.778 6.50342 14.1363 6.50342H19.3412C19.5617 6.50342 19.7428 6.32625 19.7428 6.10183V0.900849C19.7428 0.546505 19.3137 0.365396 19.0617 0.617374L16.9829 2.69619C15.2151 1.28275 13.0418 0.507133 10.7464 0.507133C5.23442 0.507133 0.75 4.99155 0.75 10.5036C0.75 16.0156 5.23442 20.5 10.7464 20.5C16.2584 20.5 20.7429 16.0156 20.7429 10.5036C20.7429 9.95237 20.294 9.50353 19.7428 9.50353Z" fill="black"/>
</g>
<defs>
<clipPath id="clip0_796_17610">
<rect width="20" height="20" fill="white" transform="translate(0.746094 0.5)"/>
</clipPath>
</defs>
</svg>
