<svg width="21" height="21" viewBox="0 0 21 21" fill="none" xmlns="http://www.w3.org/2000/svg">
<g clip-path="url(#clip0_796_17443)">
<path fill-rule="evenodd" clip-rule="evenodd" d="M20.1757 17.8414L18.7756 7.78582C18.6968 7.21863 18.4106 6.70211 17.9699 6.32982C17.5293 5.95754 16.9612 5.75094 16.3713 5.75094H14.8306V4.9791C14.8306 2.50957 12.7533 0.5 10.1992 0.5C7.64534 0.5 5.56769 2.50957 5.56769 4.9791V5.75094H4.02716C3.43705 5.75094 2.86934 5.95754 2.42858 6.32982C1.98782 6.70211 1.70165 7.21863 1.62283 7.78582L0.22273 17.8414C0.126581 18.5314 0.326516 19.1746 0.800739 19.6989C1.27496 20.2232 1.9066 20.5 2.62705 20.5H17.7714C18.4921 20.5 19.1233 20.2232 19.5977 19.6989C20.0719 19.1746 20.2718 18.5314 20.1757 17.8414ZM6.94059 9.37633C6.94059 9.74277 6.63326 10.039 6.25416 10.039C5.87505 10.039 5.56773 9.74277 5.56773 9.37633V7.08025H6.94059V9.37633ZM6.94059 4.9791C6.94059 3.2424 8.40256 1.82736 10.1993 1.82736C11.996 1.82736 13.4577 3.2424 13.4577 4.9791V5.75094H6.94059V4.9791ZM14.8306 9.37633C14.8306 9.74277 14.5234 10.039 14.1441 10.039C13.7652 10.039 13.4577 9.74277 13.4577 9.37633V7.08025H14.8306V9.37633Z" fill="black"/>
</g>
<defs>
<clipPath id="clip0_796_17443">
<rect width="20" height="20" fill="white" transform="translate(0.199219 0.5)"/>
</clipPath>
</defs>
</svg>
