<svg width="21" height="21" viewBox="0 0 21 21" fill="none" xmlns="http://www.w3.org/2000/svg">
<g clip-path="url(#clip0_796_17452)">
<path fill-rule="evenodd" clip-rule="evenodd" d="M20.1806 17.5057L18.2691 2.92549C18.2 2.39921 17.9419 1.916 17.5429 1.56594C17.144 1.21587 16.6313 1.02284 16.1005 1.02283H4.29795C3.76719 1.02285 3.25454 1.21589 2.85559 1.56596C2.45663 1.91603 2.19859 2.39923 2.12958 2.92549L0.217818 17.5057C0.177311 17.8143 0.203145 18.128 0.293593 18.4258C0.384042 18.7236 0.537021 18.9987 0.742305 19.2327C0.947589 19.4666 1.20045 19.654 1.48398 19.7824C1.76751 19.9108 2.07518 19.9772 2.38643 19.9771H18.0122C18.3235 19.9772 18.6311 19.9108 18.9146 19.7824C19.1981 19.654 19.451 19.4665 19.6562 19.2326C19.8615 18.9986 20.0144 18.7236 20.1049 18.4258C20.1953 18.128 20.2211 17.8143 20.1806 17.5057ZM5.8227 4.66882C5.8227 7.08284 7.78251 9.04289 10.1968 9.04289C12.6108 9.04289 14.5708 7.08284 14.5708 4.66882C14.566 4.47867 14.4871 4.29792 14.3509 4.16513C14.2147 4.03234 14.032 3.95802 13.8418 3.95802C13.6516 3.95802 13.4689 4.03234 13.3327 4.16513C13.1965 4.29792 13.1176 4.47867 13.1128 4.66882C13.1128 6.27825 11.8062 7.58487 10.1968 7.58487C8.58734 7.58487 7.28072 6.27825 7.28072 4.66882C7.27591 4.47867 7.19699 4.29792 7.0608 4.16513C6.92461 4.03234 6.74192 3.95802 6.55171 3.95802C6.36149 3.95802 6.17881 4.03234 6.04262 4.16513C5.90643 4.29792 5.82751 4.47867 5.8227 4.66882Z" fill="black"/>
</g>
<defs>
<clipPath id="clip0_796_17452">
<rect width="20" height="20" fill="white" transform="translate(0.199219 0.5)"/>
</clipPath>
</defs>
</svg>
