<svg width="21" height="21" viewBox="0 0 21 21" fill="none" xmlns="http://www.w3.org/2000/svg">
<path d="M10.1133 19.5C15.0826 19.5 19.1133 15.4693 19.1133 10.5C19.1133 5.5307 15.0826 1.5 10.1133 1.5C5.14399 1.5 1.11328 5.5307 1.11328 10.5C1.11328 15.4693 5.14399 19.5 10.1133 19.5ZM9.47041 5.35715C9.47041 5.00357 9.7597 4.71427 10.1133 4.71427C10.4669 4.71427 10.7562 5.00357 10.7562 5.35715V10.1914L13.7294 12.57C14.0058 12.7918 14.0508 13.1968 13.829 13.4732C13.769 13.5486 13.6927 13.6094 13.6059 13.6511C13.519 13.6929 13.4239 13.7145 13.3276 13.7143C13.1861 13.7143 13.0447 13.6693 12.9258 13.5728L9.71152 11.0014C9.56045 10.8793 9.47046 10.6961 9.47046 10.5V5.35715H9.47041Z" fill="black"/>
</svg>
