<svg width="21" height="21" viewBox="0 0 21 21" fill="none" xmlns="http://www.w3.org/2000/svg">
<g clip-path="url(#clip0_796_17602)">
<path d="M1.72283 20.4999C1.52966 20.4999 1.34082 20.4427 1.18019 20.3354C1.01956 20.2281 0.894369 20.0755 0.82044 19.8971C0.746512 19.7186 0.727173 19.5222 0.764868 19.3328C0.802564 19.1433 0.895601 18.9693 1.03221 18.8327L19.079 0.785942C19.2621 0.602778 19.5106 0.499878 19.7696 0.499878C20.0286 0.499878 20.277 0.602778 20.4602 0.785942C20.6434 0.969106 20.7463 1.21753 20.7463 1.47656C20.7463 1.7356 20.6434 1.98402 20.4602 2.16718L2.41345 20.2139C2.32284 20.3047 2.21519 20.3767 2.09667 20.4258C1.97815 20.4749 1.85111 20.5001 1.72283 20.4999Z" fill="black"/>
<path d="M19.7695 20.4999C19.6413 20.5001 19.5142 20.4749 19.3957 20.4258C19.2772 20.3767 19.1695 20.3047 19.0789 20.2139L1.03216 2.16718C0.848994 1.98402 0.746094 1.7356 0.746094 1.47656C0.746094 1.21753 0.848994 0.969106 1.03216 0.785942C1.21532 0.602778 1.46375 0.499878 1.72278 0.499878C1.98181 0.499878 2.23024 0.602778 2.4134 0.785942L20.4602 18.8327C20.5968 18.9693 20.6898 19.1433 20.7275 19.3328C20.7652 19.5222 20.7459 19.7186 20.6719 19.8971C20.598 20.0755 20.4728 20.2281 20.3122 20.3354C20.1516 20.4427 19.9627 20.4999 19.7695 20.4999Z" fill="black"/>
</g>
<defs>
<clipPath id="clip0_796_17602">
<rect width="20" height="20" fill="white" transform="translate(0.746094 0.5)"/>
</clipPath>
</defs>
</svg>
