<svg width="21" height="21" viewBox="0 0 21 21" fill="none" xmlns="http://www.w3.org/2000/svg">
<g clip-path="url(#clip0_796_17751)">
<path d="M1.65518 20.5C1.70545 20.5 1.75562 20.4957 1.80518 20.4873L6.747 19.6609C8.00611 20.219 9.36886 20.5049 10.7461 20.5C12.7239 20.5 14.6573 19.9135 16.3018 18.8147C17.9463 17.7159 19.228 16.1541 19.9849 14.3268C20.7418 12.4996 20.9398 10.4889 20.5539 8.5491C20.1681 6.60929 19.2157 4.82746 17.8172 3.42894C16.4186 2.03041 14.6368 1.078 12.697 0.692152C10.7572 0.306299 8.74652 0.504333 6.91925 1.26121C5.09199 2.01809 3.53021 3.29981 2.43139 4.9443C1.33258 6.58879 0.746086 8.52219 0.746086 10.5C0.740953 11.8776 1.02689 13.2406 1.58518 14.5L0.757906 19.4409C0.736104 19.5712 0.742971 19.7047 0.77803 19.8321C0.81309 19.9595 0.875498 20.0777 0.960909 20.1786C1.04632 20.2794 1.15268 20.3604 1.27258 20.4159C1.39249 20.4714 1.52305 20.5001 1.65518 20.5ZM10.7461 2.31819C12.916 2.31819 14.9971 3.1802 16.5315 4.71458C18.0659 6.24897 18.9279 8.33005 18.9279 10.5C18.9279 12.67 18.0659 14.751 16.5315 16.2854C14.9971 17.8198 12.916 18.6818 10.7461 18.6818C9.54241 18.6874 8.35317 18.4197 7.26791 17.8991C7.09867 17.8179 6.9085 17.7909 6.72336 17.8218L2.76245 18.4845L3.42427 14.5227C3.45504 14.3379 3.42806 14.148 3.347 13.9791C2.82654 12.8934 2.55893 11.7039 2.56427 10.5C2.56667 8.33079 3.42946 6.25111 4.96333 4.71724C6.49719 3.18338 8.57687 2.32059 10.7461 2.31819Z" fill="black"/>
</g>
<defs>
<clipPath id="clip0_796_17751">
<rect width="20" height="20" fill="white" transform="matrix(-1 0 0 1 20.7461 0.5)"/>
</clipPath>
</defs>
</svg>
