<svg width="21" height="21" viewBox="0 0 21 21" fill="none" xmlns="http://www.w3.org/2000/svg">
<g clip-path="url(#clip0_796_17438)">
<path d="M5.19922 8.35356H0.9147C0.521394 8.35356 0.203403 8.67155 0.199219 9.06904V19.7803C0.199219 20.1778 0.521394 20.4958 0.9147 20.4958H5.19922C5.59671 20.4958 5.9147 20.1736 5.9147 19.7803V9.06904C5.9147 8.67155 5.59252 8.35356 5.19922 8.35356ZM12.3415 0.5H8.05696C7.66365 0.5 7.34148 0.817992 7.34148 1.2113V19.7803C7.34148 20.1778 7.66365 20.4958 8.05696 20.4958H12.3415C12.739 20.4958 13.057 20.1736 13.057 19.7803V1.21548C13.057 0.817992 12.7348 0.5 12.3415 0.5ZM19.4837 6.2113H15.1992C14.8017 6.2113 14.4837 6.52929 14.4837 6.92678V19.7803C14.4837 20.1778 14.8059 20.4958 15.1992 20.4958H19.4837C19.8812 20.4958 20.1992 20.1736 20.1992 19.7803V6.92678C20.1992 6.52929 19.877 6.2113 19.4837 6.2113Z" fill="black"/>
</g>
<defs>
<clipPath id="clip0_796_17438">
<rect width="20" height="20" fill="white" transform="translate(0.199219 0.5)"/>
</clipPath>
</defs>
</svg>
