<svg width="17" height="19" viewBox="0 0 17 19" fill="none" xmlns="http://www.w3.org/2000/svg">
<g clip-path="url(#clip0_796_17797)">
<path d="M15.2076 2H11.823V1.375C11.823 0.339453 10.9965 -0.5 9.97686 -0.5H7.51532C6.49571 -0.5 5.66917 0.339453 5.66917 1.375V2H2.28456C1.4349 2 0.746094 2.69957 0.746094 3.5625V4.8125C0.746094 5.1577 1.02159 5.4375 1.36148 5.4375H16.1307C16.4706 5.4375 16.7461 5.1577 16.7461 4.8125V3.5625C16.7461 2.69957 16.0573 2 15.2076 2ZM6.89994 1.375C6.89994 1.03047 7.17609 0.75 7.51532 0.75H9.97686C10.3161 0.75 10.5922 1.03047 10.5922 1.375V2H6.89994V1.375ZM1.91394 6.6875C1.88792 6.6875 1.86216 6.69287 1.83824 6.70327C1.81432 6.71368 1.79273 6.72891 1.77477 6.74804C1.75681 6.76717 1.74286 6.7898 1.73377 6.81456C1.72467 6.83933 1.72062 6.86571 1.72186 6.89211L2.22956 17.7141C2.27648 18.7156 3.08648 19.5 4.0734 19.5H13.4188C14.4057 19.5 15.2157 18.7156 15.2626 17.7141L15.7703 6.89211C15.7716 6.86571 15.7675 6.83933 15.7584 6.81456C15.7493 6.7898 15.7354 6.76717 15.7174 6.74804C15.6995 6.72891 15.6779 6.71368 15.6539 6.70327C15.63 6.69287 15.6043 6.6875 15.5782 6.6875H1.91394ZM11.2076 8.25C11.2076 7.90469 11.483 7.625 11.823 7.625C12.163 7.625 12.4384 7.90469 12.4384 8.25V16.375C12.4384 16.7203 12.163 17 11.823 17C11.483 17 11.2076 16.7203 11.2076 16.375V8.25ZM8.13071 8.25C8.13071 7.90469 8.40609 7.625 8.74609 7.625C9.08609 7.625 9.36148 7.90469 9.36148 8.25V16.375C9.36148 16.7203 9.08609 17 8.74609 17C8.40609 17 8.13071 16.7203 8.13071 16.375V8.25ZM5.05379 8.25C5.05379 7.90469 5.32917 7.625 5.66917 7.625C6.00917 7.625 6.28456 7.90469 6.28456 8.25V16.375C6.28456 16.7203 6.00917 17 5.66917 17C5.32917 17 5.05379 16.7203 5.05379 16.375V8.25Z" fill="black"/>
</g>
<defs>
<clipPath id="clip0_796_17797">
<rect width="16" height="19" fill="white" transform="translate(0.746094)"/>
</clipPath>
</defs>
</svg>
