<svg width="20" height="20" viewBox="0 0 20 20" fill="none" xmlns="http://www.w3.org/2000/svg">
<g clip-path="url(#clip0_796_17910)">
<path d="M16.8262 5.67989C16.6932 5.43113 16.4951 5.22324 16.2529 5.07851C16.0108 4.93377 15.7339 4.85764 15.4518 4.85828H13.2695V7.77729C13.2695 8.1024 13.555 8.36539 13.8802 8.36539H18.2637L16.8262 5.67989Z" fill="black"/>
<path d="M4.2101 17.3739C5.24086 17.3739 6.07645 16.5383 6.07645 15.5076C6.07645 14.4768 5.24086 13.6412 4.2101 13.6412C3.17934 13.6412 2.34375 14.4768 2.34375 15.5076C2.34375 16.5383 3.17934 17.3739 4.2101 17.3739Z" fill="black"/>
<path d="M14.763 13.6412C13.7321 13.6412 12.8965 14.4769 12.8965 15.5077C12.8965 16.5386 13.7321 17.3742 14.763 17.3742C15.7938 17.3742 16.6295 16.5386 16.6295 15.5077V15.5076C16.6282 14.4773 15.7933 13.6424 14.763 13.6412Z" fill="black"/>
<path d="M19.6635 10.3534L18.6986 9.12374H13.8808C13.1374 9.12374 12.5118 8.52062 12.5118 7.77735V4.1873C12.5188 3.88412 12.2786 3.6328 11.9755 3.62588C11.9647 3.62562 11.9539 3.6257 11.9431 3.62611H0.60436C0.279194 3.62611 0 3.86213 0 4.1873V14.5636C0 14.8888 0.279194 15.1427 0.60436 15.1427H1.61066C1.80607 13.7067 3.12858 12.7009 4.5646 12.8963C5.73308 13.0553 6.65199 13.9742 6.811 15.1427H12.1625C12.358 13.7066 13.6806 12.701 15.1167 12.8964C16.2851 13.0555 17.2039 13.9743 17.3629 15.1427H19.3957C19.7209 15.1427 20 14.8888 20 14.5636V11.3122C19.9969 10.9642 19.8785 10.6271 19.6635 10.3534Z" fill="black"/>
</g>
<defs>
<clipPath id="clip0_796_17910">
<rect width="20" height="20" fill="white"/>
</clipPath>
</defs>
</svg>
