<svg width="21" height="21" viewBox="0 0 21 21" fill="none" xmlns="http://www.w3.org/2000/svg">
<g clip-path="url(#clip0_796_17778)">
<path d="M13.0971 3.85917L2.09289 14.8642C2.03748 14.9198 1.99799 14.9892 1.97854 15.0652L0.758783 19.9609C0.740843 20.0336 0.741942 20.1096 0.761975 20.1817C0.782007 20.2538 0.820294 20.3196 0.87314 20.3725C0.954309 20.4534 1.06421 20.4989 1.17881 20.499C1.21416 20.499 1.24938 20.4946 1.28366 20.486L6.17937 19.2661C6.25549 19.247 6.32498 19.2075 6.38039 19.1519L17.3856 8.1476L13.0971 3.85917ZM20.1118 2.35864L18.8869 1.13373C18.0682 0.315042 16.6413 0.315854 15.8235 1.13373L14.323 2.63426L18.6113 6.92252L20.1118 5.42204C20.5208 5.01326 20.746 4.46913 20.746 3.89044C20.746 3.31175 20.5208 2.76762 20.1118 2.35864Z" fill="black"/>
</g>
<defs>
<clipPath id="clip0_796_17778">
<rect width="20" height="20" fill="white" transform="translate(0.746094 0.5)"/>
</clipPath>
</defs>
</svg>
