<svg width="26" height="20" viewBox="0 0 26 20" fill="none" xmlns="http://www.w3.org/2000/svg">
<path d="M25.5239 8.78887C23.4166 6.69645 18.6028 2.625 13.0019 2.625C7.40101 2.625 2.5821 6.69645 0.479859 8.78887C-0.159953 9.42278 -0.159953 10.5772 0.479859 11.2111C2.5821 13.3035 7.40101 17.375 13.0019 17.375C18.6028 17.375 23.4166 13.3035 25.5239 11.2111C26.1587 10.5772 26.1587 9.42278 25.5239 8.78887ZM13.0019 15.3187C10.1075 15.3187 7.76154 12.9376 7.76154 10C7.76154 7.06237 10.1075 4.6865 13.0019 4.6865C15.8963 4.6865 18.2372 7.06237 18.2372 10C18.2372 12.9325 15.8912 15.3135 13.0019 15.3187Z" fill="black"/>
<path d="M13.0029 13.7157C15.0249 13.7157 16.6641 12.0521 16.6641 9.9999C16.6641 7.9477 15.0249 6.28406 13.0029 6.28406C10.9809 6.28406 9.3418 7.9477 9.3418 9.9999C9.3418 12.0521 10.9809 13.7157 13.0029 13.7157Z" fill="black"/>
</svg>
