<svg width="21" height="21" viewBox="0 0 21 21" fill="none" xmlns="http://www.w3.org/2000/svg">
<g clip-path="url(#clip0_796_17793)">
<path d="M20.3789 9.58203C18.7578 7.99609 15.0547 4.91016 10.7461 4.91016C6.4375 4.91016 2.73047 7.99609 1.11328 9.58203C0.621094 10.0625 0.621094 10.9375 1.11328 11.418C2.73047 13.0039 6.4375 16.0898 10.7461 16.0898C15.0547 16.0898 18.7578 13.0039 20.3789 11.418C20.8672 10.9375 20.8672 10.0625 20.3789 9.58203ZM10.7461 14.5313C8.51953 14.5313 6.71484 12.7266 6.71484 10.5C6.71484 8.27344 8.51953 6.47266 10.7461 6.47266C12.9727 6.47266 14.7734 8.27344 14.7734 10.5C14.7734 12.7227 12.9688 14.5273 10.7461 14.5313Z" fill="black"/>
<path d="M10.7461 13.3164C12.3016 13.3164 13.5625 12.0555 13.5625 10.5C13.5625 8.94454 12.3016 7.68359 10.7461 7.68359C9.19064 7.68359 7.92969 8.94454 7.92969 10.5C7.92969 12.0555 9.19064 13.3164 10.7461 13.3164Z" fill="black"/>
</g>
<defs>
<clipPath id="clip0_796_17793">
<rect width="20" height="20" fill="white" transform="translate(0.746094 0.5)"/>
</clipPath>
</defs>
</svg>
