<svg width="21" height="21" viewBox="0 0 21 21" fill="none" xmlns="http://www.w3.org/2000/svg">
<g clip-path="url(#clip0_796_17789)">
<path d="M20.3789 9.22266C18.7578 7.63672 15.0547 4.55078 10.7461 4.55078C9.73828 4.55859 8.73828 4.71484 7.77734 5.01953L9.1875 6.42969C11.2383 5.57031 13.6016 6.53516 14.4609 8.58594C14.8789 9.58203 14.8789 10.707 14.4609 11.707L16.6836 13.9297C18.2969 12.9727 19.5859 11.8398 20.3789 11.0625C20.8672 10.5781 20.8672 9.70313 20.3789 9.22266Z" fill="black"/>
<path d="M10.7461 7.32422C10.543 7.32422 10.3438 7.34766 10.1445 7.38672L13.5 10.7422C13.832 9.22266 12.8672 7.71875 11.3438 7.38672C11.1484 7.34375 10.9492 7.32422 10.7461 7.32422ZM3.61719 2.97656C3.24219 2.60156 2.63672 2.60156 2.26172 2.97656C1.88672 3.35156 1.88672 3.95703 2.26172 4.33203L4.48828 6.55469C3.02344 7.46875 1.85156 8.50391 1.11328 9.22656C0.621094 9.70703 0.621094 10.582 1.11328 11.0625C2.73047 12.6445 6.4375 15.7305 10.7461 15.7305C11.6133 15.7266 12.4766 15.6094 13.3164 15.3789L15.9609 18.0234C16.3359 18.3984 16.9414 18.3984 17.3164 18.0234C17.6914 17.6484 17.6914 17.043 17.3164 16.668L3.61719 2.97656ZM10.7461 14.1719C8.51953 14.1719 6.71484 12.3672 6.71875 10.1406C6.71875 9.74219 6.77734 9.34375 6.89453 8.96094L7.93359 10C7.92969 10.0469 7.92969 10.0977 7.92969 10.1445C7.92969 11.6992 9.19141 12.9609 10.7461 12.9609C10.793 12.9609 10.8438 12.9609 10.8906 12.957L11.9297 13.9961C11.5469 14.1094 11.1484 14.1719 10.7461 14.1719Z" fill="black"/>
</g>
<defs>
<clipPath id="clip0_796_17789">
<rect width="20" height="20" fill="white" transform="translate(0.746094 0.5)"/>
</clipPath>
</defs>
</svg>
