<svg width="26" height="20" viewBox="0 0 26 20" fill="none" xmlns="http://www.w3.org/2000/svg">
<g clip-path="url(#clip0_2276_27043)">
<path d="M25.524 8.37113C23.4167 6.34863 18.6028 2.41321 13.0018 2.41321C11.6917 2.42317 10.3918 2.62243 9.14258 3.01099L10.9757 4.80933C13.6416 3.71339 16.7138 4.94383 17.8309 7.55914C18.3743 8.82943 18.3743 10.2641 17.8309 11.5394L20.7203 14.3739C22.8175 13.1534 24.4932 11.7088 25.524 10.7174C26.1588 10.0997 26.1588 8.98386 25.524 8.37113Z" fill="black"/>
<path d="M13.0021 5.95C12.738 5.95 12.479 5.97989 12.2201 6.02971L16.582 10.3089C17.0136 8.37103 15.7594 6.45314 13.779 6.02971C13.5251 5.97491 13.2661 5.95 13.0021 5.95ZM3.73483 0.405546C3.24734 -0.072682 2.46026 -0.072682 1.97278 0.405546C1.4853 0.883774 1.4853 1.65591 1.97278 2.13414L4.86721 4.96864C2.96298 6.13432 1.4396 7.45443 0.479866 8.37601C-0.159955 8.98874 -0.159955 10.1046 0.479866 10.7173C2.58213 12.7349 7.4011 16.6703 13.0021 16.6703C14.1294 16.6653 15.2516 16.5158 16.3434 16.2219L19.7811 19.5944C20.2686 20.0727 21.0557 20.0727 21.5432 19.5944C22.0307 19.1162 22.0307 18.3441 21.5432 17.8658L3.73483 0.405546ZM13.0021 14.6826C10.1076 14.6826 7.76163 12.3812 7.76671 9.54169C7.76671 9.03358 7.84288 8.52546 7.99522 8.03727L9.34595 9.36236C9.34088 9.42214 9.34087 9.4869 9.34087 9.54667C9.34087 11.5293 10.9811 13.1384 13.0021 13.1384C13.063 13.1384 13.129 13.1384 13.19 13.1334L14.5407 14.4585C14.043 14.6029 13.5251 14.6826 13.0021 14.6826Z" fill="black"/>
</g>
<defs>
<clipPath id="clip0_2276_27043">
<rect width="26" height="20" fill="white"/>
</clipPath>
</defs>
</svg>
