<svg width="21" height="21" viewBox="0 0 21 21" fill="none" xmlns="http://www.w3.org/2000/svg">
<g clip-path="url(#clip0_796_17607)">
<path d="M15.2915 4.13645C15.2915 3.59705 15.4515 3.06976 15.7512 2.62126C16.0509 2.17276 16.4768 1.8232 16.9751 1.61678C17.4735 1.41036 18.0218 1.35635 18.5509 1.46158C19.0799 1.56682 19.5659 1.82656 19.9473 2.20798C20.3287 2.5894 20.5885 3.07535 20.6937 3.60439C20.7989 4.13343 20.7449 4.68179 20.5385 5.18014C20.3321 5.67848 19.9825 6.10442 19.534 6.4041C19.0855 6.70377 18.5582 6.86373 18.0188 6.86373C17.2955 6.86373 16.6018 6.57639 16.0903 6.06493C15.5789 5.55346 15.2915 4.85977 15.2915 4.13645ZM1.65518 5.04554H12.5643C12.8054 5.04554 13.0366 4.94976 13.2071 4.77928C13.3776 4.60879 13.4734 4.37756 13.4734 4.13645C13.4734 3.89535 13.3776 3.66412 13.2071 3.49363C13.0366 3.32314 12.8054 3.22736 12.5643 3.22736H1.65518C1.41408 3.22736 1.18285 3.32314 1.01236 3.49363C0.841873 3.66412 0.746094 3.89535 0.746094 4.13645C0.746094 4.37756 0.841873 4.60879 1.01236 4.77928C1.18285 4.94976 1.41408 5.04554 1.65518 5.04554ZM7.10973 7.77282C6.54705 7.7744 5.99864 7.94998 5.53967 8.27549C5.0807 8.601 4.73365 9.0605 4.54609 9.591H1.65518C1.41408 9.591 1.18285 9.68678 1.01236 9.85726C0.841873 10.0278 0.746094 10.259 0.746094 10.5001C0.746094 10.7412 0.841873 10.9724 1.01236 11.1429C1.18285 11.3134 1.41408 11.4092 1.65518 11.4092H4.54609C4.71287 11.8809 5.00619 12.2976 5.39395 12.6138C5.78172 12.93 6.24898 13.1334 6.7446 13.2018C7.24023 13.2701 7.74512 13.2009 8.20401 13.0015C8.66291 12.8022 9.05812 12.4805 9.34641 12.0715C9.63469 11.6626 9.80494 11.1823 9.83851 10.6831C9.87209 10.1839 9.76769 9.68508 9.53676 9.24125C9.30583 8.79741 8.95725 8.42565 8.52918 8.16666C8.10111 7.90766 7.61005 7.77141 7.10973 7.77282ZM19.837 9.591H12.5643C12.3232 9.591 12.0919 9.68678 11.9215 9.85726C11.751 10.0278 11.6552 10.259 11.6552 10.5001C11.6552 10.7412 11.751 10.9724 11.9215 11.1429C12.0919 11.3134 12.3232 11.4092 12.5643 11.4092H19.837C20.0781 11.4092 20.3093 11.3134 20.4798 11.1429C20.6503 10.9724 20.7461 10.7412 20.7461 10.5001C20.7461 10.259 20.6503 10.0278 20.4798 9.85726C20.3093 9.68678 20.0781 9.591 19.837 9.591ZM8.92791 15.9546H1.65518C1.41408 15.9546 1.18285 16.0504 1.01236 16.2209C0.841873 16.3914 0.746094 16.6226 0.746094 16.8637C0.746094 17.1048 0.841873 17.3361 1.01236 17.5065C1.18285 17.677 1.41408 17.7728 1.65518 17.7728H8.92791C9.16902 17.7728 9.40025 17.677 9.57074 17.5065C9.74122 17.3361 9.837 17.1048 9.837 16.8637C9.837 16.6226 9.74122 16.3914 9.57074 16.2209C9.40025 16.0504 9.16902 15.9546 8.92791 15.9546ZM19.837 15.9546H16.9461C16.7316 15.3481 16.3097 14.8369 15.7547 14.5113C15.1998 14.1858 14.5477 14.0669 13.9136 14.1757C13.2795 14.2845 12.7043 14.614 12.2896 15.1059C11.875 15.5977 11.6475 16.2204 11.6475 16.8637C11.6475 17.5071 11.875 18.1297 12.2896 18.6216C12.7043 19.1135 13.2795 19.4429 13.9136 19.5517C14.5477 19.6605 15.1998 19.5416 15.7547 19.2161C16.3097 18.8906 16.7316 18.3794 16.9461 17.7728H19.837C20.0781 17.7728 20.3093 17.677 20.4798 17.5065C20.6503 17.3361 20.7461 17.1048 20.7461 16.8637C20.7461 16.6226 20.6503 16.3914 20.4798 16.2209C20.3093 16.0504 20.0781 15.9546 19.837 15.9546Z" fill="black"/>
</g>
<defs>
<clipPath id="clip0_796_17607">
<rect width="20" height="20" fill="white" transform="translate(0.746094 0.5)"/>
</clipPath>
</defs>
</svg>
