<svg width="21" height="21" viewBox="0 0 21 21" fill="none" xmlns="http://www.w3.org/2000/svg">
<g clip-path="url(#clip0_796_17440)">
<path d="M10.1992 19.5C10.098 19.5 9.9969 19.4728 9.90628 19.4183C9.80784 19.3592 7.46914 17.9462 5.09688 15.8171C3.69087 14.5552 2.56853 13.3036 1.76111 12.0971C0.716271 10.536 0.190843 9.03429 0.19932 7.6338C0.209242 6.00418 0.770138 4.47162 1.77881 3.3184C2.80451 2.14575 4.17333 1.5 5.63321 1.5C7.50418 1.5 9.21476 2.59062 10.1992 4.31829C11.1837 2.59066 12.8943 1.5 14.7653 1.5C16.1445 1.5 17.4604 2.08267 18.4707 3.14068C19.5794 4.30175 20.2094 5.94227 20.1991 7.64153C20.1906 9.03958 19.6553 10.539 18.6082 12.098C17.7982 13.3038 16.6775 14.5549 15.277 15.8164C12.9134 17.9453 10.5915 19.3583 10.4938 19.4174C10.4043 19.4715 10.3027 19.5 10.1992 19.5Z" fill="black"/>
</g>
<defs>
<clipPath id="clip0_796_17440">
<rect width="20" height="20" fill="white" transform="translate(0.199219 0.5)"/>
</clipPath>
</defs>
</svg>
