<svg width="23" height="21" viewBox="0 0 23 21" fill="none" xmlns="http://www.w3.org/2000/svg">
<g clip-path="url(#clip0_796_17440)">
<path d="M11.3084 20.5C11.196 20.5 11.0836 20.4698 10.9829 20.4093C10.8735 20.3436 8.27495 18.7735 5.63911 16.4078C4.07688 15.0058 2.82983 13.6151 1.9327 12.2746C0.771768 10.5399 0.187959 8.87143 0.197378 7.31534C0.208402 5.50464 0.83162 3.8018 1.95236 2.52045C3.09203 1.2175 4.61294 0.5 6.23503 0.5C8.31389 0.5 10.2145 1.7118 11.3084 3.63143C12.4023 1.71184 14.3029 0.5 16.3818 0.5C17.9142 0.5 19.3763 1.14741 20.4989 2.32298C21.7309 3.61305 22.4308 5.43585 22.4193 7.32392C22.4099 8.8773 21.8151 10.5433 20.6516 12.2755C19.7517 13.6154 18.5064 15.0054 16.9503 16.4071C14.3241 18.7725 11.7442 20.3426 11.6357 20.4082C11.5363 20.4683 11.4233 20.5 11.3084 20.5Z" fill="black"/>
</g>
<defs>
<clipPath id="clip0_796_17440">
<rect width="22.22" height="20" fill="white" transform="translate(0.199219 0.5)"/>
</clipPath>
</defs>
</svg>
