<svg width="19" height="21" viewBox="0 0 19 21" fill="none" xmlns="http://www.w3.org/2000/svg">
<g clip-path="url(#clip0_796_17838)">
<path d="M9.66216 6.01172C7.10823 6.01172 5.04822 8.01562 5.04822 10.5C5.04822 12.9844 7.10823 14.9883 9.66216 14.9883C12.2161 14.9883 14.2761 12.9844 14.2761 10.5C14.2761 8.01562 12.2161 6.01172 9.66216 6.01172ZM9.66216 13.418C8.01175 13.418 6.6625 12.1094 6.6625 10.5C6.6625 8.89062 8.00773 7.58203 9.66216 7.58203C11.3166 7.58203 12.6618 8.89062 12.6618 10.5C12.6618 12.1094 11.3126 13.418 9.66216 13.418ZM15.541 5.82812C15.541 6.41015 15.0592 6.875 14.4648 6.875C13.8665 6.875 13.3887 6.40625 13.3887 5.82812C13.3887 5.25 13.8705 4.78125 14.4648 4.78125C15.0592 4.78125 15.541 5.25 15.541 5.82812ZM18.5969 6.89062C18.5286 5.48828 18.1994 4.24609 17.1433 3.22266C16.0912 2.19922 14.8142 1.87891 13.3726 1.80859C11.8868 1.72656 7.4335 1.72656 5.94772 1.80859C4.51013 1.875 3.23316 2.19531 2.17706 3.21875C1.12095 4.24219 0.795683 5.48437 0.723402 6.88672C0.639074 8.33203 0.639074 12.6641 0.723402 14.1094C0.791668 15.5117 1.12095 16.7539 2.17706 17.7773C3.23316 18.8008 4.50611 19.1211 5.94772 19.1914C7.4335 19.2734 11.8868 19.2734 13.3726 19.1914C14.8142 19.125 16.0912 18.8047 17.1433 17.7773C18.1953 16.7539 18.5246 15.5117 18.5969 14.1094C18.6812 12.6641 18.6812 8.33594 18.5969 6.89062ZM16.6774 15.6602C16.3642 16.4258 15.7579 17.0156 14.9668 17.3242C13.7822 17.7812 10.9713 17.6758 9.66216 17.6758C8.35307 17.6758 5.53813 17.7773 4.35753 17.3242C3.57047 17.0195 2.96412 16.4297 2.64688 15.6602C2.17706 14.5078 2.28548 11.7734 2.28548 10.5C2.28548 9.22656 2.18107 6.48828 2.64688 5.33984C2.9601 4.57422 3.56646 3.98437 4.35753 3.67578C5.54214 3.21875 8.35307 3.32422 9.66216 3.32422C10.9713 3.32422 13.7862 3.22266 14.9668 3.67578C15.7539 3.98047 16.3602 4.57031 16.6774 5.33984C17.1473 6.49219 17.0389 9.22656 17.0389 10.5C17.0389 11.7734 17.1473 14.5117 16.6774 15.6602Z" fill="black"/>
</g>
<defs>
<clipPath id="clip0_796_17838">
<rect width="18" height="20" fill="white" transform="translate(0.660156 0.5)"/>
</clipPath>
</defs>
</svg>
