<svg width="21" height="21" viewBox="0 0 21 21" fill="none" xmlns="http://www.w3.org/2000/svg">
<g clip-path="url(#clip0_796_17754)">
<path d="M18.1588 6.85484H14.5825L14.8815 5.3566C15.032 4.60608 14.9945 3.82997 14.7724 3.09747C14.5504 2.36497 14.1506 1.69883 13.6088 1.15844C13.3568 0.906506 13.0486 0.718074 12.7096 0.608656C12.3706 0.499238 12.0104 0.471964 11.6588 0.52908C11.3072 0.586195 10.9742 0.726067 10.6872 0.937177C10.4001 1.14829 10.1673 1.4246 10.0079 1.74336L8.11428 5.53853C7.80223 6.14799 7.37314 6.68989 6.85155 7.1332C6.76749 7.04518 6.66647 6.97514 6.55459 6.9273C6.44271 6.87945 6.3223 6.8548 6.20064 6.85484H1.65518C1.41408 6.85484 1.18285 6.95068 1.01236 7.12128C0.841873 7.29187 0.746094 7.52325 0.746094 7.76451V19.5903C0.746094 19.8316 0.841873 20.063 1.01236 20.2336C1.18285 20.4042 1.41408 20.5 1.65518 20.5H6.20064C6.38298 20.4991 6.56085 20.4434 6.71114 20.3401C6.86142 20.2367 6.97718 20.0906 7.04337 19.9205L8.64064 20.4527C8.73324 20.4838 8.83024 20.4998 8.92791 20.5H15.6352C16.234 20.4982 16.8243 20.3577 17.3598 20.0894C17.8953 19.8211 18.3614 19.4323 18.7215 18.9535C20.0313 17.199 20.7413 15.0688 20.7461 12.8787V9.44378C20.7456 8.7573 20.4729 8.09907 19.9878 7.61365C19.5027 7.12824 18.8449 6.85532 18.1588 6.85484ZM5.29155 18.6806H2.56428V8.67419H5.29155V18.6806ZM18.9279 12.8787C18.9247 14.6758 18.3425 16.4239 17.2679 17.8638C17.077 18.1175 16.8299 18.3236 16.5459 18.4656C16.262 18.6077 15.949 18.6819 15.6315 18.6825H9.07518L7.10973 18.0257V9.1827C8.23509 8.50347 9.14825 7.52292 9.74609 6.35179L11.637 2.55661C11.6676 2.4957 11.7122 2.44291 11.7671 2.40259C11.822 2.36226 11.8858 2.33554 11.953 2.32462C12.0202 2.3137 12.0891 2.31889 12.154 2.33977C12.2188 2.36065 12.2778 2.39661 12.3261 2.44472C12.6557 2.77354 12.8987 3.17892 13.0336 3.62465C13.1684 4.07038 13.1908 4.54258 13.0988 4.9991L12.5825 7.58258C12.5555 7.71476 12.5582 7.85129 12.5905 7.98228C12.6228 8.11326 12.6838 8.23543 12.7691 8.33992C12.8543 8.44441 12.9618 8.52861 13.0836 8.58643C13.2054 8.64424 13.3385 8.67422 13.4734 8.67419H18.1588C18.3628 8.67419 18.5584 8.75527 18.7027 8.8996C18.8469 9.04393 18.9279 9.23967 18.9279 9.44378V12.8787Z" fill="black"/>
</g>
<defs>
<clipPath id="clip0_796_17754">
<rect width="20" height="20" fill="white" transform="translate(0.746094 0.5)"/>
</clipPath>
</defs>
</svg>
