<svg width="21" height="21" viewBox="0 0 21 21" fill="none" xmlns="http://www.w3.org/2000/svg">
<g clip-path="url(#clip0_796_17747)">
<path d="M11.5111 14.3254L8.45097 17.3855L8.4509 17.3856L8.45082 17.3857C7.18538 18.6512 5.12623 18.6513 3.86065 17.3857C3.24755 16.7726 2.90998 15.9574 2.90998 15.0905C2.90998 14.2237 3.24755 13.4087 3.86043 12.7956L3.86065 12.7953L6.92074 9.73518C7.3432 9.31264 7.3432 8.62756 6.92067 8.2051C6.49821 7.78263 5.81312 7.78263 5.39059 8.2051L2.33049 11.2653L2.32984 11.266C1.30856 12.2876 0.746094 13.6459 0.746094 15.0905C0.746094 16.5355 1.30878 17.894 2.33056 18.9158C3.38524 19.9704 4.77049 20.4977 6.15581 20.4977C7.54113 20.4977 8.92645 19.9704 9.98098 18.9158L9.98105 18.9156L13.0411 15.8554C13.4636 15.433 13.4636 14.7479 13.0411 14.3254C12.6187 13.9029 11.9337 13.9029 11.5111 14.3254ZM20.7461 5.90993C20.7461 4.46496 20.1833 3.10648 19.1616 2.08469C17.0523 -0.0245223 13.6203 -0.0244501 11.5111 2.08469L11.5108 2.08505L8.45082 5.145C8.02829 5.56746 8.02829 6.25262 8.45082 6.67508C8.55118 6.77572 8.67043 6.85552 8.80173 6.90991C8.93303 6.9643 9.07378 6.99221 9.2159 6.99202C9.49274 6.99202 9.76971 6.88635 9.98091 6.67508L13.0409 3.61513L13.0413 3.61477C14.3067 2.34933 16.3659 2.34926 17.6315 3.61477C18.2445 4.22787 18.5822 5.04301 18.5822 5.90993C18.5822 6.77679 18.2446 7.59178 17.6317 8.20488L17.6315 8.2051L14.5714 11.2653C14.1489 11.6877 14.1489 12.3728 14.5714 12.7953C14.6718 12.896 14.791 12.9758 14.9223 13.0301C15.0536 13.0845 15.1943 13.1125 15.3365 13.1123C15.6134 13.1123 15.8903 13.0066 16.1015 12.7953L19.1616 9.73518L19.1623 9.73446C20.1836 8.71281 20.7461 7.35454 20.7461 5.90993Z" fill="black"/>
<path d="M6.92042 14.3251C7.02077 14.4257 7.14001 14.5055 7.27129 14.5599C7.40258 14.6142 7.54332 14.6422 7.68542 14.642C7.96233 14.642 8.23923 14.5363 8.4505 14.3251L14.5708 8.20472C14.9934 7.78226 14.9934 7.09717 14.5708 6.67463C14.1484 6.25217 13.4633 6.25217 13.0407 6.67463L6.92042 12.7949C6.49788 13.2175 6.49788 13.9026 6.92042 14.3251Z" fill="black"/>
</g>
<defs>
<clipPath id="clip0_796_17747">
<rect width="20" height="20" fill="white" transform="translate(0.746094 0.5)"/>
</clipPath>
</defs>
</svg>
