<svg width="20" height="20" viewBox="0 0 20 20" fill="none" xmlns="http://www.w3.org/2000/svg">
<g clip-path="url(#clip0_1836_23695)">
<path d="M9.9668 18.3057H2.49168C2.0332 18.3057 1.66113 17.9336 1.66113 17.4751V2.52492C1.66113 2.06645 2.03324 1.69437 2.49168 1.69437H9.9668C10.4261 1.69437 10.7973 1.32312 10.7973 0.863828C10.7973 0.404531 10.4261 0.0332031 9.9668 0.0332031H2.49168C1.11793 0.0332031 0 1.15117 0 2.52492V17.4751C0 18.8488 1.11793 19.9668 2.49168 19.9668H9.9668C10.4261 19.9668 10.7973 19.5955 10.7973 19.1362C10.7973 18.6769 10.4261 18.3057 9.9668 18.3057Z" fill="black"/>
<path d="M19.7525 9.40867L14.7027 4.42527C14.3771 4.10301 13.8505 4.10719 13.5282 4.43359C13.206 4.76 13.2093 5.28574 13.5366 5.60801L17.1453 9.16945H7.47508C7.01578 9.16945 6.64453 9.5407 6.64453 10C6.64453 10.4593 7.01578 10.8306 7.47508 10.8306H17.1453L13.5366 14.392C13.2093 14.7143 13.2068 15.24 13.5282 15.5664C13.6055 15.6448 13.6976 15.7071 13.7991 15.7496C13.9006 15.7921 14.0096 15.8139 14.1196 15.8139C14.3306 15.8139 14.5415 15.7342 14.7027 15.5747L19.7525 10.5913C19.8308 10.514 19.893 10.4219 19.9355 10.3204C19.978 10.2189 19.9999 10.11 20 9.99996C20 9.77746 19.9111 9.56566 19.7525 9.40867Z" fill="black"/>
</g>
<defs>
<clipPath id="clip0_1836_23695">
<rect width="20" height="20" fill="white"/>
</clipPath>
</defs>
</svg>
