<svg width="21" height="21" viewBox="0 0 21 21" fill="none" xmlns="http://www.w3.org/2000/svg">
<g clip-path="url(#clip0_796_17817)">
<path d="M11.7847 12.7537C11.2871 13.0854 10.7092 13.2607 10.1133 13.2607C9.51742 13.2607 8.93945 13.0854 8.44188 12.7537L0.246445 7.28989C0.201203 7.25964 0.156799 7.22816 0.113281 7.19547L0.113281 16.1485C0.113281 17.175 0.946289 17.9896 1.95441 17.9896H18.2721C19.2986 17.9896 20.1132 17.1566 20.1132 16.1485V7.19543C20.0696 7.2282 20.0252 7.25975 19.9798 7.29004L11.7847 12.7537Z" fill="black"/>
<path d="M0.896485 6.31475L9.09192 11.7786C9.40215 11.9854 9.7577 12.0888 10.1132 12.0888C10.4688 12.0888 10.8244 11.9854 11.1346 11.7786L19.3301 6.31475C19.8205 5.98799 20.1133 5.44112 20.1133 4.85088C20.1133 3.836 19.2876 3.01038 18.2728 3.01038H1.95379C0.938946 3.01042 0.113282 3.83604 0.113282 4.85186C0.112978 5.14139 0.184337 5.4265 0.320995 5.68176C0.457653 5.93701 0.655361 6.15447 0.896485 6.31475Z" fill="black"/>
</g>
<defs>
<clipPath id="clip0_796_17817">
<rect width="20" height="20" fill="white" transform="translate(0.113281 0.5)"/>
</clipPath>
</defs>
</svg>
