<svg width="20" height="20" viewBox="0 0 20 20" fill="none" xmlns="http://www.w3.org/2000/svg">
<path fill-rule="evenodd" clip-rule="evenodd" d="M18.1384 1.62791C18.1384 1.19616 17.9669 0.782095 17.6616 0.476803C17.3563 0.171511 16.9423 0 16.5105 0H3.48728C3.05553 0 2.64147 0.171511 2.33618 0.476803C2.03089 0.782095 1.85938 1.19616 1.85938 1.62791V18.3721C1.85938 19.2707 2.58775 20 3.48728 20H16.5105C16.9423 20 17.3563 19.8285 17.6616 19.5232C17.9669 19.2179 18.1384 18.8038 18.1384 18.3721V1.62791ZM4.83891 15.64L5.88542 16.7563C5.955 16.8307 6.04006 16.889 6.1346 16.927C6.22914 16.9649 6.33086 16.9817 6.4326 16.9762C6.53433 16.9706 6.6336 16.9427 6.72341 16.8946C6.81322 16.8465 6.89139 16.7793 6.9524 16.6977L8.69658 14.3721C8.8076 14.2241 8.85527 14.038 8.82911 13.8548C8.80294 13.6716 8.70508 13.5064 8.55705 13.3953C8.40902 13.2843 8.22295 13.2367 8.03978 13.2628C7.8566 13.289 7.69132 13.3869 7.5803 13.5349L6.33472 15.1953L5.85658 14.6856C5.72927 14.5538 5.55521 14.4773 5.37201 14.4728C5.18881 14.4683 5.01118 14.536 4.87751 14.6614C4.74385 14.7868 4.66487 14.9597 4.65764 15.1428C4.65042 15.3259 4.71553 15.5045 4.83891 15.64ZM10.9291 15.814H14.6501C14.8351 15.814 15.0126 15.7404 15.1434 15.6096C15.2742 15.4788 15.3477 15.3013 15.3477 15.1163C15.3477 14.9312 15.2742 14.7538 15.1434 14.6229C15.0126 14.4921 14.8351 14.4186 14.6501 14.4186H10.9291C10.7441 14.4186 10.5667 14.4921 10.4358 14.6229C10.305 14.7538 10.2315 14.9312 10.2315 15.1163C10.2315 15.3013 10.305 15.4788 10.4358 15.6096C10.5667 15.7404 10.7441 15.814 10.9291 15.814ZM4.83891 10.5237L5.88542 11.64C5.955 11.7144 6.04006 11.7727 6.1346 11.8107C6.22914 11.8487 6.33086 11.8655 6.4326 11.8599C6.53433 11.8543 6.6336 11.8265 6.72341 11.7783C6.81322 11.7302 6.89139 11.663 6.9524 11.5814L8.69658 9.25581C8.75156 9.18252 8.79155 9.09911 8.81429 9.01036C8.83703 8.92161 8.84206 8.82924 8.82911 8.73854C8.81615 8.64784 8.78546 8.56059 8.73878 8.48175C8.6921 8.40291 8.63034 8.33404 8.55705 8.27907C8.48375 8.2241 8.40035 8.1841 8.31159 8.16136C8.22284 8.13863 8.13048 8.13359 8.03978 8.14655C7.8566 8.17272 7.69132 8.27058 7.5803 8.4186L6.33472 10.0791L5.85658 9.5693C5.72927 9.43749 5.55521 9.36107 5.37201 9.35655C5.18881 9.35202 5.01118 9.41975 4.87751 9.54511C4.74385 9.67047 4.66487 9.84339 4.65764 10.0265C4.65042 10.2096 4.71553 10.3882 4.83891 10.5237ZM10.9291 10.6977H14.6501C14.8351 10.6977 15.0126 10.6242 15.1434 10.4933C15.2742 10.3625 15.3477 10.185 15.3477 10C15.3477 9.81497 15.2742 9.63751 15.1434 9.50667C15.0126 9.37583 14.8351 9.30233 14.6501 9.30233H10.9291C10.7441 9.30233 10.5667 9.37583 10.4358 9.50667C10.305 9.63751 10.2315 9.81497 10.2315 10C10.2315 10.185 10.305 10.3625 10.4358 10.4933C10.5667 10.6242 10.7441 10.6977 10.9291 10.6977ZM4.83891 5.40744L5.88542 6.52372C5.955 6.59815 6.04006 6.65641 6.1346 6.6944C6.22914 6.73239 6.33086 6.74918 6.4326 6.74359C6.53433 6.738 6.6336 6.71017 6.72341 6.66206C6.81322 6.61394 6.89139 6.54672 6.9524 6.46512L8.69658 4.13953C8.8076 3.99151 8.85527 3.80544 8.82911 3.62226C8.80294 3.43909 8.70508 3.27381 8.55705 3.16279C8.40902 3.05177 8.22295 3.0041 8.03978 3.03027C7.8566 3.05644 7.69132 3.1543 7.5803 3.30233L6.33472 4.96279L5.85658 4.45302C5.72927 4.32122 5.55521 4.24479 5.37201 4.24027C5.18881 4.23574 5.01118 4.30347 4.87751 4.42883C4.74385 4.5542 4.66487 4.72711 4.65764 4.91023C4.65042 5.09334 4.71553 5.27194 4.83891 5.40744ZM10.9291 5.5814H14.6501C14.8351 5.5814 15.0126 5.50789 15.1434 5.37705C15.2742 5.24621 15.3477 5.06876 15.3477 4.88372C15.3477 4.69869 15.2742 4.52123 15.1434 4.39039C15.0126 4.25955 14.8351 4.18605 14.6501 4.18605H10.9291C10.7441 4.18605 10.5667 4.25955 10.4358 4.39039C10.305 4.52123 10.2315 4.69869 10.2315 4.88372C10.2315 5.06876 10.305 5.24621 10.4358 5.37705C10.5667 5.50789 10.7441 5.5814 10.9291 5.5814Z" fill="black"/>
</svg>
