<svg width="20" height="20" viewBox="0 0 20 20" fill="none" xmlns="http://www.w3.org/2000/svg">
<g clip-path="url(#clip0_1833_23676)">
<path fill-rule="evenodd" clip-rule="evenodd" d="M3.55664 18.5914C3.55664 19.1668 6.0665 20 9.9997 20C13.9324 20 16.4428 19.1649 16.4428 18.5914C16.4428 17.7794 12.576 17.2553 10.7614 17.2249C10.5413 17.7277 10.3623 18.2136 10.2387 18.6768C10.1723 18.9144 9.82807 18.919 9.76209 18.6749C9.64075 18.221 9.45759 17.7351 9.23013 17.2262C7.42201 17.2562 3.55664 17.7803 3.55664 18.5914Z" fill="black"/>
<path fill-rule="evenodd" clip-rule="evenodd" d="M6.94506 12.2148C8.02375 13.9468 9.34558 16.0405 9.99657 17.802C10.6453 16.0091 11.909 13.9893 13.1371 12.0289C14.6241 9.65513 16.0281 7.41148 16.0281 6.02828C16.0299 2.70502 13.3244 0 9.9998 0C6.67516 0 3.96875 2.70502 3.96875 6.03013C3.96875 7.43362 5.41515 9.75571 6.9446 12.2148H6.94506ZM13.706 6.12886C13.6454 7.02664 13.2614 7.87201 12.6251 8.50828C11.9889 9.14455 11.1435 9.52857 10.2457 9.58915C10.2457 9.79354 10.2978 10.1317 9.9998 10.1317C9.70222 10.1317 9.75435 9.79308 9.75435 9.58915C8.85667 9.52828 8.01146 9.14418 7.37525 8.50796C6.73904 7.87175 6.35493 7.02654 6.29406 6.12886C6.08968 6.12886 5.75149 6.181 5.75149 5.88295C5.75149 5.58491 6.08968 5.63704 6.29406 5.63704C6.35493 4.73936 6.73904 3.89415 7.37525 3.25794C8.01146 2.62173 8.85667 2.23762 9.75435 2.17675C9.75435 1.97236 9.70222 1.63418 9.9998 1.63418C10.2978 1.63418 10.2457 1.97236 10.2457 2.17675C11.1435 2.23733 11.9889 2.62135 12.6251 3.25762C13.2614 3.89389 13.6454 4.73926 13.706 5.63704C13.9081 5.63704 14.2486 5.58491 14.2486 5.88295C14.2486 6.181 13.9104 6.12886 13.706 6.12886Z" fill="black"/>
<path fill-rule="evenodd" clip-rule="evenodd" d="M6.78711 6.12883C6.84693 6.89592 7.1788 7.61641 7.72291 8.16043C8.26701 8.70445 8.98755 9.03621 9.75465 9.09591C9.75465 8.90029 9.70436 8.56717 10.0006 8.56717C10.2958 8.56717 10.2465 8.89982 10.2465 9.09591C11.0134 9.03609 11.7338 8.70427 12.2778 8.16025C12.8217 7.61623 13.1534 6.8958 13.2131 6.12883C13.0198 6.12883 12.6848 6.17865 12.6848 5.88291C12.6848 5.58718 13.0198 5.637 13.2136 5.637C13.1536 4.87005 12.8217 4.14972 12.2777 3.60575C11.7338 3.06178 11.0134 2.72991 10.2465 2.66992C10.2465 2.86462 10.2958 3.19681 10.0006 3.19681C9.70482 3.19681 9.75465 2.86462 9.75465 2.66992C8.98763 2.72961 8.26714 3.0613 7.72305 3.60523C7.17895 4.14915 6.84703 4.86953 6.78711 5.63654C6.98319 5.63654 7.31584 5.58718 7.31584 5.88291C7.31584 6.17819 6.98042 6.12883 6.78711 6.12883Z" fill="black"/>
</g>
<defs>
<clipPath id="clip0_1833_23676">
<rect width="20" height="20" fill="white"/>
</clipPath>
</defs>
</svg>
