<svg width="21" height="21" viewBox="0 0 21 21" fill="none" xmlns="http://www.w3.org/2000/svg">
<path d="M17.2492 13.1586C16.2084 13.1586 15.1864 12.9958 14.218 12.6757C13.7435 12.5139 13.1601 12.6624 12.8705 12.9598L10.959 14.4028C8.74226 13.2195 7.37677 11.8544 6.20961 9.65429L7.61012 7.79262C7.97398 7.42924 8.10449 6.89844 7.94813 6.40039C7.62672 5.42687 7.46345 4.40541 7.46345 3.36416C7.46349 2.61196 6.85154 2 6.09938 2H2.9774C2.22524 2 1.61328 2.61196 1.61328 3.36412C1.61328 11.9859 8.62746 19 17.2492 19C18.0014 19 18.6133 18.388 18.6133 17.6359V14.5226C18.6133 13.7705 18.0013 13.1586 17.2492 13.1586Z" fill="black"/>
</svg>
