<svg width="18" height="21" viewBox="0 0 18 21" fill="none" xmlns="http://www.w3.org/2000/svg">
<g clip-path="url(#clip0_796_17757)">
<path d="M16.4677 8.19216L4.84306 0.910714C4.00204 0.384581 2.98523 0.362706 2.12302 0.852198C1.26082 1.34161 0.746094 2.23306 0.746094 3.23661V17.7332C0.746094 19.2506 1.94931 20.4917 3.42815 20.4999L3.44018 20.5C3.90232 20.4999 4.38391 20.3527 4.83372 20.0738C5.19556 19.8495 5.30993 19.3696 5.08916 19.0019C4.86839 18.6342 4.39602 18.518 4.03429 18.7424C3.8239 18.8727 3.61843 18.9402 3.43641 18.9402C2.87844 18.9371 2.28102 18.4514 2.28102 17.7332V3.23665C2.28102 2.80614 2.50183 2.42384 2.87163 2.21388C3.24148 2.00392 3.67759 2.01329 4.0379 2.23872L15.6626 9.52017C16.012 9.73876 16.2119 10.1033 16.2111 10.5202C16.2102 10.9371 16.0088 11.3008 15.6575 11.5186L7.25283 16.7479C6.89133 16.9728 6.7777 17.4529 6.99904 17.8202C7.22035 18.1875 7.69283 18.303 8.05433 18.0781L16.458 12.8495C17.2627 12.3507 17.7442 11.4812 17.7461 10.5233C17.748 9.5656 17.27 8.69403 16.4677 8.19216Z" fill="black"/>
</g>
<defs>
<clipPath id="clip0_796_17757">
<rect width="17" height="20" fill="white" transform="translate(0.746094 0.5)"/>
</clipPath>
</defs>
</svg>
