<svg width="21" height="21" viewBox="0 0 21 21" fill="none" xmlns="http://www.w3.org/2000/svg">
<g clip-path="url(#clip0_796_17621)">
<path d="M11.7461 19.4999L11.7461 11.5001L19.7462 11.5001C20.298 11.5001 20.7461 11.052 20.7461 10.4999C20.7461 9.94807 20.298 9.49999 19.7462 9.49999L11.7461 9.49999L11.7461 1.49994C11.7461 0.948077 11.298 0.5 10.7462 0.5C10.1941 0.5 9.74604 0.948077 9.74604 1.49994L9.74604 9.49999L1.74617 9.49999C1.19412 9.49999 0.746044 9.94807 0.746044 10.4999C0.746044 11.052 1.19412 11.5001 1.74617 11.5001L9.74604 11.5001L9.74604 19.4999C9.74604 20.052 10.1941 20.5 10.7462 20.5C11.298 20.5 11.7461 20.052 11.7461 19.4999Z" fill="black"/>
</g>
<defs>
<clipPath id="clip0_796_17621">
<rect width="20" height="20" fill="white" transform="translate(20.7461 0.5) rotate(90)"/>
</clipPath>
</defs>
</svg>
