<svg width="21" height="21" viewBox="0 0 21 21" fill="none" xmlns="http://www.w3.org/2000/svg">
<g clip-path="url(#clip0_796_17800)">
<path d="M1.46843 11.2539H1.71655C1.87935 13.0194 2.55222 14.6994 3.65314 16.0892C4.75406 17.4789 6.23549 18.5184 7.91687 19.081C7.96643 19.0973 8.02003 19.0966 8.06918 19.0791C8.11833 19.0615 8.16021 19.028 8.18818 18.984C8.21615 18.9399 8.22861 18.8878 8.22359 18.8358C8.21857 18.7839 8.19635 18.7351 8.16046 18.6972L7.96812 18.4941C7.76359 18.2762 7.6495 17.9888 7.64895 17.69C7.64839 17.3912 7.76142 17.1033 7.96515 16.8847L8.85046 15.9499C8.87651 15.9218 8.89535 15.8878 8.90534 15.8509C8.91534 15.8139 8.91619 15.7751 8.90782 15.7377C8.89945 15.7004 8.88212 15.6656 8.85732 15.6364C8.83252 15.6073 8.80099 15.5846 8.76546 15.5703C7.86491 15.2152 7.07362 14.6294 6.47105 13.8718C5.86847 13.1141 5.47582 12.2113 5.33249 11.2539H5.64655C5.78741 11.2542 5.92511 11.2121 6.04179 11.1332C6.15847 11.0543 6.24876 10.9422 6.30096 10.8114C6.35315 10.6805 6.36485 10.537 6.33454 10.3995C6.30422 10.2619 6.23329 10.1366 6.13093 10.0399L4.04187 8.06439C3.91199 7.93954 3.73888 7.86971 3.55873 7.86951C3.37857 7.8693 3.20531 7.93874 3.07515 8.0633L0.983428 10.0402C0.881181 10.137 0.810346 10.2622 0.780094 10.3997C0.749843 10.5372 0.761569 10.6806 0.813753 10.8114C0.865938 10.9422 0.956178 11.0543 1.07279 11.1332C1.1894 11.2121 1.32701 11.2541 1.4678 11.2539H1.46843Z" fill="black"/>
<path d="M11.0552 14.9447C10.9246 14.8921 10.7812 14.8802 10.6438 14.9105C10.5063 14.9408 10.3813 15.012 10.285 15.1147L8.30657 17.2044C8.18365 17.3355 8.11523 17.5084 8.11523 17.6881C8.11523 17.8678 8.18365 18.0408 8.30657 18.1719L10.2847 20.26C10.3814 20.3622 10.5065 20.4331 10.6439 20.4635C10.7813 20.4939 10.9246 20.4823 11.0554 20.4303C11.1862 20.3784 11.2983 20.2883 11.3773 20.1719C11.4564 20.0555 11.4987 19.9181 11.4988 19.7773V19.5034C13.2692 19.3458 14.9552 18.6751 16.3501 17.5736C17.7451 16.472 18.7883 14.9874 19.352 13.3017C19.3683 13.2522 19.3676 13.1986 19.3501 13.1495C19.3325 13.1004 19.2991 13.0586 19.255 13.0306C19.211 13.0027 19.1589 12.9902 19.107 12.9952C19.0551 13.0002 19.0064 13.0223 18.9684 13.0581L18.7364 13.2769C18.5187 13.4825 18.2304 13.597 17.9309 13.5967C17.6314 13.5965 17.3434 13.4816 17.1259 13.2756L16.2041 12.4048C16.1761 12.3789 16.1423 12.3602 16.1055 12.3502C16.0687 12.3402 16.03 12.3392 15.9928 12.3475C15.9556 12.3557 15.9209 12.3728 15.8917 12.3973C15.8626 12.4219 15.8398 12.4532 15.8253 12.4884C15.4645 13.384 14.8751 14.1693 14.1159 14.7658C13.3567 15.3624 12.4543 15.7493 11.4988 15.888V15.5977C11.4992 15.4568 11.4571 15.3191 11.3779 15.2026C11.2988 15.0861 11.1863 14.9962 11.0552 14.9447Z" fill="black"/>
<path d="M13.5225 2.50567C13.7273 2.72358 13.8415 3.01117 13.8421 3.31018C13.8427 3.60918 13.7297 3.89724 13.5258 4.11598L12.6783 5.01083C12.6523 5.03877 12.6335 5.0726 12.6235 5.1094C12.6135 5.1462 12.6126 5.18489 12.6208 5.22214C12.629 5.25939 12.6461 5.2941 12.6706 5.32329C12.6952 5.35247 12.7264 5.37527 12.7617 5.38973C13.6621 5.75229 14.451 6.34599 15.0486 7.11087C15.6461 7.87576 16.0314 8.78477 16.1653 9.74614H15.8439C15.7031 9.74587 15.5654 9.78792 15.4487 9.86683C15.332 9.94574 15.2417 10.0579 15.1895 10.1887C15.1373 10.3195 15.1256 10.463 15.1559 10.6006C15.1863 10.7382 15.2572 10.8634 15.3596 10.9602L17.45 12.9365C17.5804 13.0601 17.7533 13.129 17.933 13.129C18.1127 13.129 18.2856 13.0601 18.416 12.9365L20.5072 10.9596C20.6095 10.8628 20.6803 10.7375 20.7105 10.6C20.7408 10.4625 20.7291 10.3191 20.6769 10.1883C20.6247 10.0576 20.5345 9.94549 20.4179 9.86659C20.3012 9.7877 20.1636 9.74562 20.0228 9.74583H19.7796C19.6286 7.95555 18.9518 6.24985 17.8342 4.84312C16.7166 3.4364 15.2081 2.39143 13.4983 1.83958C13.449 1.82494 13.3962 1.82684 13.3481 1.845C13.3 1.86316 13.2591 1.89657 13.2317 1.94014C13.2044 1.98371 13.192 2.03504 13.1966 2.08628C13.2011 2.13753 13.2223 2.18588 13.2569 2.22395L13.5225 2.50567Z" fill="black"/>
<path d="M2.21129 7.9933C2.2553 8.02091 2.30723 8.03311 2.35893 8.02799C2.41063 8.02287 2.45917 8.00072 2.49691 7.96502L2.75425 7.72174C2.97233 7.51533 3.26144 7.40071 3.56171 7.40161C3.86197 7.40251 4.15039 7.51887 4.36722 7.72658L5.26925 8.57939C5.2973 8.60544 5.33127 8.62428 5.36823 8.63426C5.40518 8.64425 5.44401 8.64508 5.48136 8.6367C5.51871 8.62831 5.55346 8.61096 5.5826 8.58614C5.61175 8.56132 5.63441 8.52978 5.64863 8.49423C6.00456 7.58894 6.59382 6.79402 7.35652 6.19025C8.11921 5.58648 9.02816 5.1954 9.99097 5.05674V5.40189C9.99105 5.54256 10.0333 5.67998 10.1123 5.79637C10.1913 5.91276 10.3034 6.00278 10.4341 6.05479C10.5648 6.1068 10.7081 6.11841 10.8455 6.08812C10.9829 6.05782 11.108 5.98702 11.2047 5.88486L13.1832 3.79564C13.3058 3.66466 13.374 3.49195 13.374 3.31252C13.374 3.13309 13.3058 2.96037 13.1832 2.82939L11.205 0.739861C11.1084 0.6376 10.9832 0.566701 10.8458 0.536337C10.7084 0.505974 10.565 0.517542 10.4343 0.569545C10.3035 0.621548 10.1914 0.711594 10.1123 0.828033C10.0333 0.944472 9.99102 1.08195 9.99097 1.22267V1.44142C8.20581 1.59857 6.50652 2.27822 5.10537 3.39548C3.70422 4.51274 2.66332 6.01808 2.11269 7.72345C2.09685 7.773 2.09795 7.8264 2.1158 7.87525C2.13365 7.92411 2.16724 7.96563 2.21129 7.9933Z" fill="black"/>
</g>
<defs>
<clipPath id="clip0_796_17800">
<rect width="20" height="20" fill="white" transform="translate(0.746094 0.5)"/>
</clipPath>
</defs>
</svg>
