<svg width="20" height="20" viewBox="0 0 20 20" fill="none" xmlns="http://www.w3.org/2000/svg">
<path d="M9.87362 9.63403C11.201 9.63403 12.3504 9.1593 13.2896 8.22271C14.2288 7.28631 14.7048 6.14054 14.7048 4.81688C14.7048 3.49361 14.2288 2.34772 13.2894 1.41097C12.3501 0.474684 11.2008 0 9.87362 0C8.54606 0 7.3969 0.474684 6.45776 1.41112C5.51863 2.34756 5.04237 3.49349 5.04237 4.81688C5.04237 6.14054 5.51859 7.28647 6.45792 8.2229C7.39725 9.15919 8.54653 9.63403 9.87362 9.63403ZM18.327 15.3789C18.2998 14.9892 18.2451 14.5641 18.1644 14.1152C18.083 13.6629 17.9782 13.2354 17.8527 12.8446C17.7231 12.4407 17.5468 12.0419 17.3289 11.6596C17.1027 11.2629 16.837 10.9174 16.5389 10.6332C16.2272 10.3358 15.8455 10.0967 15.4042 9.92223C14.9644 9.74879 14.4769 9.6609 13.9556 9.6609C13.7508 9.6609 13.5528 9.74465 13.1704 9.99293C12.8985 10.1694 12.6259 10.3447 12.3524 10.5187C12.0897 10.6857 11.7337 10.8421 11.294 10.9837C10.8651 11.1221 10.4296 11.1923 9.99969 11.1923C9.56985 11.1923 9.13444 11.1221 8.70503 10.9837C8.26587 10.8422 7.90991 10.6858 7.64743 10.5189C7.34303 10.3249 7.06762 10.1479 6.82872 9.99273C6.44676 9.74449 6.24856 9.66071 6.04383 9.66071C5.52227 9.66071 5.03504 9.74875 4.59536 9.92242C4.15432 10.0965 3.77251 10.3356 3.46047 10.6333C3.16253 10.9177 2.89672 11.263 2.67083 11.6596C2.45309 12.0418 2.2768 12.4405 2.147 12.8447C2.02164 13.2355 1.91684 13.6629 1.83544 14.1152C1.75477 14.5635 1.7 14.9887 1.67289 15.3794C1.64593 15.7725 1.63256 16.1664 1.63282 16.5604C1.63282 17.6044 1.96566 18.4495 2.62202 19.0729C3.27027 19.688 4.12799 20 5.17106 20H14.8293C15.8723 20 16.7297 19.6881 17.3781 19.0729C18.0347 18.45 18.3675 17.6047 18.3675 16.5602C18.3673 16.1573 18.3538 15.7598 18.327 15.3789Z" fill="black"/>
</svg>
