<svg width="17" height="21" viewBox="0 0 17 21" fill="none" xmlns="http://www.w3.org/2000/svg">
<g clip-path="url(#clip0_796_17807)">
<path d="M16.9171 14.3458C16.8065 14.2497 16.8065 14.1535 16.6959 14.0574L11.6098 9.53849C11.1675 9.1539 10.3935 9.25005 10.0618 9.63464C9.73008 10.0192 9.73008 10.5 10.0618 10.8845L13.2683 13.6728H5.52845C3.64878 13.6728 2.21138 12.4229 2.21138 10.7884V1.84672C2.21138 1.26984 1.76911 0.885254 1.10569 0.885254C0.442276 0.885254 0 1.26984 0 1.84672V10.8845C0 13.5767 2.43252 15.6919 5.52845 15.6919H13.2683L10.0618 18.4802C9.61951 18.8648 9.61951 19.4416 10.0618 19.8262C10.2829 20.0185 10.5041 20.1147 10.8358 20.1147C11.1675 20.1147 11.3886 20.0185 11.6098 19.8262L16.6959 15.4035C16.8065 15.3073 16.9171 15.2112 16.9171 15.115C17.0276 14.8266 17.0276 14.5381 16.9171 14.3458Z" fill="black"/>
</g>
<defs>
<clipPath id="clip0_796_17807">
<rect width="17" height="20" fill="white" transform="translate(0 0.5)"/>
</clipPath>
</defs>
</svg>
