<svg width="20" height="20" viewBox="0 0 20 20" fill="none" xmlns="http://www.w3.org/2000/svg">
<path fill-rule="evenodd" clip-rule="evenodd" d="M8.89058 1.25584L11.4187 2.71545L3.22227 7.44768V10.9543C3.22227 11.0944 3.29172 11.2147 3.41309 11.2848L5.31301 12.3817C5.37367 12.4167 5.44312 12.4167 5.50383 12.3817C5.56449 12.3467 5.59922 12.2865 5.59922 12.2165V8.82002L13.7957 4.0878L16.3238 5.54741C16.5665 5.68752 16.7055 5.92815 16.7055 6.20838V10.5947C16.0191 10.3632 15.2929 10.2383 14.5675 10.194V9.89999C14.5675 9.57959 14.3846 9.29229 14.0943 9.15674C13.8041 9.02124 13.4663 9.06538 13.2207 9.27092L10.3105 11.7066C10.0691 11.9086 9.93722 12.2032 9.9473 12.5178C9.95738 12.8338 10.1068 13.1173 10.3616 13.3043L13.262 15.4321C13.384 15.5222 13.5288 15.5764 13.6799 15.5889C13.8311 15.6013 13.9828 15.5714 14.1179 15.5025C14.3953 15.3619 14.5675 15.0817 14.5675 14.7708V14.4461C15.1711 14.5181 15.7687 14.7037 16.2593 15.0589C16.3542 15.1274 16.4442 15.2025 16.5287 15.2835C16.4726 15.3493 16.4039 15.4064 16.3239 15.4526L8.89058 19.7441C8.64789 19.8842 8.37004 19.8842 8.12734 19.7441L0.694141 15.4526C0.451406 15.3124 0.3125 15.0718 0.3125 14.7915V6.20842C0.3125 5.92815 0.451406 5.68752 0.694141 5.54745L8.12738 1.25584C8.37008 1.11573 8.64789 1.11573 8.89058 1.25584ZM13.9425 13.7849C18.0241 13.7849 19.1808 17.6833 15.8282 19.4355C15.8193 19.4401 15.8126 19.4478 15.8092 19.4572C15.8059 19.4666 15.8063 19.4769 15.8104 19.486C15.8183 19.5036 15.837 19.5129 15.8557 19.5082C21.4258 18.1381 21.0364 10.8003 13.9425 10.8003V9.89999C13.9425 9.82233 13.9002 9.75588 13.8298 9.72303C13.7595 9.69018 13.6814 9.70038 13.6218 9.75022L10.7117 12.1859C10.6165 12.2656 10.568 12.3739 10.572 12.498C10.5759 12.622 10.6313 12.727 10.7313 12.8004L13.6316 14.9283C13.6925 14.9729 13.7681 14.9791 13.8354 14.945C13.9027 14.9109 13.9425 14.8462 13.9425 14.7708V13.7849Z" fill="black"/>
</svg>
