<svg width="20" height="20" viewBox="0 0 20 20" fill="none" xmlns="http://www.w3.org/2000/svg">
<g clip-path="url(#clip0_1833_23670)">
<path d="M6.33969 8.92278L4.52785 8.61532L3.68193 6.95153C3.54702 6.68611 3.12034 6.68611 2.98582 6.95153L2.1399 8.61532L0.328063 8.92278C0.257168 8.93471 0.190852 8.96631 0.136368 9.01413C0.0818843 9.06194 0.0413315 9.12414 0.0191451 9.1939C-0.00304132 9.26366 -0.00600673 9.33831 0.0105732 9.40968C0.0271532 9.48104 0.06264 9.54638 0.113152 9.59855L1.40183 10.9341L1.1281 12.788C1.11758 12.8605 1.12671 12.9345 1.1545 13.002C1.18229 13.0695 1.22767 13.128 1.28572 13.171C1.34377 13.214 1.41226 13.24 1.48376 13.2461C1.55526 13.2522 1.62702 13.2382 1.69126 13.2056L3.33368 12.3669L4.9761 13.2056C5.04033 13.2385 5.11219 13.2526 5.18379 13.2466C5.2554 13.2405 5.32398 13.2144 5.382 13.1711C5.44014 13.1281 5.48556 13.0695 5.51329 13.0019C5.54103 12.9342 5.55001 12.8601 5.53926 12.7876L5.26553 10.9337L6.55421 9.59815C6.60458 9.54592 6.63995 9.48059 6.65645 9.40926C6.67295 9.33793 6.66995 9.26335 6.64778 9.19364C6.62561 9.12394 6.58512 9.06178 6.53073 9.01394C6.47633 8.96611 6.41012 8.93444 6.3393 8.92238L6.33969 8.92278ZM6.33969 2.17032L4.52785 1.86286L3.68193 0.199067C3.54702 -0.0663556 3.12034 -0.0663556 2.98582 0.199067L2.1399 1.86286L0.328063 2.17032C0.257168 2.18225 0.190852 2.21385 0.136368 2.26167C0.0818843 2.30948 0.0413315 2.37167 0.0191451 2.44144C-0.00304132 2.5112 -0.00600673 2.58585 0.0105732 2.65722C0.0271532 2.72858 0.06264 2.79392 0.113152 2.84609L1.40183 4.18161L1.1281 6.03556C1.11772 6.10797 1.12695 6.1819 1.15478 6.24934C1.18261 6.31678 1.22798 6.37517 1.28599 6.41817C1.34399 6.46118 1.41242 6.48717 1.48385 6.49333C1.55529 6.49949 1.62701 6.48558 1.69126 6.45311L3.33368 5.61441L4.9761 6.45311C5.04033 6.486 5.11219 6.50018 5.18379 6.49411C5.2554 6.48803 5.32398 6.46194 5.382 6.41868C5.44011 6.37558 5.4855 6.31702 5.51323 6.24939C5.54096 6.18176 5.54997 6.10766 5.53926 6.03516L5.26553 4.18121L6.55421 2.84569C6.60458 2.79346 6.63995 2.72813 6.65645 2.6568C6.67295 2.58547 6.66995 2.51089 6.64778 2.44118C6.62561 2.37147 6.58512 2.30932 6.53073 2.26148C6.47633 2.21365 6.41012 2.18198 6.3393 2.16992L6.33969 2.17032ZM6.33969 15.6748L4.52785 15.3674L3.68193 13.7036C3.54702 13.4382 3.12034 13.4382 2.98582 13.7036L2.1399 15.3674L0.328063 15.6748C0.257168 15.6868 0.190852 15.7184 0.136368 15.7662C0.0818843 15.814 0.0413315 15.8762 0.0191451 15.946C-0.00304132 16.0157 -0.00600673 16.0904 0.0105732 16.1617C0.0271532 16.2331 0.06264 16.2984 0.113152 16.3506L1.40183 17.6861L1.1281 19.5401C1.11758 19.6125 1.12671 19.6865 1.1545 19.7541C1.18229 19.8216 1.22767 19.88 1.28572 19.9231C1.34377 19.9661 1.41226 19.9921 1.48376 19.9982C1.55526 20.0043 1.62702 19.9902 1.69126 19.9576L3.33368 19.1189L4.9761 19.9576C5.04033 19.9905 5.11219 20.0047 5.18379 19.9986C5.2554 19.9926 5.32398 19.9665 5.382 19.9232C5.44014 19.8801 5.48556 19.8216 5.51329 19.7539C5.54103 19.6863 5.55001 19.6122 5.53926 19.5397L5.26553 17.6857L6.55421 16.3502C6.60458 16.298 6.63995 16.2326 6.65645 16.1613C6.67295 16.09 6.66995 16.0154 6.64778 15.9457C6.62561 15.876 6.58512 15.8138 6.53073 15.766C6.47633 15.7182 6.41012 15.6865 6.3393 15.6744L6.33969 15.6748Z" fill="black"/>
<path d="M19.6608 1.18433H7.79033C7.60302 1.18433 7.45117 1.36356 7.45117 1.58466V5.18768C7.45117 5.40878 7.60302 5.58802 7.79033 5.58802H19.6608C19.8482 5.58802 20 5.40878 20 5.18768V1.58466C20 1.36356 19.8482 1.18433 19.6608 1.18433Z" fill="black"/>
<path d="M14.1181 7.98999H7.84335C7.62675 7.98999 7.45117 8.16923 7.45117 8.39033V11.9933C7.45117 12.2144 7.62675 12.3937 7.84335 12.3937H14.1181C14.3347 12.3937 14.5103 12.2144 14.5103 11.9933V8.39033C14.5103 8.16923 14.3347 7.98999 14.1181 7.98999Z" fill="black"/>
<path d="M10.5886 14.7957H7.84335C7.62675 14.7957 7.45117 14.9749 7.45117 15.196V18.799C7.45117 19.0201 7.62675 19.1993 7.84335 19.1993H10.5886C10.8052 19.1993 10.9807 19.0201 10.9807 18.799V15.196C10.9807 14.9749 10.8052 14.7957 10.5886 14.7957Z" fill="black"/>
</g>
<defs>
<clipPath id="clip0_1833_23670">
<rect width="20" height="20" fill="white"/>
</clipPath>
</defs>
</svg>
