<svg width="21" height="21" viewBox="0 0 21 21" fill="none" xmlns="http://www.w3.org/2000/svg">
<g clip-path="url(#clip0_796_17435)">
<path fill-rule="evenodd" clip-rule="evenodd" d="M9.69485 2.9348C5.79358 2.9348 2.63402 6.09336 2.63402 9.98665C2.63402 13.8799 5.79358 17.0375 9.69485 17.0375C11.6415 17.0375 13.4015 16.2528 14.6793 14.981C15.3384 14.3272 15.8613 13.5491 16.2177 12.6918C16.5741 11.8345 16.757 10.9151 16.7557 9.98665C16.7557 6.09336 13.5961 2.9348 9.69485 2.9348ZM0.199219 9.98665C0.199219 4.74568 4.45189 0.5 9.69485 0.5C14.9378 0.5 19.1905 4.74568 19.1905 9.98665C19.1933 12.0878 18.4952 14.1298 17.2069 15.7896L19.8074 18.3872C19.9279 18.4984 20.0247 18.6328 20.092 18.7823C20.1593 18.9319 20.1957 19.0934 20.199 19.2574C20.2023 19.4213 20.1725 19.5843 20.1114 19.7364C20.0502 19.8885 19.9589 20.0268 19.843 20.1428C19.7272 20.2588 19.589 20.3502 19.437 20.4116C19.2849 20.4729 19.122 20.5029 18.9581 20.4998C18.7941 20.4966 18.6325 20.4604 18.4829 20.3933C18.3333 20.3262 18.1987 20.2296 18.0874 20.1092L15.4819 17.5077C13.8232 18.7845 11.788 19.4754 9.69485 19.4723C4.45189 19.4723 0.199219 15.2266 0.199219 9.98665Z" fill="black"/>
</g>
<defs>
<clipPath id="clip0_796_17435">
<rect width="20" height="20" fill="white" transform="translate(0.199219 0.5)"/>
</clipPath>
</defs>
</svg>
