<svg width="20" height="20" viewBox="0 0 20 20" fill="none" xmlns="http://www.w3.org/2000/svg">
<path d="M19.375 7.91574V9.95949C19.3752 10.025 19.3548 10.0889 19.3166 10.1422C19.2785 10.1955 19.2246 10.2354 19.1625 10.2564L17.7531 10.7251C17.6211 11.1904 17.4366 11.6391 17.2031 12.0626L17.8688 13.3907C17.8959 13.4479 17.9051 13.512 17.8951 13.5745C17.885 13.637 17.8562 13.695 17.8125 13.7407L16.3656 15.1876C16.3192 15.2345 16.2592 15.2655 16.194 15.2762C16.1289 15.2869 16.0621 15.2766 16.0031 15.247L14.6875 14.5782C14.2679 14.8108 13.8235 14.9953 13.3625 15.1282L12.8938 16.5376C12.8728 16.5997 12.8329 16.6536 12.7796 16.6917C12.7263 16.7299 12.6624 16.7503 12.5969 16.7501H10.5406C10.4751 16.7503 10.4112 16.7299 10.3579 16.6917C10.3047 16.6536 10.2647 16.5997 10.2438 16.5376L9.77501 15.1282C9.476 15.0459 9.18352 14.9415 8.90001 14.8157L10.5188 13.197C10.8606 13.2784 11.2112 13.3172 11.5625 13.3126C12.4278 13.3126 13.2737 13.056 13.9931 12.5753C14.7126 12.0946 15.2734 11.4113 15.6045 10.6119C15.9356 9.81243 16.0223 8.93276 15.8534 8.08409C15.6846 7.23543 15.268 6.45588 14.6561 5.84402C14.0443 5.23217 13.2647 4.81549 12.416 4.64668C11.5674 4.47787 10.6877 4.56451 9.88827 4.89564C9.08885 5.22677 8.40556 5.78753 7.92483 6.50699C7.4441 7.22646 7.18751 8.07232 7.18751 8.93761C7.18678 9.29053 7.22982 9.64217 7.31564 9.98449L5.69689 11.6001C5.57116 11.3166 5.4667 11.0241 5.38439 10.7251L3.97501 10.2564C3.91294 10.2354 3.85903 10.1955 3.8209 10.1422C3.78277 10.0889 3.76234 10.025 3.76251 9.95949V7.91574C3.76234 7.85022 3.78277 7.78632 3.8209 7.73304C3.85903 7.67977 3.91294 7.63983 3.97501 7.61886L5.38439 7.15011C5.51682 6.68453 5.70242 6.23574 5.93751 5.81261L5.27189 4.48449C5.24267 4.42883 5.23092 4.36566 5.23817 4.30322C5.24542 4.24078 5.27133 4.18197 5.31251 4.13449L6.75939 2.68761C6.8058 2.64071 6.86588 2.60971 6.93099 2.59904C6.99611 2.58838 7.06294 2.5986 7.12189 2.62824L8.43751 3.31261C8.85682 3.07948 9.30136 2.89495 9.76251 2.76261L10.2313 1.35324C10.25 1.28618 10.2907 1.22731 10.3467 1.18598C10.4028 1.14465 10.471 1.12323 10.5406 1.12511H12.5844C12.6499 1.12495 12.7138 1.14537 12.7671 1.1835C12.8204 1.22163 12.8603 1.27555 12.8813 1.33761L13.35 2.74699C13.8161 2.8834 14.2649 3.0732 14.6875 3.31261L16 2.63136C16.0587 2.60133 16.1253 2.5906 16.1904 2.6007C16.2555 2.6108 16.3157 2.64122 16.3625 2.68761L17.8125 4.13449C17.8594 4.18091 17.8904 4.24098 17.9011 4.30609C17.9118 4.37121 17.9015 4.43804 17.8719 4.49699L17.2031 5.81261C17.4363 6.23192 17.6208 6.67646 17.7531 7.13761L19.1625 7.60636C19.2267 7.62796 19.2821 7.6698 19.3204 7.7256C19.3587 7.78139 19.3779 7.84811 19.375 7.91574ZM10.8406 11.9782C11.0771 12.0349 11.3194 12.0632 11.5625 12.0626C12.3913 12.0626 13.1862 11.7334 13.7722 11.1473C14.3583 10.5613 14.6875 9.76641 14.6875 8.93761C14.6887 8.53817 14.6123 8.1423 14.4625 7.77199C14.4432 7.72385 14.4122 7.68127 14.3723 7.6481C14.3325 7.61493 14.285 7.5922 14.2341 7.58197C14.1833 7.57174 14.1307 7.57433 14.0811 7.5895C14.0315 7.60466 13.9864 7.63194 13.95 7.66886L12.3875 9.21574L11.4906 8.99386L11.2688 8.09699L12.8313 6.55011C12.8682 6.51369 12.8955 6.46864 12.9106 6.41905C12.9258 6.36945 12.9284 6.31685 12.9182 6.266C12.9079 6.21516 12.8852 6.16766 12.852 6.12778C12.8189 6.08791 12.7763 6.05692 12.7281 6.03761C12.3579 5.88754 11.962 5.81111 11.5625 5.81261C10.7337 5.81261 9.93886 6.14185 9.35281 6.72791C8.76675 7.31396 8.43751 8.10881 8.43751 8.93761C8.43689 9.18073 8.46521 9.42307 8.52189 9.65949L4.45939 13.722C4.22753 13.6621 3.98945 13.6296 3.75001 13.6251C3.33963 13.6251 2.93327 13.7059 2.55413 13.863C2.17499 14.02 1.83049 14.2502 1.5403 14.5404C0.954254 15.1265 0.625014 15.9213 0.625014 16.7501C0.623828 17.1496 0.700243 17.5454 0.850014 17.9157C0.869636 17.9634 0.900732 18.0054 0.940533 18.0381C0.980333 18.0708 1.0276 18.0932 1.07814 18.1032C1.12882 18.1138 1.18134 18.1117 1.23098 18.0969C1.28061 18.0822 1.32581 18.0554 1.36251 18.0189L2.92501 16.4564L3.82189 16.6782L4.04376 17.5751L2.49689 19.1376C2.45997 19.174 2.43269 19.2191 2.41752 19.2687C2.40235 19.3183 2.39976 19.3709 2.41 19.4217C2.42023 19.4726 2.44295 19.5201 2.47613 19.5599C2.5093 19.5998 2.55188 19.6308 2.60001 19.6501C2.96545 19.7979 3.35582 19.8743 3.75001 19.8751C4.57882 19.8751 5.37367 19.5459 5.95972 18.9598C6.54577 18.3738 6.87501 17.5789 6.87501 16.7501C6.87564 16.507 6.84732 16.2647 6.79064 16.0282L10.8406 11.9782Z" fill="black"/>
</svg>
