<svg width="20" height="21" viewBox="0 0 20 21" fill="none" xmlns="http://www.w3.org/2000/svg">
<g clip-path="url(#clip0_796_17744)">
<path d="M16.1055 13.4688C14.9476 13.4688 13.9273 14.0383 13.2864 14.9045L7.7457 12.0673C7.8377 11.7538 7.90234 11.4288 7.90234 11.0859C7.90234 10.6209 7.80699 10.1787 7.64227 9.77203L13.4409 6.28266C14.0862 7.04 15.0347 7.53125 16.1055 7.53125C18.0441 7.53125 19.6211 5.95426 19.6211 4.01562C19.6211 2.07699 18.0441 0.5 16.1055 0.5C14.1668 0.5 12.5898 2.07699 12.5898 4.01562C12.5898 4.46238 12.6818 4.88617 12.8345 5.27961L7.01855 8.77922C6.37379 8.04437 5.43895 7.57031 4.38672 7.57031C2.44809 7.57031 0.871094 9.1473 0.871094 11.0859C0.871094 13.0246 2.44809 14.6016 4.38672 14.6016C5.56367 14.6016 6.60121 14.0153 7.23965 13.1248L12.7621 15.9527C12.6604 16.2811 12.5898 16.623 12.5898 16.9844C12.5898 18.923 14.1668 20.5 16.1055 20.5C18.0441 20.5 19.6211 18.923 19.6211 16.9844C19.6211 15.0457 18.0441 13.4688 16.1055 13.4688Z" fill="black"/>
</g>
<defs>
<clipPath id="clip0_796_17744">
<rect width="19" height="20" fill="white" transform="translate(0.746094 0.5)"/>
</clipPath>
</defs>
</svg>
