<svg width="20" height="20" viewBox="0 0 20 20" fill="none" xmlns="http://www.w3.org/2000/svg">
<g clip-path="url(#clip0_1300_17764)">
<path d="M9.62702 0.954623C9.75951 0.615223 10.2398 0.615224 10.3723 0.954623L12.6995 6.91659C12.7564 7.06223 12.8929 7.16141 13.0489 7.17047L19.4383 7.54146C19.802 7.56258 19.9504 8.01934 19.6685 8.25022L14.7175 12.3059C14.5966 12.405 14.5445 12.5654 14.5841 12.7167L16.2056 18.9079C16.298 19.2604 15.9094 19.5427 15.6027 19.346L10.2156 15.8906C10.084 15.8062 9.91528 15.8062 9.78368 15.8906L4.39655 19.346C4.08987 19.5427 3.70133 19.2604 3.79364 18.9079L5.41522 12.7167C5.45483 12.5654 5.40269 12.405 5.28174 12.3059L0.330733 8.25022C0.0488852 8.01934 0.197296 7.56258 0.561024 7.54146L6.95035 7.17047C7.10643 7.1614 7.24293 7.06223 7.29978 6.91659L9.62702 0.954623Z" fill="black"/>
</g>
<defs>
<clipPath id="clip0_1300_17764">
<rect width="20" height="20" fill="white"/>
</clipPath>
</defs>
</svg>
