<svg width="20" height="20" viewBox="0 0 20 20" fill="none" xmlns="http://www.w3.org/2000/svg">
<g clip-path="url(#clip0_1672_21256)">
<path d="M20 10C20 4.48618 15.5138 0 10 0C4.48618 0 0 4.48618 0 10C0 12.9124 1.25236 15.5375 3.24582 17.3665L3.23636 17.3749L3.56073 17.6484C3.58182 17.6662 3.60473 17.6807 3.62582 17.6982C3.79818 17.8411 3.97673 17.9767 4.15855 18.108C4.21745 18.1505 4.27636 18.1931 4.33636 18.2345C4.53055 18.3684 4.72982 18.4953 4.93345 18.6156C4.97782 18.6418 5.02254 18.6673 5.06727 18.6927C5.29048 18.8203 5.51852 18.9392 5.75091 19.0491L5.80254 19.0724C6.5726 19.4301 7.38544 19.6873 8.22109 19.8378L8.288 19.8498C8.55127 19.8953 8.81745 19.9316 9.08691 19.956C9.11964 19.9589 9.15236 19.9607 9.18545 19.9636C9.45382 19.9858 9.72509 20 10 20C10.2724 20 10.5411 19.9858 10.808 19.9644L10.9095 19.9567C11.1747 19.9324 11.4389 19.8976 11.7015 19.8524L11.7695 19.84C12.5926 19.6925 13.3937 19.4414 14.1538 19.0927C14.1815 19.08 14.2095 19.068 14.2371 19.0549C14.5163 18.9234 14.7893 18.7792 15.0553 18.6225C15.251 18.5079 15.4427 18.3866 15.6302 18.2589C15.6975 18.2131 15.7633 18.1647 15.8298 18.1167C15.9895 18.0018 16.1462 17.8833 16.2985 17.7593C16.3324 17.732 16.3687 17.7084 16.4018 17.6804L16.7345 17.4025L16.7247 17.3942C18.7356 15.5644 20 12.9273 20 10ZM0.727273 10C0.727273 4.88691 4.88691 0.727273 10 0.727273C15.1131 0.727273 19.2727 4.88691 19.2727 10C19.2727 12.7553 18.0636 15.2324 16.1495 16.932C16.0459 16.8595 15.9374 16.7942 15.8247 16.7367L12.7458 15.1975C12.6109 15.1305 12.4974 15.0272 12.4183 14.8991C12.3391 14.771 12.2974 14.6233 12.2978 14.4727V13.3975C12.3691 13.3095 12.4444 13.2098 12.5222 13.1004C12.9258 12.5275 13.246 11.9003 13.4735 11.2375C13.7004 11.1307 13.8922 10.9615 14.0265 10.7497C14.1608 10.5379 14.2319 10.2922 14.2316 10.0415V8.75236C14.2316 8.43709 14.116 8.13127 13.9091 7.89091V6.19382C13.928 6.00473 13.9949 4.94 13.2244 4.06145C12.5542 3.29636 11.4695 2.90909 10 2.90909C8.53054 2.90909 7.44582 3.29636 6.77564 4.06109C6.00509 4.93964 6.072 6.00509 6.09091 6.19345V7.89054C5.88398 8.12997 5.76956 8.43554 5.76836 8.752V10.0411C5.76836 10.4415 5.948 10.8149 6.25564 11.0669C6.55018 12.2207 7.15636 13.0942 7.38036 13.3902V14.4425C7.38039 14.5882 7.34116 14.7312 7.26681 14.8565C7.19245 14.9818 7.08571 15.0848 6.95782 15.1545L4.08254 16.7229C3.98792 16.7749 3.8966 16.8327 3.80909 16.896C1.91855 15.1971 0.727273 12.7353 0.727273 10Z" fill="black"/>
</g>
<defs>
<clipPath id="clip0_1672_21256">
<rect width="20" height="20" fill="white"/>
</clipPath>
</defs>
</svg>
