<svg width="21" height="21" viewBox="0 0 21 21" fill="none" xmlns="http://www.w3.org/2000/svg">
<g clip-path="url(#clip0_796_17834)">
<path d="M19.8293 5.7702C19.9667 5.34271 19.8293 5.02808 19.1685 5.02808H16.9816C16.4247 5.02808 16.1685 5.29825 16.0311 5.5992C16.0311 5.5992 14.9173 8.09917 13.3431 9.72021C12.8344 10.1887 12.6005 10.3392 12.3221 10.3392C12.1847 10.3392 11.9731 10.1887 11.9731 9.76125V5.7702C11.9731 5.25721 11.8171 5.02808 11.3567 5.02808H7.91867C7.56967 5.02808 7.36175 5.26747 7.36175 5.48977C7.36175 5.97539 8.14887 6.08825 8.23055 7.45622V10.4247C8.23055 11.0745 8.10431 11.1942 7.82585 11.1942C7.08329 11.1942 5.27887 8.68397 4.20959 5.81124C3.99424 5.25379 3.78261 5.02808 3.22198 5.02808H1.03514C0.411391 5.02808 0.285156 5.29825 0.285156 5.5992C0.285156 6.13271 1.02772 8.78315 3.74177 12.2851C5.54991 14.6757 8.09689 15.9718 10.4137 15.9718C11.806 15.9718 11.9768 15.6846 11.9768 15.1887C11.9768 12.9042 11.8505 12.6887 12.5485 12.6887C12.8716 12.6887 13.4285 12.8392 14.728 13.9917C16.2131 15.3597 16.4581 15.9718 17.2898 15.9718H19.4766C20.1004 15.9718 20.416 15.6846 20.234 15.1168C19.8182 13.9233 17.0076 11.4678 16.8814 11.3036C16.5584 10.9206 16.6512 10.7496 16.8814 10.4076C16.8851 10.4042 19.5546 6.94323 19.8293 5.7702Z" fill="black"/>
</g>
<defs>
<clipPath id="clip0_796_17834">
<rect width="20" height="20" fill="white" transform="translate(0.285156 0.5)"/>
</clipPath>
</defs>
</svg>
