<svg width="21" height="21" viewBox="0 0 21 21" fill="none" xmlns="http://www.w3.org/2000/svg">
<g clip-path="url(#clip0_796_17731)">
<path d="M10.7461 0.5C8.76828 0.5 6.83489 1.08649 5.19039 2.1853C3.5459 3.28412 2.26418 4.8459 1.5073 6.67316C0.750427 8.50042 0.552393 10.5111 0.938245 12.4509C1.3241 14.3907 2.2765 16.1725 3.67503 17.5711C5.07355 18.9696 6.85538 19.922 8.79519 20.3078C10.735 20.6937 12.7457 20.4957 14.5729 19.7388C16.4002 18.9819 17.962 17.7002 19.0608 16.0557C20.1596 14.4112 20.7461 12.4778 20.7461 10.5C20.7452 7.8481 19.6914 5.30508 17.8162 3.42991C15.941 1.55474 13.398 0.500884 10.7461 0.5ZM10.7461 16.5C10.4824 16.5 10.2246 16.4218 10.0053 16.2753C9.78607 16.1288 9.61517 15.9205 9.51426 15.6769C9.41334 15.4333 9.38694 15.1652 9.43838 14.9065C9.48983 14.6479 9.61682 14.4103 9.80329 14.2239C9.98976 14.0374 10.2273 13.9104 10.486 13.8589C10.7446 13.8075 11.0127 13.8339 11.2563 13.9348C11.5 14.0357 11.7082 14.2066 11.8547 14.4259C12.0012 14.6452 12.0794 14.903 12.0794 15.1667C12.0784 15.52 11.9376 15.8585 11.6877 16.1083C11.4379 16.3581 11.0994 16.4989 10.7461 16.5ZM12.2728 6.16L11.8261 11.5067C11.8028 11.7771 11.6789 12.0289 11.479 12.2123C11.279 12.3958 11.0175 12.4976 10.7461 12.4976C10.4747 12.4976 10.2132 12.3958 10.0132 12.2123C9.81326 12.0289 9.68939 11.7771 9.6661 11.5067L9.21943 6.16C9.20017 5.9529 9.22324 5.74405 9.28724 5.54615C9.35125 5.34826 9.45484 5.16545 9.59173 5.00885C9.72861 4.85226 9.89593 4.72515 10.0835 4.63526C10.2711 4.54537 10.4749 4.49457 10.6828 4.48597C10.8906 4.47737 11.098 4.51114 11.2923 4.58522C11.4867 4.6593 11.6639 4.77215 11.8133 4.91689C11.9626 5.06164 12.081 5.23526 12.1611 5.42719C12.2413 5.61912 12.2815 5.82535 12.2794 6.03333C12.2805 6.07566 12.2783 6.11802 12.2728 6.16Z" fill="black"/>
</g>
<defs>
<clipPath id="clip0_796_17731">
<rect width="20" height="20" fill="white" transform="translate(0.746094 0.5)"/>
</clipPath>
</defs>
</svg>
