<svg width="20" height="20" viewBox="0 0 20 20" fill="none" xmlns="http://www.w3.org/2000/svg">
<path d="M18.4177 8.68238C18.2565 8.43413 18.1216 8.16979 18.0152 7.89363C17.9346 7.59428 17.8847 7.28748 17.8664 6.97801C17.8583 6.3377 17.6773 5.71148 17.3427 5.16551C16.9238 4.67614 16.3805 4.30904 15.7702 4.10301C15.4842 3.99193 15.2104 3.8516 14.9533 3.68426C14.7183 3.49192 14.5038 3.27576 14.3133 3.03926C13.9274 2.51667 13.4059 2.10968 12.8052 1.86238C12.1885 1.71545 11.5437 1.73704 10.9383 1.92488C10.6315 2.00472 10.3174 2.05289 10.0008 2.06863C9.68419 2.05293 9.37004 2.00476 9.06328 1.92488C8.45775 1.73762 7.8131 1.71604 7.19641 1.86238C6.59597 2.11012 6.07452 2.51703 5.68828 3.03926C5.49732 3.27365 5.28287 3.4879 5.04828 3.67863C4.79141 3.84589 4.51786 3.98602 4.23203 4.09676C3.62135 4.30241 3.07774 4.66956 2.65891 5.15926C2.32461 5.70538 2.14368 6.3315 2.13516 6.97176C2.1171 7.28146 2.06725 7.58849 1.98641 7.88801C1.88031 8.16611 1.74541 8.43235 1.58391 8.68238C1.20306 9.21508 0.975444 9.84194 0.925781 10.4949C0.974883 11.1489 1.20252 11.7769 1.58391 12.3105C1.74506 12.5588 1.87995 12.8231 1.98641 13.0993C2.06731 13.3985 2.11715 13.7054 2.13516 14.0149C2.14331 14.6552 2.32427 15.2814 2.65891 15.8274C3.07778 16.3168 3.62109 16.6839 4.23141 16.8899C4.51739 17.001 4.79114 17.1413 5.04828 17.3086C5.28314 17.5 5.49761 17.7151 5.68828 17.9505C6.07421 18.4732 6.59573 18.8804 7.19641 19.128C7.81301 19.2752 8.4579 19.2537 9.06328 19.0655C9.37005 18.9857 9.68419 18.9375 10.0008 18.9218C10.3174 18.9375 10.6315 18.9856 10.9383 19.0655C11.3211 19.1635 11.7134 19.2199 12.1083 19.2336C12.3446 19.236 12.5798 19.2009 12.8052 19.1299C13.4059 18.8815 13.9274 18.4737 14.3133 17.9505C14.5041 17.7161 14.7183 17.5019 14.9527 17.3111C15.2095 17.1439 15.4831 17.0037 15.7689 16.893C16.3796 16.6874 16.9232 16.3202 17.342 15.8305C17.6763 15.2844 17.8573 14.6583 17.8658 14.018C17.8841 13.7083 17.934 13.4013 18.0145 13.1018C18.121 12.8256 18.2559 12.5613 18.417 12.313C18.7991 11.7788 19.0269 11.1498 19.0758 10.4949C19.0261 9.84194 18.7985 9.21508 18.4177 8.68238ZM13.532 9.09738L9.15703 12.8474C9.04346 12.9433 8.89943 12.9956 8.75078 12.9949H8.69828C8.61569 12.9879 8.53531 12.9646 8.46181 12.9263C8.38831 12.888 8.32316 12.8355 8.27016 12.7718L6.39516 10.5218C6.28907 10.3943 6.23797 10.2299 6.25309 10.0647C6.26821 9.8996 6.34831 9.74722 6.47578 9.64113C6.60325 9.53505 6.76764 9.48394 6.93279 9.49906C7.09794 9.51418 7.25032 9.59429 7.35641 9.72176L8.82516 11.4849L12.7195 8.14738C12.7813 8.09034 12.8539 8.04634 12.933 8.01801C13.0122 7.98968 13.0962 7.9776 13.1801 7.98251C13.264 7.98741 13.3461 8.00919 13.4214 8.04655C13.4967 8.0839 13.5637 8.13606 13.6184 8.1999C13.6731 8.26375 13.7143 8.33797 13.7396 8.41812C13.7649 8.49827 13.7738 8.58271 13.7658 8.66638C13.7577 8.75005 13.7329 8.83124 13.6927 8.90508C13.6525 8.97892 13.5979 9.0439 13.532 9.09613V9.09738Z" fill="black"/>
</svg>
