<svg width="21" height="21" viewBox="0 0 21 21" fill="none" xmlns="http://www.w3.org/2000/svg">
<path fill-rule="evenodd" clip-rule="evenodd" d="M12.809 11.5522C12.4683 11.6914 12.2507 12.2248 12.0299 12.4972C11.9167 12.6368 11.7817 12.6586 11.6077 12.5886C10.3291 12.0792 9.34893 11.226 8.64334 10.0493C8.52381 9.86684 8.54525 9.7227 8.68939 9.55324C8.90244 9.30223 9.17033 9.01711 9.22799 8.67891C9.35596 7.93078 8.37791 5.61012 7.08627 6.66164C3.36955 9.69035 13.2864 17.7232 15.0762 13.3786C15.5825 12.1471 13.3736 11.3209 12.809 11.5522ZM10.6603 17.9278C9.34576 17.9278 8.05236 17.5784 6.91998 16.9167C6.73822 16.8102 6.5185 16.7821 6.31529 16.8373L3.85471 17.5126L4.71182 15.6244C4.76914 15.4983 4.79212 15.3593 4.77841 15.2215C4.76471 15.0837 4.7148 14.952 4.63377 14.8397C3.7169 13.5688 3.23209 12.0683 3.23209 10.5C3.23209 6.40395 6.5642 3.07184 10.6603 3.07184C14.7563 3.07184 18.0881 6.40395 18.0881 10.5C18.0881 14.5957 14.756 17.9278 10.6603 17.9278ZM10.6603 1.5C5.6976 1.5 1.66025 5.53734 1.66025 10.5C1.66025 12.2459 2.15596 13.9225 3.09779 15.3776L1.73057 18.3887C1.66879 18.5247 1.64702 18.6755 1.66781 18.8234C1.68861 18.9714 1.7511 19.1103 1.84799 19.224C1.92188 19.3105 2.01363 19.38 2.11692 19.4276C2.22021 19.4752 2.3326 19.4999 2.44635 19.5C2.9533 19.5 5.71764 18.6313 6.42111 18.4383C7.72154 19.134 9.18017 19.5 10.6603 19.5C15.6226 19.5 19.6603 15.4623 19.6603 10.5C19.6603 5.53734 15.6226 1.5 10.6603 1.5Z" fill="black"/>
</svg>
