<svg width="345" height="160" viewBox="0 0 345 160" fill="none" xmlns="http://www.w3.org/2000/svg">
<path d="M191.873 153.87L289.101 109.675L236.066 56.6425L191.873 153.87Z" fill="#FE255F"/>
<path d="M217.5 40C220.261 40 222.5 37.7614 222.5 35C222.5 32.2386 220.261 30 217.5 30C214.739 30 212.5 32.2386 212.5 35C212.5 37.7614 214.739 40 217.5 40Z" fill="#73E1FF"/>
<path d="M267.5 22.5C270.261 22.5 272.5 20.2614 272.5 17.5C272.5 14.7386 270.261 12.5 267.5 12.5C264.739 12.5 262.5 14.7386 262.5 17.5C262.5 20.2614 264.739 22.5 267.5 22.5Z" fill="#FFE059"/>
<path d="M302.5 40C305.261 40 307.5 37.7614 307.5 35C307.5 32.2386 305.261 30 302.5 30C299.739 30 297.5 32.2386 297.5 35C297.5 37.7614 299.739 40 302.5 40Z" fill="#E585CC"/>
<path d="M335 97.5C337.761 97.5 340 95.2614 340 92.5C340 89.7386 337.761 87.5 335 87.5C332.239 87.5 330 89.7386 330 92.5C330 95.2614 332.239 97.5 335 97.5Z" fill="#29E088"/>
<path d="M307.5 122.5C310.261 122.5 312.5 120.261 312.5 117.5C312.5 114.739 310.261 112.5 307.5 112.5C304.739 112.5 302.5 114.739 302.5 117.5C302.5 120.261 304.739 122.5 307.5 122.5Z" fill="#FE255F"/>
<path d="M204.633 125.795L191.883 153.87L210.308 145.5C208.509 138.905 206.617 132.336 204.633 125.795ZM276.078 97.135C277.578 102.61 279.028 108.1 280.505 113.58L289.1 109.675L275.88 96.4575L276.078 97.135ZM260.328 96.465C258.293 89.1225 255.525 81.465 253.185 73.76L236.065 56.6425L235.158 58.6425C241.628 80.8942 248.044 103.163 254.408 125.45L266.658 119.878C264.558 112.07 262.485 104.25 260.328 96.465ZM225.62 79.625L213.83 105.562C217.628 116.662 220.993 127.9 224.13 139.205L240.59 131.725C235.61 114.355 230.62 96.9883 225.62 79.625Z" fill="#29E088"/>
<path d="M332.102 4.4375L332.665 13.51L340.207 17.9175L332.037 21.5725L330.08 30.525L324.47 23.71L315.715 24.835L320.417 16.97L316.965 8.7125L325.482 10.665L332.102 4.4375Z" fill="#FE255F"/>
<path d="M301.526 59.37L309.946 62.8L317.188 57.915L316.938 66.8625L324.153 72.51L315.581 74.6075L312.796 82.985L307.748 75.335L298.811 74.865L304.266 68.0375L301.526 59.37Z" fill="#FFE059"/>
<path d="M260.621 81.1975C241.916 105.98 217.331 127.81 195.093 147.5C194.916 147.657 194.731 147.81 194.551 147.97L191.873 153.87L289.101 109.675L260.621 81.1975Z" fill="#C40047"/>
<path d="M195.093 147.5C194.916 147.658 194.731 147.81 194.551 147.97L191.873 153.87L210.308 145.5C209.461 142.42 208.598 139.345 207.718 136.275C203.522 140.031 199.314 143.772 195.093 147.5ZM276.078 97.135C277.578 102.61 279.028 108.1 280.506 113.58L289.101 109.675L275.881 96.4575L276.078 97.135ZM257.058 85.8325C253.682 90.0678 250.181 94.2013 246.558 98.2275C249.165 107.303 251.778 116.376 254.398 125.448L266.648 119.875C264.548 112.07 262.476 104.255 260.318 96.465C259.363 92.9825 258.228 89.4275 257.058 85.8325ZM220.028 125C221.441 129.72 222.809 134.454 224.131 139.203L240.591 131.723L234.591 110.875C229.834 115.683 224.979 120.392 220.028 125Z" fill="#0BA855"/>
<path d="M247.599 58.2175C247.126 58.2176 246.663 58.0837 246.263 57.8313C245.864 57.5789 245.544 57.2184 245.341 56.7916C245.138 56.3647 245.06 55.8891 245.116 55.4197C245.172 54.9504 245.36 54.5067 245.659 54.14C246.249 53.415 259.909 36.225 245.829 22.14C245.36 21.6712 245.096 21.0353 245.096 20.3721C245.095 19.7089 245.359 19.0728 245.827 18.6037C246.296 18.1346 246.932 17.871 247.595 17.8707C248.259 17.8705 248.895 18.1337 249.364 18.6025C266.674 35.9125 249.704 57.1025 249.531 57.31C249.296 57.5945 249.001 57.8235 248.667 57.9804C248.333 58.1373 247.968 58.2183 247.599 58.2175Z" fill="#E585CC"/>
<path d="M288.25 98.8775C287.729 98.8773 287.222 98.7145 286.798 98.4118C286.374 98.1091 286.056 97.6816 285.887 97.189C285.718 96.6965 285.707 96.1634 285.855 95.6643C286.004 95.1652 286.304 94.7249 286.715 94.405C287.433 93.8425 304.483 80.7925 314.765 91.075C315.221 91.5465 315.473 92.178 315.467 92.8335C315.461 93.489 315.198 94.116 314.735 94.5795C314.271 95.043 313.644 95.306 312.989 95.3117C312.333 95.3174 311.702 95.0654 311.23 94.61C304.038 87.415 289.925 98.2425 289.783 98.36C289.343 98.6975 288.804 98.8796 288.25 98.8775ZM261.75 72.3625C261.265 72.3625 260.79 72.2213 260.384 71.9561C259.977 71.6909 259.657 71.3131 259.461 70.8688C259.266 70.4246 259.204 69.9331 259.284 69.4543C259.363 68.9755 259.58 68.5301 259.908 68.1725C260.278 67.765 296.94 27.2675 277.658 7.98999C277.419 7.75938 277.229 7.48351 277.097 7.1785C276.966 6.87349 276.898 6.54544 276.895 6.2135C276.892 5.88155 276.955 5.55235 277.081 5.24511C277.206 4.93787 277.392 4.65874 277.627 4.42401C277.861 4.18927 278.141 4.00364 278.448 3.87794C278.755 3.75224 279.084 3.68898 279.416 3.69187C279.748 3.69475 280.076 3.76372 280.381 3.89474C280.686 4.02576 280.962 4.21622 281.193 4.45499C303.838 27.1 265.245 69.7475 263.59 71.5525C263.356 71.8075 263.072 72.0112 262.755 72.1506C262.439 72.29 262.096 72.3622 261.75 72.3625Z" fill="#FE255F"/>
<path d="M268.809 79.4325C268.324 79.4326 267.849 79.2914 267.442 79.0261C267.036 78.7609 266.715 78.3831 266.52 77.9388C266.325 77.4946 266.263 77.0031 266.342 76.5243C266.421 76.0455 266.638 75.6001 266.966 75.2425C268.109 73.9925 295.119 44.765 314.179 44.35C316.241 44.2553 318.301 44.5883 320.228 45.3278C322.156 46.0674 323.909 47.1976 325.379 48.6475C325.611 48.8796 325.795 49.1552 325.921 49.4585C326.047 49.7619 326.112 50.087 326.112 50.4154C326.112 50.7437 326.047 51.0689 325.922 51.3723C325.796 51.6758 325.612 51.9515 325.38 52.1838C325.148 52.416 324.872 52.6003 324.569 52.7261C324.266 52.8519 323.941 52.9166 323.612 52.9168C323.284 52.9169 322.959 52.8523 322.655 52.7268C322.352 52.6012 322.076 52.4171 321.844 52.185C320.859 51.2022 319.675 50.4409 318.372 49.952C317.07 49.4631 315.677 49.2579 314.289 49.35C297.341 49.7175 270.919 78.3325 270.654 78.6225C270.419 78.8781 270.134 79.0822 269.817 79.2216C269.499 79.3611 269.156 79.4329 268.809 79.4325Z" fill="#73E1FF"/>
<path d="M153.127 153.87L55.8994 109.675L108.934 56.6425L153.127 153.87Z" fill="#FE255F"/>
<path d="M127.5 40C124.739 40 122.5 37.7614 122.5 35C122.5 32.2386 124.739 30 127.5 30C130.261 30 132.5 32.2386 132.5 35C132.5 37.7614 130.261 40 127.5 40Z" fill="#73E1FF"/>
<path d="M77.5 22.5C74.7386 22.5 72.5 20.2614 72.5 17.5C72.5 14.7386 74.7386 12.5 77.5 12.5C80.2614 12.5 82.5 14.7386 82.5 17.5C82.5 20.2614 80.2614 22.5 77.5 22.5Z" fill="#FFE059"/>
<path d="M42.5 40C39.7386 40 37.5 37.7614 37.5 35C37.5 32.2386 39.7386 30 42.5 30C45.2614 30 47.5 32.2386 47.5 35C47.5 37.7614 45.2614 40 42.5 40Z" fill="#E585CC"/>
<path d="M10 97.5C7.23858 97.5 5 95.2614 5 92.5C5 89.7386 7.23858 87.5 10 87.5C12.7614 87.5 15 89.7386 15 92.5C15 95.2614 12.7614 97.5 10 97.5Z" fill="#29E088"/>
<path d="M37.5 122.5C34.7386 122.5 32.5 120.261 32.5 117.5C32.5 114.739 34.7386 112.5 37.5 112.5C40.2614 112.5 42.5 114.739 42.5 117.5C42.5 120.261 40.2614 122.5 37.5 122.5Z" fill="#FE255F"/>
<path d="M140.367 125.795L153.117 153.87L134.692 145.5C136.491 138.905 138.383 132.336 140.367 125.795ZM68.9222 97.135C67.4222 102.61 65.9722 108.1 64.4947 113.58L55.8997 109.675L69.1197 96.4575L68.9222 97.135ZM84.6722 96.465C86.7072 89.1225 89.4747 81.465 91.8147 73.76L108.935 56.6425L109.842 58.6425C103.372 80.8942 96.9555 103.163 90.5922 125.45L78.3422 119.878C80.4422 112.07 82.5147 104.25 84.6722 96.465ZM119.38 79.625L131.17 105.562C127.372 116.662 124.007 127.9 120.87 139.205L104.41 131.725C109.39 114.355 114.38 96.9883 119.38 79.625Z" fill="#29E088"/>
<path d="M12.8977 4.4375L12.3352 13.51L4.79266 17.9175L12.9627 21.5725L14.9202 30.525L20.5302 23.71L29.2852 24.835L24.5827 16.97L28.0352 8.7125L19.5177 10.665L12.8977 4.4375Z" fill="#FE255F"/>
<path d="M43.4744 59.37L35.0544 62.8L27.812 57.915L28.0619 66.8625L20.847 72.51L29.4195 74.6075L32.2045 82.985L37.252 75.335L46.1895 74.865L40.7344 68.0375L43.4744 59.37Z" fill="#FFE059"/>
<path d="M84.3794 81.1975C103.084 105.98 127.669 127.81 149.907 147.5C150.084 147.657 150.269 147.81 150.449 147.97L153.127 153.87L55.8994 109.675L84.3794 81.1975Z" fill="#C40047"/>
<path d="M149.907 147.5C150.084 147.658 150.269 147.81 150.449 147.97L153.127 153.87L134.692 145.5C135.539 142.42 136.402 139.345 137.282 136.275C141.478 140.031 145.686 143.772 149.907 147.5ZM68.9219 97.135C67.4219 102.61 65.9719 108.1 64.4944 113.58L55.8994 109.675L69.1194 96.4575L68.9219 97.135ZM87.9419 85.8325C91.3177 90.0678 94.8193 94.2013 98.4419 98.2275C95.8353 107.303 93.2219 116.376 90.6019 125.448L78.3519 119.875C80.4519 112.07 82.5244 104.255 84.6819 96.465C85.6369 92.9825 86.7719 89.4275 87.9419 85.8325ZM124.972 125C123.559 129.72 122.191 134.454 120.869 139.203L104.409 131.723L110.409 110.875C115.166 115.683 120.021 120.392 124.972 125Z" fill="#0BA855"/>
<path d="M97.4013 58.2175C97.874 58.2176 98.337 58.0837 98.7367 57.8313C99.1363 57.5789 99.4563 57.2184 99.6593 56.7916C99.8624 56.3647 99.9403 55.8891 99.884 55.4197C99.8277 54.9504 99.6396 54.5067 99.3413 54.14C98.7513 53.415 85.0913 36.225 99.1713 22.14C99.6404 21.6712 99.9041 21.0353 99.9043 20.3721C99.9045 19.7089 99.6413 19.0728 99.1725 18.6037C98.7038 18.1346 98.0678 17.871 97.4047 17.8707C96.7415 17.8705 96.1054 18.1337 95.6363 18.6025C78.3263 35.9125 95.2963 57.1025 95.4688 57.31C95.7039 57.5945 95.9992 57.8235 96.3333 57.9804C96.6674 58.1373 97.0322 58.2183 97.4013 58.2175Z" fill="#E585CC"/>
<path d="M56.7498 98.8775C57.2705 98.8773 57.7782 98.7145 58.2019 98.4118C58.6257 98.1091 58.9443 97.6816 59.1134 97.189C59.2824 96.6965 59.2934 96.1634 59.1449 95.6643C58.9963 95.1652 58.6956 94.7249 58.2847 94.405C57.5672 93.8425 40.5172 80.7925 30.2347 91.075C29.7794 91.5465 29.5274 92.178 29.5331 92.8335C29.5388 93.489 29.8017 94.116 30.2652 94.5795C30.7287 95.043 31.3558 95.306 32.0112 95.3117C32.6667 95.3174 33.2982 95.0654 33.7697 94.61C40.9622 87.415 55.0748 98.2425 55.2173 98.36C55.6566 98.6975 56.1957 98.8796 56.7498 98.8775ZM83.2497 72.3625C83.7351 72.3625 84.2099 72.2213 84.6163 71.9561C85.0227 71.6909 85.3432 71.3131 85.5385 70.8688C85.7339 70.4246 85.7957 69.9331 85.7164 69.4543C85.6372 68.9755 85.4203 68.5301 85.0923 68.1725C84.7223 67.765 48.0597 27.2675 67.3423 7.98999C67.581 7.75938 67.7715 7.48351 67.9025 7.1785C68.0335 6.87349 68.1025 6.54544 68.1054 6.2135C68.1083 5.88155 68.045 5.55235 67.9193 5.24511C67.7936 4.93787 67.608 4.65874 67.3732 4.42401C67.1385 4.18927 66.8594 4.00364 66.5521 3.87794C66.2449 3.75224 65.9157 3.68898 65.5838 3.69187C65.2518 3.69475 64.9237 3.76372 64.6187 3.89474C64.3137 4.02576 64.0379 4.21622 63.8072 4.45499C41.1622 27.1 79.7547 69.7475 81.4097 71.5525C81.6437 71.8075 81.928 72.0112 82.2447 72.1506C82.5615 72.29 82.9037 72.3622 83.2497 72.3625Z" fill="#FE255F"/>
<path d="M76.1912 79.4325C76.6765 79.4326 77.1513 79.2914 77.5577 79.0261C77.9641 78.7609 78.2846 78.3831 78.4799 77.9388C78.6753 77.4946 78.7371 77.0031 78.6579 76.5243C78.5786 76.0455 78.3617 75.6001 78.0337 75.2425C76.8912 73.9925 49.8812 44.765 30.8211 44.35C28.7589 44.2553 26.6993 44.5883 24.7719 45.3278C22.8444 46.0674 21.0908 47.1976 19.6211 48.6475C19.3889 48.8796 19.2046 49.1552 19.0788 49.4585C18.9531 49.7619 18.8883 50.087 18.8881 50.4154C18.888 50.7437 18.9526 51.0689 19.0781 51.3723C19.2037 51.6758 19.3878 51.9515 19.6199 52.1838C19.852 52.416 20.1276 52.6003 20.4309 52.7261C20.7343 52.8519 21.0594 52.9166 21.3878 52.9168C21.7161 52.9169 22.0413 52.8523 22.3447 52.7268C22.6482 52.6012 22.9239 52.4171 23.1562 52.185C24.1413 51.2022 25.3248 50.4409 26.6276 49.952C27.9305 49.4631 29.3227 49.2579 30.7112 49.35C47.6587 49.7175 74.0812 78.3325 74.3462 78.6225C74.5807 78.8781 74.8658 79.0822 75.1834 79.2216C75.5011 79.3611 75.8443 79.4329 76.1912 79.4325Z" fill="#73E1FF"/>
</svg>
