<svg width="30" height="30" viewBox="0 0 30 30" fill="none" xmlns="http://www.w3.org/2000/svg">
<path d="M15 28.1536C12.3984 28.1536 9.85527 27.3822 7.69214 25.9368C5.52901 24.4914 3.84305 22.4371 2.84747 20.0335C1.85189 17.63 1.5914 14.9852 2.09894 12.4336C2.60648 9.88201 3.85926 7.53822 5.69885 5.69863C6.91938 4.47302 8.36965 3.50018 9.96664 2.83577C11.5636 2.17137 13.276 1.82846 15.0056 1.82667C16.7353 1.82488 18.4484 2.16424 20.0467 2.82533C21.6451 3.48642 23.0974 4.45626 24.3205 5.67933C25.5435 6.9024 26.5134 8.35468 27.1745 9.95304C27.8355 11.5514 28.1749 13.2645 28.1731 14.9941C28.1713 16.7238 27.8284 18.4362 27.164 20.0331C26.4996 21.6301 25.5268 23.0804 24.3012 24.3009C23.0826 25.5262 21.6331 26.4977 20.0365 27.159C18.44 27.8203 16.7281 28.1584 15 28.1536Z" fill="#B0EF8F"/>
<path d="M12.375 22.3719L5.625 15.623L8.3689 12.8792L12.3744 16.8847L21.6311 7.62793L24.375 10.3718L12.375 22.3719Z" fill="#009045"/>
</svg>
