<svg width="258" height="110" viewBox="0 0 258 110" fill="none" xmlns="http://www.w3.org/2000/svg">
<circle cx="55" cy="55" r="55" fill="#D9D9D9"/>
<path d="M147.15 43.8C150.483 40.5333 154.767 38.9 160 38.9C165.233 38.9 169.5 40.5333 172.8 43.8C176.133 47.0667 177.8 51.25 177.8 56.35C177.8 61.45 176.133 65.6333 172.8 68.9C169.5 72.1333 165.233 73.75 160 73.75C154.767 73.75 150.483 72.1333 147.15 68.9C143.85 65.6333 142.2 61.45 142.2 56.35C142.2 51.25 143.85 47.0667 147.15 43.8ZM152 64.65C154.067 66.7833 156.733 67.85 160 67.85C163.267 67.85 165.933 66.7833 168 64.65C170.067 62.4833 171.1 59.7167 171.1 56.35C171.1 52.9833 170.05 50.2167 167.95 48.05C165.883 45.8833 163.233 44.8 160 44.8C156.767 44.8 154.1 45.8833 152 48.05C149.933 50.2167 148.9 52.9833 148.9 56.35C148.9 59.7167 149.933 62.4833 152 64.65ZM182.09 73L188.29 39.65H192.99L201.84 60.85L211.09 39.65H215.79L221.39 73H214.79L211.79 52.45L202.84 73H200.64L192.09 52.45L188.69 73H182.09ZM249.996 73L247.046 66H233.596L230.646 73H223.596L237.946 39.65H243.046L256.996 73H249.996ZM235.646 60.7H245.146L240.396 48.7L235.646 60.7Z" fill="white"/>
</svg>
