<svg width="30" height="30" viewBox="0 0 30 30" fill="none" xmlns="http://www.w3.org/2000/svg">
<g clip-path="url(#clip0_719_15929)">
<path d="M15 30C23.2845 30 30 23.2845 30 15C30 6.7155 23.2845 0 15 0C6.7155 0 0 6.7155 0 15C0 23.2845 6.7155 30 15 30Z" fill="#141413"/>
<path fill-rule="evenodd" clip-rule="evenodd" d="M12.4941 10.334H17.8446V19.9505H12.4941V10.334Z" fill="#FF5F00"/>
<path fill-rule="evenodd" clip-rule="evenodd" d="M12.8343 15.1426C12.8333 14.2164 13.043 13.3021 13.4477 12.4689C13.8523 11.6357 14.4412 10.9055 15.1698 10.3336C14.2676 9.62458 13.1841 9.18366 12.0432 9.06126C10.9023 8.93886 9.74998 9.13992 8.71793 9.64145C7.68587 10.143 6.81574 10.9248 6.20698 11.8974C5.59822 12.8701 5.27539 13.9944 5.27539 15.1419C5.27539 16.2893 5.59822 17.4136 6.20698 18.3863C6.81574 19.359 7.68587 20.1408 8.71793 20.6423C9.74998 21.1438 10.9023 21.3449 12.0432 21.2225C13.1841 21.1001 14.2676 20.6592 15.1698 19.9501C14.4414 19.3784 13.8526 18.6484 13.448 17.8155C13.0434 16.9826 12.8335 16.0686 12.8343 15.1426Z" fill="#EB001B"/>
<path fill-rule="evenodd" clip-rule="evenodd" d="M25.0647 15.1429C25.0646 16.2904 24.7417 17.4146 24.1328 18.3873C23.524 19.3599 22.6538 20.1416 21.6217 20.643C20.5896 21.1445 19.4373 21.3455 18.2964 21.223C17.1555 21.1005 16.072 20.6595 15.1699 19.9504C15.898 19.3782 16.4867 18.648 16.8914 17.8151C17.2962 16.9822 17.5065 16.0682 17.5065 15.1421C17.5065 14.2161 17.2962 13.3021 16.8914 12.4692C16.4867 11.6363 15.898 10.9061 15.1699 10.3339C16.072 9.62479 17.1555 9.18379 18.2964 9.06131C19.4373 8.93883 20.5896 9.1398 21.6217 9.64125C22.6538 10.1427 23.524 10.9244 24.1328 11.897C24.7417 12.8696 25.0646 13.9939 25.0647 15.1414V15.1429Z" fill="#F79E1B"/>
</g>
<defs>
<clipPath id="clip0_719_15929">
<rect width="30" height="30" fill="white"/>
</clipPath>
</defs>
</svg>
