<svg width="30" height="30" viewBox="0 0 30 30" fill="none" xmlns="http://www.w3.org/2000/svg">
<g clip-path="url(#clip0_719_15905)">
<mask id="mask0_719_15905" style="mask-type:luminance" maskUnits="userSpaceOnUse" x="0" y="0" width="30" height="30">
<path d="M30 0.366211H0V29.6345H30V0.366211Z" fill="white"/>
</mask>
<g mask="url(#mask0_719_15905)">
<path d="M15 0.366211C23.2845 0.366211 30 6.91841 30 14.9979V15.0028C30 23.0837 23.286 29.6345 15 29.6345C6.7155 29.6345 0 23.0843 0 15.0004C0 6.91792 6.714 0.366211 15 0.366211Z" fill="#006FCF"/>
<path d="M22.5111 14.5615H24.0724V11.0225H22.3734V11.5152L22.052 11.0225H20.5826V11.6496L20.307 11.0225H17.9193C17.8275 11.0225 17.6897 11.0225 17.5979 11.0225C17.506 11.0225 17.4142 11.0672 17.3224 11.0672C17.2305 11.0672 17.1846 11.112 17.0928 11.1568C17.001 11.2017 16.9551 11.2017 16.8632 11.2464V11.1568V11.0225H9.10302L8.87337 11.6048L8.64379 11.0225H6.80707V11.6496L6.53157 11.0225H5.06218L4.41932 12.5456L3.54688 14.5615H5.47544L5.65911 14.0687H6.02646L6.21014 14.5615H14.2917V14.1136L14.6132 14.5615H16.8632V14.4719V14.2928C16.9091 14.3375 17.001 14.3375 17.0469 14.3823C17.0928 14.4271 17.1846 14.4271 17.2305 14.4719C17.3224 14.5167 17.4142 14.5167 17.506 14.5167C17.5979 14.5167 17.7357 14.5167 17.8275 14.5167H19.1591L19.3428 14.0239H19.7101L19.8938 14.5167H22.1438V14.0687L22.5111 14.5615ZM25.4958 18.4476C25.5987 18.1911 25.5975 17.8447 25.5477 17.6239C25.5144 17.4767 25.39 17.2954 25.1744 17.08L25.7714 15.7262H12.4091L12.0877 16.1743L11.7663 15.7262H8.09277V19.2654H11.7663L12.0877 18.8173L12.4091 19.2654H14.7051V18.5038H14.6132C14.9346 18.5038 15.2101 18.4589 15.4397 18.3694V19.3101H17.0928V18.8622L17.4142 19.3101H24.256C24.5698 19.3101 24.8262 19.1612 25.0073 19.0592C25.1884 18.9572 25.3929 18.704 25.4958 18.4476Z" fill="white"/>
<path d="M24.2547 18.1899H23.0149V18.6826H24.2088C24.7139 18.6826 25.0353 18.369 25.0353 17.921C25.0353 17.4731 24.7598 17.249 24.3006 17.249H23.7496C23.6119 17.249 23.52 17.1595 23.52 17.0251C23.52 16.8906 23.6119 16.8011 23.7496 16.8011H24.8057L25.0353 16.3083H23.7955C23.2904 16.3083 22.969 16.6219 22.969 17.0251C22.969 17.4731 23.2445 17.6971 23.7037 17.6971H24.2547C24.3925 17.6971 24.4843 17.7866 24.4843 17.921C24.5302 18.1002 24.4384 18.1899 24.2547 18.1899ZM22.0047 18.1899H20.7649V18.6826H21.9588C22.4639 18.6826 22.7853 18.369 22.7853 17.921C22.7853 17.4731 22.5098 17.249 22.0506 17.249H21.4996C21.3619 17.249 21.27 17.1595 21.27 17.0251C21.27 16.8906 21.3619 16.8011 21.4996 16.8011H22.5557L22.7853 16.3083H21.5455C21.0404 16.3083 20.719 16.6219 20.719 17.0251C20.719 17.4731 20.9945 17.6971 21.4537 17.6971H22.0047C22.1425 17.6971 22.2343 17.7866 22.2343 17.921C22.2802 18.1002 22.1425 18.1899 22.0047 18.1899ZM20.3975 16.7563V16.2635H18.469V18.6378H20.3975V18.145H19.02V17.6523H20.3516V17.1595H19.02V16.7114H20.3975V16.7563ZM17.2751 16.7563C17.5047 16.7563 17.5965 16.8906 17.5965 17.0251C17.5965 17.1595 17.5047 17.2939 17.2751 17.2939H16.5863V16.7114L17.2751 16.7563ZM16.5863 17.7866H16.8619L17.5965 18.6378H18.2853L17.4588 17.7418C17.8721 17.6523 18.1016 17.3834 18.1016 17.0251C18.1016 16.5771 17.7802 16.2635 17.2751 16.2635H15.9894V18.6378H16.5404L16.5863 17.7866ZM15.1169 17.0698C15.1169 17.249 15.0251 17.3834 14.7955 17.3834H14.0609V16.7563H14.7496C14.9792 16.7563 15.1169 16.8906 15.1169 17.0698ZM13.5098 16.2635V18.6378H14.0609V17.8315H14.7955C15.3006 17.8315 15.668 17.5179 15.668 17.0251C15.668 16.5771 15.3465 16.2187 14.8415 16.2187L13.5098 16.2635ZM12.6833 18.6378H13.3721L12.4078 17.4282L13.3721 16.2635H12.6833L12.0863 17.0251L11.4894 16.2635H10.8006L11.7649 17.4282L10.8006 18.593H11.4894L12.0863 17.8315L12.6833 18.6378ZM10.6169 16.7563V16.2635H8.68839V18.6378H10.6169V18.145H9.23941V17.6523H10.571V17.1595H9.23941V16.7114H10.6169V16.7563ZM21.7751 12.5452L22.7394 13.9787H23.4282V11.6045H22.8772V13.1724L22.7394 12.9484L21.8669 11.6045H21.1322V13.9787H21.6833V12.3661L21.7751 12.5452ZM19.3874 12.5004L19.571 12.0077L19.7547 12.5004L19.9843 13.038H19.1578L19.3874 12.5004ZM20.3516 13.9787H20.9486L19.8925 11.6045H19.1578L18.1016 13.9787H18.6986L18.9282 13.486H20.1221L20.3516 13.9787ZM17.7802 13.9787L18.0098 13.486H17.8721C17.4588 13.486 17.2292 13.2172 17.2292 12.814V12.7692C17.2292 12.3661 17.4588 12.0972 17.8721 12.0972H18.469V11.6045H17.8262C17.0915 11.6045 16.6782 12.0972 16.6782 12.7692V12.814C16.6782 13.5308 17.0915 13.9787 17.7802 13.9787ZM15.7139 13.9787H16.2649V12.9036V11.6493H15.7139V12.8588V13.9787ZM14.52 12.0972C14.7496 12.0972 14.8415 12.2316 14.8415 12.3661C14.8415 12.5004 14.7496 12.6348 14.52 12.6348H13.8312V12.0524L14.52 12.0972ZM13.8312 13.1276H14.1068L14.8415 13.9787H15.5302L14.7037 13.0828C15.1169 12.9932 15.3465 12.7244 15.3465 12.3661C15.3465 11.918 15.0251 11.6045 14.52 11.6045H13.2343V13.9787H13.7853L13.8312 13.1276ZM12.821 12.0972V11.6045H10.8925V13.9787H12.821V13.486H11.4435V12.9932H12.7751V12.5004H11.4435V12.0524H12.821V12.0972ZM8.64249 13.9787H9.14754L9.83634 12.0524V13.9787H10.3874V11.6045H9.46899L8.91796 13.2172L8.36694 11.6045H7.44858V13.9787H7.99959V12.0524L8.64249 13.9787ZM5.65776 12.5004L5.84144 12.0077L6.02511 12.5004L6.2547 13.038H5.42817L5.65776 12.5004ZM6.62205 13.9787H7.21899L6.16287 11.6045H5.4741L4.41797 13.9787H5.01491L5.2445 13.486H6.43838L6.62205 13.9787Z" fill="#006FCF"/>
</g>
</g>
<defs>
<clipPath id="clip0_719_15905">
<rect width="30" height="30" fill="white"/>
</clipPath>
</defs>
</svg>
