<svg width="30" height="30" viewBox="0 0 30 30" fill="none" xmlns="http://www.w3.org/2000/svg">
<g clip-path="url(#clip0_719_15920)">
<path d="M30 15C30 6.71573 23.2843 0 15 0C6.71573 0 0 6.71573 0 15C0 23.2843 6.71573 30 15 30C23.2843 30 30 23.2843 30 15Z" fill="white"/>
<path d="M7.69988 7.5H13.6899C14.5269 7.5 15.0469 8.181 14.8519 9.02003L12.0619 20.983C11.8659 21.818 11.0289 22.5 10.1919 22.5H4.20191C3.36691 22.5 2.84591 21.818 3.04091 20.983L5.8299 9.02003C6.02591 8.181 6.8629 7.5 7.70093 7.5H7.69988Z" fill="#E21836"/>
<path d="M13.1919 7.5H20.0809C20.9169 7.5 20.5399 8.181 20.3429 9.02003L17.5549 20.983C17.3589 21.818 17.4199 22.5 16.5819 22.5H9.69297C8.85597 22.5 8.33697 21.818 8.53392 20.983L11.3219 9.02003C11.5199 8.181 12.3549 7.5 13.1919 7.5Z" fill="#00447C"/>
<path d="M19.8068 7.5H25.7967C26.6348 7.5 27.1547 8.181 26.9577 9.02003L24.1697 20.982C23.9727 21.817 23.1347 22.499 22.2977 22.499H16.3108C15.4727 22.499 14.9528 21.817 15.1487 20.982L17.9398 9.02003C18.1318 8.181 18.9688 7.5 19.8068 7.5Z" fill="#007B84"/>
<path d="M9.26423 11.3345C8.64825 11.3405 8.46728 11.3345 8.40825 11.3205L7.97025 13.3445C7.88025 13.7325 7.81628 14.0085 7.59428 14.1864C7.47023 14.2893 7.31331 14.3439 7.15226 14.3405C6.87926 14.3405 6.72026 14.2055 6.69326 13.9485L6.68826 13.8595L6.77126 13.3375C6.77126 13.3375 7.20826 11.5915 7.28626 11.3605C7.28895 11.352 7.29096 11.3433 7.29226 11.3345C6.44226 11.3425 6.29226 11.3345 6.28227 11.3205C6.27243 11.3626 6.26342 11.405 6.25527 11.4475L5.81026 13.4155L5.77227 13.5825L5.69727 14.1285C5.69727 14.2905 5.72926 14.4225 5.79327 14.5344C5.99626 14.8884 6.57526 14.9415 6.90226 14.9415C7.32426 14.9415 7.72028 14.8515 7.98728 14.6885C8.45228 14.4144 8.57325 13.9865 8.68125 13.6055L8.73128 13.4105C8.73128 13.4105 9.18128 11.5965 9.25725 11.3605C9.2589 11.3515 9.2616 11.3428 9.26528 11.3345H9.26423ZM10.7942 12.7975C10.6265 12.8005 10.4612 12.8391 10.3093 12.9105C10.2452 12.9435 10.1843 12.9825 10.1192 13.0205L10.1783 12.8105L10.1462 12.7755C9.76928 12.8515 9.68423 12.8615 9.33623 12.9105L9.30623 12.9305C9.26625 13.2655 9.23025 13.5175 9.08025 14.1755C9.02325 14.4195 8.96528 14.6625 8.90528 14.9055L8.92125 14.9364C9.17925 14.9205 9.43823 14.9165 9.69623 14.9235L9.72128 14.8955C9.76125 14.6934 9.76628 14.6465 9.85328 14.2385C9.89423 14.0445 9.98025 13.6185 10.0223 13.4675C10.0921 13.428 10.1694 13.4035 10.2493 13.3955C10.4233 13.3955 10.4023 13.5475 10.3952 13.6075C10.3613 13.8485 10.3153 14.0874 10.2593 14.3244L10.2163 14.5085C10.1863 14.6435 10.1522 14.7755 10.1222 14.9094L10.1353 14.9364C10.3883 14.9205 10.6423 14.9165 10.8953 14.9235L10.9303 14.8955C10.9853 14.5805 11.0003 14.4954 11.0972 14.0375L11.1452 13.8275C11.2403 13.4145 11.2873 13.2045 11.2153 13.0345C11.1403 12.8445 10.9603 12.7975 10.7942 12.7975ZM12.5023 13.2295C12.3152 13.2655 12.1952 13.2895 12.0773 13.3045C11.9399 13.3264 11.8022 13.3468 11.6642 13.3655L11.6503 13.3785L11.6372 13.3885C11.6173 13.5235 11.6053 13.6395 11.5802 13.7765C11.5514 13.9554 11.5157 14.1333 11.4733 14.3094C11.4523 14.4114 11.4233 14.5115 11.3873 14.6094C11.3653 14.6715 11.3393 14.7324 11.2933 14.9055L11.3042 14.9214L11.3143 14.9364C11.4823 14.9285 11.5933 14.9235 11.7062 14.9214C11.8202 14.9175 11.9372 14.9214 12.1193 14.9235L12.1352 14.9105L12.1523 14.8955C12.1783 14.7395 12.1823 14.6964 12.1982 14.6205C12.2143 14.5385 12.2423 14.4245 12.3092 14.1215L12.4093 13.6915L12.5143 13.2625L12.5093 13.2455L12.5023 13.2295ZM12.5063 12.6475C12.3362 12.5475 12.0383 12.5785 11.8363 12.7175C11.6363 12.8525 11.6143 13.0455 11.7833 13.1475C11.9503 13.2445 12.2503 13.2155 12.4493 13.0755C12.6493 12.9375 12.6733 12.7455 12.5063 12.6475ZM13.5343 14.9675C13.8773 14.9675 14.2303 14.8734 14.4953 14.5925C14.6993 14.3645 14.7932 14.0255 14.8253 13.8855C14.9312 13.4235 14.8493 13.2075 14.7452 13.0755C14.5892 12.8755 14.3123 12.8105 14.0243 12.8105C13.8512 12.8105 13.4393 12.8275 13.1183 13.1235C12.8873 13.3375 12.7802 13.6275 12.7163 13.9055C12.6512 14.1894 12.5762 14.6994 13.0463 14.8884C13.1903 14.9514 13.3993 14.9685 13.5343 14.9685V14.9675ZM13.5073 13.9275C13.5863 13.5765 13.6802 13.2825 13.9193 13.2825C14.1062 13.2825 14.1193 13.5015 14.0363 13.8525C14.0213 13.9305 13.9532 14.2215 13.8602 14.3445C13.7963 14.4354 13.7203 14.4915 13.6352 14.4915C13.6103 14.4915 13.4612 14.4915 13.4582 14.2695C13.4582 14.1594 13.4792 14.0484 13.5073 13.9265V13.9275ZM15.6852 14.9235L15.7122 14.8955C15.7502 14.6945 15.7562 14.6465 15.8412 14.2385C15.8832 14.0445 15.9702 13.6185 16.0112 13.4675C16.0892 13.4315 16.1642 13.3955 16.2392 13.3955C16.4123 13.3955 16.3913 13.5475 16.3842 13.6075C16.3782 13.7095 16.3142 14.0405 16.2482 14.3244L16.2083 14.5085C16.1762 14.6435 16.1423 14.7755 16.1112 14.9094L16.1252 14.9364C16.4783 14.9175 16.5812 14.9175 16.8833 14.9235L16.9202 14.8955C16.9733 14.5805 16.9872 14.4954 17.0862 14.0375L17.1342 13.8275C17.2283 13.4145 17.2763 13.2045 17.2062 13.0345C17.1293 12.8445 16.9463 12.7975 16.7832 12.7975C16.5414 12.8012 16.3065 12.879 16.1102 13.0205L16.1642 12.8105L16.1342 12.7755C15.7583 12.8515 15.6722 12.8615 15.3242 12.9105L15.2972 12.9305C15.2552 13.2655 15.2213 13.5175 15.0713 14.1755C15.0143 14.4185 14.9543 14.6634 14.8952 14.9055L14.9113 14.9364C15.2683 14.9175 15.3752 14.9175 15.6852 14.9235ZM18.2792 14.9364L18.4343 14.1864C18.4343 14.1864 18.5462 13.7165 18.5543 13.6995C18.5543 13.6995 18.5882 13.6495 18.6242 13.6305H18.6762C19.1663 13.6305 19.7202 13.6305 20.1542 13.3115C20.4566 13.0812 20.6652 12.7489 20.7413 12.3765C20.7653 12.2805 20.7822 12.1665 20.7822 12.0515C20.7822 11.9015 20.7522 11.7515 20.6652 11.6365C20.4432 11.3265 20.0022 11.3205 19.4942 11.3185L19.2432 11.3205C18.5912 11.3285 18.3302 11.3265 18.2232 11.3135L18.1973 11.4455L17.9633 12.5275L17.3792 14.9325C17.9483 14.9255 18.1812 14.9255 18.2792 14.9364ZM18.7112 13.0165L18.9582 11.9435L18.9662 11.8875L18.9702 11.8455L19.0692 11.8555L19.5923 11.9015C19.7942 11.9795 19.8773 12.1805 19.8192 12.4425C19.7956 12.5573 19.7465 12.6653 19.6758 12.7587C19.6051 12.8522 19.5143 12.9286 19.4102 12.9825C19.2452 13.0645 19.0442 13.0725 18.8352 13.0725H18.7013L18.7112 13.0175V13.0165ZM20.2562 13.9464C20.1902 14.2265 20.1152 14.7365 20.5823 14.9175C20.7137 14.9754 20.8568 15.0014 21.0002 14.9934C21.1496 14.9775 21.2897 14.9133 21.3992 14.8104L21.3653 14.9375L21.3872 14.9655C21.7232 14.9514 21.8273 14.9514 22.1912 14.9535L22.2242 14.9285C22.2773 14.6165 22.3272 14.3135 22.4652 13.7165C22.5323 13.4305 22.6002 13.1465 22.6692 12.8615L22.6583 12.8305C22.2822 12.9005 22.1822 12.9145 21.8202 12.9665L21.7932 12.9885L21.7823 13.0735C21.7214 12.9733 21.6283 12.8968 21.5183 12.8565C21.3582 12.7935 20.9802 12.8745 20.6552 13.1705C20.4272 13.3805 20.3183 13.6705 20.2553 13.9464H20.2562ZM21.0452 13.9635C21.1253 13.6195 21.2183 13.3285 21.4572 13.3285C21.6092 13.3285 21.6893 13.4685 21.6722 13.7065L21.6293 13.8995C21.6053 14.0015 21.5792 14.1024 21.5543 14.2044C21.5327 14.2675 21.5027 14.3274 21.4652 14.3825C21.4043 14.4705 21.2573 14.5245 21.1733 14.5245C21.1493 14.5245 21.0012 14.5245 20.9963 14.3064C20.9952 14.1984 21.0173 14.0865 21.0452 13.9635ZM25.1672 12.8275L25.1372 12.7945C24.8794 12.8505 24.6191 12.8949 24.3572 12.9275L24.3323 12.9525L24.3282 12.9695L24.3272 12.9635C24.0722 13.5495 24.0803 13.4235 23.8733 13.8845L23.8703 13.8285L23.8193 12.8285L23.7863 12.7945C23.3963 12.8695 23.3873 12.8815 23.0282 12.9275L23.0003 12.9525C22.9962 12.9645 22.9962 12.9785 22.9932 12.9925L22.9962 12.9975C23.0412 13.2275 23.0303 13.1755 23.0753 13.5375C23.0952 13.7165 23.1242 13.8945 23.1452 14.0705C23.1803 14.3645 23.2002 14.5095 23.2442 14.9574C23.0012 15.3585 22.9442 15.5105 22.7093 15.8615L22.7112 15.8655L22.5462 16.1255C22.5272 16.1525 22.5102 16.1715 22.4862 16.1795C22.4519 16.1928 22.415 16.1982 22.3782 16.1955H22.2882L22.1513 16.6455L22.6172 16.6535C22.8902 16.6535 23.0622 16.5245 23.1542 16.3535L23.4473 15.8525H23.4422L23.4722 15.8175C23.6702 15.3935 25.1672 12.8275 25.1672 12.8275ZM20.2562 18.7475H20.0582L20.7882 16.3335H21.0312L21.1082 16.0845L21.1163 16.3614C21.1062 16.5315 21.2412 16.6835 21.5952 16.6584H22.0043L22.1442 16.1934H21.9912C21.9023 16.1934 21.8612 16.1715 21.8663 16.1235L21.8592 15.8424H21.1002V15.8435C20.8562 15.8484 20.1242 15.8675 19.9763 15.9065C19.8449 15.9476 19.7207 16.009 19.6082 16.0884L19.6832 15.8385H18.9743L18.8273 16.3335L18.0872 18.7845H17.9432L17.8022 19.2465H19.2122L19.1652 19.4004H19.8612L19.9073 19.2465H20.1023L20.2553 18.7485L20.2562 18.7475ZM19.6763 16.8245C19.5632 16.8555 19.3523 16.9505 19.3523 16.9505L19.5402 16.3335H20.1032L19.9673 16.7835C19.9673 16.7835 19.7933 16.7934 19.6772 16.8234L19.6763 16.8245ZM19.6883 17.7054C19.6883 17.7054 19.5113 17.7275 19.3943 17.7545C19.2803 17.7885 19.0643 17.8985 19.0643 17.8985L19.2593 17.2565H19.8252L19.6883 17.7065V17.7054ZM19.3722 18.7535H18.8072L18.9713 18.2115H19.5342L19.3722 18.7535ZM20.7323 17.2565H21.5462L21.4292 17.6345H20.6042L20.4803 18.0485H21.2022L20.6552 18.8165C20.6297 18.8587 20.5911 18.8913 20.5452 18.9095C20.5003 18.935 20.4499 18.9494 20.3982 18.9515H20.1983L20.0612 19.4045H20.5842C20.693 19.408 20.8009 19.3836 20.8976 19.3335C20.9942 19.2834 21.0764 19.2094 21.1362 19.1184L21.5102 18.6065L21.5903 19.1265C21.5972 19.1646 21.6131 19.2006 21.6368 19.2315C21.6605 19.2622 21.6911 19.2869 21.7262 19.3035C21.7782 19.3295 21.8322 19.3734 21.9092 19.3815C21.9912 19.3845 22.0493 19.3875 22.0892 19.3875H22.3472L22.5012 18.8805H22.4003C22.3412 18.8805 22.2413 18.8705 22.2242 18.8525C22.2072 18.8304 22.2072 18.7955 22.1982 18.7434L22.1162 18.2235H21.7823L21.9282 18.0485H22.7513L22.8782 17.6345H22.1162L22.2353 17.2565H22.9952L23.1353 16.7895H20.8703L20.7323 17.2565ZM13.8583 18.8595L14.0483 18.2274H14.8283L14.9713 17.7575H14.1902L14.3102 17.3694H15.0732L15.2143 16.9145H13.3043L13.1653 17.3694H13.5992L13.4833 17.7585H13.0483L12.9043 18.2355H13.3382L13.0853 19.0715C13.0502 19.1814 13.1012 19.2234 13.1323 19.2755C13.1653 19.3254 13.1983 19.3584 13.2722 19.3775C13.3376 19.3944 13.4048 19.4035 13.4723 19.4045H14.3522L14.5093 18.8844L14.1193 18.9375C14.0443 18.9375 13.8353 18.9285 13.8593 18.8595H13.8583ZM13.9483 15.8364L13.7503 16.1934C13.724 16.2516 13.6846 16.303 13.6352 16.3434C13.5791 16.3656 13.5185 16.3746 13.4582 16.3695H13.3553L13.2173 16.8264H13.5602C13.7252 16.8264 13.8512 16.7664 13.9123 16.7364C13.9772 16.7015 13.9943 16.7205 14.0443 16.6725L14.1602 16.5725H15.2303L15.3722 16.0965H14.5892L14.7253 15.8364H13.9483ZM15.5282 18.8685C15.5102 18.8424 15.5232 18.7955 15.5513 18.6995L15.8432 17.7315H16.8842C17.0363 17.7294 17.1452 17.7275 17.2172 17.7225C17.3053 17.7111 17.3902 17.6825 17.4672 17.6385C17.5418 17.5998 17.6048 17.5418 17.6492 17.4705C17.6942 17.4084 17.7672 17.2734 17.8292 17.0634L18.1973 15.8394L17.1173 15.8454C17.1173 15.8454 16.7843 15.8955 16.6373 15.9485C16.5095 16.0119 16.3892 16.089 16.2782 16.1784L16.3763 15.8424H15.7092L14.7752 18.9375C14.7413 19.0575 14.7193 19.1454 14.7152 19.1975C14.7133 19.2545 14.7853 19.3095 14.8333 19.3524C14.8892 19.3944 14.9713 19.3875 15.0512 19.3944C15.1343 19.4004 15.2522 19.4045 15.4163 19.4045H15.9293L16.0862 18.8735L15.6272 18.9165C15.6081 18.917 15.5891 18.9129 15.5719 18.9046C15.5546 18.8962 15.5396 18.8838 15.5282 18.8685ZM16.0322 17.0784H17.1263L17.0562 17.2965C17.0462 17.3015 17.0232 17.2854 16.9122 17.2985H15.9653L16.0322 17.0784ZM16.2522 16.3485H17.3543L17.2742 16.6104C17.2742 16.6104 16.7543 16.6055 16.6722 16.6205C16.4596 16.6545 16.2596 16.7439 16.0922 16.8795L16.2522 16.3485ZM17.0813 18.0245C17.0753 18.0517 17.0596 18.0758 17.0372 18.0924C17.0153 18.1065 16.9793 18.1115 16.9253 18.1115H16.7702L16.7792 17.8464H16.1312L16.1052 19.1424C16.1042 19.2354 16.1132 19.2905 16.1813 19.3325C16.2503 19.3875 16.4612 19.3944 16.7453 19.3944H17.1512L17.2973 18.9095L16.9442 18.9294L16.8263 18.9354C16.8102 18.9285 16.7952 18.9225 16.7783 18.9054C16.7633 18.8904 16.7382 18.8994 16.7423 18.8055L16.7442 18.4734L17.1152 18.4584C17.1806 18.4629 17.2461 18.4539 17.3079 18.4321C17.3696 18.4102 17.4263 18.376 17.4743 18.3315C17.5442 18.2715 17.5662 18.2034 17.5932 18.1115L17.6552 17.8175H17.1452L17.0813 18.0245Z" fill="#FEFEFE"/>
</g>
<defs>
<clipPath id="clip0_719_15920">
<rect width="30" height="30" fill="white"/>
</clipPath>
</defs>
</svg>
