<svg width="30" height="30" viewBox="0 0 30 30" fill="none" xmlns="http://www.w3.org/2000/svg">
<g clip-path="url(#clip0_719_15934)">
<path d="M15 30C23.2843 30 30 23.2843 30 15C30 6.71573 23.2843 0 15 0C6.71573 0 0 6.71573 0 15C0 23.2843 6.71573 30 15 30Z" fill="#1434CB"/>
<path d="M12.2927 11.3776L9.3471 18.3671H7.42523L5.97563 12.7892C5.88762 12.4457 5.81109 12.3198 5.54344 12.1751C5.10656 11.9392 4.38492 11.7182 3.75 11.5808L3.79312 11.3777H6.88675C7.2811 11.3777 7.6356 11.6388 7.72515 12.0904L8.49067 16.1348L10.3828 11.3776H12.2927ZM19.8231 16.085C19.8308 14.2403 17.2581 14.1387 17.2758 13.3146C17.2813 13.0638 17.5214 12.7972 18.047 12.7292C18.3075 12.6952 19.0252 12.6693 19.8394 13.0419L20.1587 11.5598C19.7212 11.402 19.1584 11.25 18.4581 11.25C16.661 11.25 15.3963 12.2 15.3857 13.5604C15.374 14.5666 16.2884 15.1281 16.9771 15.4625C17.6858 15.8048 17.9236 16.0249 17.9209 16.3311C17.9159 16.8 17.3557 17.0069 16.8323 17.0151C15.9184 17.0291 15.3881 16.7692 14.9654 16.5738L14.6359 18.105C15.0607 18.2988 15.8448 18.4679 16.6577 18.4764C18.5677 18.4763 19.8172 17.5381 19.8231 16.085ZM24.5685 18.3671H26.25L24.7822 11.3776H23.2302C22.8812 11.3776 22.5868 11.5797 22.4565 11.8903L19.7281 18.3671H21.6373L22.0164 17.323H24.349L24.5685 18.3671ZM22.5398 15.8905L23.4968 13.2662L24.0476 15.8905H22.5398ZM14.8906 11.3776L13.3871 18.3671H11.5691L13.0731 11.3776H14.8906Z" fill="white"/>
</g>
<defs>
<clipPath id="clip0_719_15934">
<rect width="30" height="30" fill="white"/>
</clipPath>
</defs>
</svg>
