<svg width="30" height="30" viewBox="0 0 30 30" fill="none" xmlns="http://www.w3.org/2000/svg">
<g clip-path="url(#clip0_719_15902)">
<path d="M15 30C23.2843 30 30 23.2843 30 15C30 6.71573 23.2843 0 15 0C6.71573 0 0 6.71573 0 15C0 23.2843 6.71573 30 15 30Z" fill="#FF8C00"/>
<path d="M24.6918 25.1688C22.9675 23.0163 21.4923 22.4245 20.128 22.0623C19.936 22.0098 19.7485 21.9618 19.5565 21.919L19.4845 21.8995C18.3363 21.6183 17.26 21.3415 16.1605 20.2195L16.117 20.1715C15.8193 19.861 15.5163 19.4845 15.214 19.0263L14.9688 18.64C14.7378 18.2583 14.7528 19.2033 14.8435 20.3433L14.848 20.4003L14.6268 20.4048C13.0848 20.4048 11.797 19.861 10.6825 18.7443C9.57255 17.6275 9.0303 16.2963 9.0303 14.6785C9.0303 13.0563 9.5538 11.7198 10.6345 10.594C11.7108 9.4728 13.0128 8.9283 14.6215 8.9283C16.1928 8.9283 17.4993 9.47205 18.6183 10.594C19.7328 11.7108 20.2758 13.0608 20.2758 14.7123C20.2758 14.9223 20.266 15.1323 20.2473 15.3325L20.1895 15.328C19.2333 15.2658 18.4023 15.28 18.3445 15.3378C18.205 15.4758 18.5898 15.457 18.7623 15.505C19.0413 15.5815 19.3053 15.6723 19.5453 15.7818C19.7328 15.8673 19.9105 15.958 20.0785 16.063L20.131 16.096C21.1443 16.7448 21.721 17.752 21.9085 19.0735C21.9183 19.126 21.9468 19.1973 22.0045 19.102C22.5378 18.1998 22.8213 17.4985 22.975 17.0073L22.9795 17.0118L23.0515 16.7305L23.119 16.4298C23.2345 15.8568 23.2923 15.2658 23.2923 14.6643C23.2923 13.099 22.903 11.629 22.1343 10.2933C21.3655 8.95755 20.299 7.8933 18.9543 7.1388C17.6185 6.38505 16.1343 5.99805 14.5488 5.99805C13.0308 5.99805 11.5945 6.3843 10.273 7.15305C8.9568 7.91655 7.90005 8.9853 7.14105 10.3315C6.38205 11.6725 5.99805 13.147 5.99805 14.7078C5.99805 16.273 6.38205 17.7378 7.14105 19.0645C7.90005 20.3958 8.96655 21.4555 10.3113 22.2093C11.647 22.963 13.1118 23.35 14.6635 23.35C14.995 23.35 15.3168 23.3313 15.6385 23.2975L15.8838 23.2788L16.4365 23.2308C17.3448 23.1498 18.214 23.0635 19.093 23.1018C20.7408 23.1738 22.408 23.6748 24.3918 25.4403C24.598 25.6075 24.8673 25.3878 24.6895 25.168L24.6918 25.1688ZM19.0278 19.657C18.8545 19.657 18.7105 19.7193 18.6243 19.8288C18.3985 20.11 18.4998 20.6065 18.8455 20.9118C18.9993 21.0453 19.2153 21.1263 19.4313 21.1263C19.6473 21.1263 19.8303 21.0453 19.945 20.8923C20.1468 20.62 20.0313 20.2338 19.6473 19.909C19.4598 19.747 19.2393 19.657 19.0278 19.657ZM20.935 18.2448C20.767 18.1968 20.6418 18.2305 20.5795 18.3453C20.4835 18.517 20.5555 18.8605 20.743 19.1613C20.935 19.4665 21.0985 19.6195 21.2283 19.6195C21.2718 19.6195 21.3145 19.6008 21.3438 19.5625C21.4158 19.477 21.4398 19.3045 21.4113 19.0803C21.3828 18.856 21.2425 18.388 20.935 18.2448Z" fill="white"/>
</g>
<defs>
<clipPath id="clip0_719_15902">
<rect width="30" height="30" fill="white"/>
</clipPath>
</defs>
</svg>
