<svg width="30" height="30" viewBox="0 0 30 30" fill="none" xmlns="http://www.w3.org/2000/svg">
<g clip-path="url(#clip0_719_15882)">
<path fill-rule="evenodd" clip-rule="evenodd" d="M15.0703 30C23.3548 30 30.0703 23.2845 30.0703 15C30.0703 6.7155 23.3541 0 15.0703 0C6.78581 0 0.0703125 6.7155 0.0703125 15C0.0703125 23.2845 6.78581 30 15.0703 30Z" fill="#F7F7F7"/>
<path d="M14.1677 3.75L14.0957 13.617L16.9045 15.273V8.5035L14.1677 3.75Z" fill="#FAB719"/>
<path d="M14.1648 15.9912V25.4975L16.9016 20.6V17.72L14.1648 15.9912Z" fill="#61B42C"/>
<path d="M24.1048 19.1639L6.82031 8.50488L9.41306 13.1144L19.2081 19.1639H24.1048Z" fill="#208BC9"/>
<path d="M14.1648 3.75L24.1038 9.7995H19.2063L16.9016 8.5035L14.1648 3.75Z" fill="#F77C1C"/>
<path d="M16.905 11.3553L19.209 9.7998H24.1065L16.9043 14.5533V11.3561L16.905 11.3553Z" fill="#D60B4C"/>
<path d="M16.9028 20.6002L19.2075 19.1602H24.105L14.166 25.4977L16.9028 20.6002Z" fill="#097F2D"/>
<path d="M6.82031 8.50488V20.6046L9.26906 16.1391L9.41306 13.1144L6.82031 8.50488Z" fill="#5B59A1"/>
<path d="M11.7463 14.5547L9.26906 16.1394L6.82031 20.6049L14.1666 15.9954L11.7463 14.5547Z" fill="#9F4393"/>
</g>
<defs>
<clipPath id="clip0_719_15882">
<rect width="30" height="30" fill="white"/>
</clipPath>
</defs>
</svg>
