<svg width="30" height="30" viewBox="0 0 30 30" fill="none" xmlns="http://www.w3.org/2000/svg">
<g clip-path="url(#clip0_719_15913)">
<path d="M30 15.0004C30 6.91814 23.2843 0.366211 15 0.366211C6.71573 0.366211 0 6.91814 0 15.0004C0 23.0826 6.71573 29.6345 15 29.6345C23.2843 29.6345 30 23.0826 30 15.0004Z" fill="white"/>
<path d="M19.9395 16.7172H21.3467C21.3869 16.7172 21.4807 16.7041 21.5209 16.7041C21.789 16.6517 22.0168 16.4164 22.0168 16.0896C22.0168 15.7757 21.789 15.5404 21.5209 15.475C21.4807 15.4619 21.4003 15.4619 21.3467 15.4619H19.9395V16.7172Z" fill="url(#paint0_linear_719_15913)"/>
<path d="M21.185 8.04883C19.8447 8.04883 18.7458 9.1079 18.7458 10.4285V12.8997H22.1901C22.2705 12.8997 22.3644 12.8997 22.4313 12.9128C23.2086 12.952 23.7849 13.3443 23.7849 14.0242C23.7849 14.5602 23.3963 15.0179 22.6726 15.1094V15.1356C23.4633 15.1879 24.0664 15.6194 24.0664 16.2862C24.0664 17.0053 23.3963 17.476 22.5117 17.476H18.7324V22.3138H22.3107C23.6509 22.3138 24.7499 21.2547 24.7499 19.9341V8.04883H21.185Z" fill="url(#paint1_linear_719_15913)"/>
<path d="M21.8426 14.1807C21.8426 13.867 21.6147 13.6578 21.3467 13.6186C21.3199 13.6186 21.2529 13.6055 21.2127 13.6055H19.9395V14.7561H21.2127C21.2529 14.7561 21.3333 14.7561 21.3467 14.743C21.6147 14.7038 21.8426 14.4946 21.8426 14.1807Z" fill="url(#paint2_linear_719_15913)"/>
<path d="M7.70257 8.04883C6.36237 8.04883 5.2634 9.1079 5.2634 10.4285V16.2993C5.94691 16.6261 6.65721 16.8353 7.36752 16.8353C8.21183 16.8353 8.66752 16.3385 8.66752 15.6586V12.8867H10.7582V15.6455C10.7582 16.7177 10.0748 17.5937 7.7562 17.5937C6.34897 17.5937 5.25 17.2929 5.25 17.2929V22.3007H8.82833C10.1685 22.3007 11.2675 21.2417 11.2675 19.9211V8.04883H7.70257Z" fill="url(#paint3_linear_719_15913)"/>
<path d="M14.4431 8.04883C13.1029 8.04883 12.0039 9.1079 12.0039 10.4285V13.5404C12.6204 13.0304 13.6926 12.7036 15.4214 12.782C16.3462 12.8212 17.3379 13.0697 17.3379 13.0697V14.0765C16.8421 13.8281 16.2524 13.6058 15.4885 13.5535C14.1751 13.4619 13.3844 14.0895 13.3844 15.1879C13.3844 16.2993 14.1751 16.9269 15.4885 16.8222C16.2524 16.77 16.8421 16.5346 17.3379 16.2993V17.306C17.3379 17.306 16.3596 17.5544 15.4214 17.5937C13.6926 17.6721 12.6204 17.3452 12.0039 16.8353V22.3269H15.5823C16.9225 22.3269 18.0215 21.2678 18.0215 19.9472V8.04883H14.4431Z" fill="url(#paint4_linear_719_15913)"/>
</g>
<defs>
<linearGradient id="paint0_linear_719_15913" x1="18.7445" y1="16.0911" x2="24.767" y2="16.0911" gradientUnits="userSpaceOnUse">
<stop stop-color="#007940"/>
<stop offset="0.2285" stop-color="#00873F"/>
<stop offset="0.7433" stop-color="#40A737"/>
<stop offset="1" stop-color="#5CB531"/>
</linearGradient>
<linearGradient id="paint1_linear_719_15913" x1="18.7434" y1="15.1756" x2="24.7663" y2="15.1756" gradientUnits="userSpaceOnUse">
<stop stop-color="#007940"/>
<stop offset="0.2285" stop-color="#00873F"/>
<stop offset="0.7433" stop-color="#40A737"/>
<stop offset="1" stop-color="#5CB531"/>
</linearGradient>
<linearGradient id="paint2_linear_719_15913" x1="18.7443" y1="14.1791" x2="24.7671" y2="14.1791" gradientUnits="userSpaceOnUse">
<stop stop-color="#007940"/>
<stop offset="0.2285" stop-color="#00873F"/>
<stop offset="0.7433" stop-color="#40A737"/>
<stop offset="1" stop-color="#5CB531"/>
</linearGradient>
<linearGradient id="paint3_linear_719_15913" x1="5.26059" y1="15.1757" x2="11.3763" y2="15.1757" gradientUnits="userSpaceOnUse">
<stop stop-color="#1F286F"/>
<stop offset="0.4751" stop-color="#004E94"/>
<stop offset="0.8261" stop-color="#0066B1"/>
<stop offset="1" stop-color="#006FBC"/>
</linearGradient>
<linearGradient id="paint4_linear_719_15913" x1="11.9693" y1="15.1756" x2="17.9091" y2="15.1756" gradientUnits="userSpaceOnUse">
<stop stop-color="#6C2C2F"/>
<stop offset="0.1735" stop-color="#882730"/>
<stop offset="0.5731" stop-color="#BE1833"/>
<stop offset="0.8585" stop-color="#DC0436"/>
<stop offset="1" stop-color="#E60039"/>
</linearGradient>
<clipPath id="clip0_719_15913">
<rect width="30" height="30" fill="white"/>
</clipPath>
</defs>
</svg>
