<svg width="30" height="30" viewBox="0 0 30 30" fill="none" xmlns="http://www.w3.org/2000/svg">
<g clip-path="url(#clip0_1077_185)">
<path fill-rule="evenodd" clip-rule="evenodd" d="M13.3359 1.13419L17.1281 3.32361L4.8334 10.4219V15.6819C4.8334 15.892 4.93758 16.0725 5.11963 16.1776L7.96951 17.823C8.06051 17.8755 8.16469 17.8755 8.25574 17.823C8.34674 17.7704 8.39883 17.6802 8.39883 17.5751V12.4805L20.6936 5.38212L24.4857 7.57154C24.8498 7.78171 25.0582 8.14265 25.0582 8.563V15.1425C24.0287 14.7952 22.9393 14.6079 21.8512 14.5415V14.1004C21.8512 13.6198 21.5769 13.1889 21.1414 12.9855C20.7061 12.7823 20.1994 12.8485 19.831 13.1568L15.4658 16.8103C15.1037 17.1134 14.9058 17.5553 14.921 18.0272C14.9361 18.5011 15.1602 18.9264 15.5425 19.2069L19.8929 22.3986C20.076 22.5337 20.2932 22.6151 20.5199 22.6337C20.7467 22.6524 20.9742 22.6075 21.1769 22.5042C21.593 22.2933 21.8512 21.873 21.8512 21.4066V20.9195C22.7567 21.0275 23.653 21.3059 24.389 21.8388C24.5313 21.9416 24.6664 22.0542 24.7931 22.1757C24.7089 22.2744 24.6058 22.36 24.4859 22.4293L13.3359 28.8666C12.9718 29.0768 12.5551 29.0768 12.191 28.8666L1.04121 22.4293C0.677109 22.2191 0.46875 21.8582 0.46875 21.4377V8.56306C0.46875 8.14265 0.677109 7.78171 1.04121 7.5716L12.1911 1.13419C12.5551 0.924019 12.9718 0.924019 13.3359 1.13419ZM20.9137 19.9277C27.0361 19.9277 28.7712 25.7754 23.7423 28.4037C23.729 28.4105 23.7188 28.4221 23.7139 28.4362C23.7089 28.4503 23.7095 28.4657 23.7156 28.4794C23.7274 28.5058 23.7554 28.5198 23.7835 28.5128C32.1387 26.4577 31.5546 15.4508 20.9137 15.4508V14.1004C20.9137 13.9839 20.8502 13.8843 20.7447 13.835C20.6392 13.7857 20.522 13.801 20.4327 13.8758L16.0675 17.5293C15.9248 17.6488 15.852 17.8113 15.8579 17.9974C15.8639 18.1834 15.9469 18.341 16.097 18.451L20.4475 21.6428C20.5387 21.7098 20.6522 21.7191 20.7531 21.668C20.8541 21.6168 20.9137 21.5198 20.9137 21.4066V19.9277Z" fill="#090909"/>
</g>
<defs>
<clipPath id="clip0_1077_185">
<rect width="30" height="30" fill="white"/>
</clipPath>
</defs>
</svg>
