<svg width="248" height="100" viewBox="0 0 248 100" fill="none" xmlns="http://www.w3.org/2000/svg">
<g clip-path="url(#clip0_2040_23909)">
<path d="M135.683 17C132.218 17.2397 128.168 19.4578 125.807 22.3463C123.654 24.9666 121.883 28.8584 122.574 32.6406C126.36 32.7584 130.272 30.4875 132.539 27.5503C134.659 24.8163 136.264 20.9488 135.683 17Z" fill="#090909"/>
<path d="M149.378 38.8074C146.051 34.6352 141.375 32.214 136.959 32.214C131.13 32.214 128.664 35.0049 124.613 35.0049C120.437 35.0049 117.264 32.2221 112.223 32.2221C107.271 32.2221 101.998 35.2487 98.6541 40.4243C93.9538 47.7123 94.7582 61.4151 102.375 73.0866C105.101 77.2628 108.741 81.959 113.502 81.9996C117.74 82.0403 118.934 79.2818 124.674 79.2534C130.415 79.2209 131.503 82.0362 135.732 81.9915C140.498 81.9549 144.337 76.7509 147.063 72.5747C149.017 69.5806 149.744 68.0735 151.259 64.6935C140.238 60.4969 138.47 44.8239 149.378 38.8074Z" fill="#090909"/>
</g>
<defs>
<clipPath id="clip0_2040_23909">
<rect width="65" height="65" fill="white" transform="translate(91 17)"/>
</clipPath>
</defs>
</svg>
